G04 #@! TF.FileFunction,Copper,L2,Bot,Signal*
%FSLAX46Y46*%
G04 Gerber Fmt 4.6, Leading zero omitted, Abs format (unit mm)*
G04 Created by KiCad (PCBNEW 4.0.6-e0-6349~53~ubuntu14.04.1) date Thu May  4 17:22:46 2017*
%MOMM*%
%LPD*%
G01*
G04 APERTURE LIST*
%ADD10C,0.100000*%
%ADD11C,1.700000*%
%ADD12O,1.700000X1.700000*%
%ADD13R,1.700000X1.700000*%
%ADD14C,2.750000*%
%ADD15C,0.250000*%
%ADD16C,1.000000*%
%ADD17C,0.400000*%
G04 APERTURE END LIST*
D10*
D11*
X113411000Y-81178400D03*
D12*
X110871000Y-81178400D03*
X108331000Y-81178400D03*
X105791000Y-81178400D03*
D13*
X99441000Y-68478400D03*
D12*
X99441000Y-71018400D03*
X101981000Y-68478400D03*
X101981000Y-71018400D03*
X104521000Y-68478400D03*
X104521000Y-71018400D03*
X107061000Y-68478400D03*
X107061000Y-71018400D03*
X109601000Y-68478400D03*
X109601000Y-71018400D03*
X112141000Y-68478400D03*
X112141000Y-71018400D03*
X114681000Y-68478400D03*
X114681000Y-71018400D03*
X117221000Y-68478400D03*
X117221000Y-71018400D03*
X119761000Y-68478400D03*
X119761000Y-71018400D03*
X122301000Y-68478400D03*
X122301000Y-71018400D03*
X124841000Y-68478400D03*
X124841000Y-71018400D03*
X127381000Y-68478400D03*
X127381000Y-71018400D03*
X129921000Y-68478400D03*
X129921000Y-71018400D03*
X132461000Y-68478400D03*
X132461000Y-71018400D03*
X135001000Y-68478400D03*
X135001000Y-71018400D03*
X137541000Y-68478400D03*
X137541000Y-71018400D03*
X140081000Y-68478400D03*
X140081000Y-71018400D03*
X142621000Y-68478400D03*
X142621000Y-71018400D03*
X145161000Y-68478400D03*
X145161000Y-71018400D03*
X147701000Y-68478400D03*
X147701000Y-71018400D03*
D13*
X124841000Y-104038400D03*
D12*
X124841000Y-106578400D03*
X124841000Y-109118400D03*
X124841000Y-111658400D03*
X124841000Y-114198400D03*
X124841000Y-116738400D03*
D14*
X152559000Y-69786000D03*
X94559000Y-118786000D03*
X94559000Y-69786000D03*
D13*
X132461000Y-104038400D03*
D12*
X132461000Y-106578400D03*
X132461000Y-109118400D03*
X132461000Y-111658400D03*
X132461000Y-114198400D03*
X132461000Y-116738400D03*
D11*
X105791000Y-104038400D03*
D12*
X108331000Y-104038400D03*
X110871000Y-104038400D03*
X113411000Y-104038400D03*
D11*
X105791000Y-106578400D03*
D12*
X108331000Y-106578400D03*
X110871000Y-106578400D03*
X113411000Y-106578400D03*
D11*
X105791000Y-109118400D03*
D12*
X108331000Y-109118400D03*
X110871000Y-109118400D03*
X113411000Y-109118400D03*
D11*
X105791000Y-114198400D03*
D12*
X108331000Y-114198400D03*
X110871000Y-114198400D03*
X113411000Y-114198400D03*
D11*
X113411000Y-116738400D03*
D12*
X110871000Y-116738400D03*
X108331000Y-116738400D03*
X105791000Y-116738400D03*
D11*
X113411000Y-78638400D03*
D12*
X110871000Y-78638400D03*
X108331000Y-78638400D03*
X105791000Y-78638400D03*
D11*
X113411000Y-92608400D03*
D12*
X110871000Y-92608400D03*
X108331000Y-92608400D03*
X105791000Y-92608400D03*
D11*
X113411000Y-95148400D03*
D12*
X110871000Y-95148400D03*
X108331000Y-95148400D03*
X105791000Y-95148400D03*
D11*
X124841000Y-90068400D03*
D12*
X124841000Y-92608400D03*
X124841000Y-95148400D03*
X124841000Y-97688400D03*
D11*
X132461000Y-77368400D03*
D12*
X129921000Y-77368400D03*
X127381000Y-77368400D03*
X124841000Y-77368400D03*
D11*
X132461000Y-83718400D03*
D12*
X129921000Y-83718400D03*
X127381000Y-83718400D03*
X124841000Y-83718400D03*
D11*
X147701000Y-77368400D03*
D12*
X145161000Y-77368400D03*
X142621000Y-77368400D03*
X140081000Y-77368400D03*
D11*
X147701000Y-83718400D03*
D12*
X145161000Y-83718400D03*
X142621000Y-83718400D03*
X140081000Y-83718400D03*
D11*
X132461000Y-90068400D03*
D12*
X132461000Y-92608400D03*
X132461000Y-95148400D03*
X132461000Y-97688400D03*
D11*
X147701000Y-97688400D03*
D12*
X145161000Y-97688400D03*
X142621000Y-97688400D03*
X140081000Y-97688400D03*
D11*
X147701000Y-90068400D03*
D12*
X145161000Y-90068400D03*
X142621000Y-90068400D03*
X140081000Y-90068400D03*
D13*
X100711000Y-78638400D03*
D12*
X100711000Y-81178400D03*
D15*
X100711000Y-81178400D02*
X105791000Y-81178400D01*
X130556000Y-66573400D02*
X129286000Y-66573400D01*
X128651000Y-67208400D02*
X128651000Y-67843400D01*
X129286000Y-66573400D02*
X128651000Y-67208400D01*
X129921000Y-71018400D02*
X129921000Y-70993000D01*
X129921000Y-70993000D02*
X128651000Y-69723000D01*
X128651000Y-69723000D02*
X128651000Y-67843400D01*
X109601000Y-71018400D02*
X109601000Y-70383400D01*
X109601000Y-70383400D02*
X108331000Y-69113400D01*
X108331000Y-66573400D02*
X108966000Y-66573400D01*
X108331000Y-67208400D02*
X108331000Y-66573400D01*
X108331000Y-69113400D02*
X108331000Y-67208400D01*
X124841000Y-116738400D02*
X122301000Y-116738400D01*
X120396000Y-102133400D02*
X124841000Y-97688400D01*
X120396000Y-114833400D02*
X120396000Y-102133400D01*
X122301000Y-116738400D02*
X120396000Y-114833400D01*
X113411000Y-95148400D02*
X115316000Y-95148400D01*
X115316000Y-95148400D02*
X117856000Y-97688400D01*
X124841000Y-97688400D02*
X117856000Y-97688400D01*
X105791000Y-81178400D02*
X113411000Y-81178400D01*
X113411000Y-81178400D02*
X115951000Y-83718400D01*
X115951000Y-94513400D02*
X115316000Y-95148400D01*
X115951000Y-83718400D02*
X115951000Y-94513400D01*
X114681000Y-68478400D02*
X112776000Y-66573400D01*
X112776000Y-66573400D02*
X113411000Y-66573400D01*
X104521000Y-68478400D02*
X104521000Y-67208400D01*
X104521000Y-67208400D02*
X105156000Y-66573400D01*
X105791000Y-95148400D02*
X103251000Y-95148400D01*
X103251000Y-95148400D02*
X98171000Y-90068400D01*
X98171000Y-90068400D02*
X98171000Y-67208400D01*
X98171000Y-67208400D02*
X98806000Y-66573400D01*
X98806000Y-66573400D02*
X105156000Y-66573400D01*
X148336000Y-66573400D02*
X148336000Y-66548000D01*
X113411000Y-66573400D02*
X129921000Y-66573400D01*
X129921000Y-66573400D02*
X130556000Y-66573400D01*
X130556000Y-66573400D02*
X148336000Y-66573400D01*
X105156000Y-66573400D02*
X108966000Y-66573400D01*
X108966000Y-66573400D02*
X113411000Y-66573400D01*
X113411000Y-95148400D02*
X105791000Y-95148400D01*
X132461000Y-97688400D02*
X124841000Y-97688400D01*
X140081000Y-97688400D02*
X132461000Y-97688400D01*
X140081000Y-90068400D02*
X140081000Y-97688400D01*
X132461000Y-116738400D02*
X124841000Y-116738400D01*
X122301000Y-68478400D02*
X122301000Y-67056000D01*
X122301000Y-67056000D02*
X122809000Y-66548000D01*
X104521000Y-68478400D02*
X104521000Y-68326000D01*
X129921000Y-70993000D02*
X128651000Y-69723000D01*
X135001000Y-68478400D02*
X135001000Y-67056000D01*
X135001000Y-67056000D02*
X134620000Y-66675000D01*
X140081000Y-68478400D02*
X140081000Y-67183000D01*
X140081000Y-67183000D02*
X139446000Y-66548000D01*
X114681000Y-68478400D02*
X114681000Y-68326000D01*
X114681000Y-68326000D02*
X116459000Y-66548000D01*
X116459000Y-66548000D02*
X122809000Y-66548000D01*
X149098000Y-69621400D02*
X147701000Y-71018400D01*
X148336000Y-66548000D02*
X148590000Y-66548000D01*
X148590000Y-66548000D02*
X149098000Y-67056000D01*
X149098000Y-67056000D02*
X149098000Y-69621400D01*
X122809000Y-66548000D02*
X139446000Y-66548000D01*
X139446000Y-66548000D02*
X148336000Y-66548000D01*
X104521000Y-68478400D02*
X104521000Y-68072000D01*
X140081000Y-90170000D02*
X140081000Y-97790000D01*
X129921000Y-83718400D02*
X129921000Y-82448400D01*
X146431000Y-69748400D02*
X147701000Y-68478400D01*
X146431000Y-73558400D02*
X146431000Y-69748400D01*
X145796000Y-74193400D02*
X146431000Y-73558400D01*
X140716000Y-74193400D02*
X145796000Y-74193400D01*
X134366000Y-80543400D02*
X140716000Y-74193400D01*
X131826000Y-80543400D02*
X134366000Y-80543400D01*
X129921000Y-82448400D02*
X131826000Y-80543400D01*
X147701000Y-68478400D02*
X147675600Y-68478400D01*
X127381000Y-83718400D02*
X127381000Y-81813400D01*
X143891000Y-69748400D02*
X145161000Y-68478400D01*
X143891000Y-72288400D02*
X143891000Y-69748400D01*
X142621000Y-73558400D02*
X143891000Y-72288400D01*
X140081000Y-73558400D02*
X142621000Y-73558400D01*
X133731000Y-79908400D02*
X140081000Y-73558400D01*
X129286000Y-79908400D02*
X133731000Y-79908400D01*
X128651000Y-80543400D02*
X129286000Y-79908400D01*
X127381000Y-81813400D02*
X128651000Y-80543400D01*
X142621000Y-83718400D02*
X142621000Y-82448400D01*
X118491000Y-69748400D02*
X119761000Y-68478400D01*
X116586000Y-69748400D02*
X118491000Y-69748400D01*
X115951000Y-70383400D02*
X116586000Y-69748400D01*
X115951000Y-71653400D02*
X115951000Y-70383400D01*
X121666000Y-77368400D02*
X115951000Y-71653400D01*
X121666000Y-84988400D02*
X121666000Y-77368400D01*
X122936000Y-86258400D02*
X121666000Y-84988400D01*
X132461000Y-86258400D02*
X122936000Y-86258400D01*
X136906000Y-81813400D02*
X132461000Y-86258400D01*
X141986000Y-81813400D02*
X136906000Y-81813400D01*
X142621000Y-82448400D02*
X141986000Y-81813400D01*
X119761000Y-68478400D02*
X119913400Y-68478400D01*
X119761000Y-68478400D02*
X119761000Y-68580000D01*
X123571000Y-69723000D02*
X123571000Y-76098400D01*
X123571000Y-76098400D02*
X122936000Y-76733400D01*
X122936000Y-76733400D02*
X122936000Y-83718400D01*
X122936000Y-83718400D02*
X124206000Y-84988400D01*
X124206000Y-84988400D02*
X130784600Y-84988400D01*
X130784600Y-84988400D02*
X131191000Y-84582000D01*
X136271000Y-79908400D02*
X142900400Y-79908400D01*
X135001000Y-81178400D02*
X136271000Y-79908400D01*
X132461000Y-81178400D02*
X135001000Y-81178400D01*
X131191000Y-82448400D02*
X132461000Y-81178400D01*
X131191000Y-84582000D02*
X131191000Y-82448400D01*
X131191000Y-82448400D02*
X131191000Y-82448400D01*
X145161000Y-83566000D02*
X145161000Y-82169000D01*
X145161000Y-82169000D02*
X142900400Y-79908400D01*
X124841000Y-68478400D02*
X124815600Y-68478400D01*
X124815600Y-68478400D02*
X123571000Y-69723000D01*
X124815600Y-68478400D02*
X123571000Y-69723000D01*
X145161000Y-83566000D02*
X145161000Y-82804000D01*
X132461000Y-77368400D02*
X132461000Y-76098400D01*
X138811000Y-69748400D02*
X137541000Y-68478400D01*
X138811000Y-72288400D02*
X138811000Y-69748400D01*
X136271000Y-74828400D02*
X138811000Y-72288400D01*
X133731000Y-74828400D02*
X136271000Y-74828400D01*
X132461000Y-76098400D02*
X133731000Y-74828400D01*
X132461000Y-77368400D02*
X132461000Y-76733400D01*
X137541000Y-68478400D02*
X137693400Y-68478400D01*
X149606000Y-85623400D02*
X150241000Y-84988400D01*
X110871000Y-69748400D02*
X110871000Y-72923400D01*
X110871000Y-72923400D02*
X112776000Y-74828400D01*
X112776000Y-74828400D02*
X115316000Y-74828400D01*
X115316000Y-74828400D02*
X119761000Y-79273400D01*
X119761000Y-79273400D02*
X119761000Y-86893400D01*
X119761000Y-86893400D02*
X121031000Y-88163400D01*
X121031000Y-88163400D02*
X134366000Y-88163400D01*
X134366000Y-88163400D02*
X136906000Y-85623400D01*
X136906000Y-85623400D02*
X149606000Y-85623400D01*
X112141000Y-68478400D02*
X110871000Y-69748400D01*
X150241000Y-79908400D02*
X147701000Y-77368400D01*
X150241000Y-84988400D02*
X150241000Y-79908400D01*
X147701000Y-77216000D02*
X147828000Y-77216000D01*
X147701000Y-77216000D02*
X147701000Y-77216000D01*
X117221000Y-68478400D02*
X116586000Y-68478400D01*
X116586000Y-68478400D02*
X115316000Y-69748400D01*
X136271000Y-83718400D02*
X140081000Y-83718400D01*
X133096000Y-86893400D02*
X136271000Y-83718400D01*
X122301000Y-86893400D02*
X133096000Y-86893400D01*
X121031000Y-85623400D02*
X122301000Y-86893400D01*
X121031000Y-78003400D02*
X121031000Y-85623400D01*
X115951000Y-72923400D02*
X121031000Y-78003400D01*
X114046000Y-72923400D02*
X115951000Y-72923400D01*
X113411000Y-72288400D02*
X114046000Y-72923400D01*
X113411000Y-70383400D02*
X113411000Y-72288400D01*
X114046000Y-69748400D02*
X113411000Y-70383400D01*
X115316000Y-69748400D02*
X114046000Y-69748400D01*
X117221000Y-68478400D02*
X117195600Y-68478400D01*
X100711000Y-78638400D02*
X105791000Y-78638400D01*
X100711000Y-78638400D02*
X100711000Y-74828400D01*
X132461000Y-114198400D02*
X133731000Y-114198400D01*
X142621000Y-99593400D02*
X142621000Y-97688400D01*
X141986000Y-100228400D02*
X142621000Y-99593400D01*
X136271000Y-100228400D02*
X141986000Y-100228400D01*
X134366000Y-102133400D02*
X136271000Y-100228400D01*
X134366000Y-113563400D02*
X134366000Y-102133400D01*
X133731000Y-114198400D02*
X134366000Y-113563400D01*
X124841000Y-95148400D02*
X119761000Y-95148400D01*
X119761000Y-95148400D02*
X116586000Y-91973400D01*
X116586000Y-91973400D02*
X116586000Y-81813400D01*
X116586000Y-81813400D02*
X113411000Y-78638400D01*
X142621000Y-90068400D02*
X142621000Y-97688400D01*
X132461000Y-114198400D02*
X124841000Y-114198400D01*
X105791000Y-78638400D02*
X103886000Y-78638400D01*
X100711000Y-75463400D02*
X100711000Y-74828400D01*
X100711000Y-74828400D02*
X100711000Y-69748400D01*
X100711000Y-69748400D02*
X99441000Y-68478400D01*
X113411000Y-78638400D02*
X110871000Y-78638400D01*
X110871000Y-78638400D02*
X108331000Y-78638400D01*
X108331000Y-78638400D02*
X105791000Y-78638400D01*
X100711000Y-69748400D02*
X99441000Y-68478400D01*
X142621000Y-90170000D02*
X142621000Y-88900000D01*
X134899400Y-95250000D02*
X132461000Y-95250000D01*
X136144000Y-94005400D02*
X134899400Y-95250000D01*
X136144000Y-90195400D02*
X136144000Y-94005400D01*
X138074400Y-88265000D02*
X136144000Y-90195400D01*
X141986000Y-88265000D02*
X138074400Y-88265000D01*
X142621000Y-88900000D02*
X141986000Y-88265000D01*
X101981000Y-68478400D02*
X99441000Y-68478400D01*
X100711000Y-69748400D02*
X99441000Y-68478400D01*
X132461000Y-95250000D02*
X124841000Y-95250000D01*
X142621000Y-90170000D02*
X142621000Y-97790000D01*
X129921000Y-79273400D02*
X133096000Y-79273400D01*
X133096000Y-79273400D02*
X134366000Y-78003400D01*
X142621000Y-71018400D02*
X142621000Y-71653400D01*
X142621000Y-71653400D02*
X141351000Y-72923400D01*
X139446000Y-72923400D02*
X134366000Y-78003400D01*
X141351000Y-72923400D02*
X139446000Y-72923400D01*
X124841000Y-83718400D02*
X124841000Y-80543400D01*
X126111000Y-79273400D02*
X129921000Y-79273400D01*
X124841000Y-80543400D02*
X126111000Y-79273400D01*
X142621000Y-71018400D02*
X142621000Y-71120000D01*
X135001000Y-71018400D02*
X135001000Y-72288400D01*
X133731000Y-73558400D02*
X132461000Y-73558400D01*
X135001000Y-72288400D02*
X133731000Y-73558400D01*
X127381000Y-77368400D02*
X127381000Y-74828400D01*
X128651000Y-73558400D02*
X132461000Y-73558400D01*
X127381000Y-74828400D02*
X128651000Y-73558400D01*
X129921000Y-77368400D02*
X129921000Y-75463400D01*
X137541000Y-72288400D02*
X137541000Y-71018400D01*
X135636000Y-74193400D02*
X137541000Y-72288400D01*
X131191000Y-74193400D02*
X135636000Y-74193400D01*
X129921000Y-75463400D02*
X131191000Y-74193400D01*
X132461000Y-109118400D02*
X124841000Y-109118400D01*
X132461000Y-106578400D02*
X124841000Y-106578400D01*
X132461000Y-104038400D02*
X124841000Y-104038400D01*
X145161000Y-90068400D02*
X145161000Y-87528400D01*
X121031000Y-91338400D02*
X133731000Y-91338400D01*
X118491000Y-88798400D02*
X121031000Y-91338400D01*
X118491000Y-80543400D02*
X118491000Y-88798400D01*
X114046000Y-76098400D02*
X118491000Y-80543400D01*
X106426000Y-76098400D02*
X114046000Y-76098400D01*
X106426000Y-76098400D02*
X101981000Y-71653400D01*
X138176000Y-86893400D02*
X133731000Y-91338400D01*
X144526000Y-86893400D02*
X138176000Y-86893400D01*
X145161000Y-87528400D02*
X144526000Y-86893400D01*
X101981000Y-71018400D02*
X101981000Y-71653400D01*
X145161000Y-90068400D02*
X145161000Y-97688400D01*
X145161000Y-90170000D02*
X145161000Y-97790000D01*
X110871000Y-92608400D02*
X108331000Y-92608400D01*
X110871000Y-92608400D02*
X113411000Y-92608400D01*
X99441000Y-71018400D02*
X99441000Y-88163400D01*
X103886000Y-92608400D02*
X105791000Y-92608400D01*
X99441000Y-88163400D02*
X103886000Y-92608400D01*
X105791000Y-92608400D02*
X108331000Y-92608400D01*
X147701000Y-90068400D02*
X147701000Y-86893400D01*
X108966000Y-75463400D02*
X104521000Y-71018400D01*
X114681000Y-75463400D02*
X108966000Y-75463400D01*
X119126000Y-79908400D02*
X114681000Y-75463400D01*
X119126000Y-87528400D02*
X119126000Y-79908400D01*
X120396000Y-88798400D02*
X119126000Y-87528400D01*
X135001000Y-88798400D02*
X120396000Y-88798400D01*
X137541000Y-86258400D02*
X135001000Y-88798400D01*
X147066000Y-86258400D02*
X137541000Y-86258400D01*
X147701000Y-86893400D02*
X147066000Y-86258400D01*
X147701000Y-90068400D02*
X147701000Y-97688400D01*
X104521000Y-71120000D02*
X104521000Y-71018400D01*
X147701000Y-97790000D02*
X147701000Y-90170000D01*
X132461000Y-83718400D02*
X132461000Y-84988400D01*
X122301000Y-76733400D02*
X117221000Y-71653400D01*
X122301000Y-84353400D02*
X122301000Y-76733400D01*
X123571000Y-85623400D02*
X122301000Y-84353400D01*
X131826000Y-85623400D02*
X123571000Y-85623400D01*
X132461000Y-84988400D02*
X131826000Y-85623400D01*
X117221000Y-71653400D02*
X117221000Y-71247000D01*
X145161000Y-77368400D02*
X145161000Y-78638400D01*
X148971000Y-84988400D02*
X144526000Y-84988400D01*
X149606000Y-84353400D02*
X148971000Y-84988400D01*
X149606000Y-80543400D02*
X149606000Y-84353400D01*
X148336000Y-79273400D02*
X149606000Y-80543400D01*
X145796000Y-79273400D02*
X148336000Y-79273400D01*
X145161000Y-78638400D02*
X145796000Y-79273400D01*
X115316000Y-73558400D02*
X120396000Y-78638400D01*
X120396000Y-78638400D02*
X120396000Y-86258400D01*
X120396000Y-86258400D02*
X121031000Y-86893400D01*
X113411000Y-73558400D02*
X115316000Y-73558400D01*
X112141000Y-72288400D02*
X113411000Y-73558400D01*
X112141000Y-72288400D02*
X112141000Y-71018400D01*
X121666000Y-87528400D02*
X121031000Y-86893400D01*
X133731000Y-87528400D02*
X121666000Y-87528400D01*
X136271000Y-84988400D02*
X133731000Y-87528400D01*
X144526000Y-84988400D02*
X136271000Y-84988400D01*
D16*
X105791000Y-104038400D02*
X105791000Y-109118400D01*
X113411000Y-114198400D02*
X105791000Y-114198400D01*
X113411000Y-116738400D02*
X110871000Y-116738400D01*
X110871000Y-116738400D02*
X108331000Y-116738400D01*
X108331000Y-116738400D02*
X105791000Y-116738400D01*
X108331000Y-104038400D02*
X108331000Y-106578400D01*
X108331000Y-106578400D02*
X108331000Y-109118400D01*
X110871000Y-106578400D02*
X110871000Y-109118400D01*
X110871000Y-104038400D02*
X110871000Y-106578400D01*
X113411000Y-106578400D02*
X113411000Y-109118400D01*
X113411000Y-104038400D02*
X113411000Y-106578400D01*
D17*
G36*
X150692142Y-66986765D02*
X149763027Y-67914259D01*
X149259574Y-69126710D01*
X149258428Y-70439531D01*
X149759765Y-71652858D01*
X150687259Y-72581973D01*
X151899710Y-73085426D01*
X153212531Y-73086572D01*
X154425858Y-72585235D01*
X155309000Y-71703634D01*
X155309000Y-99212131D01*
X155124154Y-100141415D01*
X154639600Y-100866600D01*
X153914414Y-101351155D01*
X152985131Y-101536000D01*
X137059000Y-101536000D01*
X136986550Y-101550411D01*
X136912683Y-101550411D01*
X136530000Y-101626531D01*
X136529999Y-101626531D01*
X136495160Y-101640962D01*
X136259639Y-101738517D01*
X136259636Y-101738520D01*
X135935218Y-101955290D01*
X135935215Y-101955291D01*
X135868141Y-102022365D01*
X135728290Y-102162215D01*
X135728290Y-102162216D01*
X135511520Y-102486637D01*
X135511517Y-102486640D01*
X135470626Y-102585361D01*
X135399530Y-102757000D01*
X135399530Y-102757005D01*
X135323411Y-103139683D01*
X135323411Y-103213550D01*
X135309000Y-103286000D01*
X135309000Y-119212131D01*
X135124154Y-120141415D01*
X134639600Y-120866600D01*
X133914414Y-121351155D01*
X132985131Y-121536000D01*
X96475179Y-121536000D01*
X97354973Y-120657741D01*
X97858426Y-119445290D01*
X97859572Y-118132469D01*
X97358235Y-116919142D01*
X96430741Y-115990027D01*
X95218290Y-115486574D01*
X93905469Y-115485428D01*
X92692142Y-115986765D01*
X91809000Y-116868366D01*
X91809000Y-103859868D01*
X91841605Y-103695951D01*
X91892613Y-103619613D01*
X91968952Y-103568605D01*
X92132868Y-103536000D01*
X95059000Y-103536000D01*
X95131450Y-103521589D01*
X95205317Y-103521589D01*
X95587995Y-103445470D01*
X95588000Y-103445470D01*
X95723180Y-103389476D01*
X95858360Y-103333483D01*
X95858363Y-103333480D01*
X96182782Y-103116711D01*
X96182785Y-103116710D01*
X96320584Y-102978910D01*
X96389709Y-102909785D01*
X96389710Y-102909782D01*
X96606480Y-102585364D01*
X96606483Y-102585361D01*
X96695968Y-102369322D01*
X96718469Y-102315001D01*
X96718469Y-102315000D01*
X96794589Y-101932317D01*
X96794589Y-101858450D01*
X96809000Y-101786000D01*
X96809000Y-101498400D01*
X102416000Y-101498400D01*
X102416000Y-119278400D01*
X102429678Y-119351091D01*
X102472638Y-119417854D01*
X102538189Y-119462643D01*
X102616000Y-119478400D01*
X115951000Y-119478400D01*
X116023691Y-119464722D01*
X116090454Y-119421762D01*
X116135243Y-119356211D01*
X116151000Y-119278400D01*
X116151000Y-116985811D01*
X123310873Y-116985811D01*
X123332667Y-117095376D01*
X123584091Y-117645417D01*
X124026868Y-118057373D01*
X124593589Y-118268527D01*
X124836000Y-118113392D01*
X124836000Y-116743400D01*
X124846000Y-116743400D01*
X124846000Y-118113392D01*
X125088411Y-118268527D01*
X125655132Y-118057373D01*
X126097909Y-117645417D01*
X126349333Y-117095376D01*
X126371127Y-116985811D01*
X130930873Y-116985811D01*
X130952667Y-117095376D01*
X131204091Y-117645417D01*
X131646868Y-118057373D01*
X132213589Y-118268527D01*
X132456000Y-118113392D01*
X132456000Y-116743400D01*
X132466000Y-116743400D01*
X132466000Y-118113392D01*
X132708411Y-118268527D01*
X133275132Y-118057373D01*
X133717909Y-117645417D01*
X133969333Y-117095376D01*
X133991127Y-116985811D01*
X133835991Y-116743400D01*
X132466000Y-116743400D01*
X132456000Y-116743400D01*
X131086009Y-116743400D01*
X130930873Y-116985811D01*
X126371127Y-116985811D01*
X126215991Y-116743400D01*
X124846000Y-116743400D01*
X124836000Y-116743400D01*
X123466009Y-116743400D01*
X123310873Y-116985811D01*
X116151000Y-116985811D01*
X116151000Y-101498400D01*
X116137322Y-101425709D01*
X116094362Y-101358946D01*
X116028811Y-101314157D01*
X115951000Y-101298400D01*
X102616000Y-101298400D01*
X102543309Y-101312078D01*
X102476546Y-101355038D01*
X102431757Y-101420589D01*
X102416000Y-101498400D01*
X96809000Y-101498400D01*
X96809000Y-97935811D01*
X123310873Y-97935811D01*
X123332667Y-98045376D01*
X123584091Y-98595417D01*
X124026868Y-99007373D01*
X124593589Y-99218527D01*
X124836000Y-99063392D01*
X124836000Y-97693400D01*
X124846000Y-97693400D01*
X124846000Y-99063392D01*
X125088411Y-99218527D01*
X125655132Y-99007373D01*
X126097909Y-98595417D01*
X126349333Y-98045376D01*
X126371127Y-97935811D01*
X130930873Y-97935811D01*
X130952667Y-98045376D01*
X131204091Y-98595417D01*
X131646868Y-99007373D01*
X132213589Y-99218527D01*
X132456000Y-99063392D01*
X132456000Y-97693400D01*
X132466000Y-97693400D01*
X132466000Y-99063392D01*
X132708411Y-99218527D01*
X133275132Y-99007373D01*
X133717909Y-98595417D01*
X133969333Y-98045376D01*
X133991127Y-97935811D01*
X138550873Y-97935811D01*
X138762027Y-98502532D01*
X139173983Y-98945309D01*
X139724024Y-99196733D01*
X139833589Y-99218527D01*
X140076000Y-99063391D01*
X140076000Y-97693400D01*
X138706008Y-97693400D01*
X138550873Y-97935811D01*
X133991127Y-97935811D01*
X133835991Y-97693400D01*
X132466000Y-97693400D01*
X132456000Y-97693400D01*
X131086009Y-97693400D01*
X130930873Y-97935811D01*
X126371127Y-97935811D01*
X126215991Y-97693400D01*
X124846000Y-97693400D01*
X124836000Y-97693400D01*
X123466009Y-97693400D01*
X123310873Y-97935811D01*
X96809000Y-97935811D01*
X96809000Y-95395811D01*
X104260873Y-95395811D01*
X104472027Y-95962532D01*
X104883983Y-96405309D01*
X105434024Y-96656733D01*
X105543589Y-96678527D01*
X105786000Y-96523391D01*
X105786000Y-95153400D01*
X105796000Y-95153400D01*
X105796000Y-96523391D01*
X106038411Y-96678527D01*
X106147976Y-96656733D01*
X106698017Y-96405309D01*
X107061000Y-96015169D01*
X107423983Y-96405309D01*
X107974024Y-96656733D01*
X108083589Y-96678527D01*
X108326000Y-96523391D01*
X108326000Y-95153400D01*
X108336000Y-95153400D01*
X108336000Y-96523391D01*
X108578411Y-96678527D01*
X108687976Y-96656733D01*
X109238017Y-96405309D01*
X109601000Y-96015169D01*
X109963983Y-96405309D01*
X110514024Y-96656733D01*
X110623589Y-96678527D01*
X110866000Y-96523391D01*
X110866000Y-95153400D01*
X108336000Y-95153400D01*
X108326000Y-95153400D01*
X105796000Y-95153400D01*
X105786000Y-95153400D01*
X104416008Y-95153400D01*
X104260873Y-95395811D01*
X96809000Y-95395811D01*
X96809000Y-86786000D01*
X96794589Y-86713550D01*
X96794589Y-86639683D01*
X96718469Y-86257000D01*
X96718469Y-86256998D01*
X96666361Y-86131199D01*
X96606483Y-85986639D01*
X96606480Y-85986636D01*
X96389709Y-85662216D01*
X96389709Y-85662215D01*
X96263494Y-85536000D01*
X96182785Y-85455290D01*
X96182782Y-85455289D01*
X95858363Y-85238520D01*
X95858360Y-85238517D01*
X95713224Y-85178400D01*
X95588000Y-85126530D01*
X95587995Y-85126530D01*
X95205317Y-85050411D01*
X95131450Y-85050411D01*
X95059000Y-85036000D01*
X92132868Y-85036000D01*
X91968952Y-85003395D01*
X91892613Y-84952387D01*
X91841605Y-84876049D01*
X91809000Y-84712132D01*
X91809000Y-71702179D01*
X92687259Y-72581973D01*
X93899710Y-73085426D01*
X95212531Y-73086572D01*
X96425858Y-72585235D01*
X97354973Y-71657741D01*
X97858426Y-70445290D01*
X97859572Y-69132469D01*
X97358235Y-67919142D01*
X97068001Y-67628400D01*
X97877287Y-67628400D01*
X97877287Y-69328400D01*
X97926097Y-69587804D01*
X98079405Y-69826051D01*
X98292002Y-69971312D01*
X98008987Y-70394875D01*
X97891000Y-70988034D01*
X97891000Y-71048766D01*
X98008987Y-71641925D01*
X98344984Y-72144782D01*
X98616000Y-72325868D01*
X98616000Y-88163400D01*
X98678799Y-88479114D01*
X98857637Y-88746763D01*
X103302637Y-93191763D01*
X103570286Y-93370601D01*
X103886000Y-93433400D01*
X104493608Y-93433400D01*
X104694984Y-93734782D01*
X104911020Y-93879132D01*
X104883983Y-93891491D01*
X104472027Y-94334268D01*
X104260873Y-94900989D01*
X104416008Y-95143400D01*
X105786000Y-95143400D01*
X105786000Y-95123400D01*
X105796000Y-95123400D01*
X105796000Y-95143400D01*
X108326000Y-95143400D01*
X108326000Y-95123400D01*
X108336000Y-95123400D01*
X108336000Y-95143400D01*
X110866000Y-95143400D01*
X110866000Y-95123400D01*
X110876000Y-95123400D01*
X110876000Y-95143400D01*
X110896000Y-95143400D01*
X110896000Y-95153400D01*
X110876000Y-95153400D01*
X110876000Y-96523391D01*
X111118411Y-96678527D01*
X111227976Y-96656733D01*
X111778017Y-96405309D01*
X112019580Y-96145673D01*
X112420798Y-96145673D01*
X112486134Y-96429875D01*
X113046935Y-96686260D01*
X113663161Y-96708519D01*
X114240997Y-96493264D01*
X114335866Y-96429875D01*
X114401202Y-96145673D01*
X113411000Y-95155471D01*
X112420798Y-96145673D01*
X112019580Y-96145673D01*
X112111728Y-96046631D01*
X112129525Y-96073266D01*
X112413727Y-96138602D01*
X113403929Y-95148400D01*
X113418071Y-95148400D01*
X114408273Y-96138602D01*
X114692475Y-96073266D01*
X114948860Y-95512465D01*
X114971119Y-94896239D01*
X114755864Y-94318403D01*
X114692475Y-94223534D01*
X114408273Y-94158198D01*
X113418071Y-95148400D01*
X113403929Y-95148400D01*
X112413727Y-94158198D01*
X112129525Y-94223534D01*
X112115496Y-94254219D01*
X111778017Y-93891491D01*
X111750980Y-93879132D01*
X111967016Y-93734782D01*
X112118693Y-93507781D01*
X112484463Y-93874192D01*
X112420798Y-94151127D01*
X113411000Y-95141329D01*
X114401202Y-94151127D01*
X114337426Y-93873710D01*
X114724260Y-93487551D01*
X114960730Y-92918067D01*
X114961268Y-92301439D01*
X114725792Y-91731543D01*
X114290151Y-91295140D01*
X113720667Y-91058670D01*
X113104039Y-91058132D01*
X112534143Y-91293608D01*
X112118418Y-91708607D01*
X111967016Y-91482018D01*
X111464159Y-91146021D01*
X110871000Y-91028034D01*
X110277841Y-91146021D01*
X109774984Y-91482018D01*
X109601000Y-91742404D01*
X109427016Y-91482018D01*
X108924159Y-91146021D01*
X108331000Y-91028034D01*
X107737841Y-91146021D01*
X107234984Y-91482018D01*
X107061000Y-91742404D01*
X106887016Y-91482018D01*
X106384159Y-91146021D01*
X105791000Y-91028034D01*
X105197841Y-91146021D01*
X104694984Y-91482018D01*
X104493608Y-91783400D01*
X104227726Y-91783400D01*
X100266000Y-87821674D01*
X100266000Y-82634908D01*
X100463589Y-82708527D01*
X100706000Y-82553392D01*
X100706000Y-81183400D01*
X100716000Y-81183400D01*
X100716000Y-82553392D01*
X100958411Y-82708527D01*
X101525132Y-82497373D01*
X101967909Y-82085417D01*
X102219333Y-81535376D01*
X102241127Y-81425811D01*
X104260873Y-81425811D01*
X104472027Y-81992532D01*
X104883983Y-82435309D01*
X105434024Y-82686733D01*
X105543589Y-82708527D01*
X105786000Y-82553391D01*
X105786000Y-81183400D01*
X105796000Y-81183400D01*
X105796000Y-82553391D01*
X106038411Y-82708527D01*
X106147976Y-82686733D01*
X106698017Y-82435309D01*
X107061000Y-82045169D01*
X107423983Y-82435309D01*
X107974024Y-82686733D01*
X108083589Y-82708527D01*
X108326000Y-82553391D01*
X108326000Y-81183400D01*
X108336000Y-81183400D01*
X108336000Y-82553391D01*
X108578411Y-82708527D01*
X108687976Y-82686733D01*
X109238017Y-82435309D01*
X109601000Y-82045169D01*
X109963983Y-82435309D01*
X110514024Y-82686733D01*
X110623589Y-82708527D01*
X110866000Y-82553391D01*
X110866000Y-81183400D01*
X108336000Y-81183400D01*
X108326000Y-81183400D01*
X105796000Y-81183400D01*
X105786000Y-81183400D01*
X104416008Y-81183400D01*
X104260873Y-81425811D01*
X102241127Y-81425811D01*
X102085991Y-81183400D01*
X100716000Y-81183400D01*
X100706000Y-81183400D01*
X100686000Y-81183400D01*
X100686000Y-81173400D01*
X100706000Y-81173400D01*
X100706000Y-81153400D01*
X100716000Y-81153400D01*
X100716000Y-81173400D01*
X102085991Y-81173400D01*
X102241127Y-80930989D01*
X102219333Y-80821424D01*
X101967909Y-80271383D01*
X101832576Y-80145470D01*
X102058651Y-79999995D01*
X102218482Y-79766074D01*
X102274713Y-79488400D01*
X102274713Y-79463400D01*
X104493608Y-79463400D01*
X104694984Y-79764782D01*
X104911020Y-79909132D01*
X104883983Y-79921491D01*
X104472027Y-80364268D01*
X104260873Y-80930989D01*
X104416008Y-81173400D01*
X105786000Y-81173400D01*
X105786000Y-81153400D01*
X105796000Y-81153400D01*
X105796000Y-81173400D01*
X108326000Y-81173400D01*
X108326000Y-81153400D01*
X108336000Y-81153400D01*
X108336000Y-81173400D01*
X110866000Y-81173400D01*
X110866000Y-81153400D01*
X110876000Y-81153400D01*
X110876000Y-81173400D01*
X110896000Y-81173400D01*
X110896000Y-81183400D01*
X110876000Y-81183400D01*
X110876000Y-82553391D01*
X111118411Y-82708527D01*
X111227976Y-82686733D01*
X111778017Y-82435309D01*
X112019580Y-82175673D01*
X112420798Y-82175673D01*
X112486134Y-82459875D01*
X113046935Y-82716260D01*
X113663161Y-82738519D01*
X114240997Y-82523264D01*
X114335866Y-82459875D01*
X114401202Y-82175673D01*
X113411000Y-81185471D01*
X112420798Y-82175673D01*
X112019580Y-82175673D01*
X112111728Y-82076631D01*
X112129525Y-82103266D01*
X112413727Y-82168602D01*
X113403929Y-81178400D01*
X112413727Y-80188198D01*
X112129525Y-80253534D01*
X112115496Y-80284219D01*
X111778017Y-79921491D01*
X111750980Y-79909132D01*
X111967016Y-79764782D01*
X112118693Y-79537781D01*
X112484463Y-79904192D01*
X112420798Y-80181127D01*
X113411000Y-81171329D01*
X113425143Y-81157187D01*
X113432214Y-81164258D01*
X113418071Y-81178400D01*
X114408273Y-82168602D01*
X114692475Y-82103266D01*
X114948860Y-81542465D01*
X114955814Y-81349940D01*
X115761000Y-82155126D01*
X115761000Y-91973400D01*
X115823799Y-92289114D01*
X116002637Y-92556763D01*
X119177637Y-95731763D01*
X119445286Y-95910601D01*
X119761000Y-95973400D01*
X123533532Y-95973400D01*
X123714618Y-96244416D01*
X123974554Y-96418099D01*
X123584091Y-96781383D01*
X123332667Y-97331424D01*
X123310873Y-97440989D01*
X123466009Y-97683400D01*
X124836000Y-97683400D01*
X124836000Y-97663400D01*
X124846000Y-97663400D01*
X124846000Y-97683400D01*
X126215991Y-97683400D01*
X126371127Y-97440989D01*
X126349333Y-97331424D01*
X126097909Y-96781383D01*
X125707446Y-96418099D01*
X125967382Y-96244416D01*
X126080582Y-96075000D01*
X131221418Y-96075000D01*
X131334618Y-96244416D01*
X131594554Y-96418099D01*
X131204091Y-96781383D01*
X130952667Y-97331424D01*
X130930873Y-97440989D01*
X131086009Y-97683400D01*
X132456000Y-97683400D01*
X132456000Y-97663400D01*
X132466000Y-97663400D01*
X132466000Y-97683400D01*
X133835991Y-97683400D01*
X133991127Y-97440989D01*
X138550873Y-97440989D01*
X138706008Y-97683400D01*
X140076000Y-97683400D01*
X140076000Y-96313409D01*
X139833589Y-96158273D01*
X139724024Y-96180067D01*
X139173983Y-96431491D01*
X138762027Y-96874268D01*
X138550873Y-97440989D01*
X133991127Y-97440989D01*
X133969333Y-97331424D01*
X133717909Y-96781383D01*
X133327446Y-96418099D01*
X133587382Y-96244416D01*
X133700582Y-96075000D01*
X134899400Y-96075000D01*
X135215114Y-96012201D01*
X135482763Y-95833363D01*
X136727363Y-94588763D01*
X136906201Y-94321114D01*
X136969000Y-94005400D01*
X136969000Y-90537126D01*
X137190315Y-90315811D01*
X138550873Y-90315811D01*
X138762027Y-90882532D01*
X139173983Y-91325309D01*
X139724024Y-91576733D01*
X139833589Y-91598527D01*
X140076000Y-91443391D01*
X140076000Y-90073400D01*
X138706008Y-90073400D01*
X138550873Y-90315811D01*
X137190315Y-90315811D01*
X138416126Y-89090000D01*
X138914861Y-89090000D01*
X138762027Y-89254268D01*
X138550873Y-89820989D01*
X138706008Y-90063400D01*
X140076000Y-90063400D01*
X140076000Y-90043400D01*
X140086000Y-90043400D01*
X140086000Y-90063400D01*
X140106000Y-90063400D01*
X140106000Y-90073400D01*
X140086000Y-90073400D01*
X140086000Y-91443391D01*
X140328411Y-91598527D01*
X140437976Y-91576733D01*
X140988017Y-91325309D01*
X141351301Y-90934846D01*
X141524984Y-91194782D01*
X141796000Y-91375868D01*
X141796000Y-96380932D01*
X141524984Y-96562018D01*
X141351301Y-96821954D01*
X140988017Y-96431491D01*
X140437976Y-96180067D01*
X140328411Y-96158273D01*
X140086000Y-96313409D01*
X140086000Y-97683400D01*
X140106000Y-97683400D01*
X140106000Y-97693400D01*
X140086000Y-97693400D01*
X140086000Y-99063391D01*
X140328411Y-99218527D01*
X140437976Y-99196733D01*
X140988017Y-98945309D01*
X141351301Y-98554846D01*
X141524984Y-98814782D01*
X141796000Y-98995868D01*
X141796000Y-99251674D01*
X141644274Y-99403400D01*
X136271000Y-99403400D01*
X135955286Y-99466199D01*
X135687637Y-99645037D01*
X133782637Y-101550037D01*
X133603799Y-101817686D01*
X133541000Y-102133400D01*
X133541000Y-102521264D01*
X133311000Y-102474687D01*
X131611000Y-102474687D01*
X131351596Y-102523497D01*
X131113349Y-102676805D01*
X130953518Y-102910726D01*
X130897287Y-103188400D01*
X130897287Y-103213400D01*
X126404713Y-103213400D01*
X126404713Y-103188400D01*
X126355903Y-102928996D01*
X126202595Y-102690749D01*
X125968674Y-102530918D01*
X125691000Y-102474687D01*
X123991000Y-102474687D01*
X123731596Y-102523497D01*
X123493349Y-102676805D01*
X123333518Y-102910726D01*
X123277287Y-103188400D01*
X123277287Y-104888400D01*
X123326097Y-105147804D01*
X123479405Y-105386051D01*
X123685084Y-105526585D01*
X123378621Y-105985241D01*
X123260634Y-106578400D01*
X123378621Y-107171559D01*
X123714618Y-107674416D01*
X123975004Y-107848400D01*
X123714618Y-108022384D01*
X123378621Y-108525241D01*
X123260634Y-109118400D01*
X123378621Y-109711559D01*
X123714618Y-110214416D01*
X123975004Y-110388400D01*
X123714618Y-110562384D01*
X123378621Y-111065241D01*
X123260634Y-111658400D01*
X123378621Y-112251559D01*
X123714618Y-112754416D01*
X123975004Y-112928400D01*
X123714618Y-113102384D01*
X123378621Y-113605241D01*
X123260634Y-114198400D01*
X123378621Y-114791559D01*
X123714618Y-115294416D01*
X123974554Y-115468099D01*
X123584091Y-115831383D01*
X123332667Y-116381424D01*
X123310873Y-116490989D01*
X123466009Y-116733400D01*
X124836000Y-116733400D01*
X124836000Y-116713400D01*
X124846000Y-116713400D01*
X124846000Y-116733400D01*
X126215991Y-116733400D01*
X126371127Y-116490989D01*
X126349333Y-116381424D01*
X126097909Y-115831383D01*
X125707446Y-115468099D01*
X125967382Y-115294416D01*
X126148468Y-115023400D01*
X131153532Y-115023400D01*
X131334618Y-115294416D01*
X131594554Y-115468099D01*
X131204091Y-115831383D01*
X130952667Y-116381424D01*
X130930873Y-116490989D01*
X131086009Y-116733400D01*
X132456000Y-116733400D01*
X132456000Y-116713400D01*
X132466000Y-116713400D01*
X132466000Y-116733400D01*
X133835991Y-116733400D01*
X133991127Y-116490989D01*
X133969333Y-116381424D01*
X133717909Y-115831383D01*
X133327446Y-115468099D01*
X133587382Y-115294416D01*
X133774212Y-115014805D01*
X134046714Y-114960601D01*
X134314363Y-114781763D01*
X134949363Y-114146763D01*
X135128201Y-113879114D01*
X135191000Y-113563400D01*
X135191000Y-102475126D01*
X136612726Y-101053400D01*
X141986000Y-101053400D01*
X142301714Y-100990601D01*
X142569363Y-100811763D01*
X143204363Y-100176763D01*
X143383201Y-99909114D01*
X143446000Y-99593400D01*
X143446000Y-98995868D01*
X143717016Y-98814782D01*
X143891000Y-98554396D01*
X144064984Y-98814782D01*
X144567841Y-99150779D01*
X145161000Y-99268766D01*
X145754159Y-99150779D01*
X146257016Y-98814782D01*
X146408693Y-98587781D01*
X146821849Y-99001660D01*
X147391333Y-99238130D01*
X148007961Y-99238668D01*
X148577857Y-99003192D01*
X149014260Y-98567551D01*
X149250730Y-97998067D01*
X149251268Y-97381439D01*
X149015792Y-96811543D01*
X148580151Y-96375140D01*
X148526000Y-96352655D01*
X148526000Y-91404619D01*
X148577857Y-91383192D01*
X149014260Y-90947551D01*
X149250730Y-90378067D01*
X149251268Y-89761439D01*
X149015792Y-89191543D01*
X148580151Y-88755140D01*
X148526000Y-88732655D01*
X148526000Y-86893400D01*
X148463201Y-86577686D01*
X148376815Y-86448400D01*
X149606000Y-86448400D01*
X149921714Y-86385601D01*
X150189363Y-86206763D01*
X150824363Y-85571763D01*
X151003201Y-85304114D01*
X151066000Y-84988400D01*
X151066000Y-79908400D01*
X151003201Y-79592686D01*
X150824363Y-79325037D01*
X149229213Y-77729887D01*
X149250730Y-77678067D01*
X149251268Y-77061439D01*
X149015792Y-76491543D01*
X148580151Y-76055140D01*
X148010667Y-75818670D01*
X147394039Y-75818132D01*
X146824143Y-76053608D01*
X146408418Y-76468607D01*
X146257016Y-76242018D01*
X145754159Y-75906021D01*
X145161000Y-75788034D01*
X144567841Y-75906021D01*
X144064984Y-76242018D01*
X143891000Y-76502404D01*
X143717016Y-76242018D01*
X143214159Y-75906021D01*
X142621000Y-75788034D01*
X142027841Y-75906021D01*
X141524984Y-76242018D01*
X141351000Y-76502404D01*
X141177016Y-76242018D01*
X140674159Y-75906021D01*
X140253733Y-75822393D01*
X141057726Y-75018400D01*
X145796000Y-75018400D01*
X146111714Y-74955601D01*
X146379363Y-74776763D01*
X147014363Y-74141763D01*
X147193201Y-73874114D01*
X147256000Y-73558400D01*
X147256000Y-72486497D01*
X147344024Y-72526733D01*
X147453589Y-72548527D01*
X147696000Y-72393391D01*
X147696000Y-71023400D01*
X147706000Y-71023400D01*
X147706000Y-72393391D01*
X147948411Y-72548527D01*
X148057976Y-72526733D01*
X148608017Y-72275309D01*
X149019973Y-71832532D01*
X149231127Y-71265811D01*
X149075992Y-71023400D01*
X147706000Y-71023400D01*
X147696000Y-71023400D01*
X147676000Y-71023400D01*
X147676000Y-71013400D01*
X147696000Y-71013400D01*
X147696000Y-70993400D01*
X147706000Y-70993400D01*
X147706000Y-71013400D01*
X149075992Y-71013400D01*
X149231127Y-70770989D01*
X149019973Y-70204268D01*
X148608017Y-69761491D01*
X148580980Y-69749132D01*
X148797016Y-69604782D01*
X149133013Y-69101925D01*
X149251000Y-68508766D01*
X149251000Y-68448034D01*
X149133013Y-67854875D01*
X148797016Y-67352018D01*
X148294159Y-67016021D01*
X147701000Y-66898034D01*
X147107841Y-67016021D01*
X146604984Y-67352018D01*
X146431000Y-67612404D01*
X146257016Y-67352018D01*
X145754159Y-67016021D01*
X145161000Y-66898034D01*
X144567841Y-67016021D01*
X144064984Y-67352018D01*
X143891000Y-67612404D01*
X143717016Y-67352018D01*
X143214159Y-67016021D01*
X142621000Y-66898034D01*
X142027841Y-67016021D01*
X141524984Y-67352018D01*
X141351301Y-67611954D01*
X140988017Y-67221491D01*
X140437976Y-66970067D01*
X140328411Y-66948273D01*
X140086000Y-67103409D01*
X140086000Y-68473400D01*
X140106000Y-68473400D01*
X140106000Y-68483400D01*
X140086000Y-68483400D01*
X140086000Y-68503400D01*
X140076000Y-68503400D01*
X140076000Y-68483400D01*
X140056000Y-68483400D01*
X140056000Y-68473400D01*
X140076000Y-68473400D01*
X140076000Y-67103409D01*
X139833589Y-66948273D01*
X139724024Y-66970067D01*
X139173983Y-67221491D01*
X138810699Y-67611954D01*
X138637016Y-67352018D01*
X138134159Y-67016021D01*
X137541000Y-66898034D01*
X136947841Y-67016021D01*
X136444984Y-67352018D01*
X136271301Y-67611954D01*
X135908017Y-67221491D01*
X135357976Y-66970067D01*
X135248411Y-66948273D01*
X135006000Y-67103409D01*
X135006000Y-68473400D01*
X135026000Y-68473400D01*
X135026000Y-68483400D01*
X135006000Y-68483400D01*
X135006000Y-68503400D01*
X134996000Y-68503400D01*
X134996000Y-68483400D01*
X134976000Y-68483400D01*
X134976000Y-68473400D01*
X134996000Y-68473400D01*
X134996000Y-67103409D01*
X134753589Y-66948273D01*
X134644024Y-66970067D01*
X134093983Y-67221491D01*
X133730699Y-67611954D01*
X133557016Y-67352018D01*
X133054159Y-67016021D01*
X132461000Y-66898034D01*
X131867841Y-67016021D01*
X131364984Y-67352018D01*
X131191000Y-67612404D01*
X131017016Y-67352018D01*
X130514159Y-67016021D01*
X129921000Y-66898034D01*
X129327841Y-67016021D01*
X128824984Y-67352018D01*
X128651000Y-67612404D01*
X128477016Y-67352018D01*
X127974159Y-67016021D01*
X127381000Y-66898034D01*
X126787841Y-67016021D01*
X126284984Y-67352018D01*
X126111000Y-67612404D01*
X125937016Y-67352018D01*
X125434159Y-67016021D01*
X124841000Y-66898034D01*
X124247841Y-67016021D01*
X123744984Y-67352018D01*
X123571301Y-67611954D01*
X123208017Y-67221491D01*
X122657976Y-66970067D01*
X122548411Y-66948273D01*
X122306000Y-67103409D01*
X122306000Y-68473400D01*
X122326000Y-68473400D01*
X122326000Y-68483400D01*
X122306000Y-68483400D01*
X122306000Y-68503400D01*
X122296000Y-68503400D01*
X122296000Y-68483400D01*
X122276000Y-68483400D01*
X122276000Y-68473400D01*
X122296000Y-68473400D01*
X122296000Y-67103409D01*
X122053589Y-66948273D01*
X121944024Y-66970067D01*
X121393983Y-67221491D01*
X121030699Y-67611954D01*
X120857016Y-67352018D01*
X120354159Y-67016021D01*
X119761000Y-66898034D01*
X119167841Y-67016021D01*
X118664984Y-67352018D01*
X118491000Y-67612404D01*
X118317016Y-67352018D01*
X117814159Y-67016021D01*
X117221000Y-66898034D01*
X116627841Y-67016021D01*
X116124984Y-67352018D01*
X115951301Y-67611954D01*
X115588017Y-67221491D01*
X115037976Y-66970067D01*
X114928411Y-66948273D01*
X114686000Y-67103409D01*
X114686000Y-68473400D01*
X114706000Y-68473400D01*
X114706000Y-68483400D01*
X114686000Y-68483400D01*
X114686000Y-68503400D01*
X114676000Y-68503400D01*
X114676000Y-68483400D01*
X114656000Y-68483400D01*
X114656000Y-68473400D01*
X114676000Y-68473400D01*
X114676000Y-67103409D01*
X114433589Y-66948273D01*
X114324024Y-66970067D01*
X113773983Y-67221491D01*
X113410699Y-67611954D01*
X113237016Y-67352018D01*
X112734159Y-67016021D01*
X112141000Y-66898034D01*
X111547841Y-67016021D01*
X111044984Y-67352018D01*
X110871000Y-67612404D01*
X110697016Y-67352018D01*
X110194159Y-67016021D01*
X109601000Y-66898034D01*
X109007841Y-67016021D01*
X108504984Y-67352018D01*
X108331000Y-67612404D01*
X108157016Y-67352018D01*
X107654159Y-67016021D01*
X107061000Y-66898034D01*
X106467841Y-67016021D01*
X105964984Y-67352018D01*
X105791301Y-67611954D01*
X105428017Y-67221491D01*
X104877976Y-66970067D01*
X104768411Y-66948273D01*
X104526000Y-67103409D01*
X104526000Y-68473400D01*
X104546000Y-68473400D01*
X104546000Y-68483400D01*
X104526000Y-68483400D01*
X104526000Y-68503400D01*
X104516000Y-68503400D01*
X104516000Y-68483400D01*
X104496000Y-68483400D01*
X104496000Y-68473400D01*
X104516000Y-68473400D01*
X104516000Y-67103409D01*
X104273589Y-66948273D01*
X104164024Y-66970067D01*
X103613983Y-67221491D01*
X103250699Y-67611954D01*
X103077016Y-67352018D01*
X102574159Y-67016021D01*
X101981000Y-66898034D01*
X101387841Y-67016021D01*
X100926939Y-67323985D01*
X100802595Y-67130749D01*
X100568674Y-66970918D01*
X100291000Y-66914687D01*
X98591000Y-66914687D01*
X98331596Y-66963497D01*
X98093349Y-67116805D01*
X97933518Y-67350726D01*
X97877287Y-67628400D01*
X97068001Y-67628400D01*
X96430741Y-66990027D01*
X95337321Y-66536000D01*
X151783076Y-66536000D01*
X150692142Y-66986765D01*
X150692142Y-66986765D01*
G37*
X150692142Y-66986765D02*
X149763027Y-67914259D01*
X149259574Y-69126710D01*
X149258428Y-70439531D01*
X149759765Y-71652858D01*
X150687259Y-72581973D01*
X151899710Y-73085426D01*
X153212531Y-73086572D01*
X154425858Y-72585235D01*
X155309000Y-71703634D01*
X155309000Y-99212131D01*
X155124154Y-100141415D01*
X154639600Y-100866600D01*
X153914414Y-101351155D01*
X152985131Y-101536000D01*
X137059000Y-101536000D01*
X136986550Y-101550411D01*
X136912683Y-101550411D01*
X136530000Y-101626531D01*
X136529999Y-101626531D01*
X136495160Y-101640962D01*
X136259639Y-101738517D01*
X136259636Y-101738520D01*
X135935218Y-101955290D01*
X135935215Y-101955291D01*
X135868141Y-102022365D01*
X135728290Y-102162215D01*
X135728290Y-102162216D01*
X135511520Y-102486637D01*
X135511517Y-102486640D01*
X135470626Y-102585361D01*
X135399530Y-102757000D01*
X135399530Y-102757005D01*
X135323411Y-103139683D01*
X135323411Y-103213550D01*
X135309000Y-103286000D01*
X135309000Y-119212131D01*
X135124154Y-120141415D01*
X134639600Y-120866600D01*
X133914414Y-121351155D01*
X132985131Y-121536000D01*
X96475179Y-121536000D01*
X97354973Y-120657741D01*
X97858426Y-119445290D01*
X97859572Y-118132469D01*
X97358235Y-116919142D01*
X96430741Y-115990027D01*
X95218290Y-115486574D01*
X93905469Y-115485428D01*
X92692142Y-115986765D01*
X91809000Y-116868366D01*
X91809000Y-103859868D01*
X91841605Y-103695951D01*
X91892613Y-103619613D01*
X91968952Y-103568605D01*
X92132868Y-103536000D01*
X95059000Y-103536000D01*
X95131450Y-103521589D01*
X95205317Y-103521589D01*
X95587995Y-103445470D01*
X95588000Y-103445470D01*
X95723180Y-103389476D01*
X95858360Y-103333483D01*
X95858363Y-103333480D01*
X96182782Y-103116711D01*
X96182785Y-103116710D01*
X96320584Y-102978910D01*
X96389709Y-102909785D01*
X96389710Y-102909782D01*
X96606480Y-102585364D01*
X96606483Y-102585361D01*
X96695968Y-102369322D01*
X96718469Y-102315001D01*
X96718469Y-102315000D01*
X96794589Y-101932317D01*
X96794589Y-101858450D01*
X96809000Y-101786000D01*
X96809000Y-101498400D01*
X102416000Y-101498400D01*
X102416000Y-119278400D01*
X102429678Y-119351091D01*
X102472638Y-119417854D01*
X102538189Y-119462643D01*
X102616000Y-119478400D01*
X115951000Y-119478400D01*
X116023691Y-119464722D01*
X116090454Y-119421762D01*
X116135243Y-119356211D01*
X116151000Y-119278400D01*
X116151000Y-116985811D01*
X123310873Y-116985811D01*
X123332667Y-117095376D01*
X123584091Y-117645417D01*
X124026868Y-118057373D01*
X124593589Y-118268527D01*
X124836000Y-118113392D01*
X124836000Y-116743400D01*
X124846000Y-116743400D01*
X124846000Y-118113392D01*
X125088411Y-118268527D01*
X125655132Y-118057373D01*
X126097909Y-117645417D01*
X126349333Y-117095376D01*
X126371127Y-116985811D01*
X130930873Y-116985811D01*
X130952667Y-117095376D01*
X131204091Y-117645417D01*
X131646868Y-118057373D01*
X132213589Y-118268527D01*
X132456000Y-118113392D01*
X132456000Y-116743400D01*
X132466000Y-116743400D01*
X132466000Y-118113392D01*
X132708411Y-118268527D01*
X133275132Y-118057373D01*
X133717909Y-117645417D01*
X133969333Y-117095376D01*
X133991127Y-116985811D01*
X133835991Y-116743400D01*
X132466000Y-116743400D01*
X132456000Y-116743400D01*
X131086009Y-116743400D01*
X130930873Y-116985811D01*
X126371127Y-116985811D01*
X126215991Y-116743400D01*
X124846000Y-116743400D01*
X124836000Y-116743400D01*
X123466009Y-116743400D01*
X123310873Y-116985811D01*
X116151000Y-116985811D01*
X116151000Y-101498400D01*
X116137322Y-101425709D01*
X116094362Y-101358946D01*
X116028811Y-101314157D01*
X115951000Y-101298400D01*
X102616000Y-101298400D01*
X102543309Y-101312078D01*
X102476546Y-101355038D01*
X102431757Y-101420589D01*
X102416000Y-101498400D01*
X96809000Y-101498400D01*
X96809000Y-97935811D01*
X123310873Y-97935811D01*
X123332667Y-98045376D01*
X123584091Y-98595417D01*
X124026868Y-99007373D01*
X124593589Y-99218527D01*
X124836000Y-99063392D01*
X124836000Y-97693400D01*
X124846000Y-97693400D01*
X124846000Y-99063392D01*
X125088411Y-99218527D01*
X125655132Y-99007373D01*
X126097909Y-98595417D01*
X126349333Y-98045376D01*
X126371127Y-97935811D01*
X130930873Y-97935811D01*
X130952667Y-98045376D01*
X131204091Y-98595417D01*
X131646868Y-99007373D01*
X132213589Y-99218527D01*
X132456000Y-99063392D01*
X132456000Y-97693400D01*
X132466000Y-97693400D01*
X132466000Y-99063392D01*
X132708411Y-99218527D01*
X133275132Y-99007373D01*
X133717909Y-98595417D01*
X133969333Y-98045376D01*
X133991127Y-97935811D01*
X138550873Y-97935811D01*
X138762027Y-98502532D01*
X139173983Y-98945309D01*
X139724024Y-99196733D01*
X139833589Y-99218527D01*
X140076000Y-99063391D01*
X140076000Y-97693400D01*
X138706008Y-97693400D01*
X138550873Y-97935811D01*
X133991127Y-97935811D01*
X133835991Y-97693400D01*
X132466000Y-97693400D01*
X132456000Y-97693400D01*
X131086009Y-97693400D01*
X130930873Y-97935811D01*
X126371127Y-97935811D01*
X126215991Y-97693400D01*
X124846000Y-97693400D01*
X124836000Y-97693400D01*
X123466009Y-97693400D01*
X123310873Y-97935811D01*
X96809000Y-97935811D01*
X96809000Y-95395811D01*
X104260873Y-95395811D01*
X104472027Y-95962532D01*
X104883983Y-96405309D01*
X105434024Y-96656733D01*
X105543589Y-96678527D01*
X105786000Y-96523391D01*
X105786000Y-95153400D01*
X105796000Y-95153400D01*
X105796000Y-96523391D01*
X106038411Y-96678527D01*
X106147976Y-96656733D01*
X106698017Y-96405309D01*
X107061000Y-96015169D01*
X107423983Y-96405309D01*
X107974024Y-96656733D01*
X108083589Y-96678527D01*
X108326000Y-96523391D01*
X108326000Y-95153400D01*
X108336000Y-95153400D01*
X108336000Y-96523391D01*
X108578411Y-96678527D01*
X108687976Y-96656733D01*
X109238017Y-96405309D01*
X109601000Y-96015169D01*
X109963983Y-96405309D01*
X110514024Y-96656733D01*
X110623589Y-96678527D01*
X110866000Y-96523391D01*
X110866000Y-95153400D01*
X108336000Y-95153400D01*
X108326000Y-95153400D01*
X105796000Y-95153400D01*
X105786000Y-95153400D01*
X104416008Y-95153400D01*
X104260873Y-95395811D01*
X96809000Y-95395811D01*
X96809000Y-86786000D01*
X96794589Y-86713550D01*
X96794589Y-86639683D01*
X96718469Y-86257000D01*
X96718469Y-86256998D01*
X96666361Y-86131199D01*
X96606483Y-85986639D01*
X96606480Y-85986636D01*
X96389709Y-85662216D01*
X96389709Y-85662215D01*
X96263494Y-85536000D01*
X96182785Y-85455290D01*
X96182782Y-85455289D01*
X95858363Y-85238520D01*
X95858360Y-85238517D01*
X95713224Y-85178400D01*
X95588000Y-85126530D01*
X95587995Y-85126530D01*
X95205317Y-85050411D01*
X95131450Y-85050411D01*
X95059000Y-85036000D01*
X92132868Y-85036000D01*
X91968952Y-85003395D01*
X91892613Y-84952387D01*
X91841605Y-84876049D01*
X91809000Y-84712132D01*
X91809000Y-71702179D01*
X92687259Y-72581973D01*
X93899710Y-73085426D01*
X95212531Y-73086572D01*
X96425858Y-72585235D01*
X97354973Y-71657741D01*
X97858426Y-70445290D01*
X97859572Y-69132469D01*
X97358235Y-67919142D01*
X97068001Y-67628400D01*
X97877287Y-67628400D01*
X97877287Y-69328400D01*
X97926097Y-69587804D01*
X98079405Y-69826051D01*
X98292002Y-69971312D01*
X98008987Y-70394875D01*
X97891000Y-70988034D01*
X97891000Y-71048766D01*
X98008987Y-71641925D01*
X98344984Y-72144782D01*
X98616000Y-72325868D01*
X98616000Y-88163400D01*
X98678799Y-88479114D01*
X98857637Y-88746763D01*
X103302637Y-93191763D01*
X103570286Y-93370601D01*
X103886000Y-93433400D01*
X104493608Y-93433400D01*
X104694984Y-93734782D01*
X104911020Y-93879132D01*
X104883983Y-93891491D01*
X104472027Y-94334268D01*
X104260873Y-94900989D01*
X104416008Y-95143400D01*
X105786000Y-95143400D01*
X105786000Y-95123400D01*
X105796000Y-95123400D01*
X105796000Y-95143400D01*
X108326000Y-95143400D01*
X108326000Y-95123400D01*
X108336000Y-95123400D01*
X108336000Y-95143400D01*
X110866000Y-95143400D01*
X110866000Y-95123400D01*
X110876000Y-95123400D01*
X110876000Y-95143400D01*
X110896000Y-95143400D01*
X110896000Y-95153400D01*
X110876000Y-95153400D01*
X110876000Y-96523391D01*
X111118411Y-96678527D01*
X111227976Y-96656733D01*
X111778017Y-96405309D01*
X112019580Y-96145673D01*
X112420798Y-96145673D01*
X112486134Y-96429875D01*
X113046935Y-96686260D01*
X113663161Y-96708519D01*
X114240997Y-96493264D01*
X114335866Y-96429875D01*
X114401202Y-96145673D01*
X113411000Y-95155471D01*
X112420798Y-96145673D01*
X112019580Y-96145673D01*
X112111728Y-96046631D01*
X112129525Y-96073266D01*
X112413727Y-96138602D01*
X113403929Y-95148400D01*
X113418071Y-95148400D01*
X114408273Y-96138602D01*
X114692475Y-96073266D01*
X114948860Y-95512465D01*
X114971119Y-94896239D01*
X114755864Y-94318403D01*
X114692475Y-94223534D01*
X114408273Y-94158198D01*
X113418071Y-95148400D01*
X113403929Y-95148400D01*
X112413727Y-94158198D01*
X112129525Y-94223534D01*
X112115496Y-94254219D01*
X111778017Y-93891491D01*
X111750980Y-93879132D01*
X111967016Y-93734782D01*
X112118693Y-93507781D01*
X112484463Y-93874192D01*
X112420798Y-94151127D01*
X113411000Y-95141329D01*
X114401202Y-94151127D01*
X114337426Y-93873710D01*
X114724260Y-93487551D01*
X114960730Y-92918067D01*
X114961268Y-92301439D01*
X114725792Y-91731543D01*
X114290151Y-91295140D01*
X113720667Y-91058670D01*
X113104039Y-91058132D01*
X112534143Y-91293608D01*
X112118418Y-91708607D01*
X111967016Y-91482018D01*
X111464159Y-91146021D01*
X110871000Y-91028034D01*
X110277841Y-91146021D01*
X109774984Y-91482018D01*
X109601000Y-91742404D01*
X109427016Y-91482018D01*
X108924159Y-91146021D01*
X108331000Y-91028034D01*
X107737841Y-91146021D01*
X107234984Y-91482018D01*
X107061000Y-91742404D01*
X106887016Y-91482018D01*
X106384159Y-91146021D01*
X105791000Y-91028034D01*
X105197841Y-91146021D01*
X104694984Y-91482018D01*
X104493608Y-91783400D01*
X104227726Y-91783400D01*
X100266000Y-87821674D01*
X100266000Y-82634908D01*
X100463589Y-82708527D01*
X100706000Y-82553392D01*
X100706000Y-81183400D01*
X100716000Y-81183400D01*
X100716000Y-82553392D01*
X100958411Y-82708527D01*
X101525132Y-82497373D01*
X101967909Y-82085417D01*
X102219333Y-81535376D01*
X102241127Y-81425811D01*
X104260873Y-81425811D01*
X104472027Y-81992532D01*
X104883983Y-82435309D01*
X105434024Y-82686733D01*
X105543589Y-82708527D01*
X105786000Y-82553391D01*
X105786000Y-81183400D01*
X105796000Y-81183400D01*
X105796000Y-82553391D01*
X106038411Y-82708527D01*
X106147976Y-82686733D01*
X106698017Y-82435309D01*
X107061000Y-82045169D01*
X107423983Y-82435309D01*
X107974024Y-82686733D01*
X108083589Y-82708527D01*
X108326000Y-82553391D01*
X108326000Y-81183400D01*
X108336000Y-81183400D01*
X108336000Y-82553391D01*
X108578411Y-82708527D01*
X108687976Y-82686733D01*
X109238017Y-82435309D01*
X109601000Y-82045169D01*
X109963983Y-82435309D01*
X110514024Y-82686733D01*
X110623589Y-82708527D01*
X110866000Y-82553391D01*
X110866000Y-81183400D01*
X108336000Y-81183400D01*
X108326000Y-81183400D01*
X105796000Y-81183400D01*
X105786000Y-81183400D01*
X104416008Y-81183400D01*
X104260873Y-81425811D01*
X102241127Y-81425811D01*
X102085991Y-81183400D01*
X100716000Y-81183400D01*
X100706000Y-81183400D01*
X100686000Y-81183400D01*
X100686000Y-81173400D01*
X100706000Y-81173400D01*
X100706000Y-81153400D01*
X100716000Y-81153400D01*
X100716000Y-81173400D01*
X102085991Y-81173400D01*
X102241127Y-80930989D01*
X102219333Y-80821424D01*
X101967909Y-80271383D01*
X101832576Y-80145470D01*
X102058651Y-79999995D01*
X102218482Y-79766074D01*
X102274713Y-79488400D01*
X102274713Y-79463400D01*
X104493608Y-79463400D01*
X104694984Y-79764782D01*
X104911020Y-79909132D01*
X104883983Y-79921491D01*
X104472027Y-80364268D01*
X104260873Y-80930989D01*
X104416008Y-81173400D01*
X105786000Y-81173400D01*
X105786000Y-81153400D01*
X105796000Y-81153400D01*
X105796000Y-81173400D01*
X108326000Y-81173400D01*
X108326000Y-81153400D01*
X108336000Y-81153400D01*
X108336000Y-81173400D01*
X110866000Y-81173400D01*
X110866000Y-81153400D01*
X110876000Y-81153400D01*
X110876000Y-81173400D01*
X110896000Y-81173400D01*
X110896000Y-81183400D01*
X110876000Y-81183400D01*
X110876000Y-82553391D01*
X111118411Y-82708527D01*
X111227976Y-82686733D01*
X111778017Y-82435309D01*
X112019580Y-82175673D01*
X112420798Y-82175673D01*
X112486134Y-82459875D01*
X113046935Y-82716260D01*
X113663161Y-82738519D01*
X114240997Y-82523264D01*
X114335866Y-82459875D01*
X114401202Y-82175673D01*
X113411000Y-81185471D01*
X112420798Y-82175673D01*
X112019580Y-82175673D01*
X112111728Y-82076631D01*
X112129525Y-82103266D01*
X112413727Y-82168602D01*
X113403929Y-81178400D01*
X112413727Y-80188198D01*
X112129525Y-80253534D01*
X112115496Y-80284219D01*
X111778017Y-79921491D01*
X111750980Y-79909132D01*
X111967016Y-79764782D01*
X112118693Y-79537781D01*
X112484463Y-79904192D01*
X112420798Y-80181127D01*
X113411000Y-81171329D01*
X113425143Y-81157187D01*
X113432214Y-81164258D01*
X113418071Y-81178400D01*
X114408273Y-82168602D01*
X114692475Y-82103266D01*
X114948860Y-81542465D01*
X114955814Y-81349940D01*
X115761000Y-82155126D01*
X115761000Y-91973400D01*
X115823799Y-92289114D01*
X116002637Y-92556763D01*
X119177637Y-95731763D01*
X119445286Y-95910601D01*
X119761000Y-95973400D01*
X123533532Y-95973400D01*
X123714618Y-96244416D01*
X123974554Y-96418099D01*
X123584091Y-96781383D01*
X123332667Y-97331424D01*
X123310873Y-97440989D01*
X123466009Y-97683400D01*
X124836000Y-97683400D01*
X124836000Y-97663400D01*
X124846000Y-97663400D01*
X124846000Y-97683400D01*
X126215991Y-97683400D01*
X126371127Y-97440989D01*
X126349333Y-97331424D01*
X126097909Y-96781383D01*
X125707446Y-96418099D01*
X125967382Y-96244416D01*
X126080582Y-96075000D01*
X131221418Y-96075000D01*
X131334618Y-96244416D01*
X131594554Y-96418099D01*
X131204091Y-96781383D01*
X130952667Y-97331424D01*
X130930873Y-97440989D01*
X131086009Y-97683400D01*
X132456000Y-97683400D01*
X132456000Y-97663400D01*
X132466000Y-97663400D01*
X132466000Y-97683400D01*
X133835991Y-97683400D01*
X133991127Y-97440989D01*
X138550873Y-97440989D01*
X138706008Y-97683400D01*
X140076000Y-97683400D01*
X140076000Y-96313409D01*
X139833589Y-96158273D01*
X139724024Y-96180067D01*
X139173983Y-96431491D01*
X138762027Y-96874268D01*
X138550873Y-97440989D01*
X133991127Y-97440989D01*
X133969333Y-97331424D01*
X133717909Y-96781383D01*
X133327446Y-96418099D01*
X133587382Y-96244416D01*
X133700582Y-96075000D01*
X134899400Y-96075000D01*
X135215114Y-96012201D01*
X135482763Y-95833363D01*
X136727363Y-94588763D01*
X136906201Y-94321114D01*
X136969000Y-94005400D01*
X136969000Y-90537126D01*
X137190315Y-90315811D01*
X138550873Y-90315811D01*
X138762027Y-90882532D01*
X139173983Y-91325309D01*
X139724024Y-91576733D01*
X139833589Y-91598527D01*
X140076000Y-91443391D01*
X140076000Y-90073400D01*
X138706008Y-90073400D01*
X138550873Y-90315811D01*
X137190315Y-90315811D01*
X138416126Y-89090000D01*
X138914861Y-89090000D01*
X138762027Y-89254268D01*
X138550873Y-89820989D01*
X138706008Y-90063400D01*
X140076000Y-90063400D01*
X140076000Y-90043400D01*
X140086000Y-90043400D01*
X140086000Y-90063400D01*
X140106000Y-90063400D01*
X140106000Y-90073400D01*
X140086000Y-90073400D01*
X140086000Y-91443391D01*
X140328411Y-91598527D01*
X140437976Y-91576733D01*
X140988017Y-91325309D01*
X141351301Y-90934846D01*
X141524984Y-91194782D01*
X141796000Y-91375868D01*
X141796000Y-96380932D01*
X141524984Y-96562018D01*
X141351301Y-96821954D01*
X140988017Y-96431491D01*
X140437976Y-96180067D01*
X140328411Y-96158273D01*
X140086000Y-96313409D01*
X140086000Y-97683400D01*
X140106000Y-97683400D01*
X140106000Y-97693400D01*
X140086000Y-97693400D01*
X140086000Y-99063391D01*
X140328411Y-99218527D01*
X140437976Y-99196733D01*
X140988017Y-98945309D01*
X141351301Y-98554846D01*
X141524984Y-98814782D01*
X141796000Y-98995868D01*
X141796000Y-99251674D01*
X141644274Y-99403400D01*
X136271000Y-99403400D01*
X135955286Y-99466199D01*
X135687637Y-99645037D01*
X133782637Y-101550037D01*
X133603799Y-101817686D01*
X133541000Y-102133400D01*
X133541000Y-102521264D01*
X133311000Y-102474687D01*
X131611000Y-102474687D01*
X131351596Y-102523497D01*
X131113349Y-102676805D01*
X130953518Y-102910726D01*
X130897287Y-103188400D01*
X130897287Y-103213400D01*
X126404713Y-103213400D01*
X126404713Y-103188400D01*
X126355903Y-102928996D01*
X126202595Y-102690749D01*
X125968674Y-102530918D01*
X125691000Y-102474687D01*
X123991000Y-102474687D01*
X123731596Y-102523497D01*
X123493349Y-102676805D01*
X123333518Y-102910726D01*
X123277287Y-103188400D01*
X123277287Y-104888400D01*
X123326097Y-105147804D01*
X123479405Y-105386051D01*
X123685084Y-105526585D01*
X123378621Y-105985241D01*
X123260634Y-106578400D01*
X123378621Y-107171559D01*
X123714618Y-107674416D01*
X123975004Y-107848400D01*
X123714618Y-108022384D01*
X123378621Y-108525241D01*
X123260634Y-109118400D01*
X123378621Y-109711559D01*
X123714618Y-110214416D01*
X123975004Y-110388400D01*
X123714618Y-110562384D01*
X123378621Y-111065241D01*
X123260634Y-111658400D01*
X123378621Y-112251559D01*
X123714618Y-112754416D01*
X123975004Y-112928400D01*
X123714618Y-113102384D01*
X123378621Y-113605241D01*
X123260634Y-114198400D01*
X123378621Y-114791559D01*
X123714618Y-115294416D01*
X123974554Y-115468099D01*
X123584091Y-115831383D01*
X123332667Y-116381424D01*
X123310873Y-116490989D01*
X123466009Y-116733400D01*
X124836000Y-116733400D01*
X124836000Y-116713400D01*
X124846000Y-116713400D01*
X124846000Y-116733400D01*
X126215991Y-116733400D01*
X126371127Y-116490989D01*
X126349333Y-116381424D01*
X126097909Y-115831383D01*
X125707446Y-115468099D01*
X125967382Y-115294416D01*
X126148468Y-115023400D01*
X131153532Y-115023400D01*
X131334618Y-115294416D01*
X131594554Y-115468099D01*
X131204091Y-115831383D01*
X130952667Y-116381424D01*
X130930873Y-116490989D01*
X131086009Y-116733400D01*
X132456000Y-116733400D01*
X132456000Y-116713400D01*
X132466000Y-116713400D01*
X132466000Y-116733400D01*
X133835991Y-116733400D01*
X133991127Y-116490989D01*
X133969333Y-116381424D01*
X133717909Y-115831383D01*
X133327446Y-115468099D01*
X133587382Y-115294416D01*
X133774212Y-115014805D01*
X134046714Y-114960601D01*
X134314363Y-114781763D01*
X134949363Y-114146763D01*
X135128201Y-113879114D01*
X135191000Y-113563400D01*
X135191000Y-102475126D01*
X136612726Y-101053400D01*
X141986000Y-101053400D01*
X142301714Y-100990601D01*
X142569363Y-100811763D01*
X143204363Y-100176763D01*
X143383201Y-99909114D01*
X143446000Y-99593400D01*
X143446000Y-98995868D01*
X143717016Y-98814782D01*
X143891000Y-98554396D01*
X144064984Y-98814782D01*
X144567841Y-99150779D01*
X145161000Y-99268766D01*
X145754159Y-99150779D01*
X146257016Y-98814782D01*
X146408693Y-98587781D01*
X146821849Y-99001660D01*
X147391333Y-99238130D01*
X148007961Y-99238668D01*
X148577857Y-99003192D01*
X149014260Y-98567551D01*
X149250730Y-97998067D01*
X149251268Y-97381439D01*
X149015792Y-96811543D01*
X148580151Y-96375140D01*
X148526000Y-96352655D01*
X148526000Y-91404619D01*
X148577857Y-91383192D01*
X149014260Y-90947551D01*
X149250730Y-90378067D01*
X149251268Y-89761439D01*
X149015792Y-89191543D01*
X148580151Y-88755140D01*
X148526000Y-88732655D01*
X148526000Y-86893400D01*
X148463201Y-86577686D01*
X148376815Y-86448400D01*
X149606000Y-86448400D01*
X149921714Y-86385601D01*
X150189363Y-86206763D01*
X150824363Y-85571763D01*
X151003201Y-85304114D01*
X151066000Y-84988400D01*
X151066000Y-79908400D01*
X151003201Y-79592686D01*
X150824363Y-79325037D01*
X149229213Y-77729887D01*
X149250730Y-77678067D01*
X149251268Y-77061439D01*
X149015792Y-76491543D01*
X148580151Y-76055140D01*
X148010667Y-75818670D01*
X147394039Y-75818132D01*
X146824143Y-76053608D01*
X146408418Y-76468607D01*
X146257016Y-76242018D01*
X145754159Y-75906021D01*
X145161000Y-75788034D01*
X144567841Y-75906021D01*
X144064984Y-76242018D01*
X143891000Y-76502404D01*
X143717016Y-76242018D01*
X143214159Y-75906021D01*
X142621000Y-75788034D01*
X142027841Y-75906021D01*
X141524984Y-76242018D01*
X141351000Y-76502404D01*
X141177016Y-76242018D01*
X140674159Y-75906021D01*
X140253733Y-75822393D01*
X141057726Y-75018400D01*
X145796000Y-75018400D01*
X146111714Y-74955601D01*
X146379363Y-74776763D01*
X147014363Y-74141763D01*
X147193201Y-73874114D01*
X147256000Y-73558400D01*
X147256000Y-72486497D01*
X147344024Y-72526733D01*
X147453589Y-72548527D01*
X147696000Y-72393391D01*
X147696000Y-71023400D01*
X147706000Y-71023400D01*
X147706000Y-72393391D01*
X147948411Y-72548527D01*
X148057976Y-72526733D01*
X148608017Y-72275309D01*
X149019973Y-71832532D01*
X149231127Y-71265811D01*
X149075992Y-71023400D01*
X147706000Y-71023400D01*
X147696000Y-71023400D01*
X147676000Y-71023400D01*
X147676000Y-71013400D01*
X147696000Y-71013400D01*
X147696000Y-70993400D01*
X147706000Y-70993400D01*
X147706000Y-71013400D01*
X149075992Y-71013400D01*
X149231127Y-70770989D01*
X149019973Y-70204268D01*
X148608017Y-69761491D01*
X148580980Y-69749132D01*
X148797016Y-69604782D01*
X149133013Y-69101925D01*
X149251000Y-68508766D01*
X149251000Y-68448034D01*
X149133013Y-67854875D01*
X148797016Y-67352018D01*
X148294159Y-67016021D01*
X147701000Y-66898034D01*
X147107841Y-67016021D01*
X146604984Y-67352018D01*
X146431000Y-67612404D01*
X146257016Y-67352018D01*
X145754159Y-67016021D01*
X145161000Y-66898034D01*
X144567841Y-67016021D01*
X144064984Y-67352018D01*
X143891000Y-67612404D01*
X143717016Y-67352018D01*
X143214159Y-67016021D01*
X142621000Y-66898034D01*
X142027841Y-67016021D01*
X141524984Y-67352018D01*
X141351301Y-67611954D01*
X140988017Y-67221491D01*
X140437976Y-66970067D01*
X140328411Y-66948273D01*
X140086000Y-67103409D01*
X140086000Y-68473400D01*
X140106000Y-68473400D01*
X140106000Y-68483400D01*
X140086000Y-68483400D01*
X140086000Y-68503400D01*
X140076000Y-68503400D01*
X140076000Y-68483400D01*
X140056000Y-68483400D01*
X140056000Y-68473400D01*
X140076000Y-68473400D01*
X140076000Y-67103409D01*
X139833589Y-66948273D01*
X139724024Y-66970067D01*
X139173983Y-67221491D01*
X138810699Y-67611954D01*
X138637016Y-67352018D01*
X138134159Y-67016021D01*
X137541000Y-66898034D01*
X136947841Y-67016021D01*
X136444984Y-67352018D01*
X136271301Y-67611954D01*
X135908017Y-67221491D01*
X135357976Y-66970067D01*
X135248411Y-66948273D01*
X135006000Y-67103409D01*
X135006000Y-68473400D01*
X135026000Y-68473400D01*
X135026000Y-68483400D01*
X135006000Y-68483400D01*
X135006000Y-68503400D01*
X134996000Y-68503400D01*
X134996000Y-68483400D01*
X134976000Y-68483400D01*
X134976000Y-68473400D01*
X134996000Y-68473400D01*
X134996000Y-67103409D01*
X134753589Y-66948273D01*
X134644024Y-66970067D01*
X134093983Y-67221491D01*
X133730699Y-67611954D01*
X133557016Y-67352018D01*
X133054159Y-67016021D01*
X132461000Y-66898034D01*
X131867841Y-67016021D01*
X131364984Y-67352018D01*
X131191000Y-67612404D01*
X131017016Y-67352018D01*
X130514159Y-67016021D01*
X129921000Y-66898034D01*
X129327841Y-67016021D01*
X128824984Y-67352018D01*
X128651000Y-67612404D01*
X128477016Y-67352018D01*
X127974159Y-67016021D01*
X127381000Y-66898034D01*
X126787841Y-67016021D01*
X126284984Y-67352018D01*
X126111000Y-67612404D01*
X125937016Y-67352018D01*
X125434159Y-67016021D01*
X124841000Y-66898034D01*
X124247841Y-67016021D01*
X123744984Y-67352018D01*
X123571301Y-67611954D01*
X123208017Y-67221491D01*
X122657976Y-66970067D01*
X122548411Y-66948273D01*
X122306000Y-67103409D01*
X122306000Y-68473400D01*
X122326000Y-68473400D01*
X122326000Y-68483400D01*
X122306000Y-68483400D01*
X122306000Y-68503400D01*
X122296000Y-68503400D01*
X122296000Y-68483400D01*
X122276000Y-68483400D01*
X122276000Y-68473400D01*
X122296000Y-68473400D01*
X122296000Y-67103409D01*
X122053589Y-66948273D01*
X121944024Y-66970067D01*
X121393983Y-67221491D01*
X121030699Y-67611954D01*
X120857016Y-67352018D01*
X120354159Y-67016021D01*
X119761000Y-66898034D01*
X119167841Y-67016021D01*
X118664984Y-67352018D01*
X118491000Y-67612404D01*
X118317016Y-67352018D01*
X117814159Y-67016021D01*
X117221000Y-66898034D01*
X116627841Y-67016021D01*
X116124984Y-67352018D01*
X115951301Y-67611954D01*
X115588017Y-67221491D01*
X115037976Y-66970067D01*
X114928411Y-66948273D01*
X114686000Y-67103409D01*
X114686000Y-68473400D01*
X114706000Y-68473400D01*
X114706000Y-68483400D01*
X114686000Y-68483400D01*
X114686000Y-68503400D01*
X114676000Y-68503400D01*
X114676000Y-68483400D01*
X114656000Y-68483400D01*
X114656000Y-68473400D01*
X114676000Y-68473400D01*
X114676000Y-67103409D01*
X114433589Y-66948273D01*
X114324024Y-66970067D01*
X113773983Y-67221491D01*
X113410699Y-67611954D01*
X113237016Y-67352018D01*
X112734159Y-67016021D01*
X112141000Y-66898034D01*
X111547841Y-67016021D01*
X111044984Y-67352018D01*
X110871000Y-67612404D01*
X110697016Y-67352018D01*
X110194159Y-67016021D01*
X109601000Y-66898034D01*
X109007841Y-67016021D01*
X108504984Y-67352018D01*
X108331000Y-67612404D01*
X108157016Y-67352018D01*
X107654159Y-67016021D01*
X107061000Y-66898034D01*
X106467841Y-67016021D01*
X105964984Y-67352018D01*
X105791301Y-67611954D01*
X105428017Y-67221491D01*
X104877976Y-66970067D01*
X104768411Y-66948273D01*
X104526000Y-67103409D01*
X104526000Y-68473400D01*
X104546000Y-68473400D01*
X104546000Y-68483400D01*
X104526000Y-68483400D01*
X104526000Y-68503400D01*
X104516000Y-68503400D01*
X104516000Y-68483400D01*
X104496000Y-68483400D01*
X104496000Y-68473400D01*
X104516000Y-68473400D01*
X104516000Y-67103409D01*
X104273589Y-66948273D01*
X104164024Y-66970067D01*
X103613983Y-67221491D01*
X103250699Y-67611954D01*
X103077016Y-67352018D01*
X102574159Y-67016021D01*
X101981000Y-66898034D01*
X101387841Y-67016021D01*
X100926939Y-67323985D01*
X100802595Y-67130749D01*
X100568674Y-66970918D01*
X100291000Y-66914687D01*
X98591000Y-66914687D01*
X98331596Y-66963497D01*
X98093349Y-67116805D01*
X97933518Y-67350726D01*
X97877287Y-67628400D01*
X97068001Y-67628400D01*
X96430741Y-66990027D01*
X95337321Y-66536000D01*
X151783076Y-66536000D01*
X150692142Y-66986765D01*
G36*
X129926000Y-71013400D02*
X129946000Y-71013400D01*
X129946000Y-71023400D01*
X129926000Y-71023400D01*
X129926000Y-72393391D01*
X130168411Y-72548527D01*
X130277976Y-72526733D01*
X130828017Y-72275309D01*
X131191301Y-71884846D01*
X131364984Y-72144782D01*
X131867841Y-72480779D01*
X132461000Y-72598766D01*
X133054159Y-72480779D01*
X133557016Y-72144782D01*
X133731000Y-71884396D01*
X133904984Y-72144782D01*
X133948689Y-72173985D01*
X133389274Y-72733400D01*
X128651000Y-72733400D01*
X128335286Y-72796199D01*
X128067637Y-72975037D01*
X126797637Y-74245037D01*
X126618799Y-74512686D01*
X126556000Y-74828400D01*
X126556000Y-76060932D01*
X126284984Y-76242018D01*
X126111000Y-76502404D01*
X125937016Y-76242018D01*
X125434159Y-75906021D01*
X124841000Y-75788034D01*
X124396000Y-75876550D01*
X124396000Y-72510250D01*
X124841000Y-72598766D01*
X125434159Y-72480779D01*
X125937016Y-72144782D01*
X126111000Y-71884396D01*
X126284984Y-72144782D01*
X126787841Y-72480779D01*
X127381000Y-72598766D01*
X127974159Y-72480779D01*
X128477016Y-72144782D01*
X128650699Y-71884846D01*
X129013983Y-72275309D01*
X129564024Y-72526733D01*
X129673589Y-72548527D01*
X129916000Y-72393391D01*
X129916000Y-71023400D01*
X129896000Y-71023400D01*
X129896000Y-71013400D01*
X129916000Y-71013400D01*
X129916000Y-70993400D01*
X129926000Y-70993400D01*
X129926000Y-71013400D01*
X129926000Y-71013400D01*
G37*
X129926000Y-71013400D02*
X129946000Y-71013400D01*
X129946000Y-71023400D01*
X129926000Y-71023400D01*
X129926000Y-72393391D01*
X130168411Y-72548527D01*
X130277976Y-72526733D01*
X130828017Y-72275309D01*
X131191301Y-71884846D01*
X131364984Y-72144782D01*
X131867841Y-72480779D01*
X132461000Y-72598766D01*
X133054159Y-72480779D01*
X133557016Y-72144782D01*
X133731000Y-71884396D01*
X133904984Y-72144782D01*
X133948689Y-72173985D01*
X133389274Y-72733400D01*
X128651000Y-72733400D01*
X128335286Y-72796199D01*
X128067637Y-72975037D01*
X126797637Y-74245037D01*
X126618799Y-74512686D01*
X126556000Y-74828400D01*
X126556000Y-76060932D01*
X126284984Y-76242018D01*
X126111000Y-76502404D01*
X125937016Y-76242018D01*
X125434159Y-75906021D01*
X124841000Y-75788034D01*
X124396000Y-75876550D01*
X124396000Y-72510250D01*
X124841000Y-72598766D01*
X125434159Y-72480779D01*
X125937016Y-72144782D01*
X126111000Y-71884396D01*
X126284984Y-72144782D01*
X126787841Y-72480779D01*
X127381000Y-72598766D01*
X127974159Y-72480779D01*
X128477016Y-72144782D01*
X128650699Y-71884846D01*
X129013983Y-72275309D01*
X129564024Y-72526733D01*
X129673589Y-72548527D01*
X129916000Y-72393391D01*
X129916000Y-71023400D01*
X129896000Y-71023400D01*
X129896000Y-71013400D01*
X129916000Y-71013400D01*
X129916000Y-70993400D01*
X129926000Y-70993400D01*
X129926000Y-71013400D01*
G36*
X109606000Y-71013400D02*
X109626000Y-71013400D01*
X109626000Y-71023400D01*
X109606000Y-71023400D01*
X109606000Y-72393391D01*
X109848411Y-72548527D01*
X109957976Y-72526733D01*
X110046000Y-72486497D01*
X110046000Y-72923400D01*
X110108799Y-73239114D01*
X110287637Y-73506763D01*
X111419274Y-74638400D01*
X109307726Y-74638400D01*
X107233733Y-72564407D01*
X107654159Y-72480779D01*
X108157016Y-72144782D01*
X108330699Y-71884846D01*
X108693983Y-72275309D01*
X109244024Y-72526733D01*
X109353589Y-72548527D01*
X109596000Y-72393391D01*
X109596000Y-71023400D01*
X109576000Y-71023400D01*
X109576000Y-71013400D01*
X109596000Y-71013400D01*
X109596000Y-70993400D01*
X109606000Y-70993400D01*
X109606000Y-71013400D01*
X109606000Y-71013400D01*
G37*
X109606000Y-71013400D02*
X109626000Y-71013400D01*
X109626000Y-71023400D01*
X109606000Y-71023400D01*
X109606000Y-72393391D01*
X109848411Y-72548527D01*
X109957976Y-72526733D01*
X110046000Y-72486497D01*
X110046000Y-72923400D01*
X110108799Y-73239114D01*
X110287637Y-73506763D01*
X111419274Y-74638400D01*
X109307726Y-74638400D01*
X107233733Y-72564407D01*
X107654159Y-72480779D01*
X108157016Y-72144782D01*
X108330699Y-71884846D01*
X108693983Y-72275309D01*
X109244024Y-72526733D01*
X109353589Y-72548527D01*
X109596000Y-72393391D01*
X109596000Y-71023400D01*
X109576000Y-71023400D01*
X109576000Y-71013400D01*
X109596000Y-71013400D01*
X109596000Y-70993400D01*
X109606000Y-70993400D01*
X109606000Y-71013400D01*
G36*
X128824984Y-69604782D02*
X129041020Y-69749132D01*
X129013983Y-69761491D01*
X128650699Y-70151954D01*
X128477016Y-69892018D01*
X128262076Y-69748400D01*
X128477016Y-69604782D01*
X128651000Y-69344396D01*
X128824984Y-69604782D01*
X128824984Y-69604782D01*
G37*
X128824984Y-69604782D02*
X129041020Y-69749132D01*
X129013983Y-69761491D01*
X128650699Y-70151954D01*
X128477016Y-69892018D01*
X128262076Y-69748400D01*
X128477016Y-69604782D01*
X128651000Y-69344396D01*
X128824984Y-69604782D01*
M02*
