G04 #@! TF.FileFunction,Profile,NP*
%FSLAX46Y46*%
G04 Gerber Fmt 4.6, Leading zero omitted, Abs format (unit mm)*
G04 Created by KiCad (PCBNEW 4.0.6-e0-6349~53~ubuntu14.04.1) date Thu May  4 17:22:46 2017*
%MOMM*%
%LPD*%
G01*
G04 APERTURE LIST*
%ADD10C,0.100000*%
G04 APERTURE END LIST*
D10*
X153059000Y-102286000D02*
G75*
G03X156059000Y-99286000I0J3000000D01*
G01*
X137059000Y-102286000D02*
X153059000Y-102286000D01*
X137059000Y-102286000D02*
G75*
G03X136059000Y-103286000I0J-1000000D01*
G01*
X136059000Y-103286000D02*
X136059000Y-119286000D01*
X92059000Y-102786000D02*
G75*
G03X91059000Y-103786000I0J-1000000D01*
G01*
X95059000Y-102786000D02*
G75*
G03X96059000Y-101786000I0J1000000D01*
G01*
X96059000Y-86786000D02*
G75*
G03X95059000Y-85786000I-1000000J0D01*
G01*
X91059000Y-84786000D02*
G75*
G03X92059000Y-85786000I1000000J0D01*
G01*
X133059000Y-122286000D02*
G75*
G03X136059000Y-119286000I0J3000000D01*
G01*
X91059000Y-119286000D02*
G75*
G03X94059000Y-122286000I3000000J0D01*
G01*
X94059000Y-65786000D02*
G75*
G03X91059000Y-68786000I0J-3000000D01*
G01*
X156059000Y-68786000D02*
G75*
G03X153059000Y-65786000I-3000000J0D01*
G01*
X91059000Y-103786000D02*
X91059000Y-119286000D01*
X91059000Y-68786000D02*
X91059000Y-84786000D01*
X92059000Y-102786000D02*
X95059000Y-102786000D01*
X92059000Y-85786000D02*
X95059000Y-85786000D01*
X96059000Y-86786000D02*
X96059000Y-101786000D01*
X94059000Y-122286000D02*
X133059000Y-122286000D01*
X156059000Y-68786000D02*
X156059000Y-99286000D01*
X94059000Y-65786000D02*
X153059000Y-65786000D01*
M02*
