G04 #@! TF.FileFunction,Soldermask,Bot*
%FSLAX46Y46*%
G04 Gerber Fmt 4.6, Leading zero omitted, Abs format (unit mm)*
G04 Created by KiCad (PCBNEW 4.0.6-e0-6349~53~ubuntu14.04.1) date Thu May  4 17:22:46 2017*
%MOMM*%
%LPD*%
G01*
G04 APERTURE LIST*
%ADD10C,0.100000*%
%ADD11C,1.700000*%
%ADD12O,1.700000X1.700000*%
%ADD13R,1.700000X1.700000*%
%ADD14C,6.200000*%
G04 APERTURE END LIST*
D10*
D11*
X113411000Y-81178400D03*
D12*
X110871000Y-81178400D03*
X108331000Y-81178400D03*
X105791000Y-81178400D03*
D13*
X99441000Y-68478400D03*
D12*
X99441000Y-71018400D03*
X101981000Y-68478400D03*
X101981000Y-71018400D03*
X104521000Y-68478400D03*
X104521000Y-71018400D03*
X107061000Y-68478400D03*
X107061000Y-71018400D03*
X109601000Y-68478400D03*
X109601000Y-71018400D03*
X112141000Y-68478400D03*
X112141000Y-71018400D03*
X114681000Y-68478400D03*
X114681000Y-71018400D03*
X117221000Y-68478400D03*
X117221000Y-71018400D03*
X119761000Y-68478400D03*
X119761000Y-71018400D03*
X122301000Y-68478400D03*
X122301000Y-71018400D03*
X124841000Y-68478400D03*
X124841000Y-71018400D03*
X127381000Y-68478400D03*
X127381000Y-71018400D03*
X129921000Y-68478400D03*
X129921000Y-71018400D03*
X132461000Y-68478400D03*
X132461000Y-71018400D03*
X135001000Y-68478400D03*
X135001000Y-71018400D03*
X137541000Y-68478400D03*
X137541000Y-71018400D03*
X140081000Y-68478400D03*
X140081000Y-71018400D03*
X142621000Y-68478400D03*
X142621000Y-71018400D03*
X145161000Y-68478400D03*
X145161000Y-71018400D03*
X147701000Y-68478400D03*
X147701000Y-71018400D03*
D13*
X124841000Y-104038400D03*
D12*
X124841000Y-106578400D03*
X124841000Y-109118400D03*
X124841000Y-111658400D03*
X124841000Y-114198400D03*
X124841000Y-116738400D03*
D14*
X152559000Y-69786000D03*
X94559000Y-118786000D03*
X94559000Y-69786000D03*
D13*
X132461000Y-104038400D03*
D12*
X132461000Y-106578400D03*
X132461000Y-109118400D03*
X132461000Y-111658400D03*
X132461000Y-114198400D03*
X132461000Y-116738400D03*
D11*
X105791000Y-104038400D03*
D12*
X108331000Y-104038400D03*
X110871000Y-104038400D03*
X113411000Y-104038400D03*
D11*
X105791000Y-106578400D03*
D12*
X108331000Y-106578400D03*
X110871000Y-106578400D03*
X113411000Y-106578400D03*
D11*
X105791000Y-109118400D03*
D12*
X108331000Y-109118400D03*
X110871000Y-109118400D03*
X113411000Y-109118400D03*
D11*
X105791000Y-114198400D03*
D12*
X108331000Y-114198400D03*
X110871000Y-114198400D03*
X113411000Y-114198400D03*
D11*
X113411000Y-116738400D03*
D12*
X110871000Y-116738400D03*
X108331000Y-116738400D03*
X105791000Y-116738400D03*
D11*
X113411000Y-78638400D03*
D12*
X110871000Y-78638400D03*
X108331000Y-78638400D03*
X105791000Y-78638400D03*
D11*
X113411000Y-92608400D03*
D12*
X110871000Y-92608400D03*
X108331000Y-92608400D03*
X105791000Y-92608400D03*
D11*
X113411000Y-95148400D03*
D12*
X110871000Y-95148400D03*
X108331000Y-95148400D03*
X105791000Y-95148400D03*
D11*
X124841000Y-90068400D03*
D12*
X124841000Y-92608400D03*
X124841000Y-95148400D03*
X124841000Y-97688400D03*
D11*
X132461000Y-77368400D03*
D12*
X129921000Y-77368400D03*
X127381000Y-77368400D03*
X124841000Y-77368400D03*
D11*
X132461000Y-83718400D03*
D12*
X129921000Y-83718400D03*
X127381000Y-83718400D03*
X124841000Y-83718400D03*
D11*
X147701000Y-77368400D03*
D12*
X145161000Y-77368400D03*
X142621000Y-77368400D03*
X140081000Y-77368400D03*
D11*
X147701000Y-83718400D03*
D12*
X145161000Y-83718400D03*
X142621000Y-83718400D03*
X140081000Y-83718400D03*
D11*
X132461000Y-90068400D03*
D12*
X132461000Y-92608400D03*
X132461000Y-95148400D03*
X132461000Y-97688400D03*
D11*
X147701000Y-97688400D03*
D12*
X145161000Y-97688400D03*
X142621000Y-97688400D03*
X140081000Y-97688400D03*
D11*
X147701000Y-90068400D03*
D12*
X145161000Y-90068400D03*
X142621000Y-90068400D03*
X140081000Y-90068400D03*
D13*
X100711000Y-78638400D03*
D12*
X100711000Y-81178400D03*
M02*
