G04 #@! TF.GenerationSoftware,KiCad,Pcbnew,(5.1.4)-1*
G04 #@! TF.CreationDate,2019-10-30T20:18:52-05:00*
G04 #@! TF.ProjectId,shield_display,73686965-6c64-45f6-9469-73706c61792e,rev?*
G04 #@! TF.SameCoordinates,Original*
G04 #@! TF.FileFunction,Legend,Top*
G04 #@! TF.FilePolarity,Positive*
%FSLAX46Y46*%
G04 Gerber Fmt 4.6, Leading zero omitted, Abs format (unit mm)*
G04 Created by KiCad (PCBNEW (5.1.4)-1) date 2019-10-30 20:18:52*
%MOMM*%
%LPD*%
G04 APERTURE LIST*
%ADD10C,0.100000*%
%ADD11C,0.110000*%
%ADD12C,0.010000*%
%ADD13C,0.150000*%
%ADD14C,0.120000*%
G04 APERTURE END LIST*
D10*
X148883000Y-102323066D02*
X148883000Y-101623066D01*
X149149666Y-101623066D01*
X149216333Y-101656400D01*
X149249666Y-101689733D01*
X149283000Y-101756400D01*
X149283000Y-101856400D01*
X149249666Y-101923066D01*
X149216333Y-101956400D01*
X149149666Y-101989733D01*
X148883000Y-101989733D01*
X149549666Y-101689733D02*
X149583000Y-101656400D01*
X149649666Y-101623066D01*
X149816333Y-101623066D01*
X149883000Y-101656400D01*
X149916333Y-101689733D01*
X149949666Y-101756400D01*
X149949666Y-101823066D01*
X149916333Y-101923066D01*
X149516333Y-102323066D01*
X149949666Y-102323066D01*
X150549666Y-101856400D02*
X150549666Y-102323066D01*
X150383000Y-101589733D02*
X150216333Y-102089733D01*
X150649666Y-102089733D01*
X148883000Y-91147066D02*
X148883000Y-90447066D01*
X149149666Y-90447066D01*
X149216333Y-90480400D01*
X149249666Y-90513733D01*
X149283000Y-90580400D01*
X149283000Y-90680400D01*
X149249666Y-90747066D01*
X149216333Y-90780400D01*
X149149666Y-90813733D01*
X148883000Y-90813733D01*
X149549666Y-90513733D02*
X149583000Y-90480400D01*
X149649666Y-90447066D01*
X149816333Y-90447066D01*
X149883000Y-90480400D01*
X149916333Y-90513733D01*
X149949666Y-90580400D01*
X149949666Y-90647066D01*
X149916333Y-90747066D01*
X149516333Y-91147066D01*
X149949666Y-91147066D01*
X150549666Y-90447066D02*
X150416333Y-90447066D01*
X150349666Y-90480400D01*
X150316333Y-90513733D01*
X150249666Y-90613733D01*
X150216333Y-90747066D01*
X150216333Y-91013733D01*
X150249666Y-91080400D01*
X150283000Y-91113733D01*
X150349666Y-91147066D01*
X150483000Y-91147066D01*
X150549666Y-91113733D01*
X150583000Y-91080400D01*
X150616333Y-91013733D01*
X150616333Y-90847066D01*
X150583000Y-90780400D01*
X150549666Y-90747066D01*
X150483000Y-90713733D01*
X150349666Y-90713733D01*
X150283000Y-90747066D01*
X150249666Y-90780400D01*
X150216333Y-90847066D01*
X96051000Y-82511066D02*
X96051000Y-81811066D01*
X96317666Y-81811066D01*
X96384333Y-81844400D01*
X96417666Y-81877733D01*
X96451000Y-81944400D01*
X96451000Y-82044400D01*
X96417666Y-82111066D01*
X96384333Y-82144400D01*
X96317666Y-82177733D01*
X96051000Y-82177733D01*
X97051000Y-81811066D02*
X96917666Y-81811066D01*
X96851000Y-81844400D01*
X96817666Y-81877733D01*
X96751000Y-81977733D01*
X96717666Y-82111066D01*
X96717666Y-82377733D01*
X96751000Y-82444400D01*
X96784333Y-82477733D01*
X96851000Y-82511066D01*
X96984333Y-82511066D01*
X97051000Y-82477733D01*
X97084333Y-82444400D01*
X97117666Y-82377733D01*
X97117666Y-82211066D01*
X97084333Y-82144400D01*
X97051000Y-82111066D01*
X96984333Y-82077733D01*
X96851000Y-82077733D01*
X96784333Y-82111066D01*
X96751000Y-82144400D01*
X96717666Y-82211066D01*
X97751000Y-81811066D02*
X97417666Y-81811066D01*
X97384333Y-82144400D01*
X97417666Y-82111066D01*
X97484333Y-82077733D01*
X97651000Y-82077733D01*
X97717666Y-82111066D01*
X97751000Y-82144400D01*
X97784333Y-82211066D01*
X97784333Y-82377733D01*
X97751000Y-82444400D01*
X97717666Y-82477733D01*
X97651000Y-82511066D01*
X97484333Y-82511066D01*
X97417666Y-82477733D01*
X97384333Y-82444400D01*
X93523666Y-82511066D02*
X93523666Y-81811066D01*
X93790333Y-81811066D01*
X93857000Y-81844400D01*
X93890333Y-81877733D01*
X93923666Y-81944400D01*
X93923666Y-82044400D01*
X93890333Y-82111066D01*
X93857000Y-82144400D01*
X93790333Y-82177733D01*
X93523666Y-82177733D01*
X94523666Y-81811066D02*
X94390333Y-81811066D01*
X94323666Y-81844400D01*
X94290333Y-81877733D01*
X94223666Y-81977733D01*
X94190333Y-82111066D01*
X94190333Y-82377733D01*
X94223666Y-82444400D01*
X94257000Y-82477733D01*
X94323666Y-82511066D01*
X94457000Y-82511066D01*
X94523666Y-82477733D01*
X94557000Y-82444400D01*
X94590333Y-82377733D01*
X94590333Y-82211066D01*
X94557000Y-82144400D01*
X94523666Y-82111066D01*
X94457000Y-82077733D01*
X94323666Y-82077733D01*
X94257000Y-82111066D01*
X94223666Y-82144400D01*
X94190333Y-82211066D01*
X95190333Y-82044400D02*
X95190333Y-82511066D01*
X95023666Y-81777733D02*
X94857000Y-82277733D01*
X95290333Y-82277733D01*
X133643000Y-98767066D02*
X133643000Y-98067066D01*
X133909666Y-98067066D01*
X133976333Y-98100400D01*
X134009666Y-98133733D01*
X134043000Y-98200400D01*
X134043000Y-98300400D01*
X134009666Y-98367066D01*
X133976333Y-98400400D01*
X133909666Y-98433733D01*
X133643000Y-98433733D01*
X134643000Y-98067066D02*
X134509666Y-98067066D01*
X134443000Y-98100400D01*
X134409666Y-98133733D01*
X134343000Y-98233733D01*
X134309666Y-98367066D01*
X134309666Y-98633733D01*
X134343000Y-98700400D01*
X134376333Y-98733733D01*
X134443000Y-98767066D01*
X134576333Y-98767066D01*
X134643000Y-98733733D01*
X134676333Y-98700400D01*
X134709666Y-98633733D01*
X134709666Y-98467066D01*
X134676333Y-98400400D01*
X134643000Y-98367066D01*
X134576333Y-98333733D01*
X134443000Y-98333733D01*
X134376333Y-98367066D01*
X134343000Y-98400400D01*
X134309666Y-98467066D01*
X135376333Y-98767066D02*
X134976333Y-98767066D01*
X135176333Y-98767066D02*
X135176333Y-98067066D01*
X135109666Y-98167066D01*
X135043000Y-98233733D01*
X134976333Y-98267066D01*
X126531000Y-98767066D02*
X126531000Y-98067066D01*
X126797666Y-98067066D01*
X126864333Y-98100400D01*
X126897666Y-98133733D01*
X126931000Y-98200400D01*
X126931000Y-98300400D01*
X126897666Y-98367066D01*
X126864333Y-98400400D01*
X126797666Y-98433733D01*
X126531000Y-98433733D01*
X127164333Y-98067066D02*
X127631000Y-98067066D01*
X127331000Y-98767066D01*
X128197666Y-98300400D02*
X128197666Y-98767066D01*
X128031000Y-98033733D02*
X127864333Y-98533733D01*
X128297666Y-98533733D01*
X118911000Y-98767066D02*
X118911000Y-98067066D01*
X119177666Y-98067066D01*
X119244333Y-98100400D01*
X119277666Y-98133733D01*
X119311000Y-98200400D01*
X119311000Y-98300400D01*
X119277666Y-98367066D01*
X119244333Y-98400400D01*
X119177666Y-98433733D01*
X118911000Y-98433733D01*
X119544333Y-98067066D02*
X120011000Y-98067066D01*
X119711000Y-98767066D01*
X120377666Y-98367066D02*
X120311000Y-98333733D01*
X120277666Y-98300400D01*
X120244333Y-98233733D01*
X120244333Y-98200400D01*
X120277666Y-98133733D01*
X120311000Y-98100400D01*
X120377666Y-98067066D01*
X120511000Y-98067066D01*
X120577666Y-98100400D01*
X120611000Y-98133733D01*
X120644333Y-98200400D01*
X120644333Y-98233733D01*
X120611000Y-98300400D01*
X120577666Y-98333733D01*
X120511000Y-98367066D01*
X120377666Y-98367066D01*
X120311000Y-98400400D01*
X120277666Y-98433733D01*
X120244333Y-98500400D01*
X120244333Y-98633733D01*
X120277666Y-98700400D01*
X120311000Y-98733733D01*
X120377666Y-98767066D01*
X120511000Y-98767066D01*
X120577666Y-98733733D01*
X120611000Y-98700400D01*
X120644333Y-98633733D01*
X120644333Y-98500400D01*
X120611000Y-98433733D01*
X120577666Y-98400400D01*
X120511000Y-98367066D01*
X111291000Y-98767066D02*
X111291000Y-98067066D01*
X111557666Y-98067066D01*
X111624333Y-98100400D01*
X111657666Y-98133733D01*
X111691000Y-98200400D01*
X111691000Y-98300400D01*
X111657666Y-98367066D01*
X111624333Y-98400400D01*
X111557666Y-98433733D01*
X111291000Y-98433733D01*
X112291000Y-98067066D02*
X112157666Y-98067066D01*
X112091000Y-98100400D01*
X112057666Y-98133733D01*
X111991000Y-98233733D01*
X111957666Y-98367066D01*
X111957666Y-98633733D01*
X111991000Y-98700400D01*
X112024333Y-98733733D01*
X112091000Y-98767066D01*
X112224333Y-98767066D01*
X112291000Y-98733733D01*
X112324333Y-98700400D01*
X112357666Y-98633733D01*
X112357666Y-98467066D01*
X112324333Y-98400400D01*
X112291000Y-98367066D01*
X112224333Y-98333733D01*
X112091000Y-98333733D01*
X112024333Y-98367066D01*
X111991000Y-98400400D01*
X111957666Y-98467066D01*
X112624333Y-98133733D02*
X112657666Y-98100400D01*
X112724333Y-98067066D01*
X112891000Y-98067066D01*
X112957666Y-98100400D01*
X112991000Y-98133733D01*
X113024333Y-98200400D01*
X113024333Y-98267066D01*
X112991000Y-98367066D01*
X112591000Y-98767066D01*
X113024333Y-98767066D01*
X141771000Y-119087066D02*
X141771000Y-118387066D01*
X142037666Y-118387066D01*
X142104333Y-118420400D01*
X142137666Y-118453733D01*
X142171000Y-118520400D01*
X142171000Y-118620400D01*
X142137666Y-118687066D01*
X142104333Y-118720400D01*
X142037666Y-118753733D01*
X141771000Y-118753733D01*
X142437666Y-118453733D02*
X142471000Y-118420400D01*
X142537666Y-118387066D01*
X142704333Y-118387066D01*
X142771000Y-118420400D01*
X142804333Y-118453733D01*
X142837666Y-118520400D01*
X142837666Y-118587066D01*
X142804333Y-118687066D01*
X142404333Y-119087066D01*
X142837666Y-119087066D01*
X143071000Y-118387066D02*
X143537666Y-118387066D01*
X143237666Y-119087066D01*
X136691000Y-119087066D02*
X136691000Y-118387066D01*
X136957666Y-118387066D01*
X137024333Y-118420400D01*
X137057666Y-118453733D01*
X137091000Y-118520400D01*
X137091000Y-118620400D01*
X137057666Y-118687066D01*
X137024333Y-118720400D01*
X136957666Y-118753733D01*
X136691000Y-118753733D01*
X137357666Y-118453733D02*
X137391000Y-118420400D01*
X137457666Y-118387066D01*
X137624333Y-118387066D01*
X137691000Y-118420400D01*
X137724333Y-118453733D01*
X137757666Y-118520400D01*
X137757666Y-118587066D01*
X137724333Y-118687066D01*
X137324333Y-119087066D01*
X137757666Y-119087066D01*
X138091000Y-119087066D02*
X138224333Y-119087066D01*
X138291000Y-119053733D01*
X138324333Y-119020400D01*
X138391000Y-118920400D01*
X138424333Y-118787066D01*
X138424333Y-118520400D01*
X138391000Y-118453733D01*
X138357666Y-118420400D01*
X138291000Y-118387066D01*
X138157666Y-118387066D01*
X138091000Y-118420400D01*
X138057666Y-118453733D01*
X138024333Y-118520400D01*
X138024333Y-118687066D01*
X138057666Y-118753733D01*
X138091000Y-118787066D01*
X138157666Y-118820400D01*
X138291000Y-118820400D01*
X138357666Y-118787066D01*
X138391000Y-118753733D01*
X138424333Y-118687066D01*
X131611000Y-119087066D02*
X131611000Y-118387066D01*
X131877666Y-118387066D01*
X131944333Y-118420400D01*
X131977666Y-118453733D01*
X132011000Y-118520400D01*
X132011000Y-118620400D01*
X131977666Y-118687066D01*
X131944333Y-118720400D01*
X131877666Y-118753733D01*
X131611000Y-118753733D01*
X132244333Y-118387066D02*
X132677666Y-118387066D01*
X132444333Y-118653733D01*
X132544333Y-118653733D01*
X132611000Y-118687066D01*
X132644333Y-118720400D01*
X132677666Y-118787066D01*
X132677666Y-118953733D01*
X132644333Y-119020400D01*
X132611000Y-119053733D01*
X132544333Y-119087066D01*
X132344333Y-119087066D01*
X132277666Y-119053733D01*
X132244333Y-119020400D01*
X132944333Y-118453733D02*
X132977666Y-118420400D01*
X133044333Y-118387066D01*
X133211000Y-118387066D01*
X133277666Y-118420400D01*
X133311000Y-118453733D01*
X133344333Y-118520400D01*
X133344333Y-118587066D01*
X133311000Y-118687066D01*
X132911000Y-119087066D01*
X133344333Y-119087066D01*
X126531000Y-119087066D02*
X126531000Y-118387066D01*
X126797666Y-118387066D01*
X126864333Y-118420400D01*
X126897666Y-118453733D01*
X126931000Y-118520400D01*
X126931000Y-118620400D01*
X126897666Y-118687066D01*
X126864333Y-118720400D01*
X126797666Y-118753733D01*
X126531000Y-118753733D01*
X127164333Y-118387066D02*
X127597666Y-118387066D01*
X127364333Y-118653733D01*
X127464333Y-118653733D01*
X127531000Y-118687066D01*
X127564333Y-118720400D01*
X127597666Y-118787066D01*
X127597666Y-118953733D01*
X127564333Y-119020400D01*
X127531000Y-119053733D01*
X127464333Y-119087066D01*
X127264333Y-119087066D01*
X127197666Y-119053733D01*
X127164333Y-119020400D01*
X128031000Y-118387066D02*
X128097666Y-118387066D01*
X128164333Y-118420400D01*
X128197666Y-118453733D01*
X128231000Y-118520400D01*
X128264333Y-118653733D01*
X128264333Y-118820400D01*
X128231000Y-118953733D01*
X128197666Y-119020400D01*
X128164333Y-119053733D01*
X128097666Y-119087066D01*
X128031000Y-119087066D01*
X127964333Y-119053733D01*
X127931000Y-119020400D01*
X127897666Y-118953733D01*
X127864333Y-118820400D01*
X127864333Y-118653733D01*
X127897666Y-118520400D01*
X127931000Y-118453733D01*
X127964333Y-118420400D01*
X128031000Y-118387066D01*
X121451000Y-119087066D02*
X121451000Y-118387066D01*
X121717666Y-118387066D01*
X121784333Y-118420400D01*
X121817666Y-118453733D01*
X121851000Y-118520400D01*
X121851000Y-118620400D01*
X121817666Y-118687066D01*
X121784333Y-118720400D01*
X121717666Y-118753733D01*
X121451000Y-118753733D01*
X122084333Y-118387066D02*
X122517666Y-118387066D01*
X122284333Y-118653733D01*
X122384333Y-118653733D01*
X122451000Y-118687066D01*
X122484333Y-118720400D01*
X122517666Y-118787066D01*
X122517666Y-118953733D01*
X122484333Y-119020400D01*
X122451000Y-119053733D01*
X122384333Y-119087066D01*
X122184333Y-119087066D01*
X122117666Y-119053733D01*
X122084333Y-119020400D01*
X122751000Y-118387066D02*
X123184333Y-118387066D01*
X122951000Y-118653733D01*
X123051000Y-118653733D01*
X123117666Y-118687066D01*
X123151000Y-118720400D01*
X123184333Y-118787066D01*
X123184333Y-118953733D01*
X123151000Y-119020400D01*
X123117666Y-119053733D01*
X123051000Y-119087066D01*
X122851000Y-119087066D01*
X122784333Y-119053733D01*
X122751000Y-119020400D01*
X116371000Y-119087066D02*
X116371000Y-118387066D01*
X116637666Y-118387066D01*
X116704333Y-118420400D01*
X116737666Y-118453733D01*
X116771000Y-118520400D01*
X116771000Y-118620400D01*
X116737666Y-118687066D01*
X116704333Y-118720400D01*
X116637666Y-118753733D01*
X116371000Y-118753733D01*
X117004333Y-118387066D02*
X117437666Y-118387066D01*
X117204333Y-118653733D01*
X117304333Y-118653733D01*
X117371000Y-118687066D01*
X117404333Y-118720400D01*
X117437666Y-118787066D01*
X117437666Y-118953733D01*
X117404333Y-119020400D01*
X117371000Y-119053733D01*
X117304333Y-119087066D01*
X117104333Y-119087066D01*
X117037666Y-119053733D01*
X117004333Y-119020400D01*
X118037666Y-118620400D02*
X118037666Y-119087066D01*
X117871000Y-118353733D02*
X117704333Y-118853733D01*
X118137666Y-118853733D01*
X106211000Y-119087066D02*
X106211000Y-118387066D01*
X106477666Y-118387066D01*
X106544333Y-118420400D01*
X106577666Y-118453733D01*
X106611000Y-118520400D01*
X106611000Y-118620400D01*
X106577666Y-118687066D01*
X106544333Y-118720400D01*
X106477666Y-118753733D01*
X106211000Y-118753733D01*
X107244333Y-118387066D02*
X106911000Y-118387066D01*
X106877666Y-118720400D01*
X106911000Y-118687066D01*
X106977666Y-118653733D01*
X107144333Y-118653733D01*
X107211000Y-118687066D01*
X107244333Y-118720400D01*
X107277666Y-118787066D01*
X107277666Y-118953733D01*
X107244333Y-119020400D01*
X107211000Y-119053733D01*
X107144333Y-119087066D01*
X106977666Y-119087066D01*
X106911000Y-119053733D01*
X106877666Y-119020400D01*
X107611000Y-119087066D02*
X107744333Y-119087066D01*
X107811000Y-119053733D01*
X107844333Y-119020400D01*
X107911000Y-118920400D01*
X107944333Y-118787066D01*
X107944333Y-118520400D01*
X107911000Y-118453733D01*
X107877666Y-118420400D01*
X107811000Y-118387066D01*
X107677666Y-118387066D01*
X107611000Y-118420400D01*
X107577666Y-118453733D01*
X107544333Y-118520400D01*
X107544333Y-118687066D01*
X107577666Y-118753733D01*
X107611000Y-118787066D01*
X107677666Y-118820400D01*
X107811000Y-118820400D01*
X107877666Y-118787066D01*
X107911000Y-118753733D01*
X107944333Y-118687066D01*
X111291000Y-119087066D02*
X111291000Y-118387066D01*
X111557666Y-118387066D01*
X111624333Y-118420400D01*
X111657666Y-118453733D01*
X111691000Y-118520400D01*
X111691000Y-118620400D01*
X111657666Y-118687066D01*
X111624333Y-118720400D01*
X111557666Y-118753733D01*
X111291000Y-118753733D01*
X111924333Y-118387066D02*
X112357666Y-118387066D01*
X112124333Y-118653733D01*
X112224333Y-118653733D01*
X112291000Y-118687066D01*
X112324333Y-118720400D01*
X112357666Y-118787066D01*
X112357666Y-118953733D01*
X112324333Y-119020400D01*
X112291000Y-119053733D01*
X112224333Y-119087066D01*
X112024333Y-119087066D01*
X111957666Y-119053733D01*
X111924333Y-119020400D01*
X112991000Y-118387066D02*
X112657666Y-118387066D01*
X112624333Y-118720400D01*
X112657666Y-118687066D01*
X112724333Y-118653733D01*
X112891000Y-118653733D01*
X112957666Y-118687066D01*
X112991000Y-118720400D01*
X113024333Y-118787066D01*
X113024333Y-118953733D01*
X112991000Y-119020400D01*
X112957666Y-119053733D01*
X112891000Y-119087066D01*
X112724333Y-119087066D01*
X112657666Y-119053733D01*
X112624333Y-119020400D01*
X102121666Y-86480066D02*
X102121666Y-85780066D01*
X102288333Y-85780066D01*
X102388333Y-85813400D01*
X102455000Y-85880066D01*
X102488333Y-85946733D01*
X102521666Y-86080066D01*
X102521666Y-86180066D01*
X102488333Y-86313400D01*
X102455000Y-86380066D01*
X102388333Y-86446733D01*
X102288333Y-86480066D01*
X102121666Y-86480066D01*
X102821666Y-86480066D02*
X102821666Y-85780066D01*
X103121666Y-86446733D02*
X103221666Y-86480066D01*
X103388333Y-86480066D01*
X103455000Y-86446733D01*
X103488333Y-86413400D01*
X103521666Y-86346733D01*
X103521666Y-86280066D01*
X103488333Y-86213400D01*
X103455000Y-86180066D01*
X103388333Y-86146733D01*
X103255000Y-86113400D01*
X103188333Y-86080066D01*
X103155000Y-86046733D01*
X103121666Y-85980066D01*
X103121666Y-85913400D01*
X103155000Y-85846733D01*
X103188333Y-85813400D01*
X103255000Y-85780066D01*
X103421666Y-85780066D01*
X103521666Y-85813400D01*
X103821666Y-86480066D02*
X103821666Y-85780066D01*
X104088333Y-85780066D01*
X104155000Y-85813400D01*
X104188333Y-85846733D01*
X104221666Y-85913400D01*
X104221666Y-86013400D01*
X104188333Y-86080066D01*
X104155000Y-86113400D01*
X104088333Y-86146733D01*
X103821666Y-86146733D01*
X104855000Y-86480066D02*
X104521666Y-86480066D01*
X104521666Y-85780066D01*
X105055000Y-86280066D02*
X105388333Y-86280066D01*
X104988333Y-86480066D02*
X105221666Y-85780066D01*
X105455000Y-86480066D01*
X105821666Y-86146733D02*
X105821666Y-86480066D01*
X105588333Y-85780066D02*
X105821666Y-86146733D01*
X106055000Y-85780066D01*
X101888333Y-88580066D02*
X102221666Y-88580066D01*
X101821666Y-88780066D02*
X102055000Y-88080066D01*
X102288333Y-88780066D01*
X103055000Y-88513400D02*
X103588333Y-88513400D01*
X104455000Y-88780066D02*
X104455000Y-88080066D01*
X104721666Y-88080066D01*
X104788333Y-88113400D01*
X104821666Y-88146733D01*
X104855000Y-88213400D01*
X104855000Y-88313400D01*
X104821666Y-88380066D01*
X104788333Y-88413400D01*
X104721666Y-88446733D01*
X104455000Y-88446733D01*
X105088333Y-88080066D02*
X105555000Y-88080066D01*
X105255000Y-88780066D01*
X105855000Y-88780066D02*
X105988333Y-88780066D01*
X106055000Y-88746733D01*
X106088333Y-88713400D01*
X106155000Y-88613400D01*
X106188333Y-88480066D01*
X106188333Y-88213400D01*
X106155000Y-88146733D01*
X106121666Y-88113400D01*
X106055000Y-88080066D01*
X105921666Y-88080066D01*
X105855000Y-88113400D01*
X105821666Y-88146733D01*
X105788333Y-88213400D01*
X105788333Y-88380066D01*
X105821666Y-88446733D01*
X105855000Y-88480066D01*
X105921666Y-88513400D01*
X106055000Y-88513400D01*
X106121666Y-88480066D01*
X106155000Y-88446733D01*
X106188333Y-88380066D01*
X102105000Y-89563400D02*
X102205000Y-89596733D01*
X102238333Y-89630066D01*
X102271666Y-89696733D01*
X102271666Y-89796733D01*
X102238333Y-89863400D01*
X102205000Y-89896733D01*
X102138333Y-89930066D01*
X101871666Y-89930066D01*
X101871666Y-89230066D01*
X102105000Y-89230066D01*
X102171666Y-89263400D01*
X102205000Y-89296733D01*
X102238333Y-89363400D01*
X102238333Y-89430066D01*
X102205000Y-89496733D01*
X102171666Y-89530066D01*
X102105000Y-89563400D01*
X101871666Y-89563400D01*
X103105000Y-89663400D02*
X103638333Y-89663400D01*
X104505000Y-89930066D02*
X104505000Y-89230066D01*
X104771666Y-89230066D01*
X104838333Y-89263400D01*
X104871666Y-89296733D01*
X104905000Y-89363400D01*
X104905000Y-89463400D01*
X104871666Y-89530066D01*
X104838333Y-89563400D01*
X104771666Y-89596733D01*
X104505000Y-89596733D01*
X105305000Y-89530066D02*
X105238333Y-89496733D01*
X105205000Y-89463400D01*
X105171666Y-89396733D01*
X105171666Y-89363400D01*
X105205000Y-89296733D01*
X105238333Y-89263400D01*
X105305000Y-89230066D01*
X105438333Y-89230066D01*
X105505000Y-89263400D01*
X105538333Y-89296733D01*
X105571666Y-89363400D01*
X105571666Y-89396733D01*
X105538333Y-89463400D01*
X105505000Y-89496733D01*
X105438333Y-89530066D01*
X105305000Y-89530066D01*
X105238333Y-89563400D01*
X105205000Y-89596733D01*
X105171666Y-89663400D01*
X105171666Y-89796733D01*
X105205000Y-89863400D01*
X105238333Y-89896733D01*
X105305000Y-89930066D01*
X105438333Y-89930066D01*
X105505000Y-89896733D01*
X105538333Y-89863400D01*
X105571666Y-89796733D01*
X105571666Y-89663400D01*
X105538333Y-89596733D01*
X105505000Y-89563400D01*
X105438333Y-89530066D01*
X106238333Y-89930066D02*
X105838333Y-89930066D01*
X106038333Y-89930066D02*
X106038333Y-89230066D01*
X105971666Y-89330066D01*
X105905000Y-89396733D01*
X105838333Y-89430066D01*
X102271666Y-91013400D02*
X102238333Y-91046733D01*
X102138333Y-91080066D01*
X102071666Y-91080066D01*
X101971666Y-91046733D01*
X101905000Y-90980066D01*
X101871666Y-90913400D01*
X101838333Y-90780066D01*
X101838333Y-90680066D01*
X101871666Y-90546733D01*
X101905000Y-90480066D01*
X101971666Y-90413400D01*
X102071666Y-90380066D01*
X102138333Y-90380066D01*
X102238333Y-90413400D01*
X102271666Y-90446733D01*
X103105000Y-90813400D02*
X103638333Y-90813400D01*
X104505000Y-91080066D02*
X104505000Y-90380066D01*
X104771666Y-90380066D01*
X104838333Y-90413400D01*
X104871666Y-90446733D01*
X104905000Y-90513400D01*
X104905000Y-90613400D01*
X104871666Y-90680066D01*
X104838333Y-90713400D01*
X104771666Y-90746733D01*
X104505000Y-90746733D01*
X105305000Y-90680066D02*
X105238333Y-90646733D01*
X105205000Y-90613400D01*
X105171666Y-90546733D01*
X105171666Y-90513400D01*
X105205000Y-90446733D01*
X105238333Y-90413400D01*
X105305000Y-90380066D01*
X105438333Y-90380066D01*
X105505000Y-90413400D01*
X105538333Y-90446733D01*
X105571666Y-90513400D01*
X105571666Y-90546733D01*
X105538333Y-90613400D01*
X105505000Y-90646733D01*
X105438333Y-90680066D01*
X105305000Y-90680066D01*
X105238333Y-90713400D01*
X105205000Y-90746733D01*
X105171666Y-90813400D01*
X105171666Y-90946733D01*
X105205000Y-91013400D01*
X105238333Y-91046733D01*
X105305000Y-91080066D01*
X105438333Y-91080066D01*
X105505000Y-91046733D01*
X105538333Y-91013400D01*
X105571666Y-90946733D01*
X105571666Y-90813400D01*
X105538333Y-90746733D01*
X105505000Y-90713400D01*
X105438333Y-90680066D01*
X106005000Y-90380066D02*
X106071666Y-90380066D01*
X106138333Y-90413400D01*
X106171666Y-90446733D01*
X106205000Y-90513400D01*
X106238333Y-90646733D01*
X106238333Y-90813400D01*
X106205000Y-90946733D01*
X106171666Y-91013400D01*
X106138333Y-91046733D01*
X106071666Y-91080066D01*
X106005000Y-91080066D01*
X105938333Y-91046733D01*
X105905000Y-91013400D01*
X105871666Y-90946733D01*
X105838333Y-90813400D01*
X105838333Y-90646733D01*
X105871666Y-90513400D01*
X105905000Y-90446733D01*
X105938333Y-90413400D01*
X106005000Y-90380066D01*
X101871666Y-92230066D02*
X101871666Y-91530066D01*
X102038333Y-91530066D01*
X102138333Y-91563400D01*
X102205000Y-91630066D01*
X102238333Y-91696733D01*
X102271666Y-91830066D01*
X102271666Y-91930066D01*
X102238333Y-92063400D01*
X102205000Y-92130066D01*
X102138333Y-92196733D01*
X102038333Y-92230066D01*
X101871666Y-92230066D01*
X103105000Y-91963400D02*
X103638333Y-91963400D01*
X104505000Y-92230066D02*
X104505000Y-91530066D01*
X104771666Y-91530066D01*
X104838333Y-91563400D01*
X104871666Y-91596733D01*
X104905000Y-91663400D01*
X104905000Y-91763400D01*
X104871666Y-91830066D01*
X104838333Y-91863400D01*
X104771666Y-91896733D01*
X104505000Y-91896733D01*
X105305000Y-91830066D02*
X105238333Y-91796733D01*
X105205000Y-91763400D01*
X105171666Y-91696733D01*
X105171666Y-91663400D01*
X105205000Y-91596733D01*
X105238333Y-91563400D01*
X105305000Y-91530066D01*
X105438333Y-91530066D01*
X105505000Y-91563400D01*
X105538333Y-91596733D01*
X105571666Y-91663400D01*
X105571666Y-91696733D01*
X105538333Y-91763400D01*
X105505000Y-91796733D01*
X105438333Y-91830066D01*
X105305000Y-91830066D01*
X105238333Y-91863400D01*
X105205000Y-91896733D01*
X105171666Y-91963400D01*
X105171666Y-92096733D01*
X105205000Y-92163400D01*
X105238333Y-92196733D01*
X105305000Y-92230066D01*
X105438333Y-92230066D01*
X105505000Y-92196733D01*
X105538333Y-92163400D01*
X105571666Y-92096733D01*
X105571666Y-91963400D01*
X105538333Y-91896733D01*
X105505000Y-91863400D01*
X105438333Y-91830066D01*
X105805000Y-91530066D02*
X106271666Y-91530066D01*
X105971666Y-92230066D01*
X101905000Y-93013400D02*
X102138333Y-93013400D01*
X102238333Y-93380066D02*
X101905000Y-93380066D01*
X101905000Y-92680066D01*
X102238333Y-92680066D01*
X103071666Y-93113400D02*
X103605000Y-93113400D01*
X104471666Y-93380066D02*
X104471666Y-92680066D01*
X104738333Y-92680066D01*
X104805000Y-92713400D01*
X104838333Y-92746733D01*
X104871666Y-92813400D01*
X104871666Y-92913400D01*
X104838333Y-92980066D01*
X104805000Y-93013400D01*
X104738333Y-93046733D01*
X104471666Y-93046733D01*
X105271666Y-92980066D02*
X105205000Y-92946733D01*
X105171666Y-92913400D01*
X105138333Y-92846733D01*
X105138333Y-92813400D01*
X105171666Y-92746733D01*
X105205000Y-92713400D01*
X105271666Y-92680066D01*
X105405000Y-92680066D01*
X105471666Y-92713400D01*
X105505000Y-92746733D01*
X105538333Y-92813400D01*
X105538333Y-92846733D01*
X105505000Y-92913400D01*
X105471666Y-92946733D01*
X105405000Y-92980066D01*
X105271666Y-92980066D01*
X105205000Y-93013400D01*
X105171666Y-93046733D01*
X105138333Y-93113400D01*
X105138333Y-93246733D01*
X105171666Y-93313400D01*
X105205000Y-93346733D01*
X105271666Y-93380066D01*
X105405000Y-93380066D01*
X105471666Y-93346733D01*
X105505000Y-93313400D01*
X105538333Y-93246733D01*
X105538333Y-93113400D01*
X105505000Y-93046733D01*
X105471666Y-93013400D01*
X105405000Y-92980066D01*
X106171666Y-92680066D02*
X105838333Y-92680066D01*
X105805000Y-93013400D01*
X105838333Y-92980066D01*
X105905000Y-92946733D01*
X106071666Y-92946733D01*
X106138333Y-92980066D01*
X106171666Y-93013400D01*
X106205000Y-93080066D01*
X106205000Y-93246733D01*
X106171666Y-93313400D01*
X106138333Y-93346733D01*
X106071666Y-93380066D01*
X105905000Y-93380066D01*
X105838333Y-93346733D01*
X105805000Y-93313400D01*
X102155000Y-94163400D02*
X101921666Y-94163400D01*
X101921666Y-94530066D02*
X101921666Y-93830066D01*
X102255000Y-93830066D01*
X103055000Y-94263400D02*
X103588333Y-94263400D01*
X104455000Y-94530066D02*
X104455000Y-93830066D01*
X104721666Y-93830066D01*
X104788333Y-93863400D01*
X104821666Y-93896733D01*
X104855000Y-93963400D01*
X104855000Y-94063400D01*
X104821666Y-94130066D01*
X104788333Y-94163400D01*
X104721666Y-94196733D01*
X104455000Y-94196733D01*
X105255000Y-94130066D02*
X105188333Y-94096733D01*
X105155000Y-94063400D01*
X105121666Y-93996733D01*
X105121666Y-93963400D01*
X105155000Y-93896733D01*
X105188333Y-93863400D01*
X105255000Y-93830066D01*
X105388333Y-93830066D01*
X105455000Y-93863400D01*
X105488333Y-93896733D01*
X105521666Y-93963400D01*
X105521666Y-93996733D01*
X105488333Y-94063400D01*
X105455000Y-94096733D01*
X105388333Y-94130066D01*
X105255000Y-94130066D01*
X105188333Y-94163400D01*
X105155000Y-94196733D01*
X105121666Y-94263400D01*
X105121666Y-94396733D01*
X105155000Y-94463400D01*
X105188333Y-94496733D01*
X105255000Y-94530066D01*
X105388333Y-94530066D01*
X105455000Y-94496733D01*
X105488333Y-94463400D01*
X105521666Y-94396733D01*
X105521666Y-94263400D01*
X105488333Y-94196733D01*
X105455000Y-94163400D01*
X105388333Y-94130066D01*
X106121666Y-94063400D02*
X106121666Y-94530066D01*
X105955000Y-93796733D02*
X105788333Y-94296733D01*
X106221666Y-94296733D01*
X102238333Y-95013400D02*
X102171666Y-94980066D01*
X102071666Y-94980066D01*
X101971666Y-95013400D01*
X101905000Y-95080066D01*
X101871666Y-95146733D01*
X101838333Y-95280066D01*
X101838333Y-95380066D01*
X101871666Y-95513400D01*
X101905000Y-95580066D01*
X101971666Y-95646733D01*
X102071666Y-95680066D01*
X102138333Y-95680066D01*
X102238333Y-95646733D01*
X102271666Y-95613400D01*
X102271666Y-95380066D01*
X102138333Y-95380066D01*
X103105000Y-95413400D02*
X103638333Y-95413400D01*
X104505000Y-95680066D02*
X104505000Y-94980066D01*
X104771666Y-94980066D01*
X104838333Y-95013400D01*
X104871666Y-95046733D01*
X104905000Y-95113400D01*
X104905000Y-95213400D01*
X104871666Y-95280066D01*
X104838333Y-95313400D01*
X104771666Y-95346733D01*
X104505000Y-95346733D01*
X105305000Y-95280066D02*
X105238333Y-95246733D01*
X105205000Y-95213400D01*
X105171666Y-95146733D01*
X105171666Y-95113400D01*
X105205000Y-95046733D01*
X105238333Y-95013400D01*
X105305000Y-94980066D01*
X105438333Y-94980066D01*
X105505000Y-95013400D01*
X105538333Y-95046733D01*
X105571666Y-95113400D01*
X105571666Y-95146733D01*
X105538333Y-95213400D01*
X105505000Y-95246733D01*
X105438333Y-95280066D01*
X105305000Y-95280066D01*
X105238333Y-95313400D01*
X105205000Y-95346733D01*
X105171666Y-95413400D01*
X105171666Y-95546733D01*
X105205000Y-95613400D01*
X105238333Y-95646733D01*
X105305000Y-95680066D01*
X105438333Y-95680066D01*
X105505000Y-95646733D01*
X105538333Y-95613400D01*
X105571666Y-95546733D01*
X105571666Y-95413400D01*
X105538333Y-95346733D01*
X105505000Y-95313400D01*
X105438333Y-95280066D01*
X105805000Y-94980066D02*
X106238333Y-94980066D01*
X106005000Y-95246733D01*
X106105000Y-95246733D01*
X106171666Y-95280066D01*
X106205000Y-95313400D01*
X106238333Y-95380066D01*
X106238333Y-95546733D01*
X106205000Y-95613400D01*
X106171666Y-95646733D01*
X106105000Y-95680066D01*
X105905000Y-95680066D01*
X105838333Y-95646733D01*
X105805000Y-95613400D01*
X101255000Y-96830066D02*
X101255000Y-96130066D01*
X101421666Y-96130066D01*
X101521666Y-96163400D01*
X101588333Y-96230066D01*
X101621666Y-96296733D01*
X101655000Y-96430066D01*
X101655000Y-96530066D01*
X101621666Y-96663400D01*
X101588333Y-96730066D01*
X101521666Y-96796733D01*
X101421666Y-96830066D01*
X101255000Y-96830066D01*
X101955000Y-96830066D02*
X101955000Y-96130066D01*
X102221666Y-96130066D01*
X102288333Y-96163400D01*
X102321666Y-96196733D01*
X102355000Y-96263400D01*
X102355000Y-96363400D01*
X102321666Y-96430066D01*
X102288333Y-96463400D01*
X102221666Y-96496733D01*
X101955000Y-96496733D01*
X103188333Y-96563400D02*
X103721666Y-96563400D01*
X104588333Y-96830066D02*
X104588333Y-96130066D01*
X104855000Y-96130066D01*
X104921666Y-96163400D01*
X104955000Y-96196733D01*
X104988333Y-96263400D01*
X104988333Y-96363400D01*
X104955000Y-96430066D01*
X104921666Y-96463400D01*
X104855000Y-96496733D01*
X104588333Y-96496733D01*
X105388333Y-96430066D02*
X105321666Y-96396733D01*
X105288333Y-96363400D01*
X105255000Y-96296733D01*
X105255000Y-96263400D01*
X105288333Y-96196733D01*
X105321666Y-96163400D01*
X105388333Y-96130066D01*
X105521666Y-96130066D01*
X105588333Y-96163400D01*
X105621666Y-96196733D01*
X105655000Y-96263400D01*
X105655000Y-96296733D01*
X105621666Y-96363400D01*
X105588333Y-96396733D01*
X105521666Y-96430066D01*
X105388333Y-96430066D01*
X105321666Y-96463400D01*
X105288333Y-96496733D01*
X105255000Y-96563400D01*
X105255000Y-96696733D01*
X105288333Y-96763400D01*
X105321666Y-96796733D01*
X105388333Y-96830066D01*
X105521666Y-96830066D01*
X105588333Y-96796733D01*
X105621666Y-96763400D01*
X105655000Y-96696733D01*
X105655000Y-96563400D01*
X105621666Y-96496733D01*
X105588333Y-96463400D01*
X105521666Y-96430066D01*
X105921666Y-96196733D02*
X105955000Y-96163400D01*
X106021666Y-96130066D01*
X106188333Y-96130066D01*
X106255000Y-96163400D01*
X106288333Y-96196733D01*
X106321666Y-96263400D01*
X106321666Y-96330066D01*
X106288333Y-96430066D01*
X105888333Y-96830066D01*
X106321666Y-96830066D01*
D11*
X98543857Y-98764114D02*
X98572428Y-98678400D01*
X98572428Y-98535542D01*
X98543857Y-98478400D01*
X98515285Y-98449828D01*
X98458142Y-98421257D01*
X98401000Y-98421257D01*
X98343857Y-98449828D01*
X98315285Y-98478400D01*
X98286714Y-98535542D01*
X98258142Y-98649828D01*
X98229571Y-98706971D01*
X98201000Y-98735542D01*
X98143857Y-98764114D01*
X98086714Y-98764114D01*
X98029571Y-98735542D01*
X98001000Y-98706971D01*
X97972428Y-98649828D01*
X97972428Y-98506971D01*
X98001000Y-98421257D01*
X98572428Y-98164114D02*
X97972428Y-98164114D01*
X98258142Y-98164114D02*
X98258142Y-97821257D01*
X98572428Y-97821257D02*
X97972428Y-97821257D01*
X98572428Y-97535542D02*
X97972428Y-97535542D01*
X98258142Y-97249828D02*
X98258142Y-97049828D01*
X98572428Y-96964114D02*
X98572428Y-97249828D01*
X97972428Y-97249828D01*
X97972428Y-96964114D01*
X98572428Y-96421257D02*
X98572428Y-96706971D01*
X97972428Y-96706971D01*
X98572428Y-96221257D02*
X97972428Y-96221257D01*
X97972428Y-96078400D01*
X98001000Y-95992685D01*
X98058142Y-95935542D01*
X98115285Y-95906971D01*
X98229571Y-95878400D01*
X98315285Y-95878400D01*
X98429571Y-95906971D01*
X98486714Y-95935542D01*
X98543857Y-95992685D01*
X98572428Y-96078400D01*
X98572428Y-96221257D01*
X98572428Y-95164114D02*
X97972428Y-95164114D01*
X97972428Y-95021257D01*
X98001000Y-94935542D01*
X98058142Y-94878400D01*
X98115285Y-94849828D01*
X98229571Y-94821257D01*
X98315285Y-94821257D01*
X98429571Y-94849828D01*
X98486714Y-94878400D01*
X98543857Y-94935542D01*
X98572428Y-95021257D01*
X98572428Y-95164114D01*
X98572428Y-94564114D02*
X97972428Y-94564114D01*
X98543857Y-94306971D02*
X98572428Y-94221257D01*
X98572428Y-94078400D01*
X98543857Y-94021257D01*
X98515285Y-93992685D01*
X98458142Y-93964114D01*
X98401000Y-93964114D01*
X98343857Y-93992685D01*
X98315285Y-94021257D01*
X98286714Y-94078400D01*
X98258142Y-94192685D01*
X98229571Y-94249828D01*
X98201000Y-94278400D01*
X98143857Y-94306971D01*
X98086714Y-94306971D01*
X98029571Y-94278400D01*
X98001000Y-94249828D01*
X97972428Y-94192685D01*
X97972428Y-94049828D01*
X98001000Y-93964114D01*
X98572428Y-93706971D02*
X97972428Y-93706971D01*
X97972428Y-93478400D01*
X98001000Y-93421257D01*
X98029571Y-93392685D01*
X98086714Y-93364114D01*
X98172428Y-93364114D01*
X98229571Y-93392685D01*
X98258142Y-93421257D01*
X98286714Y-93478400D01*
X98286714Y-93706971D01*
X98572428Y-92821257D02*
X98572428Y-93106971D01*
X97972428Y-93106971D01*
X98401000Y-92649828D02*
X98401000Y-92364114D01*
X98572428Y-92706971D02*
X97972428Y-92506971D01*
X98572428Y-92306971D01*
X98286714Y-91992685D02*
X98572428Y-91992685D01*
X97972428Y-92192685D02*
X98286714Y-91992685D01*
X97972428Y-91792685D01*
X97972428Y-91221257D02*
X98572428Y-91021257D01*
X97972428Y-90821257D01*
X98572428Y-90306971D02*
X98572428Y-90649828D01*
X98572428Y-90478400D02*
X97972428Y-90478400D01*
X98058142Y-90535542D01*
X98115285Y-90592685D01*
X98143857Y-90649828D01*
X98515285Y-90049828D02*
X98543857Y-90021257D01*
X98572428Y-90049828D01*
X98543857Y-90078400D01*
X98515285Y-90049828D01*
X98572428Y-90049828D01*
X97972428Y-89649828D02*
X97972428Y-89592685D01*
X98001000Y-89535542D01*
X98029571Y-89506971D01*
X98086714Y-89478400D01*
X98201000Y-89449828D01*
X98343857Y-89449828D01*
X98458142Y-89478400D01*
X98515285Y-89506971D01*
X98543857Y-89535542D01*
X98572428Y-89592685D01*
X98572428Y-89649828D01*
X98543857Y-89706971D01*
X98515285Y-89735542D01*
X98458142Y-89764114D01*
X98343857Y-89792685D01*
X98201000Y-89792685D01*
X98086714Y-89764114D01*
X98029571Y-89735542D01*
X98001000Y-89706971D01*
X97972428Y-89649828D01*
X99296714Y-96178400D02*
X99268142Y-96206971D01*
X99239571Y-96264114D01*
X99239571Y-96321257D01*
X99268142Y-96378400D01*
X99296714Y-96406971D01*
X99353857Y-96435542D01*
X99411000Y-96435542D01*
X99468142Y-96406971D01*
X99496714Y-96378400D01*
X99525285Y-96321257D01*
X99525285Y-96264114D01*
X99496714Y-96206971D01*
X99468142Y-96178400D01*
X99239571Y-96178400D02*
X99468142Y-96178400D01*
X99496714Y-96149828D01*
X99496714Y-96121257D01*
X99468142Y-96064114D01*
X99411000Y-96035542D01*
X99268142Y-96035542D01*
X99182428Y-96092685D01*
X99125285Y-96178400D01*
X99096714Y-96292685D01*
X99125285Y-96406971D01*
X99182428Y-96492685D01*
X99268142Y-96549828D01*
X99382428Y-96578400D01*
X99496714Y-96549828D01*
X99582428Y-96492685D01*
X99639571Y-96406971D01*
X99668142Y-96292685D01*
X99639571Y-96178400D01*
X99582428Y-96092685D01*
X99182428Y-95864114D02*
X99182428Y-95635542D01*
X99582428Y-95778400D02*
X99068142Y-95778400D01*
X99011000Y-95749828D01*
X98982428Y-95692685D01*
X98982428Y-95635542D01*
X99582428Y-95178400D02*
X99268142Y-95178400D01*
X99211000Y-95206971D01*
X99182428Y-95264114D01*
X99182428Y-95378400D01*
X99211000Y-95435542D01*
X99553857Y-95178400D02*
X99582428Y-95235542D01*
X99582428Y-95378400D01*
X99553857Y-95435542D01*
X99496714Y-95464114D01*
X99439571Y-95464114D01*
X99382428Y-95435542D01*
X99353857Y-95378400D01*
X99353857Y-95235542D01*
X99325285Y-95178400D01*
X99582428Y-94892685D02*
X98982428Y-94892685D01*
X99211000Y-94892685D02*
X99182428Y-94835542D01*
X99182428Y-94721257D01*
X99211000Y-94664114D01*
X99239571Y-94635542D01*
X99296714Y-94606971D01*
X99468142Y-94606971D01*
X99525285Y-94635542D01*
X99553857Y-94664114D01*
X99582428Y-94721257D01*
X99582428Y-94835542D01*
X99553857Y-94892685D01*
X99553857Y-94121257D02*
X99582428Y-94178400D01*
X99582428Y-94292685D01*
X99553857Y-94349828D01*
X99496714Y-94378400D01*
X99268142Y-94378400D01*
X99211000Y-94349828D01*
X99182428Y-94292685D01*
X99182428Y-94178400D01*
X99211000Y-94121257D01*
X99268142Y-94092685D01*
X99325285Y-94092685D01*
X99382428Y-94378400D01*
X99582428Y-93749828D02*
X99553857Y-93806971D01*
X99496714Y-93835542D01*
X98982428Y-93835542D01*
X99182428Y-93606971D02*
X99182428Y-93378400D01*
X98982428Y-93521257D02*
X99496714Y-93521257D01*
X99553857Y-93492685D01*
X99582428Y-93435542D01*
X99582428Y-93378400D01*
X99582428Y-93178400D02*
X99182428Y-93178400D01*
X99296714Y-93178400D02*
X99239571Y-93149828D01*
X99211000Y-93121257D01*
X99182428Y-93064114D01*
X99182428Y-93006971D01*
X99582428Y-92549828D02*
X99268142Y-92549828D01*
X99211000Y-92578400D01*
X99182428Y-92635542D01*
X99182428Y-92749828D01*
X99211000Y-92806971D01*
X99553857Y-92549828D02*
X99582428Y-92606971D01*
X99582428Y-92749828D01*
X99553857Y-92806971D01*
X99496714Y-92835542D01*
X99439571Y-92835542D01*
X99382428Y-92806971D01*
X99353857Y-92749828D01*
X99353857Y-92606971D01*
X99325285Y-92549828D01*
X99182428Y-92264114D02*
X99582428Y-92264114D01*
X99239571Y-92264114D02*
X99211000Y-92235542D01*
X99182428Y-92178400D01*
X99182428Y-92092685D01*
X99211000Y-92035542D01*
X99268142Y-92006971D01*
X99582428Y-92006971D01*
X99582428Y-91721257D02*
X99182428Y-91721257D01*
X99239571Y-91721257D02*
X99211000Y-91692685D01*
X99182428Y-91635542D01*
X99182428Y-91549828D01*
X99211000Y-91492685D01*
X99268142Y-91464114D01*
X99582428Y-91464114D01*
X99268142Y-91464114D02*
X99211000Y-91435542D01*
X99182428Y-91378400D01*
X99182428Y-91292685D01*
X99211000Y-91235542D01*
X99268142Y-91206971D01*
X99582428Y-91206971D01*
D12*
G36*
X149082434Y-108204045D02*
G01*
X149157793Y-108204356D01*
X149213845Y-108205200D01*
X149253638Y-108206838D01*
X149280217Y-108209538D01*
X149296630Y-108213562D01*
X149305924Y-108219176D01*
X149311145Y-108226644D01*
X149313779Y-108232575D01*
X149319476Y-108253008D01*
X149328787Y-108294463D01*
X149340897Y-108352951D01*
X149354990Y-108424482D01*
X149370253Y-108505066D01*
X149377863Y-108546382D01*
X149393263Y-108629169D01*
X149407763Y-108704135D01*
X149420583Y-108767468D01*
X149430938Y-108815356D01*
X149438047Y-108843987D01*
X149440168Y-108849941D01*
X149454098Y-108859410D01*
X149487094Y-108876241D01*
X149534589Y-108898487D01*
X149592018Y-108924196D01*
X149654814Y-108951421D01*
X149718411Y-108978213D01*
X149778244Y-109002622D01*
X149829745Y-109022699D01*
X149868350Y-109036496D01*
X149889492Y-109042063D01*
X149890335Y-109042094D01*
X149904315Y-109035154D01*
X149936159Y-109015697D01*
X149982855Y-108985680D01*
X150041396Y-108947059D01*
X150108771Y-108901793D01*
X150163820Y-108864294D01*
X150235862Y-108815306D01*
X150301329Y-108771489D01*
X150357217Y-108734798D01*
X150400519Y-108707187D01*
X150428230Y-108690613D01*
X150437006Y-108686600D01*
X150450604Y-108695356D01*
X150478576Y-108719600D01*
X150517921Y-108756289D01*
X150565637Y-108802382D01*
X150618723Y-108854839D01*
X150674177Y-108910619D01*
X150728999Y-108966680D01*
X150780186Y-109019983D01*
X150824739Y-109067485D01*
X150859655Y-109106146D01*
X150881932Y-109132926D01*
X150888700Y-109144258D01*
X150882874Y-109160385D01*
X150865027Y-109192328D01*
X150834601Y-109240943D01*
X150791038Y-109307085D01*
X150733781Y-109391610D01*
X150662274Y-109495374D01*
X150626996Y-109546134D01*
X150594255Y-109594751D01*
X150567832Y-109637043D01*
X150550741Y-109667985D01*
X150545800Y-109681525D01*
X150550603Y-109697690D01*
X150563737Y-109732562D01*
X150583286Y-109781603D01*
X150607336Y-109840277D01*
X150633972Y-109904049D01*
X150661279Y-109968381D01*
X150687341Y-110028738D01*
X150710245Y-110080584D01*
X150728076Y-110119382D01*
X150738917Y-110140596D01*
X150740553Y-110142887D01*
X150754390Y-110146989D01*
X150789662Y-110154940D01*
X150842820Y-110166011D01*
X150910314Y-110179474D01*
X150988597Y-110194602D01*
X151041506Y-110204595D01*
X151125519Y-110220466D01*
X151201703Y-110235130D01*
X151266334Y-110247847D01*
X151315685Y-110257878D01*
X151346030Y-110264484D01*
X151353579Y-110266502D01*
X151359157Y-110272695D01*
X151363479Y-110288265D01*
X151366690Y-110315898D01*
X151368933Y-110358279D01*
X151370353Y-110418095D01*
X151371094Y-110498032D01*
X151371299Y-110596695D01*
X151371181Y-110696036D01*
X151370695Y-110772913D01*
X151369643Y-110830258D01*
X151367827Y-110871007D01*
X151365051Y-110898095D01*
X151361115Y-110914455D01*
X151355824Y-110923022D01*
X151349075Y-110926702D01*
X151327063Y-110931813D01*
X151287100Y-110939857D01*
X151236258Y-110949434D01*
X151212550Y-110953721D01*
X151088801Y-110976081D01*
X150988073Y-110994931D01*
X150908298Y-111010735D01*
X150847409Y-111023957D01*
X150803339Y-111035061D01*
X150774020Y-111044510D01*
X150757385Y-111052769D01*
X150753009Y-111056816D01*
X150744299Y-111073633D01*
X150728362Y-111109182D01*
X150707022Y-111158989D01*
X150682098Y-111218578D01*
X150655411Y-111283474D01*
X150628782Y-111349202D01*
X150604034Y-111411287D01*
X150582985Y-111465253D01*
X150567458Y-111506624D01*
X150559274Y-111530927D01*
X150558464Y-111534926D01*
X150565376Y-111547784D01*
X150584738Y-111578438D01*
X150614520Y-111623812D01*
X150652690Y-111680832D01*
X150697219Y-111746426D01*
X150723600Y-111784920D01*
X150770945Y-111854770D01*
X150812988Y-111918697D01*
X150847672Y-111973418D01*
X150872942Y-112015648D01*
X150886740Y-112042104D01*
X150888700Y-112048569D01*
X150879866Y-112064336D01*
X150854770Y-112095328D01*
X150815515Y-112139228D01*
X150764210Y-112193719D01*
X150702957Y-112256483D01*
X150667686Y-112291808D01*
X150598690Y-112360197D01*
X150545215Y-112412481D01*
X150504900Y-112450592D01*
X150475384Y-112476464D01*
X150454305Y-112492029D01*
X150439303Y-112499221D01*
X150428016Y-112499972D01*
X150418084Y-112496217D01*
X150418038Y-112496192D01*
X150399193Y-112484548D01*
X150363068Y-112460862D01*
X150313264Y-112427549D01*
X150253386Y-112387022D01*
X150187038Y-112341698D01*
X150169983Y-112329983D01*
X150103693Y-112284904D01*
X150043898Y-112245198D01*
X149993937Y-112213003D01*
X149957146Y-112190460D01*
X149936865Y-112179707D01*
X149934542Y-112179100D01*
X149917001Y-112184649D01*
X149882705Y-112199591D01*
X149837310Y-112221367D01*
X149805429Y-112237509D01*
X149754464Y-112262233D01*
X149713639Y-112278944D01*
X149687612Y-112285870D01*
X149681212Y-112284792D01*
X149673727Y-112270653D01*
X149657899Y-112235993D01*
X149635015Y-112183795D01*
X149606363Y-112117039D01*
X149573229Y-112038709D01*
X149536901Y-111951787D01*
X149523058Y-111918407D01*
X149482417Y-111820270D01*
X149441535Y-111721658D01*
X149402366Y-111627281D01*
X149366866Y-111541849D01*
X149336992Y-111470072D01*
X149314698Y-111416657D01*
X149313215Y-111413113D01*
X149289446Y-111355060D01*
X149269801Y-111304640D01*
X149256174Y-111266898D01*
X149250463Y-111246878D01*
X149250400Y-111245953D01*
X149260106Y-111230835D01*
X149285784Y-111206430D01*
X149322272Y-111177538D01*
X149329775Y-111172099D01*
X149440563Y-111080535D01*
X149527364Y-110981088D01*
X149590538Y-110873107D01*
X149630446Y-110755942D01*
X149647450Y-110628941D01*
X149648160Y-110597950D01*
X149637578Y-110470935D01*
X149604408Y-110354236D01*
X149547826Y-110245788D01*
X149467010Y-110143531D01*
X149466377Y-110142853D01*
X149371425Y-110058905D01*
X149265542Y-109996243D01*
X149151851Y-109954997D01*
X149033475Y-109935295D01*
X148913536Y-109937266D01*
X148795157Y-109961038D01*
X148681460Y-110006740D01*
X148575569Y-110074501D01*
X148539580Y-110104660D01*
X148451196Y-110199868D01*
X148385755Y-110305942D01*
X148343439Y-110422471D01*
X148324431Y-110549045D01*
X148323300Y-110590269D01*
X148332355Y-110717152D01*
X148360459Y-110830911D01*
X148409017Y-110934190D01*
X148479438Y-111029628D01*
X148573126Y-111119870D01*
X148628388Y-111163313D01*
X148668429Y-111194939D01*
X148699054Y-111222826D01*
X148715477Y-111242461D01*
X148717000Y-111246890D01*
X148712292Y-111262488D01*
X148698917Y-111298688D01*
X148677999Y-111352656D01*
X148650659Y-111421555D01*
X148618021Y-111502551D01*
X148581207Y-111592808D01*
X148550254Y-111667963D01*
X148508958Y-111767883D01*
X148469057Y-111864558D01*
X148432029Y-111954396D01*
X148399352Y-112033805D01*
X148372506Y-112099194D01*
X148352968Y-112146969D01*
X148345081Y-112166400D01*
X148321060Y-112225064D01*
X148301971Y-112262505D01*
X148282597Y-112280785D01*
X148257721Y-112281965D01*
X148222127Y-112268106D01*
X148170596Y-112241271D01*
X148164214Y-112237873D01*
X148115373Y-112212737D01*
X148073932Y-112192967D01*
X148045603Y-112181209D01*
X148037276Y-112179100D01*
X148022473Y-112185990D01*
X147989956Y-112205312D01*
X147942899Y-112235041D01*
X147884472Y-112273152D01*
X147817849Y-112317619D01*
X147778645Y-112344200D01*
X147709318Y-112391208D01*
X147646957Y-112433008D01*
X147594619Y-112467590D01*
X147555365Y-112492942D01*
X147532252Y-112507055D01*
X147527483Y-112509300D01*
X147516354Y-112500712D01*
X147489851Y-112476578D01*
X147450532Y-112439340D01*
X147400954Y-112391441D01*
X147343675Y-112335323D01*
X147298597Y-112290699D01*
X147237482Y-112229072D01*
X147182896Y-112172355D01*
X147137322Y-112123266D01*
X147103240Y-112084520D01*
X147083132Y-112058834D01*
X147078699Y-112050019D01*
X147085670Y-112033574D01*
X147105204Y-111999631D01*
X147135240Y-111951457D01*
X147173714Y-111892319D01*
X147218562Y-111825484D01*
X147243427Y-111789194D01*
X147290678Y-111720071D01*
X147332668Y-111657419D01*
X147367341Y-111604407D01*
X147392641Y-111564204D01*
X147406512Y-111539979D01*
X147408527Y-111534726D01*
X147403991Y-111516681D01*
X147391271Y-111479844D01*
X147372204Y-111428764D01*
X147348629Y-111367990D01*
X147322383Y-111302068D01*
X147295305Y-111235547D01*
X147269232Y-111172975D01*
X147246002Y-111118900D01*
X147227453Y-111077870D01*
X147215424Y-111054433D01*
X147213157Y-111051291D01*
X147196451Y-111044328D01*
X147158493Y-111033938D01*
X147103068Y-111020980D01*
X147033961Y-111006316D01*
X146954955Y-110990805D01*
X146912463Y-110982918D01*
X146829930Y-110967482D01*
X146755392Y-110952763D01*
X146692627Y-110939570D01*
X146645412Y-110928712D01*
X146617525Y-110920998D01*
X146611975Y-110918546D01*
X146606447Y-110901962D01*
X146601980Y-110864584D01*
X146598563Y-110810592D01*
X146596185Y-110744165D01*
X146594836Y-110669485D01*
X146594505Y-110590731D01*
X146595182Y-110512082D01*
X146596856Y-110437719D01*
X146599518Y-110371822D01*
X146603156Y-110318570D01*
X146607760Y-110282144D01*
X146613320Y-110266723D01*
X146613606Y-110266584D01*
X146630628Y-110262433D01*
X146668910Y-110254421D01*
X146724735Y-110243284D01*
X146794380Y-110229757D01*
X146874127Y-110214576D01*
X146925921Y-110204858D01*
X147009493Y-110188898D01*
X147084730Y-110173829D01*
X147148026Y-110160433D01*
X147195774Y-110149487D01*
X147224368Y-110141772D01*
X147230899Y-110138950D01*
X147240510Y-110122303D01*
X147257424Y-110086841D01*
X147279692Y-110037218D01*
X147305362Y-109978088D01*
X147332484Y-109914104D01*
X147359107Y-109849921D01*
X147383281Y-109790191D01*
X147403054Y-109739568D01*
X147416475Y-109702706D01*
X147421595Y-109684258D01*
X147421600Y-109684031D01*
X147414654Y-109667540D01*
X147395177Y-109633489D01*
X147365206Y-109585122D01*
X147326781Y-109525683D01*
X147281941Y-109458418D01*
X147254844Y-109418624D01*
X147206954Y-109348231D01*
X147163872Y-109283793D01*
X147127729Y-109228586D01*
X147100654Y-109185887D01*
X147084776Y-109158971D01*
X147081590Y-109152089D01*
X147084378Y-109139268D01*
X147098577Y-109117305D01*
X147125629Y-109084554D01*
X147166977Y-109039369D01*
X147224063Y-108980106D01*
X147295834Y-108907614D01*
X147357493Y-108846498D01*
X147413800Y-108791863D01*
X147462127Y-108746163D01*
X147499847Y-108711853D01*
X147524332Y-108691387D01*
X147532384Y-108686600D01*
X147546877Y-108693550D01*
X147579099Y-108713068D01*
X147625972Y-108743154D01*
X147684416Y-108781810D01*
X147751355Y-108827036D01*
X147799220Y-108859879D01*
X147870399Y-108908687D01*
X147935355Y-108952612D01*
X147990951Y-108989582D01*
X148034047Y-109017524D01*
X148061505Y-109034365D01*
X148069509Y-109038385D01*
X148086778Y-109035404D01*
X148122718Y-109024222D01*
X148172663Y-109006676D01*
X148231950Y-108984602D01*
X148295916Y-108959834D01*
X148359898Y-108934208D01*
X148419232Y-108909562D01*
X148469254Y-108887729D01*
X148505300Y-108870547D01*
X148522493Y-108860067D01*
X148528907Y-108843935D01*
X148538971Y-108806380D01*
X148551877Y-108750990D01*
X148566817Y-108681348D01*
X148582986Y-108601040D01*
X148595343Y-108536444D01*
X148611575Y-108450763D01*
X148626634Y-108373258D01*
X148639804Y-108307463D01*
X148650366Y-108256915D01*
X148657603Y-108225151D01*
X148660424Y-108215769D01*
X148674811Y-108212377D01*
X148711489Y-108209410D01*
X148767352Y-108206982D01*
X148839294Y-108205206D01*
X148924208Y-108204194D01*
X148984721Y-108204000D01*
X149082434Y-108204045D01*
X149082434Y-108204045D01*
G37*
X149082434Y-108204045D02*
X149157793Y-108204356D01*
X149213845Y-108205200D01*
X149253638Y-108206838D01*
X149280217Y-108209538D01*
X149296630Y-108213562D01*
X149305924Y-108219176D01*
X149311145Y-108226644D01*
X149313779Y-108232575D01*
X149319476Y-108253008D01*
X149328787Y-108294463D01*
X149340897Y-108352951D01*
X149354990Y-108424482D01*
X149370253Y-108505066D01*
X149377863Y-108546382D01*
X149393263Y-108629169D01*
X149407763Y-108704135D01*
X149420583Y-108767468D01*
X149430938Y-108815356D01*
X149438047Y-108843987D01*
X149440168Y-108849941D01*
X149454098Y-108859410D01*
X149487094Y-108876241D01*
X149534589Y-108898487D01*
X149592018Y-108924196D01*
X149654814Y-108951421D01*
X149718411Y-108978213D01*
X149778244Y-109002622D01*
X149829745Y-109022699D01*
X149868350Y-109036496D01*
X149889492Y-109042063D01*
X149890335Y-109042094D01*
X149904315Y-109035154D01*
X149936159Y-109015697D01*
X149982855Y-108985680D01*
X150041396Y-108947059D01*
X150108771Y-108901793D01*
X150163820Y-108864294D01*
X150235862Y-108815306D01*
X150301329Y-108771489D01*
X150357217Y-108734798D01*
X150400519Y-108707187D01*
X150428230Y-108690613D01*
X150437006Y-108686600D01*
X150450604Y-108695356D01*
X150478576Y-108719600D01*
X150517921Y-108756289D01*
X150565637Y-108802382D01*
X150618723Y-108854839D01*
X150674177Y-108910619D01*
X150728999Y-108966680D01*
X150780186Y-109019983D01*
X150824739Y-109067485D01*
X150859655Y-109106146D01*
X150881932Y-109132926D01*
X150888700Y-109144258D01*
X150882874Y-109160385D01*
X150865027Y-109192328D01*
X150834601Y-109240943D01*
X150791038Y-109307085D01*
X150733781Y-109391610D01*
X150662274Y-109495374D01*
X150626996Y-109546134D01*
X150594255Y-109594751D01*
X150567832Y-109637043D01*
X150550741Y-109667985D01*
X150545800Y-109681525D01*
X150550603Y-109697690D01*
X150563737Y-109732562D01*
X150583286Y-109781603D01*
X150607336Y-109840277D01*
X150633972Y-109904049D01*
X150661279Y-109968381D01*
X150687341Y-110028738D01*
X150710245Y-110080584D01*
X150728076Y-110119382D01*
X150738917Y-110140596D01*
X150740553Y-110142887D01*
X150754390Y-110146989D01*
X150789662Y-110154940D01*
X150842820Y-110166011D01*
X150910314Y-110179474D01*
X150988597Y-110194602D01*
X151041506Y-110204595D01*
X151125519Y-110220466D01*
X151201703Y-110235130D01*
X151266334Y-110247847D01*
X151315685Y-110257878D01*
X151346030Y-110264484D01*
X151353579Y-110266502D01*
X151359157Y-110272695D01*
X151363479Y-110288265D01*
X151366690Y-110315898D01*
X151368933Y-110358279D01*
X151370353Y-110418095D01*
X151371094Y-110498032D01*
X151371299Y-110596695D01*
X151371181Y-110696036D01*
X151370695Y-110772913D01*
X151369643Y-110830258D01*
X151367827Y-110871007D01*
X151365051Y-110898095D01*
X151361115Y-110914455D01*
X151355824Y-110923022D01*
X151349075Y-110926702D01*
X151327063Y-110931813D01*
X151287100Y-110939857D01*
X151236258Y-110949434D01*
X151212550Y-110953721D01*
X151088801Y-110976081D01*
X150988073Y-110994931D01*
X150908298Y-111010735D01*
X150847409Y-111023957D01*
X150803339Y-111035061D01*
X150774020Y-111044510D01*
X150757385Y-111052769D01*
X150753009Y-111056816D01*
X150744299Y-111073633D01*
X150728362Y-111109182D01*
X150707022Y-111158989D01*
X150682098Y-111218578D01*
X150655411Y-111283474D01*
X150628782Y-111349202D01*
X150604034Y-111411287D01*
X150582985Y-111465253D01*
X150567458Y-111506624D01*
X150559274Y-111530927D01*
X150558464Y-111534926D01*
X150565376Y-111547784D01*
X150584738Y-111578438D01*
X150614520Y-111623812D01*
X150652690Y-111680832D01*
X150697219Y-111746426D01*
X150723600Y-111784920D01*
X150770945Y-111854770D01*
X150812988Y-111918697D01*
X150847672Y-111973418D01*
X150872942Y-112015648D01*
X150886740Y-112042104D01*
X150888700Y-112048569D01*
X150879866Y-112064336D01*
X150854770Y-112095328D01*
X150815515Y-112139228D01*
X150764210Y-112193719D01*
X150702957Y-112256483D01*
X150667686Y-112291808D01*
X150598690Y-112360197D01*
X150545215Y-112412481D01*
X150504900Y-112450592D01*
X150475384Y-112476464D01*
X150454305Y-112492029D01*
X150439303Y-112499221D01*
X150428016Y-112499972D01*
X150418084Y-112496217D01*
X150418038Y-112496192D01*
X150399193Y-112484548D01*
X150363068Y-112460862D01*
X150313264Y-112427549D01*
X150253386Y-112387022D01*
X150187038Y-112341698D01*
X150169983Y-112329983D01*
X150103693Y-112284904D01*
X150043898Y-112245198D01*
X149993937Y-112213003D01*
X149957146Y-112190460D01*
X149936865Y-112179707D01*
X149934542Y-112179100D01*
X149917001Y-112184649D01*
X149882705Y-112199591D01*
X149837310Y-112221367D01*
X149805429Y-112237509D01*
X149754464Y-112262233D01*
X149713639Y-112278944D01*
X149687612Y-112285870D01*
X149681212Y-112284792D01*
X149673727Y-112270653D01*
X149657899Y-112235993D01*
X149635015Y-112183795D01*
X149606363Y-112117039D01*
X149573229Y-112038709D01*
X149536901Y-111951787D01*
X149523058Y-111918407D01*
X149482417Y-111820270D01*
X149441535Y-111721658D01*
X149402366Y-111627281D01*
X149366866Y-111541849D01*
X149336992Y-111470072D01*
X149314698Y-111416657D01*
X149313215Y-111413113D01*
X149289446Y-111355060D01*
X149269801Y-111304640D01*
X149256174Y-111266898D01*
X149250463Y-111246878D01*
X149250400Y-111245953D01*
X149260106Y-111230835D01*
X149285784Y-111206430D01*
X149322272Y-111177538D01*
X149329775Y-111172099D01*
X149440563Y-111080535D01*
X149527364Y-110981088D01*
X149590538Y-110873107D01*
X149630446Y-110755942D01*
X149647450Y-110628941D01*
X149648160Y-110597950D01*
X149637578Y-110470935D01*
X149604408Y-110354236D01*
X149547826Y-110245788D01*
X149467010Y-110143531D01*
X149466377Y-110142853D01*
X149371425Y-110058905D01*
X149265542Y-109996243D01*
X149151851Y-109954997D01*
X149033475Y-109935295D01*
X148913536Y-109937266D01*
X148795157Y-109961038D01*
X148681460Y-110006740D01*
X148575569Y-110074501D01*
X148539580Y-110104660D01*
X148451196Y-110199868D01*
X148385755Y-110305942D01*
X148343439Y-110422471D01*
X148324431Y-110549045D01*
X148323300Y-110590269D01*
X148332355Y-110717152D01*
X148360459Y-110830911D01*
X148409017Y-110934190D01*
X148479438Y-111029628D01*
X148573126Y-111119870D01*
X148628388Y-111163313D01*
X148668429Y-111194939D01*
X148699054Y-111222826D01*
X148715477Y-111242461D01*
X148717000Y-111246890D01*
X148712292Y-111262488D01*
X148698917Y-111298688D01*
X148677999Y-111352656D01*
X148650659Y-111421555D01*
X148618021Y-111502551D01*
X148581207Y-111592808D01*
X148550254Y-111667963D01*
X148508958Y-111767883D01*
X148469057Y-111864558D01*
X148432029Y-111954396D01*
X148399352Y-112033805D01*
X148372506Y-112099194D01*
X148352968Y-112146969D01*
X148345081Y-112166400D01*
X148321060Y-112225064D01*
X148301971Y-112262505D01*
X148282597Y-112280785D01*
X148257721Y-112281965D01*
X148222127Y-112268106D01*
X148170596Y-112241271D01*
X148164214Y-112237873D01*
X148115373Y-112212737D01*
X148073932Y-112192967D01*
X148045603Y-112181209D01*
X148037276Y-112179100D01*
X148022473Y-112185990D01*
X147989956Y-112205312D01*
X147942899Y-112235041D01*
X147884472Y-112273152D01*
X147817849Y-112317619D01*
X147778645Y-112344200D01*
X147709318Y-112391208D01*
X147646957Y-112433008D01*
X147594619Y-112467590D01*
X147555365Y-112492942D01*
X147532252Y-112507055D01*
X147527483Y-112509300D01*
X147516354Y-112500712D01*
X147489851Y-112476578D01*
X147450532Y-112439340D01*
X147400954Y-112391441D01*
X147343675Y-112335323D01*
X147298597Y-112290699D01*
X147237482Y-112229072D01*
X147182896Y-112172355D01*
X147137322Y-112123266D01*
X147103240Y-112084520D01*
X147083132Y-112058834D01*
X147078699Y-112050019D01*
X147085670Y-112033574D01*
X147105204Y-111999631D01*
X147135240Y-111951457D01*
X147173714Y-111892319D01*
X147218562Y-111825484D01*
X147243427Y-111789194D01*
X147290678Y-111720071D01*
X147332668Y-111657419D01*
X147367341Y-111604407D01*
X147392641Y-111564204D01*
X147406512Y-111539979D01*
X147408527Y-111534726D01*
X147403991Y-111516681D01*
X147391271Y-111479844D01*
X147372204Y-111428764D01*
X147348629Y-111367990D01*
X147322383Y-111302068D01*
X147295305Y-111235547D01*
X147269232Y-111172975D01*
X147246002Y-111118900D01*
X147227453Y-111077870D01*
X147215424Y-111054433D01*
X147213157Y-111051291D01*
X147196451Y-111044328D01*
X147158493Y-111033938D01*
X147103068Y-111020980D01*
X147033961Y-111006316D01*
X146954955Y-110990805D01*
X146912463Y-110982918D01*
X146829930Y-110967482D01*
X146755392Y-110952763D01*
X146692627Y-110939570D01*
X146645412Y-110928712D01*
X146617525Y-110920998D01*
X146611975Y-110918546D01*
X146606447Y-110901962D01*
X146601980Y-110864584D01*
X146598563Y-110810592D01*
X146596185Y-110744165D01*
X146594836Y-110669485D01*
X146594505Y-110590731D01*
X146595182Y-110512082D01*
X146596856Y-110437719D01*
X146599518Y-110371822D01*
X146603156Y-110318570D01*
X146607760Y-110282144D01*
X146613320Y-110266723D01*
X146613606Y-110266584D01*
X146630628Y-110262433D01*
X146668910Y-110254421D01*
X146724735Y-110243284D01*
X146794380Y-110229757D01*
X146874127Y-110214576D01*
X146925921Y-110204858D01*
X147009493Y-110188898D01*
X147084730Y-110173829D01*
X147148026Y-110160433D01*
X147195774Y-110149487D01*
X147224368Y-110141772D01*
X147230899Y-110138950D01*
X147240510Y-110122303D01*
X147257424Y-110086841D01*
X147279692Y-110037218D01*
X147305362Y-109978088D01*
X147332484Y-109914104D01*
X147359107Y-109849921D01*
X147383281Y-109790191D01*
X147403054Y-109739568D01*
X147416475Y-109702706D01*
X147421595Y-109684258D01*
X147421600Y-109684031D01*
X147414654Y-109667540D01*
X147395177Y-109633489D01*
X147365206Y-109585122D01*
X147326781Y-109525683D01*
X147281941Y-109458418D01*
X147254844Y-109418624D01*
X147206954Y-109348231D01*
X147163872Y-109283793D01*
X147127729Y-109228586D01*
X147100654Y-109185887D01*
X147084776Y-109158971D01*
X147081590Y-109152089D01*
X147084378Y-109139268D01*
X147098577Y-109117305D01*
X147125629Y-109084554D01*
X147166977Y-109039369D01*
X147224063Y-108980106D01*
X147295834Y-108907614D01*
X147357493Y-108846498D01*
X147413800Y-108791863D01*
X147462127Y-108746163D01*
X147499847Y-108711853D01*
X147524332Y-108691387D01*
X147532384Y-108686600D01*
X147546877Y-108693550D01*
X147579099Y-108713068D01*
X147625972Y-108743154D01*
X147684416Y-108781810D01*
X147751355Y-108827036D01*
X147799220Y-108859879D01*
X147870399Y-108908687D01*
X147935355Y-108952612D01*
X147990951Y-108989582D01*
X148034047Y-109017524D01*
X148061505Y-109034365D01*
X148069509Y-109038385D01*
X148086778Y-109035404D01*
X148122718Y-109024222D01*
X148172663Y-109006676D01*
X148231950Y-108984602D01*
X148295916Y-108959834D01*
X148359898Y-108934208D01*
X148419232Y-108909562D01*
X148469254Y-108887729D01*
X148505300Y-108870547D01*
X148522493Y-108860067D01*
X148528907Y-108843935D01*
X148538971Y-108806380D01*
X148551877Y-108750990D01*
X148566817Y-108681348D01*
X148582986Y-108601040D01*
X148595343Y-108536444D01*
X148611575Y-108450763D01*
X148626634Y-108373258D01*
X148639804Y-108307463D01*
X148650366Y-108256915D01*
X148657603Y-108225151D01*
X148660424Y-108215769D01*
X148674811Y-108212377D01*
X148711489Y-108209410D01*
X148767352Y-108206982D01*
X148839294Y-108205206D01*
X148924208Y-108204194D01*
X148984721Y-108204000D01*
X149082434Y-108204045D01*
G36*
X96945117Y-113714562D02*
G01*
X97009376Y-113712343D01*
X97021799Y-113713394D01*
X97132637Y-113724267D01*
X97412963Y-114537067D01*
X97508023Y-114813832D01*
X97581721Y-115031300D01*
X97635429Y-115193981D01*
X97670518Y-115306383D01*
X97688358Y-115373015D01*
X97690320Y-115398384D01*
X97677775Y-115387001D01*
X97665243Y-115366800D01*
X97643814Y-115322824D01*
X97599111Y-115225887D01*
X97535203Y-115084998D01*
X97456160Y-114909164D01*
X97366052Y-114707393D01*
X97290378Y-114537067D01*
X97195242Y-114322867D01*
X97108784Y-114128983D01*
X97034898Y-113964085D01*
X96977476Y-113836839D01*
X96940412Y-113755916D01*
X96928020Y-113730328D01*
X96945117Y-113714562D01*
X96945117Y-113714562D01*
G37*
X96945117Y-113714562D02*
X97009376Y-113712343D01*
X97021799Y-113713394D01*
X97132637Y-113724267D01*
X97412963Y-114537067D01*
X97508023Y-114813832D01*
X97581721Y-115031300D01*
X97635429Y-115193981D01*
X97670518Y-115306383D01*
X97688358Y-115373015D01*
X97690320Y-115398384D01*
X97677775Y-115387001D01*
X97665243Y-115366800D01*
X97643814Y-115322824D01*
X97599111Y-115225887D01*
X97535203Y-115084998D01*
X97456160Y-114909164D01*
X97366052Y-114707393D01*
X97290378Y-114537067D01*
X97195242Y-114322867D01*
X97108784Y-114128983D01*
X97034898Y-113964085D01*
X96977476Y-113836839D01*
X96940412Y-113755916D01*
X96928020Y-113730328D01*
X96945117Y-113714562D01*
G36*
X97708155Y-115445822D02*
G01*
X97728289Y-115450471D01*
X97730733Y-115468400D01*
X97718342Y-115496276D01*
X97708155Y-115490978D01*
X97704102Y-115450786D01*
X97708155Y-115445822D01*
X97708155Y-115445822D01*
G37*
X97708155Y-115445822D02*
X97728289Y-115450471D01*
X97730733Y-115468400D01*
X97718342Y-115496276D01*
X97708155Y-115490978D01*
X97704102Y-115450786D01*
X97708155Y-115445822D01*
G36*
X97129748Y-113137678D02*
G01*
X97206516Y-113135380D01*
X97247260Y-113144838D01*
X97259390Y-113181047D01*
X97284574Y-113273601D01*
X97320492Y-113412881D01*
X97364823Y-113589270D01*
X97415247Y-113793146D01*
X97469443Y-114014891D01*
X97525090Y-114244885D01*
X97579869Y-114473509D01*
X97631459Y-114691144D01*
X97677538Y-114888171D01*
X97715787Y-115054970D01*
X97743885Y-115181922D01*
X97759511Y-115259408D01*
X97761927Y-115278269D01*
X97750984Y-115256507D01*
X97721109Y-115177552D01*
X97674782Y-115048471D01*
X97614485Y-114876330D01*
X97542698Y-114668195D01*
X97461902Y-114431133D01*
X97394753Y-114232267D01*
X97030251Y-113148533D01*
X97129748Y-113137678D01*
X97129748Y-113137678D01*
G37*
X97129748Y-113137678D02*
X97206516Y-113135380D01*
X97247260Y-113144838D01*
X97259390Y-113181047D01*
X97284574Y-113273601D01*
X97320492Y-113412881D01*
X97364823Y-113589270D01*
X97415247Y-113793146D01*
X97469443Y-114014891D01*
X97525090Y-114244885D01*
X97579869Y-114473509D01*
X97631459Y-114691144D01*
X97677538Y-114888171D01*
X97715787Y-115054970D01*
X97743885Y-115181922D01*
X97759511Y-115259408D01*
X97761927Y-115278269D01*
X97750984Y-115256507D01*
X97721109Y-115177552D01*
X97674782Y-115048471D01*
X97614485Y-114876330D01*
X97542698Y-114668195D01*
X97461902Y-114431133D01*
X97394753Y-114232267D01*
X97030251Y-113148533D01*
X97129748Y-113137678D01*
G36*
X97775889Y-115344222D02*
G01*
X97796022Y-115348871D01*
X97798467Y-115366800D01*
X97786075Y-115394676D01*
X97775889Y-115389378D01*
X97771836Y-115349186D01*
X97775889Y-115344222D01*
X97775889Y-115344222D01*
G37*
X97775889Y-115344222D02*
X97796022Y-115348871D01*
X97798467Y-115366800D01*
X97786075Y-115394676D01*
X97775889Y-115389378D01*
X97771836Y-115349186D01*
X97775889Y-115344222D01*
G36*
X97252531Y-112530319D02*
G01*
X97325793Y-112522210D01*
X97341266Y-112522000D01*
X97427025Y-112533203D01*
X97459770Y-112563736D01*
X97459800Y-112564908D01*
X97464701Y-112607175D01*
X97478655Y-112708679D01*
X97500535Y-112861693D01*
X97529214Y-113058493D01*
X97563567Y-113291350D01*
X97602468Y-113552538D01*
X97644789Y-113834330D01*
X97646067Y-113842800D01*
X97699355Y-114197846D01*
X97742601Y-114490189D01*
X97776347Y-114724027D01*
X97801134Y-114903557D01*
X97817504Y-115032979D01*
X97825999Y-115116489D01*
X97827160Y-115158285D01*
X97821528Y-115162567D01*
X97814272Y-115146667D01*
X97803735Y-115106009D01*
X97780451Y-115008521D01*
X97746410Y-114862944D01*
X97703601Y-114678019D01*
X97654012Y-114462488D01*
X97599632Y-114225092D01*
X97542449Y-113974573D01*
X97484453Y-113719673D01*
X97427632Y-113469132D01*
X97373975Y-113231692D01*
X97325471Y-113016094D01*
X97284108Y-112831081D01*
X97251875Y-112685393D01*
X97230760Y-112587772D01*
X97222754Y-112546960D01*
X97222733Y-112546554D01*
X97252531Y-112530319D01*
X97252531Y-112530319D01*
G37*
X97252531Y-112530319D02*
X97325793Y-112522210D01*
X97341266Y-112522000D01*
X97427025Y-112533203D01*
X97459770Y-112563736D01*
X97459800Y-112564908D01*
X97464701Y-112607175D01*
X97478655Y-112708679D01*
X97500535Y-112861693D01*
X97529214Y-113058493D01*
X97563567Y-113291350D01*
X97602468Y-113552538D01*
X97644789Y-113834330D01*
X97646067Y-113842800D01*
X97699355Y-114197846D01*
X97742601Y-114490189D01*
X97776347Y-114724027D01*
X97801134Y-114903557D01*
X97817504Y-115032979D01*
X97825999Y-115116489D01*
X97827160Y-115158285D01*
X97821528Y-115162567D01*
X97814272Y-115146667D01*
X97803735Y-115106009D01*
X97780451Y-115008521D01*
X97746410Y-114862944D01*
X97703601Y-114678019D01*
X97654012Y-114462488D01*
X97599632Y-114225092D01*
X97542449Y-113974573D01*
X97484453Y-113719673D01*
X97427632Y-113469132D01*
X97373975Y-113231692D01*
X97325471Y-113016094D01*
X97284108Y-112831081D01*
X97251875Y-112685393D01*
X97230760Y-112587772D01*
X97222754Y-112546960D01*
X97222733Y-112546554D01*
X97252531Y-112530319D01*
G36*
X97845739Y-115206639D02*
G01*
X97861132Y-115216739D01*
X97863526Y-115251089D01*
X97855255Y-115287226D01*
X97843065Y-115271550D01*
X97839028Y-115218621D01*
X97845739Y-115206639D01*
X97845739Y-115206639D01*
G37*
X97845739Y-115206639D02*
X97861132Y-115216739D01*
X97863526Y-115251089D01*
X97855255Y-115287226D01*
X97843065Y-115271550D01*
X97839028Y-115218621D01*
X97845739Y-115206639D01*
G36*
X97544929Y-111963943D02*
G01*
X97605438Y-111947521D01*
X97646067Y-111946267D01*
X97724866Y-111948402D01*
X97764728Y-111953649D01*
X97765865Y-111954733D01*
X97769497Y-112002304D01*
X97775578Y-112108703D01*
X97783710Y-112265085D01*
X97793491Y-112462605D01*
X97804523Y-112692419D01*
X97816405Y-112945680D01*
X97828737Y-113213545D01*
X97841121Y-113487168D01*
X97853155Y-113757704D01*
X97864440Y-114016308D01*
X97874577Y-114254135D01*
X97883165Y-114462340D01*
X97889804Y-114632078D01*
X97894095Y-114754503D01*
X97895638Y-114820772D01*
X97895614Y-114824933D01*
X97891158Y-114831669D01*
X97879508Y-114776848D01*
X97861476Y-114666168D01*
X97837878Y-114505332D01*
X97809527Y-114300039D01*
X97777237Y-114055989D01*
X97741821Y-113778884D01*
X97711880Y-113538000D01*
X97673919Y-113227945D01*
X97638585Y-112937401D01*
X97606733Y-112673533D01*
X97579218Y-112443506D01*
X97556892Y-112254489D01*
X97540610Y-112113645D01*
X97531226Y-112028143D01*
X97529227Y-112005533D01*
X97544929Y-111963943D01*
X97544929Y-111963943D01*
G37*
X97544929Y-111963943D02*
X97605438Y-111947521D01*
X97646067Y-111946267D01*
X97724866Y-111948402D01*
X97764728Y-111953649D01*
X97765865Y-111954733D01*
X97769497Y-112002304D01*
X97775578Y-112108703D01*
X97783710Y-112265085D01*
X97793491Y-112462605D01*
X97804523Y-112692419D01*
X97816405Y-112945680D01*
X97828737Y-113213545D01*
X97841121Y-113487168D01*
X97853155Y-113757704D01*
X97864440Y-114016308D01*
X97874577Y-114254135D01*
X97883165Y-114462340D01*
X97889804Y-114632078D01*
X97894095Y-114754503D01*
X97895638Y-114820772D01*
X97895614Y-114824933D01*
X97891158Y-114831669D01*
X97879508Y-114776848D01*
X97861476Y-114666168D01*
X97837878Y-114505332D01*
X97809527Y-114300039D01*
X97777237Y-114055989D01*
X97741821Y-113778884D01*
X97711880Y-113538000D01*
X97673919Y-113227945D01*
X97638585Y-112937401D01*
X97606733Y-112673533D01*
X97579218Y-112443506D01*
X97556892Y-112254489D01*
X97540610Y-112113645D01*
X97531226Y-112028143D01*
X97529227Y-112005533D01*
X97544929Y-111963943D01*
G36*
X97913472Y-115105039D02*
G01*
X97928865Y-115115139D01*
X97931259Y-115149489D01*
X97922989Y-115185626D01*
X97910798Y-115169950D01*
X97906761Y-115117021D01*
X97913472Y-115105039D01*
X97913472Y-115105039D01*
G37*
X97913472Y-115105039D02*
X97928865Y-115115139D01*
X97931259Y-115149489D01*
X97922989Y-115185626D01*
X97910798Y-115169950D01*
X97906761Y-115117021D01*
X97913472Y-115105039D01*
G36*
X99796600Y-111878533D02*
G01*
X99796600Y-113538000D01*
X98976421Y-113538000D01*
X98976421Y-113199281D01*
X99181383Y-113174637D01*
X99347382Y-113103367D01*
X99467842Y-112989660D01*
X99534717Y-112843734D01*
X99551096Y-112729693D01*
X99554577Y-112591866D01*
X99545697Y-112461036D01*
X99526505Y-112371805D01*
X99477788Y-112308121D01*
X99409635Y-112281793D01*
X99349919Y-112302637D01*
X99346231Y-112343308D01*
X99357320Y-112425755D01*
X99366764Y-112471317D01*
X99383798Y-112655504D01*
X99346104Y-112805262D01*
X99257533Y-112915268D01*
X99121935Y-112980200D01*
X98987075Y-112996133D01*
X98815922Y-112973522D01*
X98694257Y-112906082D01*
X98642406Y-112838639D01*
X98615195Y-112746544D01*
X98602485Y-112617353D01*
X98605246Y-112480336D01*
X98624448Y-112364766D01*
X98626487Y-112358063D01*
X98633097Y-112303686D01*
X98593179Y-112285835D01*
X98565375Y-112284934D01*
X98492728Y-112315810D01*
X98441470Y-112401085D01*
X98415483Y-112529725D01*
X98418649Y-112690698D01*
X98419626Y-112699264D01*
X98468237Y-112899759D01*
X98560809Y-113048756D01*
X98697899Y-113146753D01*
X98880062Y-113194250D01*
X98976421Y-113199281D01*
X98976421Y-113538000D01*
X98069400Y-113538000D01*
X98069400Y-111878533D01*
X99796600Y-111878533D01*
X99796600Y-111878533D01*
G37*
X99796600Y-111878533D02*
X99796600Y-113538000D01*
X98976421Y-113538000D01*
X98976421Y-113199281D01*
X99181383Y-113174637D01*
X99347382Y-113103367D01*
X99467842Y-112989660D01*
X99534717Y-112843734D01*
X99551096Y-112729693D01*
X99554577Y-112591866D01*
X99545697Y-112461036D01*
X99526505Y-112371805D01*
X99477788Y-112308121D01*
X99409635Y-112281793D01*
X99349919Y-112302637D01*
X99346231Y-112343308D01*
X99357320Y-112425755D01*
X99366764Y-112471317D01*
X99383798Y-112655504D01*
X99346104Y-112805262D01*
X99257533Y-112915268D01*
X99121935Y-112980200D01*
X98987075Y-112996133D01*
X98815922Y-112973522D01*
X98694257Y-112906082D01*
X98642406Y-112838639D01*
X98615195Y-112746544D01*
X98602485Y-112617353D01*
X98605246Y-112480336D01*
X98624448Y-112364766D01*
X98626487Y-112358063D01*
X98633097Y-112303686D01*
X98593179Y-112285835D01*
X98565375Y-112284934D01*
X98492728Y-112315810D01*
X98441470Y-112401085D01*
X98415483Y-112529725D01*
X98418649Y-112690698D01*
X98419626Y-112699264D01*
X98468237Y-112899759D01*
X98560809Y-113048756D01*
X98697899Y-113146753D01*
X98880062Y-113194250D01*
X98976421Y-113199281D01*
X98976421Y-113538000D01*
X98069400Y-113538000D01*
X98069400Y-111878533D01*
X99796600Y-111878533D01*
G36*
X97942551Y-115663377D02*
G01*
X97942869Y-115663134D01*
X97981877Y-115625063D01*
X98012158Y-115571787D01*
X98034757Y-115495109D01*
X98050718Y-115386833D01*
X98061086Y-115238765D01*
X98066906Y-115042708D01*
X98069221Y-114790467D01*
X98069400Y-114670329D01*
X98069400Y-113910533D01*
X99796600Y-113910533D01*
X99796600Y-114718766D01*
X99796312Y-114974294D01*
X99794985Y-115171020D01*
X99791918Y-115317876D01*
X99786414Y-115423792D01*
X99777774Y-115497700D01*
X99765299Y-115548531D01*
X99748292Y-115585215D01*
X99726408Y-115616233D01*
X99656217Y-115705467D01*
X99559533Y-115705467D01*
X99559533Y-115197467D01*
X99559533Y-114486267D01*
X99474867Y-114486267D01*
X99431801Y-114489432D01*
X99406558Y-114508440D01*
X99394380Y-114557558D01*
X99390511Y-114651053D01*
X99390200Y-114740267D01*
X99390200Y-114994267D01*
X99085400Y-114994267D01*
X99085400Y-114520134D01*
X98882200Y-114520134D01*
X98882200Y-114994267D01*
X98614234Y-114994267D01*
X98604284Y-114748733D01*
X98597867Y-114622148D01*
X98587705Y-114548788D01*
X98568216Y-114514170D01*
X98533819Y-114503810D01*
X98509666Y-114503200D01*
X98471568Y-114505433D01*
X98446656Y-114520270D01*
X98431614Y-114559919D01*
X98423124Y-114636587D01*
X98417871Y-114762482D01*
X98415348Y-114850333D01*
X98405697Y-115197467D01*
X99559533Y-115197467D01*
X99559533Y-115705467D01*
X98771669Y-115705467D01*
X98498903Y-115704920D01*
X98287755Y-115703071D01*
X98132120Y-115699608D01*
X98025889Y-115694219D01*
X97962955Y-115686592D01*
X97937211Y-115676415D01*
X97942551Y-115663377D01*
X97942551Y-115663377D01*
G37*
X97942551Y-115663377D02*
X97942869Y-115663134D01*
X97981877Y-115625063D01*
X98012158Y-115571787D01*
X98034757Y-115495109D01*
X98050718Y-115386833D01*
X98061086Y-115238765D01*
X98066906Y-115042708D01*
X98069221Y-114790467D01*
X98069400Y-114670329D01*
X98069400Y-113910533D01*
X99796600Y-113910533D01*
X99796600Y-114718766D01*
X99796312Y-114974294D01*
X99794985Y-115171020D01*
X99791918Y-115317876D01*
X99786414Y-115423792D01*
X99777774Y-115497700D01*
X99765299Y-115548531D01*
X99748292Y-115585215D01*
X99726408Y-115616233D01*
X99656217Y-115705467D01*
X99559533Y-115705467D01*
X99559533Y-115197467D01*
X99559533Y-114486267D01*
X99474867Y-114486267D01*
X99431801Y-114489432D01*
X99406558Y-114508440D01*
X99394380Y-114557558D01*
X99390511Y-114651053D01*
X99390200Y-114740267D01*
X99390200Y-114994267D01*
X99085400Y-114994267D01*
X99085400Y-114520134D01*
X98882200Y-114520134D01*
X98882200Y-114994267D01*
X98614234Y-114994267D01*
X98604284Y-114748733D01*
X98597867Y-114622148D01*
X98587705Y-114548788D01*
X98568216Y-114514170D01*
X98533819Y-114503810D01*
X98509666Y-114503200D01*
X98471568Y-114505433D01*
X98446656Y-114520270D01*
X98431614Y-114559919D01*
X98423124Y-114636587D01*
X98417871Y-114762482D01*
X98415348Y-114850333D01*
X98405697Y-115197467D01*
X99559533Y-115197467D01*
X99559533Y-115705467D01*
X98771669Y-115705467D01*
X98498903Y-115704920D01*
X98287755Y-115703071D01*
X98132120Y-115699608D01*
X98025889Y-115694219D01*
X97962955Y-115686592D01*
X97937211Y-115676415D01*
X97942551Y-115663377D01*
G36*
X101862467Y-102565200D02*
G01*
X101862467Y-103276400D01*
X98577400Y-103276400D01*
X98577400Y-102565200D01*
X101862467Y-102565200D01*
X101862467Y-102565200D01*
G37*
X101862467Y-102565200D02*
X101862467Y-103276400D01*
X98577400Y-103276400D01*
X98577400Y-102565200D01*
X101862467Y-102565200D01*
G36*
X99185472Y-109236934D02*
G01*
X99194703Y-109855000D01*
X99203933Y-110473067D01*
X99864333Y-110492453D01*
X99864333Y-109304667D01*
X100472334Y-109304667D01*
X100490866Y-110473067D01*
X100871867Y-110482643D01*
X101252867Y-110492219D01*
X101252867Y-109169200D01*
X101862467Y-109169200D01*
X101862467Y-111201200D01*
X98577400Y-111201200D01*
X98577400Y-109236934D01*
X99185472Y-109236934D01*
X99185472Y-109236934D01*
G37*
X99185472Y-109236934D02*
X99194703Y-109855000D01*
X99203933Y-110473067D01*
X99864333Y-110492453D01*
X99864333Y-109304667D01*
X100472334Y-109304667D01*
X100490866Y-110473067D01*
X100871867Y-110482643D01*
X101252867Y-110492219D01*
X101252867Y-109169200D01*
X101862467Y-109169200D01*
X101862467Y-111201200D01*
X98577400Y-111201200D01*
X98577400Y-109236934D01*
X99185472Y-109236934D01*
G36*
X98550569Y-104342197D02*
G01*
X98565061Y-104148457D01*
X98589453Y-103976066D01*
X98622582Y-103839603D01*
X98663289Y-103753650D01*
X98670499Y-103745487D01*
X98713461Y-103740388D01*
X98802069Y-103749665D01*
X98916779Y-103769305D01*
X99038048Y-103795297D01*
X99146331Y-103823628D01*
X99222084Y-103850288D01*
X99243041Y-103863020D01*
X99243183Y-103901732D01*
X99226347Y-103984282D01*
X99206237Y-104058140D01*
X99154524Y-104331029D01*
X99161009Y-104594272D01*
X99223567Y-104838251D01*
X99340075Y-105053351D01*
X99454828Y-105183685D01*
X99618049Y-105307914D01*
X99802579Y-105389537D01*
X100022417Y-105433178D01*
X100242650Y-105443867D01*
X100527931Y-105419289D01*
X100768119Y-105344920D01*
X100965057Y-105219808D01*
X101120582Y-105043001D01*
X101167428Y-104965339D01*
X101220403Y-104856547D01*
X101252770Y-104752681D01*
X101270669Y-104627812D01*
X101278691Y-104495600D01*
X101277672Y-104279874D01*
X101257124Y-104093817D01*
X101242958Y-104029933D01*
X101217180Y-103932083D01*
X101201282Y-103867485D01*
X101198561Y-103852087D01*
X101231031Y-103846630D01*
X101314694Y-103832104D01*
X101434038Y-103811207D01*
X101487613Y-103801789D01*
X101618149Y-103780498D01*
X101720676Y-103766939D01*
X101779032Y-103763122D01*
X101786303Y-103764681D01*
X101801149Y-103802203D01*
X101825479Y-103884935D01*
X101844874Y-103958912D01*
X101888083Y-104200223D01*
X101908912Y-104472862D01*
X101905663Y-104743658D01*
X101892307Y-104885067D01*
X101839075Y-105120795D01*
X101746606Y-105363150D01*
X101627417Y-105582005D01*
X101568388Y-105664807D01*
X101438742Y-105795458D01*
X101264266Y-105923743D01*
X101066856Y-106035638D01*
X100868403Y-106117117D01*
X100856444Y-106120886D01*
X100679047Y-106159236D01*
X100460069Y-106182285D01*
X100224015Y-106189570D01*
X99995392Y-106180632D01*
X99798705Y-106155009D01*
X99741343Y-106141855D01*
X99444255Y-106029444D01*
X99177414Y-105862473D01*
X98948351Y-105648944D01*
X98764593Y-105396858D01*
X98633670Y-105114214D01*
X98578101Y-104905698D01*
X98555928Y-104735398D01*
X98547138Y-104542704D01*
X98550569Y-104342197D01*
X98550569Y-104342197D01*
G37*
X98550569Y-104342197D02*
X98565061Y-104148457D01*
X98589453Y-103976066D01*
X98622582Y-103839603D01*
X98663289Y-103753650D01*
X98670499Y-103745487D01*
X98713461Y-103740388D01*
X98802069Y-103749665D01*
X98916779Y-103769305D01*
X99038048Y-103795297D01*
X99146331Y-103823628D01*
X99222084Y-103850288D01*
X99243041Y-103863020D01*
X99243183Y-103901732D01*
X99226347Y-103984282D01*
X99206237Y-104058140D01*
X99154524Y-104331029D01*
X99161009Y-104594272D01*
X99223567Y-104838251D01*
X99340075Y-105053351D01*
X99454828Y-105183685D01*
X99618049Y-105307914D01*
X99802579Y-105389537D01*
X100022417Y-105433178D01*
X100242650Y-105443867D01*
X100527931Y-105419289D01*
X100768119Y-105344920D01*
X100965057Y-105219808D01*
X101120582Y-105043001D01*
X101167428Y-104965339D01*
X101220403Y-104856547D01*
X101252770Y-104752681D01*
X101270669Y-104627812D01*
X101278691Y-104495600D01*
X101277672Y-104279874D01*
X101257124Y-104093817D01*
X101242958Y-104029933D01*
X101217180Y-103932083D01*
X101201282Y-103867485D01*
X101198561Y-103852087D01*
X101231031Y-103846630D01*
X101314694Y-103832104D01*
X101434038Y-103811207D01*
X101487613Y-103801789D01*
X101618149Y-103780498D01*
X101720676Y-103766939D01*
X101779032Y-103763122D01*
X101786303Y-103764681D01*
X101801149Y-103802203D01*
X101825479Y-103884935D01*
X101844874Y-103958912D01*
X101888083Y-104200223D01*
X101908912Y-104472862D01*
X101905663Y-104743658D01*
X101892307Y-104885067D01*
X101839075Y-105120795D01*
X101746606Y-105363150D01*
X101627417Y-105582005D01*
X101568388Y-105664807D01*
X101438742Y-105795458D01*
X101264266Y-105923743D01*
X101066856Y-106035638D01*
X100868403Y-106117117D01*
X100856444Y-106120886D01*
X100679047Y-106159236D01*
X100460069Y-106182285D01*
X100224015Y-106189570D01*
X99995392Y-106180632D01*
X99798705Y-106155009D01*
X99741343Y-106141855D01*
X99444255Y-106029444D01*
X99177414Y-105862473D01*
X98948351Y-105648944D01*
X98764593Y-105396858D01*
X98633670Y-105114214D01*
X98578101Y-104905698D01*
X98555928Y-104735398D01*
X98547138Y-104542704D01*
X98550569Y-104342197D01*
G36*
X98559900Y-106839098D02*
G01*
X98581135Y-106658120D01*
X98612529Y-106510106D01*
X98653180Y-106409509D01*
X98670499Y-106387087D01*
X98713461Y-106381988D01*
X98802069Y-106391265D01*
X98916779Y-106410905D01*
X99038048Y-106436897D01*
X99146331Y-106465228D01*
X99222084Y-106491888D01*
X99243041Y-106504620D01*
X99243183Y-106543332D01*
X99226347Y-106625882D01*
X99206237Y-106699740D01*
X99154202Y-106972790D01*
X99160226Y-107235132D01*
X99222208Y-107477534D01*
X99338050Y-107690762D01*
X99463121Y-107829699D01*
X99637996Y-107957917D01*
X99831815Y-108039378D01*
X100059994Y-108079293D01*
X100219933Y-108085467D01*
X100512777Y-108060290D01*
X100760556Y-107984659D01*
X100963564Y-107858427D01*
X101122092Y-107681446D01*
X101168711Y-107604582D01*
X101221145Y-107496474D01*
X101253197Y-107392261D01*
X101270937Y-107266152D01*
X101278691Y-107137200D01*
X101277672Y-106921474D01*
X101257124Y-106735417D01*
X101242958Y-106671533D01*
X101217981Y-106573757D01*
X101204101Y-106509178D01*
X101203286Y-106493733D01*
X101237938Y-106487873D01*
X101323111Y-106472258D01*
X101442795Y-106449838D01*
X101489840Y-106440937D01*
X101618835Y-106418539D01*
X101720168Y-106404837D01*
X101777331Y-106401916D01*
X101783804Y-106403782D01*
X101812114Y-106462593D01*
X101840500Y-106573268D01*
X101866948Y-106719969D01*
X101889445Y-106886859D01*
X101905976Y-107058099D01*
X101914527Y-107217853D01*
X101913085Y-107350283D01*
X101909367Y-107391200D01*
X101838390Y-107744620D01*
X101720320Y-108050014D01*
X101555573Y-108306863D01*
X101344567Y-108514648D01*
X101087720Y-108672849D01*
X100794482Y-108778619D01*
X100612114Y-108810704D01*
X100390194Y-108826814D01*
X100154966Y-108826949D01*
X99932672Y-108811106D01*
X99749557Y-108779285D01*
X99747207Y-108778677D01*
X99435837Y-108664653D01*
X99163500Y-108497309D01*
X98934854Y-108281395D01*
X98754561Y-108021663D01*
X98627280Y-107722863D01*
X98594592Y-107603516D01*
X98566170Y-107435247D01*
X98551516Y-107242117D01*
X98549726Y-107038582D01*
X98559900Y-106839098D01*
X98559900Y-106839098D01*
G37*
X98559900Y-106839098D02*
X98581135Y-106658120D01*
X98612529Y-106510106D01*
X98653180Y-106409509D01*
X98670499Y-106387087D01*
X98713461Y-106381988D01*
X98802069Y-106391265D01*
X98916779Y-106410905D01*
X99038048Y-106436897D01*
X99146331Y-106465228D01*
X99222084Y-106491888D01*
X99243041Y-106504620D01*
X99243183Y-106543332D01*
X99226347Y-106625882D01*
X99206237Y-106699740D01*
X99154202Y-106972790D01*
X99160226Y-107235132D01*
X99222208Y-107477534D01*
X99338050Y-107690762D01*
X99463121Y-107829699D01*
X99637996Y-107957917D01*
X99831815Y-108039378D01*
X100059994Y-108079293D01*
X100219933Y-108085467D01*
X100512777Y-108060290D01*
X100760556Y-107984659D01*
X100963564Y-107858427D01*
X101122092Y-107681446D01*
X101168711Y-107604582D01*
X101221145Y-107496474D01*
X101253197Y-107392261D01*
X101270937Y-107266152D01*
X101278691Y-107137200D01*
X101277672Y-106921474D01*
X101257124Y-106735417D01*
X101242958Y-106671533D01*
X101217981Y-106573757D01*
X101204101Y-106509178D01*
X101203286Y-106493733D01*
X101237938Y-106487873D01*
X101323111Y-106472258D01*
X101442795Y-106449838D01*
X101489840Y-106440937D01*
X101618835Y-106418539D01*
X101720168Y-106404837D01*
X101777331Y-106401916D01*
X101783804Y-106403782D01*
X101812114Y-106462593D01*
X101840500Y-106573268D01*
X101866948Y-106719969D01*
X101889445Y-106886859D01*
X101905976Y-107058099D01*
X101914527Y-107217853D01*
X101913085Y-107350283D01*
X101909367Y-107391200D01*
X101838390Y-107744620D01*
X101720320Y-108050014D01*
X101555573Y-108306863D01*
X101344567Y-108514648D01*
X101087720Y-108672849D01*
X100794482Y-108778619D01*
X100612114Y-108810704D01*
X100390194Y-108826814D01*
X100154966Y-108826949D01*
X99932672Y-108811106D01*
X99749557Y-108779285D01*
X99747207Y-108778677D01*
X99435837Y-108664653D01*
X99163500Y-108497309D01*
X98934854Y-108281395D01*
X98754561Y-108021663D01*
X98627280Y-107722863D01*
X98594592Y-107603516D01*
X98566170Y-107435247D01*
X98551516Y-107242117D01*
X98549726Y-107038582D01*
X98559900Y-106839098D01*
G36*
X101930200Y-111878533D02*
G01*
X101930200Y-113538000D01*
X101625400Y-113538000D01*
X101625400Y-112862305D01*
X101625400Y-112657467D01*
X100469434Y-112657467D01*
X100480150Y-112750600D01*
X100490866Y-112843734D01*
X101058133Y-112853019D01*
X101625400Y-112862305D01*
X101625400Y-113538000D01*
X100169133Y-113538000D01*
X100169133Y-111878533D01*
X101930200Y-111878533D01*
X101930200Y-111878533D01*
G37*
X101930200Y-111878533D02*
X101930200Y-113538000D01*
X101625400Y-113538000D01*
X101625400Y-112862305D01*
X101625400Y-112657467D01*
X100469434Y-112657467D01*
X100480150Y-112750600D01*
X100490866Y-112843734D01*
X101058133Y-112853019D01*
X101625400Y-112862305D01*
X101625400Y-113538000D01*
X100169133Y-113538000D01*
X100169133Y-111878533D01*
X101930200Y-111878533D01*
G36*
X100098942Y-115616233D02*
G01*
X100121101Y-115584752D01*
X100138040Y-115547930D01*
X100150455Y-115496834D01*
X100159046Y-115422535D01*
X100164510Y-115316100D01*
X100167547Y-115168600D01*
X100168855Y-114971102D01*
X100169133Y-114718766D01*
X100169133Y-113910533D01*
X101930200Y-113910533D01*
X101929170Y-114697933D01*
X101927118Y-114984721D01*
X101921885Y-115217546D01*
X101913631Y-115392837D01*
X101902515Y-115507017D01*
X101891093Y-115553067D01*
X101864236Y-115598380D01*
X101833691Y-115633688D01*
X101791251Y-115660238D01*
X101728712Y-115679277D01*
X101637867Y-115692053D01*
X101510511Y-115699813D01*
X101338438Y-115703803D01*
X101113443Y-115705271D01*
X100991388Y-115705377D01*
X100991388Y-115292685D01*
X101163648Y-115283625D01*
X101326892Y-115235920D01*
X101465556Y-115150377D01*
X101563627Y-115028662D01*
X101600568Y-114918927D01*
X101621422Y-114777664D01*
X101624967Y-114631312D01*
X101609983Y-114506315D01*
X101590342Y-114450174D01*
X101531245Y-114398051D01*
X101476507Y-114384667D01*
X101429059Y-114389085D01*
X101411866Y-114414222D01*
X101419501Y-114477903D01*
X101431540Y-114532416D01*
X101449813Y-114719721D01*
X101415401Y-114879168D01*
X101334286Y-114997317D01*
X101270004Y-115045645D01*
X101193610Y-115070464D01*
X101080573Y-115078670D01*
X101044006Y-115078933D01*
X100925287Y-115075360D01*
X100850215Y-115059163D01*
X100794850Y-115022131D01*
X100755461Y-114979952D01*
X100711149Y-114921654D01*
X100687017Y-114862600D01*
X100678650Y-114781676D01*
X100681631Y-114657763D01*
X100682852Y-114632818D01*
X100688090Y-114505454D01*
X100685340Y-114431324D01*
X100670954Y-114396069D01*
X100641285Y-114385330D01*
X100619830Y-114384667D01*
X100555942Y-114414773D01*
X100511368Y-114495132D01*
X100487046Y-114610801D01*
X100483916Y-114746840D01*
X100502916Y-114888308D01*
X100544985Y-115020262D01*
X100576138Y-115079912D01*
X100682069Y-115191636D01*
X100825673Y-115262291D01*
X100991388Y-115292685D01*
X100991388Y-115705377D01*
X100888336Y-115705467D01*
X100028750Y-115705467D01*
X100098942Y-115616233D01*
X100098942Y-115616233D01*
G37*
X100098942Y-115616233D02*
X100121101Y-115584752D01*
X100138040Y-115547930D01*
X100150455Y-115496834D01*
X100159046Y-115422535D01*
X100164510Y-115316100D01*
X100167547Y-115168600D01*
X100168855Y-114971102D01*
X100169133Y-114718766D01*
X100169133Y-113910533D01*
X101930200Y-113910533D01*
X101929170Y-114697933D01*
X101927118Y-114984721D01*
X101921885Y-115217546D01*
X101913631Y-115392837D01*
X101902515Y-115507017D01*
X101891093Y-115553067D01*
X101864236Y-115598380D01*
X101833691Y-115633688D01*
X101791251Y-115660238D01*
X101728712Y-115679277D01*
X101637867Y-115692053D01*
X101510511Y-115699813D01*
X101338438Y-115703803D01*
X101113443Y-115705271D01*
X100991388Y-115705377D01*
X100991388Y-115292685D01*
X101163648Y-115283625D01*
X101326892Y-115235920D01*
X101465556Y-115150377D01*
X101563627Y-115028662D01*
X101600568Y-114918927D01*
X101621422Y-114777664D01*
X101624967Y-114631312D01*
X101609983Y-114506315D01*
X101590342Y-114450174D01*
X101531245Y-114398051D01*
X101476507Y-114384667D01*
X101429059Y-114389085D01*
X101411866Y-114414222D01*
X101419501Y-114477903D01*
X101431540Y-114532416D01*
X101449813Y-114719721D01*
X101415401Y-114879168D01*
X101334286Y-114997317D01*
X101270004Y-115045645D01*
X101193610Y-115070464D01*
X101080573Y-115078670D01*
X101044006Y-115078933D01*
X100925287Y-115075360D01*
X100850215Y-115059163D01*
X100794850Y-115022131D01*
X100755461Y-114979952D01*
X100711149Y-114921654D01*
X100687017Y-114862600D01*
X100678650Y-114781676D01*
X100681631Y-114657763D01*
X100682852Y-114632818D01*
X100688090Y-114505454D01*
X100685340Y-114431324D01*
X100670954Y-114396069D01*
X100641285Y-114385330D01*
X100619830Y-114384667D01*
X100555942Y-114414773D01*
X100511368Y-114495132D01*
X100487046Y-114610801D01*
X100483916Y-114746840D01*
X100502916Y-114888308D01*
X100544985Y-115020262D01*
X100576138Y-115079912D01*
X100682069Y-115191636D01*
X100825673Y-115262291D01*
X100991388Y-115292685D01*
X100991388Y-115705377D01*
X100888336Y-115705467D01*
X100028750Y-115705467D01*
X100098942Y-115616233D01*
D13*
X131191000Y-86258400D02*
X132461000Y-84988400D01*
X132947210Y-87655400D02*
G75*
G03X132947210Y-87655400I-359210J0D01*
G01*
X137646210Y-95021400D02*
G75*
G03X137646210Y-95021400I-359210J0D01*
G01*
X132588000Y-94640400D02*
X133223000Y-91846400D01*
X135890000Y-94640400D02*
X136525000Y-91846400D01*
X136652000Y-90957400D02*
X137287000Y-88036400D01*
X133350000Y-90957400D02*
X133985000Y-88036400D01*
X132842000Y-95148400D02*
X135509000Y-95148400D01*
X134366000Y-87528400D02*
X137033000Y-87528400D01*
X133604000Y-91338400D02*
X136271000Y-91338400D01*
X131191000Y-85496400D02*
X131699000Y-84988400D01*
X131191000Y-85877400D02*
X132080000Y-84988400D01*
X138811000Y-84988400D02*
X131191000Y-84988400D01*
X131191000Y-84988400D02*
X131191000Y-97688400D01*
X131191000Y-97688400D02*
X138811000Y-97688400D01*
X138811000Y-97688400D02*
X138811000Y-84988400D01*
X115951000Y-97688400D02*
X115951000Y-84988400D01*
X108331000Y-97688400D02*
X115951000Y-97688400D01*
X108331000Y-84988400D02*
X108331000Y-97688400D01*
X115951000Y-84988400D02*
X108331000Y-84988400D01*
X108331000Y-85877400D02*
X109220000Y-84988400D01*
X108331000Y-85496400D02*
X108839000Y-84988400D01*
X110744000Y-91338400D02*
X113411000Y-91338400D01*
X111506000Y-87528400D02*
X114173000Y-87528400D01*
X109982000Y-95148400D02*
X112649000Y-95148400D01*
X110490000Y-90957400D02*
X111125000Y-88036400D01*
X113792000Y-90957400D02*
X114427000Y-88036400D01*
X113030000Y-94640400D02*
X113665000Y-91846400D01*
X109728000Y-94640400D02*
X110363000Y-91846400D01*
X114786210Y-95021400D02*
G75*
G03X114786210Y-95021400I-359210J0D01*
G01*
X110087210Y-87655400D02*
G75*
G03X110087210Y-87655400I-359210J0D01*
G01*
X108331000Y-86258400D02*
X109601000Y-84988400D01*
X115951000Y-86258400D02*
X117221000Y-84988400D01*
X117707210Y-87655400D02*
G75*
G03X117707210Y-87655400I-359210J0D01*
G01*
X122406210Y-95021400D02*
G75*
G03X122406210Y-95021400I-359210J0D01*
G01*
X117348000Y-94640400D02*
X117983000Y-91846400D01*
X120650000Y-94640400D02*
X121285000Y-91846400D01*
X121412000Y-90957400D02*
X122047000Y-88036400D01*
X118110000Y-90957400D02*
X118745000Y-88036400D01*
X117602000Y-95148400D02*
X120269000Y-95148400D01*
X119126000Y-87528400D02*
X121793000Y-87528400D01*
X118364000Y-91338400D02*
X121031000Y-91338400D01*
X115951000Y-85496400D02*
X116459000Y-84988400D01*
X115951000Y-85877400D02*
X116840000Y-84988400D01*
X123571000Y-84988400D02*
X115951000Y-84988400D01*
X115951000Y-84988400D02*
X115951000Y-97688400D01*
X115951000Y-97688400D02*
X123571000Y-97688400D01*
X123571000Y-97688400D02*
X123571000Y-84988400D01*
X123571000Y-86258400D02*
X124841000Y-84988400D01*
X125327210Y-87655400D02*
G75*
G03X125327210Y-87655400I-359210J0D01*
G01*
X130026210Y-95021400D02*
G75*
G03X130026210Y-95021400I-359210J0D01*
G01*
X124968000Y-94640400D02*
X125603000Y-91846400D01*
X128270000Y-94640400D02*
X128905000Y-91846400D01*
X129032000Y-90957400D02*
X129667000Y-88036400D01*
X125730000Y-90957400D02*
X126365000Y-88036400D01*
X125222000Y-95148400D02*
X127889000Y-95148400D01*
X126746000Y-87528400D02*
X129413000Y-87528400D01*
X125984000Y-91338400D02*
X128651000Y-91338400D01*
X123571000Y-85496400D02*
X124079000Y-84988400D01*
X123571000Y-85877400D02*
X124460000Y-84988400D01*
X131191000Y-84988400D02*
X123571000Y-84988400D01*
X123571000Y-84988400D02*
X123571000Y-97688400D01*
X123571000Y-97688400D02*
X131191000Y-97688400D01*
X131191000Y-97688400D02*
X131191000Y-84988400D01*
D14*
X152826000Y-77503400D02*
X152826000Y-78503400D01*
X151466000Y-78503400D02*
X151466000Y-77503400D01*
X131236000Y-74328400D02*
X131236000Y-75328400D01*
X129876000Y-75328400D02*
X129876000Y-74328400D01*
X133141000Y-74328400D02*
X133141000Y-75328400D01*
X131781000Y-75328400D02*
X131781000Y-74328400D01*
X137496000Y-75328400D02*
X137496000Y-74328400D01*
X138856000Y-74328400D02*
X138856000Y-75328400D01*
X136951000Y-74328400D02*
X136951000Y-75328400D01*
X135591000Y-75328400D02*
X135591000Y-74328400D01*
X133686000Y-75328400D02*
X133686000Y-74328400D01*
X135046000Y-74328400D02*
X135046000Y-75328400D01*
X143211000Y-75328400D02*
X143211000Y-74328400D01*
X144571000Y-74328400D02*
X144571000Y-75328400D01*
X142666000Y-74328400D02*
X142666000Y-75328400D01*
X141306000Y-75328400D02*
X141306000Y-74328400D01*
X140761000Y-74328400D02*
X140761000Y-75328400D01*
X139401000Y-75328400D02*
X139401000Y-74328400D01*
X106471000Y-74328400D02*
X106471000Y-75328400D01*
X105111000Y-75328400D02*
X105111000Y-74328400D01*
X101301000Y-75328400D02*
X101301000Y-74328400D01*
X102661000Y-74328400D02*
X102661000Y-75328400D01*
X104566000Y-74328400D02*
X104566000Y-75328400D01*
X103206000Y-75328400D02*
X103206000Y-74328400D01*
X107016000Y-75328400D02*
X107016000Y-74328400D01*
X108376000Y-74328400D02*
X108376000Y-75328400D01*
X149031000Y-72348400D02*
X149031000Y-67148400D01*
X100711000Y-72348400D02*
X149031000Y-72348400D01*
X98111000Y-67148400D02*
X149031000Y-67148400D01*
X100711000Y-72348400D02*
X100711000Y-69748400D01*
X100711000Y-69748400D02*
X98111000Y-69748400D01*
X98111000Y-69748400D02*
X98111000Y-67148400D01*
X99441000Y-72348400D02*
X98111000Y-72348400D01*
X98111000Y-72348400D02*
X98111000Y-71018400D01*
X147021000Y-75328400D02*
X147021000Y-74328400D01*
X148381000Y-74328400D02*
X148381000Y-75328400D01*
X154731000Y-74328400D02*
X154731000Y-75328400D01*
X153371000Y-75328400D02*
X153371000Y-74328400D01*
X148381000Y-77503400D02*
X148381000Y-78503400D01*
X147021000Y-78503400D02*
X147021000Y-77503400D01*
X149006000Y-75178400D02*
X149006000Y-74478400D01*
X150206000Y-74478400D02*
X150206000Y-75178400D01*
X152746000Y-74478400D02*
X152746000Y-75178400D01*
X151546000Y-75178400D02*
X151546000Y-74478400D01*
X114636000Y-75328400D02*
X114636000Y-74328400D01*
X115996000Y-74328400D02*
X115996000Y-75328400D01*
X124796000Y-75328400D02*
X124796000Y-74328400D01*
X126156000Y-74328400D02*
X126156000Y-75328400D01*
X150701000Y-93628400D02*
X149201000Y-93628400D01*
X146701000Y-94878400D02*
X146701000Y-99378400D01*
X149201000Y-100628400D02*
X150701000Y-100628400D01*
X153201000Y-99378400D02*
X153201000Y-94878400D01*
X141291000Y-115528400D02*
X143951000Y-115528400D01*
X141291000Y-110388400D02*
X141291000Y-115528400D01*
X143951000Y-110388400D02*
X143951000Y-115528400D01*
X141291000Y-110388400D02*
X143951000Y-110388400D01*
X141291000Y-109118400D02*
X141291000Y-107788400D01*
X141291000Y-107788400D02*
X142621000Y-107788400D01*
X136211000Y-107788400D02*
X137541000Y-107788400D01*
X136211000Y-109118400D02*
X136211000Y-107788400D01*
X136211000Y-110388400D02*
X138871000Y-110388400D01*
X138871000Y-110388400D02*
X138871000Y-115528400D01*
X136211000Y-110388400D02*
X136211000Y-115528400D01*
X136211000Y-115528400D02*
X138871000Y-115528400D01*
X93861000Y-80573400D02*
X93861000Y-78473400D01*
X94861000Y-80573400D02*
X94861000Y-78473400D01*
X93861000Y-80573400D02*
X94861000Y-80573400D01*
X96401000Y-80573400D02*
X97401000Y-80573400D01*
X97401000Y-80573400D02*
X97401000Y-78473400D01*
X96401000Y-80573400D02*
X96401000Y-78473400D01*
X112731000Y-75328400D02*
X112731000Y-74328400D01*
X114091000Y-74328400D02*
X114091000Y-75328400D01*
X112186000Y-74328400D02*
X112186000Y-75328400D01*
X110826000Y-75328400D02*
X110826000Y-74328400D01*
X110281000Y-74328400D02*
X110281000Y-75328400D01*
X108921000Y-75328400D02*
X108921000Y-74328400D01*
X95041000Y-74443400D02*
X95041000Y-75443400D01*
X93681000Y-75443400D02*
X93681000Y-74443400D01*
X96221000Y-75443400D02*
X96221000Y-74443400D01*
X97581000Y-74443400D02*
X97581000Y-75443400D01*
X122346000Y-74328400D02*
X122346000Y-75328400D01*
X120986000Y-75328400D02*
X120986000Y-74328400D01*
X119081000Y-75328400D02*
X119081000Y-74328400D01*
X120441000Y-74328400D02*
X120441000Y-75328400D01*
X122891000Y-75328400D02*
X122891000Y-74328400D01*
X124251000Y-74328400D02*
X124251000Y-75328400D01*
X126051000Y-115528400D02*
X128711000Y-115528400D01*
X126051000Y-110388400D02*
X126051000Y-115528400D01*
X128711000Y-110388400D02*
X128711000Y-115528400D01*
X126051000Y-110388400D02*
X128711000Y-110388400D01*
X126051000Y-109118400D02*
X126051000Y-107788400D01*
X126051000Y-107788400D02*
X127381000Y-107788400D01*
X120971000Y-107788400D02*
X122301000Y-107788400D01*
X120971000Y-109118400D02*
X120971000Y-107788400D01*
X120971000Y-110388400D02*
X123631000Y-110388400D01*
X123631000Y-110388400D02*
X123631000Y-115528400D01*
X120971000Y-110388400D02*
X120971000Y-115528400D01*
X120971000Y-115528400D02*
X123631000Y-115528400D01*
X115891000Y-115528400D02*
X118551000Y-115528400D01*
X115891000Y-110388400D02*
X115891000Y-115528400D01*
X118551000Y-110388400D02*
X118551000Y-115528400D01*
X115891000Y-110388400D02*
X118551000Y-110388400D01*
X115891000Y-109118400D02*
X115891000Y-107788400D01*
X115891000Y-107788400D02*
X117221000Y-107788400D01*
X105731000Y-115528400D02*
X108391000Y-115528400D01*
X105731000Y-110388400D02*
X105731000Y-115528400D01*
X108391000Y-110388400D02*
X108391000Y-115528400D01*
X105731000Y-110388400D02*
X108391000Y-110388400D01*
X105731000Y-109118400D02*
X105731000Y-107788400D01*
X105731000Y-107788400D02*
X107061000Y-107788400D01*
X131131000Y-107788400D02*
X132461000Y-107788400D01*
X131131000Y-109118400D02*
X131131000Y-107788400D01*
X131131000Y-110388400D02*
X133791000Y-110388400D01*
X133791000Y-110388400D02*
X133791000Y-115528400D01*
X131131000Y-110388400D02*
X131131000Y-115528400D01*
X131131000Y-115528400D02*
X133791000Y-115528400D01*
X153201000Y-87798400D02*
X153201000Y-83298400D01*
X149201000Y-89048400D02*
X150701000Y-89048400D01*
X146701000Y-83298400D02*
X146701000Y-87798400D01*
X150701000Y-82048400D02*
X149201000Y-82048400D01*
X110811000Y-115528400D02*
X113471000Y-115528400D01*
X110811000Y-110388400D02*
X110811000Y-115528400D01*
X113471000Y-110388400D02*
X113471000Y-115528400D01*
X110811000Y-110388400D02*
X113471000Y-110388400D01*
X110811000Y-109118400D02*
X110811000Y-107788400D01*
X110811000Y-107788400D02*
X112141000Y-107788400D01*
X124331000Y-82758400D02*
X124331000Y-81828400D01*
X124331000Y-79598400D02*
X124331000Y-80528400D01*
X124331000Y-79598400D02*
X122171000Y-79598400D01*
X124331000Y-82758400D02*
X122871000Y-82758400D01*
X119251000Y-82758400D02*
X117791000Y-82758400D01*
X119251000Y-79598400D02*
X117091000Y-79598400D01*
X119251000Y-79598400D02*
X119251000Y-80528400D01*
X119251000Y-82758400D02*
X119251000Y-81828400D01*
X129411000Y-82758400D02*
X129411000Y-81828400D01*
X129411000Y-79598400D02*
X129411000Y-80528400D01*
X129411000Y-79598400D02*
X127251000Y-79598400D01*
X129411000Y-82758400D02*
X127951000Y-82758400D01*
X134491000Y-82758400D02*
X133031000Y-82758400D01*
X134491000Y-79598400D02*
X132331000Y-79598400D01*
X134491000Y-79598400D02*
X134491000Y-80528400D01*
X134491000Y-82758400D02*
X134491000Y-81828400D01*
M02*
