G04 #@! TF.GenerationSoftware,KiCad,Pcbnew,(5.1.4)-1*
G04 #@! TF.CreationDate,2019-10-30T20:18:52-05:00*
G04 #@! TF.ProjectId,shield_display,73686965-6c64-45f6-9469-73706c61792e,rev?*
G04 #@! TF.SameCoordinates,Original*
G04 #@! TF.FileFunction,Copper,L2,Bot*
G04 #@! TF.FilePolarity,Positive*
%FSLAX46Y46*%
G04 Gerber Fmt 4.6, Leading zero omitted, Abs format (unit mm)*
G04 Created by KiCad (PCBNEW (5.1.4)-1) date 2019-10-30 20:18:52*
%MOMM*%
%LPD*%
G04 APERTURE LIST*
%ADD10R,1.899920X1.899920*%
%ADD11C,1.899920*%
%ADD12C,1.899200*%
%ADD13R,1.700000X1.700000*%
%ADD14O,1.700000X1.700000*%
%ADD15C,2.000000*%
%ADD16C,2.750000*%
%ADD17C,0.600000*%
%ADD18C,0.250000*%
%ADD19C,0.100000*%
%ADD20C,0.200000*%
%ADD21C,0.600000*%
G04 APERTURE END LIST*
D10*
X132461000Y-86258400D03*
D11*
X132461000Y-88798400D03*
X132461000Y-91338400D03*
X132461000Y-93878400D03*
X132461000Y-96418400D03*
X137541000Y-96418400D03*
X137541000Y-93878400D03*
D12*
X137541000Y-91338400D03*
D11*
X137541000Y-88798400D03*
X137541000Y-86258400D03*
X114681000Y-86258400D03*
X114681000Y-88798400D03*
D12*
X114681000Y-91338400D03*
D11*
X114681000Y-93878400D03*
X114681000Y-96418400D03*
X109601000Y-96418400D03*
X109601000Y-93878400D03*
X109601000Y-91338400D03*
X109601000Y-88798400D03*
D10*
X109601000Y-86258400D03*
X117221000Y-86258400D03*
D11*
X117221000Y-88798400D03*
X117221000Y-91338400D03*
X117221000Y-93878400D03*
X117221000Y-96418400D03*
X122301000Y-96418400D03*
X122301000Y-93878400D03*
D12*
X122301000Y-91338400D03*
D11*
X122301000Y-88798400D03*
X122301000Y-86258400D03*
D10*
X124841000Y-86258400D03*
D11*
X124841000Y-88798400D03*
X124841000Y-91338400D03*
X124841000Y-93878400D03*
X124841000Y-96418400D03*
X129921000Y-96418400D03*
X129921000Y-93878400D03*
D12*
X129921000Y-91338400D03*
D11*
X129921000Y-88798400D03*
X129921000Y-86258400D03*
D13*
X99441000Y-71018400D03*
D14*
X99441000Y-68478400D03*
X101981000Y-71018400D03*
X101981000Y-68478400D03*
X104521000Y-71018400D03*
X104521000Y-68478400D03*
X107061000Y-71018400D03*
X107061000Y-68478400D03*
X109601000Y-71018400D03*
X109601000Y-68478400D03*
X112141000Y-71018400D03*
X112141000Y-68478400D03*
X114681000Y-71018400D03*
X114681000Y-68478400D03*
X117221000Y-71018400D03*
X117221000Y-68478400D03*
X119761000Y-71018400D03*
X119761000Y-68478400D03*
X122301000Y-71018400D03*
X122301000Y-68478400D03*
X124841000Y-71018400D03*
X124841000Y-68478400D03*
X127381000Y-71018400D03*
X127381000Y-68478400D03*
X129921000Y-71018400D03*
X129921000Y-68478400D03*
X132461000Y-71018400D03*
X132461000Y-68478400D03*
X135001000Y-71018400D03*
X135001000Y-68478400D03*
X137541000Y-71018400D03*
X137541000Y-68478400D03*
X140081000Y-71018400D03*
X140081000Y-68478400D03*
X142621000Y-71018400D03*
X142621000Y-68478400D03*
X145161000Y-71018400D03*
X145161000Y-68478400D03*
X147701000Y-71018400D03*
X147701000Y-68478400D03*
D15*
X147701000Y-93878400D03*
X152201000Y-93878400D03*
X147701000Y-100378400D03*
X152201000Y-100378400D03*
D13*
X142621000Y-109118400D03*
D14*
X142621000Y-111658400D03*
X142621000Y-114198400D03*
X137541000Y-114198400D03*
X137541000Y-111658400D03*
D13*
X137541000Y-109118400D03*
D16*
X152781000Y-118008400D03*
X94559000Y-118008400D03*
X152559000Y-69786000D03*
X94559000Y-69786000D03*
D13*
X127381000Y-109118400D03*
D14*
X127381000Y-111658400D03*
X127381000Y-114198400D03*
X122301000Y-114198400D03*
X122301000Y-111658400D03*
D13*
X122301000Y-109118400D03*
X117221000Y-109118400D03*
D14*
X117221000Y-111658400D03*
X117221000Y-114198400D03*
D13*
X107061000Y-109118400D03*
D14*
X107061000Y-111658400D03*
X107061000Y-114198400D03*
X132461000Y-114198400D03*
X132461000Y-111658400D03*
D13*
X132461000Y-109118400D03*
D15*
X152201000Y-88798400D03*
X147701000Y-88798400D03*
X152201000Y-82298400D03*
X147701000Y-82298400D03*
D13*
X112141000Y-109118400D03*
D14*
X112141000Y-111658400D03*
X112141000Y-114198400D03*
D17*
X136271000Y-83718400D03*
X136271000Y-83718400D03*
X130556000Y-83718400D03*
X126111000Y-83718400D03*
X119126000Y-83718400D03*
X98171000Y-72923400D03*
X98171000Y-74193400D03*
X115316000Y-83718400D03*
X112776000Y-92608400D03*
D18*
X113831001Y-69328399D02*
X114681000Y-68478400D01*
X113411000Y-69748400D02*
X113831001Y-69328399D01*
X109601000Y-71018400D02*
X110871000Y-69748400D01*
X110871000Y-69748400D02*
X113411000Y-69748400D01*
X108751001Y-70168401D02*
X109601000Y-71018400D01*
X108331000Y-69748400D02*
X108751001Y-70168401D01*
X104521000Y-68478400D02*
X105791000Y-69748400D01*
X105791000Y-69748400D02*
X108331000Y-69748400D01*
X121451001Y-69328399D02*
X122301000Y-68478400D01*
X121031000Y-69748400D02*
X121451001Y-69328399D01*
X114681000Y-68478400D02*
X115951000Y-69748400D01*
X115951000Y-69748400D02*
X121031000Y-69748400D01*
X134151001Y-69328399D02*
X135001000Y-68478400D01*
X133731000Y-69748400D02*
X134151001Y-69328399D01*
X122301000Y-68478400D02*
X123571000Y-69748400D01*
X123571000Y-69748400D02*
X133731000Y-69748400D01*
X135850999Y-69328399D02*
X135001000Y-68478400D01*
X136365999Y-69843399D02*
X135850999Y-69328399D01*
X146525999Y-69843399D02*
X136365999Y-69843399D01*
X147701000Y-71018400D02*
X146525999Y-69843399D01*
D19*
X99441000Y-68478400D02*
X101981000Y-68478400D01*
D20*
X107061000Y-109118400D02*
X142621000Y-109118400D01*
X150146000Y-84353400D02*
X136906000Y-84353400D01*
X152201000Y-82298400D02*
X150146000Y-84353400D01*
X136906000Y-84353400D02*
X136271000Y-83718400D01*
D18*
X136271000Y-83718400D02*
X130556000Y-83718400D01*
X130556000Y-83718400D02*
X126111000Y-83718400D01*
X126111000Y-83718400D02*
X119126000Y-83718400D01*
X121666000Y-72923400D02*
X98171000Y-72923400D01*
X122301000Y-71018400D02*
X122301000Y-72288400D01*
X122301000Y-72288400D02*
X121666000Y-72923400D01*
X121666000Y-74193400D02*
X124841000Y-71018400D01*
X98171000Y-74193400D02*
X121666000Y-74193400D01*
X109601000Y-85058440D02*
X109601000Y-86258400D01*
X110941040Y-83718400D02*
X109601000Y-85058440D01*
X115316000Y-83718400D02*
X110941040Y-83718400D01*
D20*
X109001018Y-95128361D02*
X107696000Y-93823343D01*
X110160904Y-95128361D02*
X109001018Y-95128361D01*
X114681000Y-96418400D02*
X111450943Y-96418400D01*
X111450943Y-96418400D02*
X110160904Y-95128361D01*
X108451040Y-86258400D02*
X109601000Y-86258400D01*
X107696000Y-87013440D02*
X108451040Y-86258400D01*
X107696000Y-93823343D02*
X107696000Y-87013440D01*
X121351041Y-85308441D02*
X122301000Y-86258400D01*
X121051039Y-85008439D02*
X121351041Y-85308441D01*
X115930961Y-85008439D02*
X121051039Y-85008439D01*
X114681000Y-86258400D02*
X115930961Y-85008439D01*
X128971041Y-85308441D02*
X129921000Y-86258400D01*
X128651000Y-84988400D02*
X128971041Y-85308441D01*
X123571000Y-84988400D02*
X128651000Y-84988400D01*
X122301000Y-86258400D02*
X123571000Y-84988400D01*
X136591041Y-85308441D02*
X137541000Y-86258400D01*
X136271000Y-84988400D02*
X136591041Y-85308441D01*
X129921000Y-86258400D02*
X131191000Y-84988400D01*
X131191000Y-84988400D02*
X136271000Y-84988400D01*
X136591041Y-87848441D02*
X137541000Y-88798400D01*
X131191000Y-87528400D02*
X136271000Y-87528400D01*
X129921000Y-88798400D02*
X131191000Y-87528400D01*
X136271000Y-87528400D02*
X136591041Y-87848441D01*
X121285001Y-90322401D02*
X122301000Y-91338400D01*
X121031000Y-90068400D02*
X121285001Y-90322401D01*
X114681000Y-91338400D02*
X115951000Y-90068400D01*
X115951000Y-90068400D02*
X121031000Y-90068400D01*
X128905001Y-90322401D02*
X129921000Y-91338400D01*
X128651000Y-90068400D02*
X128905001Y-90322401D01*
X122301000Y-91338400D02*
X123571000Y-90068400D01*
X123571000Y-90068400D02*
X128651000Y-90068400D01*
X136525001Y-90322401D02*
X137541000Y-91338400D01*
X136271000Y-90068400D02*
X136525001Y-90322401D01*
X129921000Y-91338400D02*
X131191000Y-90068400D01*
X131191000Y-90068400D02*
X136271000Y-90068400D01*
D18*
X123891041Y-97368359D02*
X124841000Y-96418400D01*
X123566039Y-97693361D02*
X123891041Y-97368359D01*
X118495961Y-97693361D02*
X123566039Y-97693361D01*
X117221000Y-96418400D02*
X118495961Y-97693361D01*
X131511041Y-97368359D02*
X132461000Y-96418400D01*
X131186039Y-97693361D02*
X131511041Y-97368359D01*
X126115961Y-97693361D02*
X131186039Y-97693361D01*
X124841000Y-96418400D02*
X126115961Y-97693361D01*
X115951000Y-97688400D02*
X117221000Y-96418400D01*
X110871000Y-97688400D02*
X114064057Y-97688400D01*
X114064057Y-97688400D02*
X114069018Y-97693361D01*
X114069018Y-97693361D02*
X115292982Y-97693361D01*
X109601000Y-96418400D02*
X110871000Y-97688400D01*
X115292982Y-97693361D02*
X115297943Y-97688400D01*
X115297943Y-97688400D02*
X115951000Y-97688400D01*
D20*
X123891041Y-94828359D02*
X124841000Y-93878400D01*
X123591039Y-95128361D02*
X123891041Y-94828359D01*
X118470961Y-95128361D02*
X123591039Y-95128361D01*
X117221000Y-93878400D02*
X118470961Y-95128361D01*
X131511041Y-94828359D02*
X132461000Y-93878400D01*
X131211039Y-95128361D02*
X131511041Y-94828359D01*
X126090961Y-95128361D02*
X131211039Y-95128361D01*
X124841000Y-93878400D02*
X126090961Y-95128361D01*
X116271041Y-94828359D02*
X117221000Y-93878400D01*
X115951000Y-95148400D02*
X116271041Y-94828359D01*
X112776000Y-95148400D02*
X115951000Y-95148400D01*
X109601000Y-93878400D02*
X111506000Y-93878400D01*
X111506000Y-93878400D02*
X112776000Y-95148400D01*
X110871000Y-92608400D02*
X112776000Y-92608400D01*
X109601000Y-91338400D02*
X110871000Y-92608400D01*
X121351041Y-92928441D02*
X122301000Y-93878400D01*
X121051039Y-92628439D02*
X121351041Y-92928441D01*
X115930961Y-92628439D02*
X121051039Y-92628439D01*
X114681000Y-93878400D02*
X115930961Y-92628439D01*
X123550961Y-92628439D02*
X128671039Y-92628439D01*
X122301000Y-93878400D02*
X123550961Y-92628439D01*
X128671039Y-92628439D02*
X128971041Y-92928441D01*
X128971041Y-92928441D02*
X129921000Y-93878400D01*
X136591041Y-92928441D02*
X137541000Y-93878400D01*
X136291039Y-92628439D02*
X136591041Y-92928441D01*
X131170961Y-92628439D02*
X136291039Y-92628439D01*
X129921000Y-93878400D02*
X131170961Y-92628439D01*
X116271041Y-87848441D02*
X117221000Y-88798400D01*
X115971039Y-87548439D02*
X116271041Y-87848441D01*
X110850961Y-87548439D02*
X115971039Y-87548439D01*
X109601000Y-88798400D02*
X110850961Y-87548439D01*
D21*
G36*
X149159000Y-70120871D02*
G01*
X149289660Y-70777743D01*
X149545959Y-71396504D01*
X149918048Y-71953374D01*
X150391626Y-72426952D01*
X150948496Y-72799041D01*
X151567257Y-73055340D01*
X152224129Y-73186000D01*
X152893871Y-73186000D01*
X153550743Y-73055340D01*
X154169504Y-72799041D01*
X154726374Y-72426952D01*
X155107838Y-72045488D01*
X155092343Y-115511417D01*
X154948374Y-115367448D01*
X154391504Y-114995359D01*
X153772743Y-114739060D01*
X153115871Y-114608400D01*
X152446129Y-114608400D01*
X151789257Y-114739060D01*
X151170496Y-114995359D01*
X150613626Y-115367448D01*
X150140048Y-115841026D01*
X149767959Y-116397896D01*
X149511660Y-117016657D01*
X149381000Y-117673529D01*
X149381000Y-118343271D01*
X149511660Y-119000143D01*
X149767959Y-119618904D01*
X150140048Y-120175774D01*
X150613626Y-120649352D01*
X151170496Y-121021441D01*
X151789257Y-121277740D01*
X152044587Y-121328528D01*
X95258623Y-121335846D01*
X95550743Y-121277740D01*
X96169504Y-121021441D01*
X96726374Y-120649352D01*
X97199952Y-120175774D01*
X97572041Y-119618904D01*
X97828340Y-119000143D01*
X97959000Y-118343271D01*
X97959000Y-117673529D01*
X97828340Y-117016657D01*
X97572041Y-116397896D01*
X97199952Y-115841026D01*
X96726374Y-115367448D01*
X96169504Y-114995359D01*
X95550743Y-114739060D01*
X94893871Y-114608400D01*
X94224129Y-114608400D01*
X93567257Y-114739060D01*
X92948496Y-114995359D01*
X92391626Y-115367448D01*
X92009000Y-115750074D01*
X92009000Y-111658400D01*
X105302533Y-111658400D01*
X105336321Y-112001460D01*
X105436388Y-112331336D01*
X105598888Y-112635352D01*
X105817576Y-112901824D01*
X106084048Y-113120512D01*
X106388064Y-113283012D01*
X106717940Y-113383079D01*
X106975032Y-113408400D01*
X107146968Y-113408400D01*
X107404060Y-113383079D01*
X107733936Y-113283012D01*
X108037952Y-113120512D01*
X108304424Y-112901824D01*
X108523112Y-112635352D01*
X108685612Y-112331336D01*
X108785679Y-112001460D01*
X108819467Y-111658400D01*
X108785679Y-111315340D01*
X108685612Y-110985464D01*
X108523112Y-110681448D01*
X108498045Y-110650903D01*
X108550475Y-110607875D01*
X108662943Y-110470832D01*
X108746514Y-110314481D01*
X108797977Y-110144831D01*
X108800580Y-110118400D01*
X110401420Y-110118400D01*
X110404023Y-110144831D01*
X110455486Y-110314481D01*
X110539057Y-110470832D01*
X110651525Y-110607875D01*
X110703955Y-110650903D01*
X110678888Y-110681448D01*
X110516388Y-110985464D01*
X110416321Y-111315340D01*
X110382533Y-111658400D01*
X110416321Y-112001460D01*
X110516388Y-112331336D01*
X110678888Y-112635352D01*
X110897576Y-112901824D01*
X111164048Y-113120512D01*
X111468064Y-113283012D01*
X111797940Y-113383079D01*
X112055032Y-113408400D01*
X112226968Y-113408400D01*
X112484060Y-113383079D01*
X112813936Y-113283012D01*
X113117952Y-113120512D01*
X113384424Y-112901824D01*
X113603112Y-112635352D01*
X113765612Y-112331336D01*
X113865679Y-112001460D01*
X113899467Y-111658400D01*
X113865679Y-111315340D01*
X113765612Y-110985464D01*
X113603112Y-110681448D01*
X113578045Y-110650903D01*
X113630475Y-110607875D01*
X113742943Y-110470832D01*
X113826514Y-110314481D01*
X113877977Y-110144831D01*
X113880580Y-110118400D01*
X115481420Y-110118400D01*
X115484023Y-110144831D01*
X115535486Y-110314481D01*
X115619057Y-110470832D01*
X115731525Y-110607875D01*
X115783955Y-110650903D01*
X115758888Y-110681448D01*
X115596388Y-110985464D01*
X115496321Y-111315340D01*
X115462533Y-111658400D01*
X115496321Y-112001460D01*
X115596388Y-112331336D01*
X115758888Y-112635352D01*
X115977576Y-112901824D01*
X116244048Y-113120512D01*
X116548064Y-113283012D01*
X116877940Y-113383079D01*
X117135032Y-113408400D01*
X117306968Y-113408400D01*
X117564060Y-113383079D01*
X117893936Y-113283012D01*
X118197952Y-113120512D01*
X118464424Y-112901824D01*
X118683112Y-112635352D01*
X118845612Y-112331336D01*
X118945679Y-112001460D01*
X118979467Y-111658400D01*
X118945679Y-111315340D01*
X118845612Y-110985464D01*
X118683112Y-110681448D01*
X118658045Y-110650903D01*
X118710475Y-110607875D01*
X118822943Y-110470832D01*
X118906514Y-110314481D01*
X118957977Y-110144831D01*
X118960580Y-110118400D01*
X120561420Y-110118400D01*
X120564023Y-110144831D01*
X120615486Y-110314481D01*
X120699057Y-110470832D01*
X120811525Y-110607875D01*
X120863955Y-110650903D01*
X120838888Y-110681448D01*
X120676388Y-110985464D01*
X120576321Y-111315340D01*
X120542533Y-111658400D01*
X120576321Y-112001460D01*
X120676388Y-112331336D01*
X120838888Y-112635352D01*
X121057576Y-112901824D01*
X121324048Y-113120512D01*
X121628064Y-113283012D01*
X121957940Y-113383079D01*
X122215032Y-113408400D01*
X122386968Y-113408400D01*
X122644060Y-113383079D01*
X122973936Y-113283012D01*
X123277952Y-113120512D01*
X123544424Y-112901824D01*
X123763112Y-112635352D01*
X123925612Y-112331336D01*
X124025679Y-112001460D01*
X124059467Y-111658400D01*
X124025679Y-111315340D01*
X123925612Y-110985464D01*
X123763112Y-110681448D01*
X123738045Y-110650903D01*
X123790475Y-110607875D01*
X123902943Y-110470832D01*
X123986514Y-110314481D01*
X124037977Y-110144831D01*
X124040580Y-110118400D01*
X125641420Y-110118400D01*
X125644023Y-110144831D01*
X125695486Y-110314481D01*
X125779057Y-110470832D01*
X125891525Y-110607875D01*
X125943955Y-110650903D01*
X125918888Y-110681448D01*
X125756388Y-110985464D01*
X125656321Y-111315340D01*
X125622533Y-111658400D01*
X125656321Y-112001460D01*
X125756388Y-112331336D01*
X125918888Y-112635352D01*
X126137576Y-112901824D01*
X126404048Y-113120512D01*
X126708064Y-113283012D01*
X127037940Y-113383079D01*
X127295032Y-113408400D01*
X127466968Y-113408400D01*
X127724060Y-113383079D01*
X128053936Y-113283012D01*
X128357952Y-113120512D01*
X128624424Y-112901824D01*
X128843112Y-112635352D01*
X129005612Y-112331336D01*
X129105679Y-112001460D01*
X129139467Y-111658400D01*
X129105679Y-111315340D01*
X129005612Y-110985464D01*
X128843112Y-110681448D01*
X128818045Y-110650903D01*
X128870475Y-110607875D01*
X128982943Y-110470832D01*
X129066514Y-110314481D01*
X129117977Y-110144831D01*
X129120580Y-110118400D01*
X130721420Y-110118400D01*
X130724023Y-110144831D01*
X130775486Y-110314481D01*
X130859057Y-110470832D01*
X130971525Y-110607875D01*
X131023955Y-110650903D01*
X130998888Y-110681448D01*
X130836388Y-110985464D01*
X130736321Y-111315340D01*
X130702533Y-111658400D01*
X130736321Y-112001460D01*
X130836388Y-112331336D01*
X130998888Y-112635352D01*
X131217576Y-112901824D01*
X131484048Y-113120512D01*
X131788064Y-113283012D01*
X132117940Y-113383079D01*
X132375032Y-113408400D01*
X132546968Y-113408400D01*
X132804060Y-113383079D01*
X133133936Y-113283012D01*
X133437952Y-113120512D01*
X133704424Y-112901824D01*
X133923112Y-112635352D01*
X134085612Y-112331336D01*
X134185679Y-112001460D01*
X134219467Y-111658400D01*
X134185679Y-111315340D01*
X134085612Y-110985464D01*
X133923112Y-110681448D01*
X133898045Y-110650903D01*
X133950475Y-110607875D01*
X134062943Y-110470832D01*
X134146514Y-110314481D01*
X134197977Y-110144831D01*
X134200580Y-110118400D01*
X135801420Y-110118400D01*
X135804023Y-110144831D01*
X135855486Y-110314481D01*
X135939057Y-110470832D01*
X136051525Y-110607875D01*
X136103955Y-110650903D01*
X136078888Y-110681448D01*
X135916388Y-110985464D01*
X135816321Y-111315340D01*
X135782533Y-111658400D01*
X135816321Y-112001460D01*
X135916388Y-112331336D01*
X136078888Y-112635352D01*
X136297576Y-112901824D01*
X136564048Y-113120512D01*
X136868064Y-113283012D01*
X137197940Y-113383079D01*
X137455032Y-113408400D01*
X137626968Y-113408400D01*
X137884060Y-113383079D01*
X138213936Y-113283012D01*
X138517952Y-113120512D01*
X138784424Y-112901824D01*
X139003112Y-112635352D01*
X139165612Y-112331336D01*
X139265679Y-112001460D01*
X139299467Y-111658400D01*
X139265679Y-111315340D01*
X139165612Y-110985464D01*
X139003112Y-110681448D01*
X138978045Y-110650903D01*
X139030475Y-110607875D01*
X139142943Y-110470832D01*
X139226514Y-110314481D01*
X139277977Y-110144831D01*
X139280580Y-110118400D01*
X140881420Y-110118400D01*
X140884023Y-110144831D01*
X140935486Y-110314481D01*
X141019057Y-110470832D01*
X141131525Y-110607875D01*
X141183955Y-110650903D01*
X141158888Y-110681448D01*
X140996388Y-110985464D01*
X140896321Y-111315340D01*
X140862533Y-111658400D01*
X140896321Y-112001460D01*
X140996388Y-112331336D01*
X141158888Y-112635352D01*
X141377576Y-112901824D01*
X141644048Y-113120512D01*
X141948064Y-113283012D01*
X142277940Y-113383079D01*
X142535032Y-113408400D01*
X142706968Y-113408400D01*
X142964060Y-113383079D01*
X143293936Y-113283012D01*
X143597952Y-113120512D01*
X143864424Y-112901824D01*
X144083112Y-112635352D01*
X144245612Y-112331336D01*
X144345679Y-112001460D01*
X144379467Y-111658400D01*
X144345679Y-111315340D01*
X144245612Y-110985464D01*
X144083112Y-110681448D01*
X144058045Y-110650903D01*
X144110475Y-110607875D01*
X144222943Y-110470832D01*
X144306514Y-110314481D01*
X144357977Y-110144831D01*
X144375354Y-109968400D01*
X144375354Y-108268400D01*
X144357977Y-108091969D01*
X144306514Y-107922319D01*
X144222943Y-107765968D01*
X144110475Y-107628925D01*
X143973432Y-107516457D01*
X143817081Y-107432886D01*
X143647431Y-107381423D01*
X143471000Y-107364046D01*
X141771000Y-107364046D01*
X141594569Y-107381423D01*
X141424919Y-107432886D01*
X141268568Y-107516457D01*
X141131525Y-107628925D01*
X141019057Y-107765968D01*
X140935486Y-107922319D01*
X140884023Y-108091969D01*
X140881420Y-108118400D01*
X139280580Y-108118400D01*
X139277977Y-108091969D01*
X139226514Y-107922319D01*
X139142943Y-107765968D01*
X139030475Y-107628925D01*
X138893432Y-107516457D01*
X138737081Y-107432886D01*
X138567431Y-107381423D01*
X138391000Y-107364046D01*
X136691000Y-107364046D01*
X136514569Y-107381423D01*
X136344919Y-107432886D01*
X136188568Y-107516457D01*
X136051525Y-107628925D01*
X135939057Y-107765968D01*
X135855486Y-107922319D01*
X135804023Y-108091969D01*
X135801420Y-108118400D01*
X134200580Y-108118400D01*
X134197977Y-108091969D01*
X134146514Y-107922319D01*
X134062943Y-107765968D01*
X133950475Y-107628925D01*
X133813432Y-107516457D01*
X133657081Y-107432886D01*
X133487431Y-107381423D01*
X133311000Y-107364046D01*
X131611000Y-107364046D01*
X131434569Y-107381423D01*
X131264919Y-107432886D01*
X131108568Y-107516457D01*
X130971525Y-107628925D01*
X130859057Y-107765968D01*
X130775486Y-107922319D01*
X130724023Y-108091969D01*
X130721420Y-108118400D01*
X129120580Y-108118400D01*
X129117977Y-108091969D01*
X129066514Y-107922319D01*
X128982943Y-107765968D01*
X128870475Y-107628925D01*
X128733432Y-107516457D01*
X128577081Y-107432886D01*
X128407431Y-107381423D01*
X128231000Y-107364046D01*
X126531000Y-107364046D01*
X126354569Y-107381423D01*
X126184919Y-107432886D01*
X126028568Y-107516457D01*
X125891525Y-107628925D01*
X125779057Y-107765968D01*
X125695486Y-107922319D01*
X125644023Y-108091969D01*
X125641420Y-108118400D01*
X124040580Y-108118400D01*
X124037977Y-108091969D01*
X123986514Y-107922319D01*
X123902943Y-107765968D01*
X123790475Y-107628925D01*
X123653432Y-107516457D01*
X123497081Y-107432886D01*
X123327431Y-107381423D01*
X123151000Y-107364046D01*
X121451000Y-107364046D01*
X121274569Y-107381423D01*
X121104919Y-107432886D01*
X120948568Y-107516457D01*
X120811525Y-107628925D01*
X120699057Y-107765968D01*
X120615486Y-107922319D01*
X120564023Y-108091969D01*
X120561420Y-108118400D01*
X118960580Y-108118400D01*
X118957977Y-108091969D01*
X118906514Y-107922319D01*
X118822943Y-107765968D01*
X118710475Y-107628925D01*
X118573432Y-107516457D01*
X118417081Y-107432886D01*
X118247431Y-107381423D01*
X118071000Y-107364046D01*
X116371000Y-107364046D01*
X116194569Y-107381423D01*
X116024919Y-107432886D01*
X115868568Y-107516457D01*
X115731525Y-107628925D01*
X115619057Y-107765968D01*
X115535486Y-107922319D01*
X115484023Y-108091969D01*
X115481420Y-108118400D01*
X113880580Y-108118400D01*
X113877977Y-108091969D01*
X113826514Y-107922319D01*
X113742943Y-107765968D01*
X113630475Y-107628925D01*
X113493432Y-107516457D01*
X113337081Y-107432886D01*
X113167431Y-107381423D01*
X112991000Y-107364046D01*
X111291000Y-107364046D01*
X111114569Y-107381423D01*
X110944919Y-107432886D01*
X110788568Y-107516457D01*
X110651525Y-107628925D01*
X110539057Y-107765968D01*
X110455486Y-107922319D01*
X110404023Y-108091969D01*
X110401420Y-108118400D01*
X108800580Y-108118400D01*
X108797977Y-108091969D01*
X108746514Y-107922319D01*
X108662943Y-107765968D01*
X108550475Y-107628925D01*
X108413432Y-107516457D01*
X108257081Y-107432886D01*
X108087431Y-107381423D01*
X107911000Y-107364046D01*
X106211000Y-107364046D01*
X106034569Y-107381423D01*
X105864919Y-107432886D01*
X105708568Y-107516457D01*
X105571525Y-107628925D01*
X105459057Y-107765968D01*
X105375486Y-107922319D01*
X105324023Y-108091969D01*
X105306646Y-108268400D01*
X105306646Y-109968400D01*
X105324023Y-110144831D01*
X105375486Y-110314481D01*
X105459057Y-110470832D01*
X105571525Y-110607875D01*
X105623955Y-110650903D01*
X105598888Y-110681448D01*
X105436388Y-110985464D01*
X105336321Y-111315340D01*
X105302533Y-111658400D01*
X92009000Y-111658400D01*
X92009000Y-103832464D01*
X92014421Y-103777175D01*
X92016985Y-103768682D01*
X92021150Y-103760849D01*
X92026754Y-103753978D01*
X92033589Y-103748324D01*
X92041385Y-103744108D01*
X92049862Y-103741484D01*
X92102041Y-103736000D01*
X95105665Y-103736000D01*
X95146037Y-103732024D01*
X95152085Y-103732066D01*
X95165286Y-103730772D01*
X95359383Y-103710371D01*
X95443755Y-103693051D01*
X95528301Y-103676923D01*
X95541000Y-103673090D01*
X95727438Y-103615378D01*
X95806799Y-103582017D01*
X95886646Y-103549757D01*
X95898357Y-103543530D01*
X96070034Y-103450705D01*
X96141397Y-103402570D01*
X96213468Y-103355408D01*
X96223747Y-103347024D01*
X96374125Y-103222621D01*
X96434809Y-103161511D01*
X96496313Y-103101282D01*
X96504768Y-103091062D01*
X96628118Y-102939820D01*
X96675762Y-102868109D01*
X96724413Y-102797057D01*
X96730722Y-102785389D01*
X96822347Y-102613067D01*
X96855171Y-102533430D01*
X96889077Y-102454321D01*
X96893000Y-102441650D01*
X96949409Y-102254813D01*
X96966136Y-102170333D01*
X96984034Y-102086130D01*
X96985421Y-102072939D01*
X97004466Y-101878705D01*
X97004466Y-101878700D01*
X97009000Y-101832665D01*
X97009000Y-100191266D01*
X145801000Y-100191266D01*
X145801000Y-100565534D01*
X145874016Y-100932609D01*
X146017242Y-101278387D01*
X146225174Y-101589579D01*
X146489821Y-101854226D01*
X146801013Y-102062158D01*
X147146791Y-102205384D01*
X147513866Y-102278400D01*
X147888134Y-102278400D01*
X148255209Y-102205384D01*
X148600987Y-102062158D01*
X148912179Y-101854226D01*
X149176826Y-101589579D01*
X149384758Y-101278387D01*
X149527984Y-100932609D01*
X149601000Y-100565534D01*
X149601000Y-100191266D01*
X150301000Y-100191266D01*
X150301000Y-100565534D01*
X150374016Y-100932609D01*
X150517242Y-101278387D01*
X150725174Y-101589579D01*
X150989821Y-101854226D01*
X151301013Y-102062158D01*
X151646791Y-102205384D01*
X152013866Y-102278400D01*
X152388134Y-102278400D01*
X152755209Y-102205384D01*
X153100987Y-102062158D01*
X153412179Y-101854226D01*
X153676826Y-101589579D01*
X153884758Y-101278387D01*
X154027984Y-100932609D01*
X154101000Y-100565534D01*
X154101000Y-100191266D01*
X154027984Y-99824191D01*
X153884758Y-99478413D01*
X153676826Y-99167221D01*
X153412179Y-98902574D01*
X153100987Y-98694642D01*
X152755209Y-98551416D01*
X152388134Y-98478400D01*
X152013866Y-98478400D01*
X151646791Y-98551416D01*
X151301013Y-98694642D01*
X150989821Y-98902574D01*
X150725174Y-99167221D01*
X150517242Y-99478413D01*
X150374016Y-99824191D01*
X150301000Y-100191266D01*
X149601000Y-100191266D01*
X149527984Y-99824191D01*
X149384758Y-99478413D01*
X149176826Y-99167221D01*
X148912179Y-98902574D01*
X148600987Y-98694642D01*
X148255209Y-98551416D01*
X147888134Y-98478400D01*
X147513866Y-98478400D01*
X147146791Y-98551416D01*
X146801013Y-98694642D01*
X146489821Y-98902574D01*
X146225174Y-99167221D01*
X146017242Y-99478413D01*
X145874016Y-99824191D01*
X145801000Y-100191266D01*
X97009000Y-100191266D01*
X97009000Y-87013440D01*
X106691162Y-87013440D01*
X106696001Y-87062570D01*
X106696000Y-93774223D01*
X106691162Y-93823343D01*
X106710470Y-94019377D01*
X106749609Y-94148400D01*
X106767651Y-94207877D01*
X106860508Y-94381601D01*
X106985472Y-94533871D01*
X107023637Y-94565192D01*
X107977197Y-95518753D01*
X107961587Y-95542115D01*
X107822133Y-95878787D01*
X107751040Y-96236195D01*
X107751040Y-96600605D01*
X107822133Y-96958013D01*
X107961587Y-97294685D01*
X108164042Y-97597681D01*
X108421719Y-97855358D01*
X108724715Y-98057813D01*
X109061387Y-98197267D01*
X109418795Y-98268360D01*
X109783205Y-98268360D01*
X109965192Y-98232161D01*
X110110611Y-98377580D01*
X110142709Y-98416691D01*
X110298785Y-98544780D01*
X110476852Y-98639958D01*
X110611453Y-98680789D01*
X110670064Y-98698569D01*
X110688665Y-98700401D01*
X110820649Y-98713400D01*
X110820656Y-98713400D01*
X110870999Y-98718358D01*
X110921342Y-98713400D01*
X113968296Y-98713400D01*
X114018667Y-98718361D01*
X114018668Y-98718361D01*
X114069018Y-98723320D01*
X114119369Y-98718361D01*
X115242632Y-98718361D01*
X115292982Y-98723320D01*
X115343332Y-98718361D01*
X115343333Y-98718361D01*
X115393704Y-98713400D01*
X115900650Y-98713400D01*
X115951000Y-98718359D01*
X116001350Y-98713400D01*
X116001351Y-98713400D01*
X116151935Y-98698569D01*
X116345148Y-98639958D01*
X116523215Y-98544780D01*
X116679291Y-98416691D01*
X116711396Y-98377571D01*
X116856807Y-98232160D01*
X117038795Y-98268360D01*
X117403205Y-98268360D01*
X117585192Y-98232161D01*
X117735573Y-98382542D01*
X117767670Y-98421652D01*
X117923746Y-98549741D01*
X118101813Y-98644919D01*
X118236414Y-98685750D01*
X118295025Y-98703530D01*
X118313626Y-98705362D01*
X118445610Y-98718361D01*
X118445617Y-98718361D01*
X118495960Y-98723319D01*
X118546303Y-98718361D01*
X123515689Y-98718361D01*
X123566039Y-98723320D01*
X123616389Y-98718361D01*
X123616390Y-98718361D01*
X123766974Y-98703530D01*
X123960187Y-98644919D01*
X124138254Y-98549741D01*
X124294330Y-98421652D01*
X124326435Y-98382532D01*
X124476807Y-98232160D01*
X124658795Y-98268360D01*
X125023205Y-98268360D01*
X125205192Y-98232161D01*
X125355573Y-98382542D01*
X125387670Y-98421652D01*
X125543746Y-98549741D01*
X125721813Y-98644919D01*
X125856414Y-98685750D01*
X125915025Y-98703530D01*
X125933626Y-98705362D01*
X126065610Y-98718361D01*
X126065617Y-98718361D01*
X126115960Y-98723319D01*
X126166303Y-98718361D01*
X131135689Y-98718361D01*
X131186039Y-98723320D01*
X131236389Y-98718361D01*
X131236390Y-98718361D01*
X131386974Y-98703530D01*
X131580187Y-98644919D01*
X131758254Y-98549741D01*
X131914330Y-98421652D01*
X131946435Y-98382532D01*
X132096807Y-98232160D01*
X132278795Y-98268360D01*
X132643205Y-98268360D01*
X133000613Y-98197267D01*
X133337285Y-98057813D01*
X133640281Y-97855358D01*
X133897958Y-97597681D01*
X134100413Y-97294685D01*
X134239867Y-96958013D01*
X134310960Y-96600605D01*
X134310960Y-96236195D01*
X134239867Y-95878787D01*
X134100413Y-95542115D01*
X133897958Y-95239119D01*
X133807239Y-95148400D01*
X133897958Y-95057681D01*
X134100413Y-94754685D01*
X134239867Y-94418013D01*
X134310960Y-94060605D01*
X134310960Y-93696195D01*
X134297482Y-93628439D01*
X135704518Y-93628439D01*
X135691040Y-93696195D01*
X135691040Y-94060605D01*
X135762133Y-94418013D01*
X135901587Y-94754685D01*
X136104042Y-95057681D01*
X136194761Y-95148400D01*
X136104042Y-95239119D01*
X135901587Y-95542115D01*
X135762133Y-95878787D01*
X135691040Y-96236195D01*
X135691040Y-96600605D01*
X135762133Y-96958013D01*
X135901587Y-97294685D01*
X136104042Y-97597681D01*
X136361719Y-97855358D01*
X136664715Y-98057813D01*
X137001387Y-98197267D01*
X137358795Y-98268360D01*
X137723205Y-98268360D01*
X138080613Y-98197267D01*
X138417285Y-98057813D01*
X138720281Y-97855358D01*
X138977958Y-97597681D01*
X139180413Y-97294685D01*
X139319867Y-96958013D01*
X139390960Y-96600605D01*
X139390960Y-96236195D01*
X139319867Y-95878787D01*
X139180413Y-95542115D01*
X138977958Y-95239119D01*
X138887239Y-95148400D01*
X138977958Y-95057681D01*
X139180413Y-94754685D01*
X139319867Y-94418013D01*
X139390960Y-94060605D01*
X139390960Y-93696195D01*
X139389980Y-93691266D01*
X145801000Y-93691266D01*
X145801000Y-94065534D01*
X145874016Y-94432609D01*
X146017242Y-94778387D01*
X146225174Y-95089579D01*
X146489821Y-95354226D01*
X146801013Y-95562158D01*
X147146791Y-95705384D01*
X147513866Y-95778400D01*
X147888134Y-95778400D01*
X148255209Y-95705384D01*
X148600987Y-95562158D01*
X148912179Y-95354226D01*
X149176826Y-95089579D01*
X149384758Y-94778387D01*
X149527984Y-94432609D01*
X149601000Y-94065534D01*
X149601000Y-93691266D01*
X150301000Y-93691266D01*
X150301000Y-94065534D01*
X150374016Y-94432609D01*
X150517242Y-94778387D01*
X150725174Y-95089579D01*
X150989821Y-95354226D01*
X151301013Y-95562158D01*
X151646791Y-95705384D01*
X152013866Y-95778400D01*
X152388134Y-95778400D01*
X152755209Y-95705384D01*
X153100987Y-95562158D01*
X153412179Y-95354226D01*
X153676826Y-95089579D01*
X153884758Y-94778387D01*
X154027984Y-94432609D01*
X154101000Y-94065534D01*
X154101000Y-93691266D01*
X154027984Y-93324191D01*
X153884758Y-92978413D01*
X153676826Y-92667221D01*
X153412179Y-92402574D01*
X153100987Y-92194642D01*
X152755209Y-92051416D01*
X152388134Y-91978400D01*
X152013866Y-91978400D01*
X151646791Y-92051416D01*
X151301013Y-92194642D01*
X150989821Y-92402574D01*
X150725174Y-92667221D01*
X150517242Y-92978413D01*
X150374016Y-93324191D01*
X150301000Y-93691266D01*
X149601000Y-93691266D01*
X149527984Y-93324191D01*
X149384758Y-92978413D01*
X149176826Y-92667221D01*
X148912179Y-92402574D01*
X148600987Y-92194642D01*
X148255209Y-92051416D01*
X147888134Y-91978400D01*
X147513866Y-91978400D01*
X147146791Y-92051416D01*
X146801013Y-92194642D01*
X146489821Y-92402574D01*
X146225174Y-92667221D01*
X146017242Y-92978413D01*
X145874016Y-93324191D01*
X145801000Y-93691266D01*
X139389980Y-93691266D01*
X139319867Y-93338787D01*
X139180413Y-93002115D01*
X138977958Y-92699119D01*
X138886984Y-92608145D01*
X138977678Y-92517451D01*
X139180094Y-92214514D01*
X139319521Y-91877908D01*
X139390600Y-91520570D01*
X139390600Y-91156230D01*
X139319521Y-90798892D01*
X139180094Y-90462286D01*
X138977678Y-90159349D01*
X138886984Y-90068655D01*
X138977958Y-89977681D01*
X139180413Y-89674685D01*
X139319867Y-89338013D01*
X139390960Y-88980605D01*
X139390960Y-88616195D01*
X139389980Y-88611266D01*
X145801000Y-88611266D01*
X145801000Y-88985534D01*
X145874016Y-89352609D01*
X146017242Y-89698387D01*
X146225174Y-90009579D01*
X146489821Y-90274226D01*
X146801013Y-90482158D01*
X147146791Y-90625384D01*
X147513866Y-90698400D01*
X147888134Y-90698400D01*
X148255209Y-90625384D01*
X148600987Y-90482158D01*
X148912179Y-90274226D01*
X149176826Y-90009579D01*
X149384758Y-89698387D01*
X149527984Y-89352609D01*
X149601000Y-88985534D01*
X149601000Y-88611266D01*
X150301000Y-88611266D01*
X150301000Y-88985534D01*
X150374016Y-89352609D01*
X150517242Y-89698387D01*
X150725174Y-90009579D01*
X150989821Y-90274226D01*
X151301013Y-90482158D01*
X151646791Y-90625384D01*
X152013866Y-90698400D01*
X152388134Y-90698400D01*
X152755209Y-90625384D01*
X153100987Y-90482158D01*
X153412179Y-90274226D01*
X153676826Y-90009579D01*
X153884758Y-89698387D01*
X154027984Y-89352609D01*
X154101000Y-88985534D01*
X154101000Y-88611266D01*
X154027984Y-88244191D01*
X153884758Y-87898413D01*
X153676826Y-87587221D01*
X153412179Y-87322574D01*
X153100987Y-87114642D01*
X152755209Y-86971416D01*
X152388134Y-86898400D01*
X152013866Y-86898400D01*
X151646791Y-86971416D01*
X151301013Y-87114642D01*
X150989821Y-87322574D01*
X150725174Y-87587221D01*
X150517242Y-87898413D01*
X150374016Y-88244191D01*
X150301000Y-88611266D01*
X149601000Y-88611266D01*
X149527984Y-88244191D01*
X149384758Y-87898413D01*
X149176826Y-87587221D01*
X148912179Y-87322574D01*
X148600987Y-87114642D01*
X148255209Y-86971416D01*
X147888134Y-86898400D01*
X147513866Y-86898400D01*
X147146791Y-86971416D01*
X146801013Y-87114642D01*
X146489821Y-87322574D01*
X146225174Y-87587221D01*
X146017242Y-87898413D01*
X145874016Y-88244191D01*
X145801000Y-88611266D01*
X139389980Y-88611266D01*
X139319867Y-88258787D01*
X139180413Y-87922115D01*
X138977958Y-87619119D01*
X138887239Y-87528400D01*
X138977958Y-87437681D01*
X139180413Y-87134685D01*
X139319867Y-86798013D01*
X139390960Y-86440605D01*
X139390960Y-86076195D01*
X139319867Y-85718787D01*
X139180413Y-85382115D01*
X139161226Y-85353400D01*
X150096880Y-85353400D01*
X150146000Y-85358238D01*
X150195120Y-85353400D01*
X150342034Y-85338930D01*
X150530535Y-85281749D01*
X150704258Y-85188892D01*
X150856528Y-85063928D01*
X150887849Y-85025763D01*
X151764762Y-84148850D01*
X152013866Y-84198400D01*
X152388134Y-84198400D01*
X152755209Y-84125384D01*
X153100987Y-83982158D01*
X153412179Y-83774226D01*
X153676826Y-83509579D01*
X153884758Y-83198387D01*
X154027984Y-82852609D01*
X154101000Y-82485534D01*
X154101000Y-82111266D01*
X154027984Y-81744191D01*
X153884758Y-81398413D01*
X153676826Y-81087221D01*
X153412179Y-80822574D01*
X153100987Y-80614642D01*
X152755209Y-80471416D01*
X152388134Y-80398400D01*
X152013866Y-80398400D01*
X151646791Y-80471416D01*
X151301013Y-80614642D01*
X150989821Y-80822574D01*
X150725174Y-81087221D01*
X150517242Y-81398413D01*
X150374016Y-81744191D01*
X150301000Y-82111266D01*
X150301000Y-82485534D01*
X150350550Y-82734638D01*
X149731788Y-83353400D01*
X149281182Y-83353400D01*
X149384758Y-83198387D01*
X149527984Y-82852609D01*
X149601000Y-82485534D01*
X149601000Y-82111266D01*
X149527984Y-81744191D01*
X149384758Y-81398413D01*
X149176826Y-81087221D01*
X148912179Y-80822574D01*
X148600987Y-80614642D01*
X148255209Y-80471416D01*
X147888134Y-80398400D01*
X147513866Y-80398400D01*
X147146791Y-80471416D01*
X146801013Y-80614642D01*
X146489821Y-80822574D01*
X146225174Y-81087221D01*
X146017242Y-81398413D01*
X145874016Y-81744191D01*
X145801000Y-82111266D01*
X145801000Y-82485534D01*
X145874016Y-82852609D01*
X146017242Y-83198387D01*
X146120818Y-83353400D01*
X137418682Y-83353400D01*
X137334426Y-83149987D01*
X137203101Y-82953445D01*
X137035955Y-82786299D01*
X136839413Y-82654974D01*
X136621027Y-82564516D01*
X136389190Y-82518400D01*
X136152810Y-82518400D01*
X135920973Y-82564516D01*
X135702587Y-82654974D01*
X135645078Y-82693400D01*
X131181922Y-82693400D01*
X131124413Y-82654974D01*
X130906027Y-82564516D01*
X130674190Y-82518400D01*
X130437810Y-82518400D01*
X130205973Y-82564516D01*
X129987587Y-82654974D01*
X129930078Y-82693400D01*
X126736922Y-82693400D01*
X126679413Y-82654974D01*
X126461027Y-82564516D01*
X126229190Y-82518400D01*
X125992810Y-82518400D01*
X125760973Y-82564516D01*
X125542587Y-82654974D01*
X125485078Y-82693400D01*
X119751922Y-82693400D01*
X119694413Y-82654974D01*
X119476027Y-82564516D01*
X119244190Y-82518400D01*
X119007810Y-82518400D01*
X118775973Y-82564516D01*
X118557587Y-82654974D01*
X118361045Y-82786299D01*
X118193899Y-82953445D01*
X118062574Y-83149987D01*
X117972116Y-83368373D01*
X117926000Y-83600210D01*
X117926000Y-83836590D01*
X117960183Y-84008439D01*
X116481817Y-84008439D01*
X116516000Y-83836590D01*
X116516000Y-83600210D01*
X116469884Y-83368373D01*
X116379426Y-83149987D01*
X116248101Y-82953445D01*
X116080955Y-82786299D01*
X115884413Y-82654974D01*
X115666027Y-82564516D01*
X115434190Y-82518400D01*
X115197810Y-82518400D01*
X114965973Y-82564516D01*
X114747587Y-82654974D01*
X114690078Y-82693400D01*
X110991391Y-82693400D01*
X110941040Y-82688441D01*
X110740105Y-82708231D01*
X110546891Y-82766842D01*
X110386432Y-82852609D01*
X110368825Y-82862020D01*
X110212749Y-82990109D01*
X110180652Y-83029219D01*
X108911829Y-84298044D01*
X108872709Y-84330149D01*
X108812030Y-84404086D01*
X108651040Y-84404086D01*
X108474609Y-84421463D01*
X108304959Y-84472926D01*
X108148608Y-84556497D01*
X108011565Y-84668965D01*
X107899097Y-84806008D01*
X107815526Y-84962359D01*
X107764063Y-85132009D01*
X107746686Y-85308440D01*
X107746686Y-85542805D01*
X107740512Y-85547872D01*
X107709200Y-85586026D01*
X107023632Y-86271596D01*
X106985473Y-86302912D01*
X106860509Y-86455182D01*
X106821373Y-86528400D01*
X106767651Y-86628906D01*
X106710470Y-86817406D01*
X106691162Y-87013440D01*
X97009000Y-87013440D01*
X97009000Y-86739335D01*
X97005023Y-86698954D01*
X97005065Y-86692915D01*
X97003771Y-86679714D01*
X96983371Y-86485617D01*
X96966051Y-86401246D01*
X96949923Y-86316698D01*
X96946090Y-86304000D01*
X96888378Y-86117562D01*
X96855005Y-86038172D01*
X96822757Y-85958354D01*
X96816530Y-85946642D01*
X96723705Y-85774966D01*
X96675542Y-85703560D01*
X96628407Y-85631532D01*
X96620024Y-85621253D01*
X96495620Y-85470875D01*
X96434530Y-85410211D01*
X96374282Y-85348687D01*
X96364062Y-85340232D01*
X96212820Y-85216882D01*
X96141099Y-85169231D01*
X96070057Y-85120588D01*
X96058389Y-85114278D01*
X95886067Y-85022653D01*
X95806430Y-84989829D01*
X95727321Y-84955923D01*
X95714650Y-84952000D01*
X95527814Y-84895591D01*
X95443325Y-84878862D01*
X95359130Y-84860966D01*
X95345938Y-84859579D01*
X95151705Y-84840534D01*
X95151700Y-84840534D01*
X95105665Y-84836000D01*
X92105463Y-84836000D01*
X92050175Y-84830579D01*
X92041682Y-84828014D01*
X92033849Y-84823850D01*
X92026976Y-84818245D01*
X92021326Y-84811414D01*
X92017108Y-84803613D01*
X92014484Y-84795135D01*
X92009000Y-84742961D01*
X92009000Y-72044326D01*
X92391626Y-72426952D01*
X92948496Y-72799041D01*
X93567257Y-73055340D01*
X94224129Y-73186000D01*
X94893871Y-73186000D01*
X95550743Y-73055340D01*
X96169504Y-72799041D01*
X96726374Y-72426952D01*
X97199952Y-71953374D01*
X97572041Y-71396504D01*
X97686646Y-71119823D01*
X97686646Y-71825156D01*
X97602587Y-71859974D01*
X97406045Y-71991299D01*
X97238899Y-72158445D01*
X97107574Y-72354987D01*
X97017116Y-72573373D01*
X96971000Y-72805210D01*
X96971000Y-73041590D01*
X97017116Y-73273427D01*
X97107574Y-73491813D01*
X97152066Y-73558400D01*
X97107574Y-73624987D01*
X97017116Y-73843373D01*
X96971000Y-74075210D01*
X96971000Y-74311590D01*
X97017116Y-74543427D01*
X97107574Y-74761813D01*
X97238899Y-74958355D01*
X97406045Y-75125501D01*
X97602587Y-75256826D01*
X97820973Y-75347284D01*
X98052810Y-75393400D01*
X98289190Y-75393400D01*
X98521027Y-75347284D01*
X98739413Y-75256826D01*
X98796922Y-75218400D01*
X121615650Y-75218400D01*
X121666000Y-75223359D01*
X121716350Y-75218400D01*
X121716351Y-75218400D01*
X121866935Y-75203569D01*
X122060148Y-75144958D01*
X122238215Y-75049780D01*
X122394291Y-74921691D01*
X122426397Y-74882570D01*
X124559796Y-72749171D01*
X124755032Y-72768400D01*
X124926968Y-72768400D01*
X125184060Y-72743079D01*
X125513936Y-72643012D01*
X125817952Y-72480512D01*
X126084424Y-72261824D01*
X126111000Y-72229441D01*
X126137576Y-72261824D01*
X126404048Y-72480512D01*
X126708064Y-72643012D01*
X127037940Y-72743079D01*
X127295032Y-72768400D01*
X127466968Y-72768400D01*
X127724060Y-72743079D01*
X128053936Y-72643012D01*
X128357952Y-72480512D01*
X128624424Y-72261824D01*
X128651000Y-72229441D01*
X128677576Y-72261824D01*
X128944048Y-72480512D01*
X129248064Y-72643012D01*
X129577940Y-72743079D01*
X129835032Y-72768400D01*
X130006968Y-72768400D01*
X130264060Y-72743079D01*
X130593936Y-72643012D01*
X130897952Y-72480512D01*
X131164424Y-72261824D01*
X131191000Y-72229441D01*
X131217576Y-72261824D01*
X131484048Y-72480512D01*
X131788064Y-72643012D01*
X132117940Y-72743079D01*
X132375032Y-72768400D01*
X132546968Y-72768400D01*
X132804060Y-72743079D01*
X133133936Y-72643012D01*
X133437952Y-72480512D01*
X133704424Y-72261824D01*
X133731000Y-72229441D01*
X133757576Y-72261824D01*
X134024048Y-72480512D01*
X134328064Y-72643012D01*
X134657940Y-72743079D01*
X134915032Y-72768400D01*
X135086968Y-72768400D01*
X135344060Y-72743079D01*
X135673936Y-72643012D01*
X135977952Y-72480512D01*
X136244424Y-72261824D01*
X136271000Y-72229441D01*
X136297576Y-72261824D01*
X136564048Y-72480512D01*
X136868064Y-72643012D01*
X137197940Y-72743079D01*
X137455032Y-72768400D01*
X137626968Y-72768400D01*
X137884060Y-72743079D01*
X138213936Y-72643012D01*
X138517952Y-72480512D01*
X138784424Y-72261824D01*
X138811000Y-72229441D01*
X138837576Y-72261824D01*
X139104048Y-72480512D01*
X139408064Y-72643012D01*
X139737940Y-72743079D01*
X139995032Y-72768400D01*
X140166968Y-72768400D01*
X140424060Y-72743079D01*
X140753936Y-72643012D01*
X141057952Y-72480512D01*
X141324424Y-72261824D01*
X141351000Y-72229441D01*
X141377576Y-72261824D01*
X141644048Y-72480512D01*
X141948064Y-72643012D01*
X142277940Y-72743079D01*
X142535032Y-72768400D01*
X142706968Y-72768400D01*
X142964060Y-72743079D01*
X143293936Y-72643012D01*
X143597952Y-72480512D01*
X143864424Y-72261824D01*
X143891000Y-72229441D01*
X143917576Y-72261824D01*
X144184048Y-72480512D01*
X144488064Y-72643012D01*
X144817940Y-72743079D01*
X145075032Y-72768400D01*
X145246968Y-72768400D01*
X145504060Y-72743079D01*
X145833936Y-72643012D01*
X146137952Y-72480512D01*
X146404424Y-72261824D01*
X146623112Y-71995352D01*
X146785612Y-71691336D01*
X146885679Y-71361460D01*
X146919467Y-71018400D01*
X146885679Y-70675340D01*
X146785612Y-70345464D01*
X146623112Y-70041448D01*
X146404424Y-69774976D01*
X146372041Y-69748400D01*
X146404424Y-69721824D01*
X146431000Y-69689441D01*
X146457576Y-69721824D01*
X146724048Y-69940512D01*
X147028064Y-70103012D01*
X147357940Y-70203079D01*
X147615032Y-70228400D01*
X147786968Y-70228400D01*
X148044060Y-70203079D01*
X148373936Y-70103012D01*
X148677952Y-69940512D01*
X148944424Y-69721824D01*
X149159000Y-69460362D01*
X149159000Y-70120871D01*
X149159000Y-70120871D01*
G37*
X149159000Y-70120871D02*
X149289660Y-70777743D01*
X149545959Y-71396504D01*
X149918048Y-71953374D01*
X150391626Y-72426952D01*
X150948496Y-72799041D01*
X151567257Y-73055340D01*
X152224129Y-73186000D01*
X152893871Y-73186000D01*
X153550743Y-73055340D01*
X154169504Y-72799041D01*
X154726374Y-72426952D01*
X155107838Y-72045488D01*
X155092343Y-115511417D01*
X154948374Y-115367448D01*
X154391504Y-114995359D01*
X153772743Y-114739060D01*
X153115871Y-114608400D01*
X152446129Y-114608400D01*
X151789257Y-114739060D01*
X151170496Y-114995359D01*
X150613626Y-115367448D01*
X150140048Y-115841026D01*
X149767959Y-116397896D01*
X149511660Y-117016657D01*
X149381000Y-117673529D01*
X149381000Y-118343271D01*
X149511660Y-119000143D01*
X149767959Y-119618904D01*
X150140048Y-120175774D01*
X150613626Y-120649352D01*
X151170496Y-121021441D01*
X151789257Y-121277740D01*
X152044587Y-121328528D01*
X95258623Y-121335846D01*
X95550743Y-121277740D01*
X96169504Y-121021441D01*
X96726374Y-120649352D01*
X97199952Y-120175774D01*
X97572041Y-119618904D01*
X97828340Y-119000143D01*
X97959000Y-118343271D01*
X97959000Y-117673529D01*
X97828340Y-117016657D01*
X97572041Y-116397896D01*
X97199952Y-115841026D01*
X96726374Y-115367448D01*
X96169504Y-114995359D01*
X95550743Y-114739060D01*
X94893871Y-114608400D01*
X94224129Y-114608400D01*
X93567257Y-114739060D01*
X92948496Y-114995359D01*
X92391626Y-115367448D01*
X92009000Y-115750074D01*
X92009000Y-111658400D01*
X105302533Y-111658400D01*
X105336321Y-112001460D01*
X105436388Y-112331336D01*
X105598888Y-112635352D01*
X105817576Y-112901824D01*
X106084048Y-113120512D01*
X106388064Y-113283012D01*
X106717940Y-113383079D01*
X106975032Y-113408400D01*
X107146968Y-113408400D01*
X107404060Y-113383079D01*
X107733936Y-113283012D01*
X108037952Y-113120512D01*
X108304424Y-112901824D01*
X108523112Y-112635352D01*
X108685612Y-112331336D01*
X108785679Y-112001460D01*
X108819467Y-111658400D01*
X108785679Y-111315340D01*
X108685612Y-110985464D01*
X108523112Y-110681448D01*
X108498045Y-110650903D01*
X108550475Y-110607875D01*
X108662943Y-110470832D01*
X108746514Y-110314481D01*
X108797977Y-110144831D01*
X108800580Y-110118400D01*
X110401420Y-110118400D01*
X110404023Y-110144831D01*
X110455486Y-110314481D01*
X110539057Y-110470832D01*
X110651525Y-110607875D01*
X110703955Y-110650903D01*
X110678888Y-110681448D01*
X110516388Y-110985464D01*
X110416321Y-111315340D01*
X110382533Y-111658400D01*
X110416321Y-112001460D01*
X110516388Y-112331336D01*
X110678888Y-112635352D01*
X110897576Y-112901824D01*
X111164048Y-113120512D01*
X111468064Y-113283012D01*
X111797940Y-113383079D01*
X112055032Y-113408400D01*
X112226968Y-113408400D01*
X112484060Y-113383079D01*
X112813936Y-113283012D01*
X113117952Y-113120512D01*
X113384424Y-112901824D01*
X113603112Y-112635352D01*
X113765612Y-112331336D01*
X113865679Y-112001460D01*
X113899467Y-111658400D01*
X113865679Y-111315340D01*
X113765612Y-110985464D01*
X113603112Y-110681448D01*
X113578045Y-110650903D01*
X113630475Y-110607875D01*
X113742943Y-110470832D01*
X113826514Y-110314481D01*
X113877977Y-110144831D01*
X113880580Y-110118400D01*
X115481420Y-110118400D01*
X115484023Y-110144831D01*
X115535486Y-110314481D01*
X115619057Y-110470832D01*
X115731525Y-110607875D01*
X115783955Y-110650903D01*
X115758888Y-110681448D01*
X115596388Y-110985464D01*
X115496321Y-111315340D01*
X115462533Y-111658400D01*
X115496321Y-112001460D01*
X115596388Y-112331336D01*
X115758888Y-112635352D01*
X115977576Y-112901824D01*
X116244048Y-113120512D01*
X116548064Y-113283012D01*
X116877940Y-113383079D01*
X117135032Y-113408400D01*
X117306968Y-113408400D01*
X117564060Y-113383079D01*
X117893936Y-113283012D01*
X118197952Y-113120512D01*
X118464424Y-112901824D01*
X118683112Y-112635352D01*
X118845612Y-112331336D01*
X118945679Y-112001460D01*
X118979467Y-111658400D01*
X118945679Y-111315340D01*
X118845612Y-110985464D01*
X118683112Y-110681448D01*
X118658045Y-110650903D01*
X118710475Y-110607875D01*
X118822943Y-110470832D01*
X118906514Y-110314481D01*
X118957977Y-110144831D01*
X118960580Y-110118400D01*
X120561420Y-110118400D01*
X120564023Y-110144831D01*
X120615486Y-110314481D01*
X120699057Y-110470832D01*
X120811525Y-110607875D01*
X120863955Y-110650903D01*
X120838888Y-110681448D01*
X120676388Y-110985464D01*
X120576321Y-111315340D01*
X120542533Y-111658400D01*
X120576321Y-112001460D01*
X120676388Y-112331336D01*
X120838888Y-112635352D01*
X121057576Y-112901824D01*
X121324048Y-113120512D01*
X121628064Y-113283012D01*
X121957940Y-113383079D01*
X122215032Y-113408400D01*
X122386968Y-113408400D01*
X122644060Y-113383079D01*
X122973936Y-113283012D01*
X123277952Y-113120512D01*
X123544424Y-112901824D01*
X123763112Y-112635352D01*
X123925612Y-112331336D01*
X124025679Y-112001460D01*
X124059467Y-111658400D01*
X124025679Y-111315340D01*
X123925612Y-110985464D01*
X123763112Y-110681448D01*
X123738045Y-110650903D01*
X123790475Y-110607875D01*
X123902943Y-110470832D01*
X123986514Y-110314481D01*
X124037977Y-110144831D01*
X124040580Y-110118400D01*
X125641420Y-110118400D01*
X125644023Y-110144831D01*
X125695486Y-110314481D01*
X125779057Y-110470832D01*
X125891525Y-110607875D01*
X125943955Y-110650903D01*
X125918888Y-110681448D01*
X125756388Y-110985464D01*
X125656321Y-111315340D01*
X125622533Y-111658400D01*
X125656321Y-112001460D01*
X125756388Y-112331336D01*
X125918888Y-112635352D01*
X126137576Y-112901824D01*
X126404048Y-113120512D01*
X126708064Y-113283012D01*
X127037940Y-113383079D01*
X127295032Y-113408400D01*
X127466968Y-113408400D01*
X127724060Y-113383079D01*
X128053936Y-113283012D01*
X128357952Y-113120512D01*
X128624424Y-112901824D01*
X128843112Y-112635352D01*
X129005612Y-112331336D01*
X129105679Y-112001460D01*
X129139467Y-111658400D01*
X129105679Y-111315340D01*
X129005612Y-110985464D01*
X128843112Y-110681448D01*
X128818045Y-110650903D01*
X128870475Y-110607875D01*
X128982943Y-110470832D01*
X129066514Y-110314481D01*
X129117977Y-110144831D01*
X129120580Y-110118400D01*
X130721420Y-110118400D01*
X130724023Y-110144831D01*
X130775486Y-110314481D01*
X130859057Y-110470832D01*
X130971525Y-110607875D01*
X131023955Y-110650903D01*
X130998888Y-110681448D01*
X130836388Y-110985464D01*
X130736321Y-111315340D01*
X130702533Y-111658400D01*
X130736321Y-112001460D01*
X130836388Y-112331336D01*
X130998888Y-112635352D01*
X131217576Y-112901824D01*
X131484048Y-113120512D01*
X131788064Y-113283012D01*
X132117940Y-113383079D01*
X132375032Y-113408400D01*
X132546968Y-113408400D01*
X132804060Y-113383079D01*
X133133936Y-113283012D01*
X133437952Y-113120512D01*
X133704424Y-112901824D01*
X133923112Y-112635352D01*
X134085612Y-112331336D01*
X134185679Y-112001460D01*
X134219467Y-111658400D01*
X134185679Y-111315340D01*
X134085612Y-110985464D01*
X133923112Y-110681448D01*
X133898045Y-110650903D01*
X133950475Y-110607875D01*
X134062943Y-110470832D01*
X134146514Y-110314481D01*
X134197977Y-110144831D01*
X134200580Y-110118400D01*
X135801420Y-110118400D01*
X135804023Y-110144831D01*
X135855486Y-110314481D01*
X135939057Y-110470832D01*
X136051525Y-110607875D01*
X136103955Y-110650903D01*
X136078888Y-110681448D01*
X135916388Y-110985464D01*
X135816321Y-111315340D01*
X135782533Y-111658400D01*
X135816321Y-112001460D01*
X135916388Y-112331336D01*
X136078888Y-112635352D01*
X136297576Y-112901824D01*
X136564048Y-113120512D01*
X136868064Y-113283012D01*
X137197940Y-113383079D01*
X137455032Y-113408400D01*
X137626968Y-113408400D01*
X137884060Y-113383079D01*
X138213936Y-113283012D01*
X138517952Y-113120512D01*
X138784424Y-112901824D01*
X139003112Y-112635352D01*
X139165612Y-112331336D01*
X139265679Y-112001460D01*
X139299467Y-111658400D01*
X139265679Y-111315340D01*
X139165612Y-110985464D01*
X139003112Y-110681448D01*
X138978045Y-110650903D01*
X139030475Y-110607875D01*
X139142943Y-110470832D01*
X139226514Y-110314481D01*
X139277977Y-110144831D01*
X139280580Y-110118400D01*
X140881420Y-110118400D01*
X140884023Y-110144831D01*
X140935486Y-110314481D01*
X141019057Y-110470832D01*
X141131525Y-110607875D01*
X141183955Y-110650903D01*
X141158888Y-110681448D01*
X140996388Y-110985464D01*
X140896321Y-111315340D01*
X140862533Y-111658400D01*
X140896321Y-112001460D01*
X140996388Y-112331336D01*
X141158888Y-112635352D01*
X141377576Y-112901824D01*
X141644048Y-113120512D01*
X141948064Y-113283012D01*
X142277940Y-113383079D01*
X142535032Y-113408400D01*
X142706968Y-113408400D01*
X142964060Y-113383079D01*
X143293936Y-113283012D01*
X143597952Y-113120512D01*
X143864424Y-112901824D01*
X144083112Y-112635352D01*
X144245612Y-112331336D01*
X144345679Y-112001460D01*
X144379467Y-111658400D01*
X144345679Y-111315340D01*
X144245612Y-110985464D01*
X144083112Y-110681448D01*
X144058045Y-110650903D01*
X144110475Y-110607875D01*
X144222943Y-110470832D01*
X144306514Y-110314481D01*
X144357977Y-110144831D01*
X144375354Y-109968400D01*
X144375354Y-108268400D01*
X144357977Y-108091969D01*
X144306514Y-107922319D01*
X144222943Y-107765968D01*
X144110475Y-107628925D01*
X143973432Y-107516457D01*
X143817081Y-107432886D01*
X143647431Y-107381423D01*
X143471000Y-107364046D01*
X141771000Y-107364046D01*
X141594569Y-107381423D01*
X141424919Y-107432886D01*
X141268568Y-107516457D01*
X141131525Y-107628925D01*
X141019057Y-107765968D01*
X140935486Y-107922319D01*
X140884023Y-108091969D01*
X140881420Y-108118400D01*
X139280580Y-108118400D01*
X139277977Y-108091969D01*
X139226514Y-107922319D01*
X139142943Y-107765968D01*
X139030475Y-107628925D01*
X138893432Y-107516457D01*
X138737081Y-107432886D01*
X138567431Y-107381423D01*
X138391000Y-107364046D01*
X136691000Y-107364046D01*
X136514569Y-107381423D01*
X136344919Y-107432886D01*
X136188568Y-107516457D01*
X136051525Y-107628925D01*
X135939057Y-107765968D01*
X135855486Y-107922319D01*
X135804023Y-108091969D01*
X135801420Y-108118400D01*
X134200580Y-108118400D01*
X134197977Y-108091969D01*
X134146514Y-107922319D01*
X134062943Y-107765968D01*
X133950475Y-107628925D01*
X133813432Y-107516457D01*
X133657081Y-107432886D01*
X133487431Y-107381423D01*
X133311000Y-107364046D01*
X131611000Y-107364046D01*
X131434569Y-107381423D01*
X131264919Y-107432886D01*
X131108568Y-107516457D01*
X130971525Y-107628925D01*
X130859057Y-107765968D01*
X130775486Y-107922319D01*
X130724023Y-108091969D01*
X130721420Y-108118400D01*
X129120580Y-108118400D01*
X129117977Y-108091969D01*
X129066514Y-107922319D01*
X128982943Y-107765968D01*
X128870475Y-107628925D01*
X128733432Y-107516457D01*
X128577081Y-107432886D01*
X128407431Y-107381423D01*
X128231000Y-107364046D01*
X126531000Y-107364046D01*
X126354569Y-107381423D01*
X126184919Y-107432886D01*
X126028568Y-107516457D01*
X125891525Y-107628925D01*
X125779057Y-107765968D01*
X125695486Y-107922319D01*
X125644023Y-108091969D01*
X125641420Y-108118400D01*
X124040580Y-108118400D01*
X124037977Y-108091969D01*
X123986514Y-107922319D01*
X123902943Y-107765968D01*
X123790475Y-107628925D01*
X123653432Y-107516457D01*
X123497081Y-107432886D01*
X123327431Y-107381423D01*
X123151000Y-107364046D01*
X121451000Y-107364046D01*
X121274569Y-107381423D01*
X121104919Y-107432886D01*
X120948568Y-107516457D01*
X120811525Y-107628925D01*
X120699057Y-107765968D01*
X120615486Y-107922319D01*
X120564023Y-108091969D01*
X120561420Y-108118400D01*
X118960580Y-108118400D01*
X118957977Y-108091969D01*
X118906514Y-107922319D01*
X118822943Y-107765968D01*
X118710475Y-107628925D01*
X118573432Y-107516457D01*
X118417081Y-107432886D01*
X118247431Y-107381423D01*
X118071000Y-107364046D01*
X116371000Y-107364046D01*
X116194569Y-107381423D01*
X116024919Y-107432886D01*
X115868568Y-107516457D01*
X115731525Y-107628925D01*
X115619057Y-107765968D01*
X115535486Y-107922319D01*
X115484023Y-108091969D01*
X115481420Y-108118400D01*
X113880580Y-108118400D01*
X113877977Y-108091969D01*
X113826514Y-107922319D01*
X113742943Y-107765968D01*
X113630475Y-107628925D01*
X113493432Y-107516457D01*
X113337081Y-107432886D01*
X113167431Y-107381423D01*
X112991000Y-107364046D01*
X111291000Y-107364046D01*
X111114569Y-107381423D01*
X110944919Y-107432886D01*
X110788568Y-107516457D01*
X110651525Y-107628925D01*
X110539057Y-107765968D01*
X110455486Y-107922319D01*
X110404023Y-108091969D01*
X110401420Y-108118400D01*
X108800580Y-108118400D01*
X108797977Y-108091969D01*
X108746514Y-107922319D01*
X108662943Y-107765968D01*
X108550475Y-107628925D01*
X108413432Y-107516457D01*
X108257081Y-107432886D01*
X108087431Y-107381423D01*
X107911000Y-107364046D01*
X106211000Y-107364046D01*
X106034569Y-107381423D01*
X105864919Y-107432886D01*
X105708568Y-107516457D01*
X105571525Y-107628925D01*
X105459057Y-107765968D01*
X105375486Y-107922319D01*
X105324023Y-108091969D01*
X105306646Y-108268400D01*
X105306646Y-109968400D01*
X105324023Y-110144831D01*
X105375486Y-110314481D01*
X105459057Y-110470832D01*
X105571525Y-110607875D01*
X105623955Y-110650903D01*
X105598888Y-110681448D01*
X105436388Y-110985464D01*
X105336321Y-111315340D01*
X105302533Y-111658400D01*
X92009000Y-111658400D01*
X92009000Y-103832464D01*
X92014421Y-103777175D01*
X92016985Y-103768682D01*
X92021150Y-103760849D01*
X92026754Y-103753978D01*
X92033589Y-103748324D01*
X92041385Y-103744108D01*
X92049862Y-103741484D01*
X92102041Y-103736000D01*
X95105665Y-103736000D01*
X95146037Y-103732024D01*
X95152085Y-103732066D01*
X95165286Y-103730772D01*
X95359383Y-103710371D01*
X95443755Y-103693051D01*
X95528301Y-103676923D01*
X95541000Y-103673090D01*
X95727438Y-103615378D01*
X95806799Y-103582017D01*
X95886646Y-103549757D01*
X95898357Y-103543530D01*
X96070034Y-103450705D01*
X96141397Y-103402570D01*
X96213468Y-103355408D01*
X96223747Y-103347024D01*
X96374125Y-103222621D01*
X96434809Y-103161511D01*
X96496313Y-103101282D01*
X96504768Y-103091062D01*
X96628118Y-102939820D01*
X96675762Y-102868109D01*
X96724413Y-102797057D01*
X96730722Y-102785389D01*
X96822347Y-102613067D01*
X96855171Y-102533430D01*
X96889077Y-102454321D01*
X96893000Y-102441650D01*
X96949409Y-102254813D01*
X96966136Y-102170333D01*
X96984034Y-102086130D01*
X96985421Y-102072939D01*
X97004466Y-101878705D01*
X97004466Y-101878700D01*
X97009000Y-101832665D01*
X97009000Y-100191266D01*
X145801000Y-100191266D01*
X145801000Y-100565534D01*
X145874016Y-100932609D01*
X146017242Y-101278387D01*
X146225174Y-101589579D01*
X146489821Y-101854226D01*
X146801013Y-102062158D01*
X147146791Y-102205384D01*
X147513866Y-102278400D01*
X147888134Y-102278400D01*
X148255209Y-102205384D01*
X148600987Y-102062158D01*
X148912179Y-101854226D01*
X149176826Y-101589579D01*
X149384758Y-101278387D01*
X149527984Y-100932609D01*
X149601000Y-100565534D01*
X149601000Y-100191266D01*
X150301000Y-100191266D01*
X150301000Y-100565534D01*
X150374016Y-100932609D01*
X150517242Y-101278387D01*
X150725174Y-101589579D01*
X150989821Y-101854226D01*
X151301013Y-102062158D01*
X151646791Y-102205384D01*
X152013866Y-102278400D01*
X152388134Y-102278400D01*
X152755209Y-102205384D01*
X153100987Y-102062158D01*
X153412179Y-101854226D01*
X153676826Y-101589579D01*
X153884758Y-101278387D01*
X154027984Y-100932609D01*
X154101000Y-100565534D01*
X154101000Y-100191266D01*
X154027984Y-99824191D01*
X153884758Y-99478413D01*
X153676826Y-99167221D01*
X153412179Y-98902574D01*
X153100987Y-98694642D01*
X152755209Y-98551416D01*
X152388134Y-98478400D01*
X152013866Y-98478400D01*
X151646791Y-98551416D01*
X151301013Y-98694642D01*
X150989821Y-98902574D01*
X150725174Y-99167221D01*
X150517242Y-99478413D01*
X150374016Y-99824191D01*
X150301000Y-100191266D01*
X149601000Y-100191266D01*
X149527984Y-99824191D01*
X149384758Y-99478413D01*
X149176826Y-99167221D01*
X148912179Y-98902574D01*
X148600987Y-98694642D01*
X148255209Y-98551416D01*
X147888134Y-98478400D01*
X147513866Y-98478400D01*
X147146791Y-98551416D01*
X146801013Y-98694642D01*
X146489821Y-98902574D01*
X146225174Y-99167221D01*
X146017242Y-99478413D01*
X145874016Y-99824191D01*
X145801000Y-100191266D01*
X97009000Y-100191266D01*
X97009000Y-87013440D01*
X106691162Y-87013440D01*
X106696001Y-87062570D01*
X106696000Y-93774223D01*
X106691162Y-93823343D01*
X106710470Y-94019377D01*
X106749609Y-94148400D01*
X106767651Y-94207877D01*
X106860508Y-94381601D01*
X106985472Y-94533871D01*
X107023637Y-94565192D01*
X107977197Y-95518753D01*
X107961587Y-95542115D01*
X107822133Y-95878787D01*
X107751040Y-96236195D01*
X107751040Y-96600605D01*
X107822133Y-96958013D01*
X107961587Y-97294685D01*
X108164042Y-97597681D01*
X108421719Y-97855358D01*
X108724715Y-98057813D01*
X109061387Y-98197267D01*
X109418795Y-98268360D01*
X109783205Y-98268360D01*
X109965192Y-98232161D01*
X110110611Y-98377580D01*
X110142709Y-98416691D01*
X110298785Y-98544780D01*
X110476852Y-98639958D01*
X110611453Y-98680789D01*
X110670064Y-98698569D01*
X110688665Y-98700401D01*
X110820649Y-98713400D01*
X110820656Y-98713400D01*
X110870999Y-98718358D01*
X110921342Y-98713400D01*
X113968296Y-98713400D01*
X114018667Y-98718361D01*
X114018668Y-98718361D01*
X114069018Y-98723320D01*
X114119369Y-98718361D01*
X115242632Y-98718361D01*
X115292982Y-98723320D01*
X115343332Y-98718361D01*
X115343333Y-98718361D01*
X115393704Y-98713400D01*
X115900650Y-98713400D01*
X115951000Y-98718359D01*
X116001350Y-98713400D01*
X116001351Y-98713400D01*
X116151935Y-98698569D01*
X116345148Y-98639958D01*
X116523215Y-98544780D01*
X116679291Y-98416691D01*
X116711396Y-98377571D01*
X116856807Y-98232160D01*
X117038795Y-98268360D01*
X117403205Y-98268360D01*
X117585192Y-98232161D01*
X117735573Y-98382542D01*
X117767670Y-98421652D01*
X117923746Y-98549741D01*
X118101813Y-98644919D01*
X118236414Y-98685750D01*
X118295025Y-98703530D01*
X118313626Y-98705362D01*
X118445610Y-98718361D01*
X118445617Y-98718361D01*
X118495960Y-98723319D01*
X118546303Y-98718361D01*
X123515689Y-98718361D01*
X123566039Y-98723320D01*
X123616389Y-98718361D01*
X123616390Y-98718361D01*
X123766974Y-98703530D01*
X123960187Y-98644919D01*
X124138254Y-98549741D01*
X124294330Y-98421652D01*
X124326435Y-98382532D01*
X124476807Y-98232160D01*
X124658795Y-98268360D01*
X125023205Y-98268360D01*
X125205192Y-98232161D01*
X125355573Y-98382542D01*
X125387670Y-98421652D01*
X125543746Y-98549741D01*
X125721813Y-98644919D01*
X125856414Y-98685750D01*
X125915025Y-98703530D01*
X125933626Y-98705362D01*
X126065610Y-98718361D01*
X126065617Y-98718361D01*
X126115960Y-98723319D01*
X126166303Y-98718361D01*
X131135689Y-98718361D01*
X131186039Y-98723320D01*
X131236389Y-98718361D01*
X131236390Y-98718361D01*
X131386974Y-98703530D01*
X131580187Y-98644919D01*
X131758254Y-98549741D01*
X131914330Y-98421652D01*
X131946435Y-98382532D01*
X132096807Y-98232160D01*
X132278795Y-98268360D01*
X132643205Y-98268360D01*
X133000613Y-98197267D01*
X133337285Y-98057813D01*
X133640281Y-97855358D01*
X133897958Y-97597681D01*
X134100413Y-97294685D01*
X134239867Y-96958013D01*
X134310960Y-96600605D01*
X134310960Y-96236195D01*
X134239867Y-95878787D01*
X134100413Y-95542115D01*
X133897958Y-95239119D01*
X133807239Y-95148400D01*
X133897958Y-95057681D01*
X134100413Y-94754685D01*
X134239867Y-94418013D01*
X134310960Y-94060605D01*
X134310960Y-93696195D01*
X134297482Y-93628439D01*
X135704518Y-93628439D01*
X135691040Y-93696195D01*
X135691040Y-94060605D01*
X135762133Y-94418013D01*
X135901587Y-94754685D01*
X136104042Y-95057681D01*
X136194761Y-95148400D01*
X136104042Y-95239119D01*
X135901587Y-95542115D01*
X135762133Y-95878787D01*
X135691040Y-96236195D01*
X135691040Y-96600605D01*
X135762133Y-96958013D01*
X135901587Y-97294685D01*
X136104042Y-97597681D01*
X136361719Y-97855358D01*
X136664715Y-98057813D01*
X137001387Y-98197267D01*
X137358795Y-98268360D01*
X137723205Y-98268360D01*
X138080613Y-98197267D01*
X138417285Y-98057813D01*
X138720281Y-97855358D01*
X138977958Y-97597681D01*
X139180413Y-97294685D01*
X139319867Y-96958013D01*
X139390960Y-96600605D01*
X139390960Y-96236195D01*
X139319867Y-95878787D01*
X139180413Y-95542115D01*
X138977958Y-95239119D01*
X138887239Y-95148400D01*
X138977958Y-95057681D01*
X139180413Y-94754685D01*
X139319867Y-94418013D01*
X139390960Y-94060605D01*
X139390960Y-93696195D01*
X139389980Y-93691266D01*
X145801000Y-93691266D01*
X145801000Y-94065534D01*
X145874016Y-94432609D01*
X146017242Y-94778387D01*
X146225174Y-95089579D01*
X146489821Y-95354226D01*
X146801013Y-95562158D01*
X147146791Y-95705384D01*
X147513866Y-95778400D01*
X147888134Y-95778400D01*
X148255209Y-95705384D01*
X148600987Y-95562158D01*
X148912179Y-95354226D01*
X149176826Y-95089579D01*
X149384758Y-94778387D01*
X149527984Y-94432609D01*
X149601000Y-94065534D01*
X149601000Y-93691266D01*
X150301000Y-93691266D01*
X150301000Y-94065534D01*
X150374016Y-94432609D01*
X150517242Y-94778387D01*
X150725174Y-95089579D01*
X150989821Y-95354226D01*
X151301013Y-95562158D01*
X151646791Y-95705384D01*
X152013866Y-95778400D01*
X152388134Y-95778400D01*
X152755209Y-95705384D01*
X153100987Y-95562158D01*
X153412179Y-95354226D01*
X153676826Y-95089579D01*
X153884758Y-94778387D01*
X154027984Y-94432609D01*
X154101000Y-94065534D01*
X154101000Y-93691266D01*
X154027984Y-93324191D01*
X153884758Y-92978413D01*
X153676826Y-92667221D01*
X153412179Y-92402574D01*
X153100987Y-92194642D01*
X152755209Y-92051416D01*
X152388134Y-91978400D01*
X152013866Y-91978400D01*
X151646791Y-92051416D01*
X151301013Y-92194642D01*
X150989821Y-92402574D01*
X150725174Y-92667221D01*
X150517242Y-92978413D01*
X150374016Y-93324191D01*
X150301000Y-93691266D01*
X149601000Y-93691266D01*
X149527984Y-93324191D01*
X149384758Y-92978413D01*
X149176826Y-92667221D01*
X148912179Y-92402574D01*
X148600987Y-92194642D01*
X148255209Y-92051416D01*
X147888134Y-91978400D01*
X147513866Y-91978400D01*
X147146791Y-92051416D01*
X146801013Y-92194642D01*
X146489821Y-92402574D01*
X146225174Y-92667221D01*
X146017242Y-92978413D01*
X145874016Y-93324191D01*
X145801000Y-93691266D01*
X139389980Y-93691266D01*
X139319867Y-93338787D01*
X139180413Y-93002115D01*
X138977958Y-92699119D01*
X138886984Y-92608145D01*
X138977678Y-92517451D01*
X139180094Y-92214514D01*
X139319521Y-91877908D01*
X139390600Y-91520570D01*
X139390600Y-91156230D01*
X139319521Y-90798892D01*
X139180094Y-90462286D01*
X138977678Y-90159349D01*
X138886984Y-90068655D01*
X138977958Y-89977681D01*
X139180413Y-89674685D01*
X139319867Y-89338013D01*
X139390960Y-88980605D01*
X139390960Y-88616195D01*
X139389980Y-88611266D01*
X145801000Y-88611266D01*
X145801000Y-88985534D01*
X145874016Y-89352609D01*
X146017242Y-89698387D01*
X146225174Y-90009579D01*
X146489821Y-90274226D01*
X146801013Y-90482158D01*
X147146791Y-90625384D01*
X147513866Y-90698400D01*
X147888134Y-90698400D01*
X148255209Y-90625384D01*
X148600987Y-90482158D01*
X148912179Y-90274226D01*
X149176826Y-90009579D01*
X149384758Y-89698387D01*
X149527984Y-89352609D01*
X149601000Y-88985534D01*
X149601000Y-88611266D01*
X150301000Y-88611266D01*
X150301000Y-88985534D01*
X150374016Y-89352609D01*
X150517242Y-89698387D01*
X150725174Y-90009579D01*
X150989821Y-90274226D01*
X151301013Y-90482158D01*
X151646791Y-90625384D01*
X152013866Y-90698400D01*
X152388134Y-90698400D01*
X152755209Y-90625384D01*
X153100987Y-90482158D01*
X153412179Y-90274226D01*
X153676826Y-90009579D01*
X153884758Y-89698387D01*
X154027984Y-89352609D01*
X154101000Y-88985534D01*
X154101000Y-88611266D01*
X154027984Y-88244191D01*
X153884758Y-87898413D01*
X153676826Y-87587221D01*
X153412179Y-87322574D01*
X153100987Y-87114642D01*
X152755209Y-86971416D01*
X152388134Y-86898400D01*
X152013866Y-86898400D01*
X151646791Y-86971416D01*
X151301013Y-87114642D01*
X150989821Y-87322574D01*
X150725174Y-87587221D01*
X150517242Y-87898413D01*
X150374016Y-88244191D01*
X150301000Y-88611266D01*
X149601000Y-88611266D01*
X149527984Y-88244191D01*
X149384758Y-87898413D01*
X149176826Y-87587221D01*
X148912179Y-87322574D01*
X148600987Y-87114642D01*
X148255209Y-86971416D01*
X147888134Y-86898400D01*
X147513866Y-86898400D01*
X147146791Y-86971416D01*
X146801013Y-87114642D01*
X146489821Y-87322574D01*
X146225174Y-87587221D01*
X146017242Y-87898413D01*
X145874016Y-88244191D01*
X145801000Y-88611266D01*
X139389980Y-88611266D01*
X139319867Y-88258787D01*
X139180413Y-87922115D01*
X138977958Y-87619119D01*
X138887239Y-87528400D01*
X138977958Y-87437681D01*
X139180413Y-87134685D01*
X139319867Y-86798013D01*
X139390960Y-86440605D01*
X139390960Y-86076195D01*
X139319867Y-85718787D01*
X139180413Y-85382115D01*
X139161226Y-85353400D01*
X150096880Y-85353400D01*
X150146000Y-85358238D01*
X150195120Y-85353400D01*
X150342034Y-85338930D01*
X150530535Y-85281749D01*
X150704258Y-85188892D01*
X150856528Y-85063928D01*
X150887849Y-85025763D01*
X151764762Y-84148850D01*
X152013866Y-84198400D01*
X152388134Y-84198400D01*
X152755209Y-84125384D01*
X153100987Y-83982158D01*
X153412179Y-83774226D01*
X153676826Y-83509579D01*
X153884758Y-83198387D01*
X154027984Y-82852609D01*
X154101000Y-82485534D01*
X154101000Y-82111266D01*
X154027984Y-81744191D01*
X153884758Y-81398413D01*
X153676826Y-81087221D01*
X153412179Y-80822574D01*
X153100987Y-80614642D01*
X152755209Y-80471416D01*
X152388134Y-80398400D01*
X152013866Y-80398400D01*
X151646791Y-80471416D01*
X151301013Y-80614642D01*
X150989821Y-80822574D01*
X150725174Y-81087221D01*
X150517242Y-81398413D01*
X150374016Y-81744191D01*
X150301000Y-82111266D01*
X150301000Y-82485534D01*
X150350550Y-82734638D01*
X149731788Y-83353400D01*
X149281182Y-83353400D01*
X149384758Y-83198387D01*
X149527984Y-82852609D01*
X149601000Y-82485534D01*
X149601000Y-82111266D01*
X149527984Y-81744191D01*
X149384758Y-81398413D01*
X149176826Y-81087221D01*
X148912179Y-80822574D01*
X148600987Y-80614642D01*
X148255209Y-80471416D01*
X147888134Y-80398400D01*
X147513866Y-80398400D01*
X147146791Y-80471416D01*
X146801013Y-80614642D01*
X146489821Y-80822574D01*
X146225174Y-81087221D01*
X146017242Y-81398413D01*
X145874016Y-81744191D01*
X145801000Y-82111266D01*
X145801000Y-82485534D01*
X145874016Y-82852609D01*
X146017242Y-83198387D01*
X146120818Y-83353400D01*
X137418682Y-83353400D01*
X137334426Y-83149987D01*
X137203101Y-82953445D01*
X137035955Y-82786299D01*
X136839413Y-82654974D01*
X136621027Y-82564516D01*
X136389190Y-82518400D01*
X136152810Y-82518400D01*
X135920973Y-82564516D01*
X135702587Y-82654974D01*
X135645078Y-82693400D01*
X131181922Y-82693400D01*
X131124413Y-82654974D01*
X130906027Y-82564516D01*
X130674190Y-82518400D01*
X130437810Y-82518400D01*
X130205973Y-82564516D01*
X129987587Y-82654974D01*
X129930078Y-82693400D01*
X126736922Y-82693400D01*
X126679413Y-82654974D01*
X126461027Y-82564516D01*
X126229190Y-82518400D01*
X125992810Y-82518400D01*
X125760973Y-82564516D01*
X125542587Y-82654974D01*
X125485078Y-82693400D01*
X119751922Y-82693400D01*
X119694413Y-82654974D01*
X119476027Y-82564516D01*
X119244190Y-82518400D01*
X119007810Y-82518400D01*
X118775973Y-82564516D01*
X118557587Y-82654974D01*
X118361045Y-82786299D01*
X118193899Y-82953445D01*
X118062574Y-83149987D01*
X117972116Y-83368373D01*
X117926000Y-83600210D01*
X117926000Y-83836590D01*
X117960183Y-84008439D01*
X116481817Y-84008439D01*
X116516000Y-83836590D01*
X116516000Y-83600210D01*
X116469884Y-83368373D01*
X116379426Y-83149987D01*
X116248101Y-82953445D01*
X116080955Y-82786299D01*
X115884413Y-82654974D01*
X115666027Y-82564516D01*
X115434190Y-82518400D01*
X115197810Y-82518400D01*
X114965973Y-82564516D01*
X114747587Y-82654974D01*
X114690078Y-82693400D01*
X110991391Y-82693400D01*
X110941040Y-82688441D01*
X110740105Y-82708231D01*
X110546891Y-82766842D01*
X110386432Y-82852609D01*
X110368825Y-82862020D01*
X110212749Y-82990109D01*
X110180652Y-83029219D01*
X108911829Y-84298044D01*
X108872709Y-84330149D01*
X108812030Y-84404086D01*
X108651040Y-84404086D01*
X108474609Y-84421463D01*
X108304959Y-84472926D01*
X108148608Y-84556497D01*
X108011565Y-84668965D01*
X107899097Y-84806008D01*
X107815526Y-84962359D01*
X107764063Y-85132009D01*
X107746686Y-85308440D01*
X107746686Y-85542805D01*
X107740512Y-85547872D01*
X107709200Y-85586026D01*
X107023632Y-86271596D01*
X106985473Y-86302912D01*
X106860509Y-86455182D01*
X106821373Y-86528400D01*
X106767651Y-86628906D01*
X106710470Y-86817406D01*
X106691162Y-87013440D01*
X97009000Y-87013440D01*
X97009000Y-86739335D01*
X97005023Y-86698954D01*
X97005065Y-86692915D01*
X97003771Y-86679714D01*
X96983371Y-86485617D01*
X96966051Y-86401246D01*
X96949923Y-86316698D01*
X96946090Y-86304000D01*
X96888378Y-86117562D01*
X96855005Y-86038172D01*
X96822757Y-85958354D01*
X96816530Y-85946642D01*
X96723705Y-85774966D01*
X96675542Y-85703560D01*
X96628407Y-85631532D01*
X96620024Y-85621253D01*
X96495620Y-85470875D01*
X96434530Y-85410211D01*
X96374282Y-85348687D01*
X96364062Y-85340232D01*
X96212820Y-85216882D01*
X96141099Y-85169231D01*
X96070057Y-85120588D01*
X96058389Y-85114278D01*
X95886067Y-85022653D01*
X95806430Y-84989829D01*
X95727321Y-84955923D01*
X95714650Y-84952000D01*
X95527814Y-84895591D01*
X95443325Y-84878862D01*
X95359130Y-84860966D01*
X95345938Y-84859579D01*
X95151705Y-84840534D01*
X95151700Y-84840534D01*
X95105665Y-84836000D01*
X92105463Y-84836000D01*
X92050175Y-84830579D01*
X92041682Y-84828014D01*
X92033849Y-84823850D01*
X92026976Y-84818245D01*
X92021326Y-84811414D01*
X92017108Y-84803613D01*
X92014484Y-84795135D01*
X92009000Y-84742961D01*
X92009000Y-72044326D01*
X92391626Y-72426952D01*
X92948496Y-72799041D01*
X93567257Y-73055340D01*
X94224129Y-73186000D01*
X94893871Y-73186000D01*
X95550743Y-73055340D01*
X96169504Y-72799041D01*
X96726374Y-72426952D01*
X97199952Y-71953374D01*
X97572041Y-71396504D01*
X97686646Y-71119823D01*
X97686646Y-71825156D01*
X97602587Y-71859974D01*
X97406045Y-71991299D01*
X97238899Y-72158445D01*
X97107574Y-72354987D01*
X97017116Y-72573373D01*
X96971000Y-72805210D01*
X96971000Y-73041590D01*
X97017116Y-73273427D01*
X97107574Y-73491813D01*
X97152066Y-73558400D01*
X97107574Y-73624987D01*
X97017116Y-73843373D01*
X96971000Y-74075210D01*
X96971000Y-74311590D01*
X97017116Y-74543427D01*
X97107574Y-74761813D01*
X97238899Y-74958355D01*
X97406045Y-75125501D01*
X97602587Y-75256826D01*
X97820973Y-75347284D01*
X98052810Y-75393400D01*
X98289190Y-75393400D01*
X98521027Y-75347284D01*
X98739413Y-75256826D01*
X98796922Y-75218400D01*
X121615650Y-75218400D01*
X121666000Y-75223359D01*
X121716350Y-75218400D01*
X121716351Y-75218400D01*
X121866935Y-75203569D01*
X122060148Y-75144958D01*
X122238215Y-75049780D01*
X122394291Y-74921691D01*
X122426397Y-74882570D01*
X124559796Y-72749171D01*
X124755032Y-72768400D01*
X124926968Y-72768400D01*
X125184060Y-72743079D01*
X125513936Y-72643012D01*
X125817952Y-72480512D01*
X126084424Y-72261824D01*
X126111000Y-72229441D01*
X126137576Y-72261824D01*
X126404048Y-72480512D01*
X126708064Y-72643012D01*
X127037940Y-72743079D01*
X127295032Y-72768400D01*
X127466968Y-72768400D01*
X127724060Y-72743079D01*
X128053936Y-72643012D01*
X128357952Y-72480512D01*
X128624424Y-72261824D01*
X128651000Y-72229441D01*
X128677576Y-72261824D01*
X128944048Y-72480512D01*
X129248064Y-72643012D01*
X129577940Y-72743079D01*
X129835032Y-72768400D01*
X130006968Y-72768400D01*
X130264060Y-72743079D01*
X130593936Y-72643012D01*
X130897952Y-72480512D01*
X131164424Y-72261824D01*
X131191000Y-72229441D01*
X131217576Y-72261824D01*
X131484048Y-72480512D01*
X131788064Y-72643012D01*
X132117940Y-72743079D01*
X132375032Y-72768400D01*
X132546968Y-72768400D01*
X132804060Y-72743079D01*
X133133936Y-72643012D01*
X133437952Y-72480512D01*
X133704424Y-72261824D01*
X133731000Y-72229441D01*
X133757576Y-72261824D01*
X134024048Y-72480512D01*
X134328064Y-72643012D01*
X134657940Y-72743079D01*
X134915032Y-72768400D01*
X135086968Y-72768400D01*
X135344060Y-72743079D01*
X135673936Y-72643012D01*
X135977952Y-72480512D01*
X136244424Y-72261824D01*
X136271000Y-72229441D01*
X136297576Y-72261824D01*
X136564048Y-72480512D01*
X136868064Y-72643012D01*
X137197940Y-72743079D01*
X137455032Y-72768400D01*
X137626968Y-72768400D01*
X137884060Y-72743079D01*
X138213936Y-72643012D01*
X138517952Y-72480512D01*
X138784424Y-72261824D01*
X138811000Y-72229441D01*
X138837576Y-72261824D01*
X139104048Y-72480512D01*
X139408064Y-72643012D01*
X139737940Y-72743079D01*
X139995032Y-72768400D01*
X140166968Y-72768400D01*
X140424060Y-72743079D01*
X140753936Y-72643012D01*
X141057952Y-72480512D01*
X141324424Y-72261824D01*
X141351000Y-72229441D01*
X141377576Y-72261824D01*
X141644048Y-72480512D01*
X141948064Y-72643012D01*
X142277940Y-72743079D01*
X142535032Y-72768400D01*
X142706968Y-72768400D01*
X142964060Y-72743079D01*
X143293936Y-72643012D01*
X143597952Y-72480512D01*
X143864424Y-72261824D01*
X143891000Y-72229441D01*
X143917576Y-72261824D01*
X144184048Y-72480512D01*
X144488064Y-72643012D01*
X144817940Y-72743079D01*
X145075032Y-72768400D01*
X145246968Y-72768400D01*
X145504060Y-72743079D01*
X145833936Y-72643012D01*
X146137952Y-72480512D01*
X146404424Y-72261824D01*
X146623112Y-71995352D01*
X146785612Y-71691336D01*
X146885679Y-71361460D01*
X146919467Y-71018400D01*
X146885679Y-70675340D01*
X146785612Y-70345464D01*
X146623112Y-70041448D01*
X146404424Y-69774976D01*
X146372041Y-69748400D01*
X146404424Y-69721824D01*
X146431000Y-69689441D01*
X146457576Y-69721824D01*
X146724048Y-69940512D01*
X147028064Y-70103012D01*
X147357940Y-70203079D01*
X147615032Y-70228400D01*
X147786968Y-70228400D01*
X148044060Y-70203079D01*
X148373936Y-70103012D01*
X148677952Y-69940512D01*
X148944424Y-69721824D01*
X149159000Y-69460362D01*
X149159000Y-70120871D01*
G36*
X110897576Y-69721824D02*
G01*
X110929959Y-69748400D01*
X110897576Y-69774976D01*
X110678888Y-70041448D01*
X110516388Y-70345464D01*
X110416321Y-70675340D01*
X110382533Y-71018400D01*
X110416321Y-71361460D01*
X110516388Y-71691336D01*
X110627066Y-71898400D01*
X108574934Y-71898400D01*
X108685612Y-71691336D01*
X108785679Y-71361460D01*
X108819467Y-71018400D01*
X108785679Y-70675340D01*
X108685612Y-70345464D01*
X108523112Y-70041448D01*
X108304424Y-69774976D01*
X108272041Y-69748400D01*
X108304424Y-69721824D01*
X108331000Y-69689441D01*
X108357576Y-69721824D01*
X108624048Y-69940512D01*
X108928064Y-70103012D01*
X109257940Y-70203079D01*
X109515032Y-70228400D01*
X109686968Y-70228400D01*
X109944060Y-70203079D01*
X110273936Y-70103012D01*
X110577952Y-69940512D01*
X110844424Y-69721824D01*
X110871000Y-69689441D01*
X110897576Y-69721824D01*
X110897576Y-69721824D01*
G37*
X110897576Y-69721824D02*
X110929959Y-69748400D01*
X110897576Y-69774976D01*
X110678888Y-70041448D01*
X110516388Y-70345464D01*
X110416321Y-70675340D01*
X110382533Y-71018400D01*
X110416321Y-71361460D01*
X110516388Y-71691336D01*
X110627066Y-71898400D01*
X108574934Y-71898400D01*
X108685612Y-71691336D01*
X108785679Y-71361460D01*
X108819467Y-71018400D01*
X108785679Y-70675340D01*
X108685612Y-70345464D01*
X108523112Y-70041448D01*
X108304424Y-69774976D01*
X108272041Y-69748400D01*
X108304424Y-69721824D01*
X108331000Y-69689441D01*
X108357576Y-69721824D01*
X108624048Y-69940512D01*
X108928064Y-70103012D01*
X109257940Y-70203079D01*
X109515032Y-70228400D01*
X109686968Y-70228400D01*
X109944060Y-70203079D01*
X110273936Y-70103012D01*
X110577952Y-69940512D01*
X110844424Y-69721824D01*
X110871000Y-69689441D01*
X110897576Y-69721824D01*
G36*
X142277940Y-66753721D02*
G01*
X141948064Y-66853788D01*
X141644048Y-67016288D01*
X141377576Y-67234976D01*
X141158888Y-67501448D01*
X140996388Y-67805464D01*
X140896321Y-68135340D01*
X140862533Y-68478400D01*
X140896321Y-68821460D01*
X140996388Y-69151336D01*
X141158888Y-69455352D01*
X141377576Y-69721824D01*
X141409959Y-69748400D01*
X141377576Y-69774976D01*
X141351000Y-69807359D01*
X141324424Y-69774976D01*
X141057952Y-69556288D01*
X140753936Y-69393788D01*
X140424060Y-69293721D01*
X140166968Y-69268400D01*
X139995032Y-69268400D01*
X139737940Y-69293721D01*
X139408064Y-69393788D01*
X139104048Y-69556288D01*
X138837576Y-69774976D01*
X138811000Y-69807359D01*
X138784424Y-69774976D01*
X138752041Y-69748400D01*
X138784424Y-69721824D01*
X139003112Y-69455352D01*
X139165612Y-69151336D01*
X139265679Y-68821460D01*
X139299467Y-68478400D01*
X139265679Y-68135340D01*
X139165612Y-67805464D01*
X139003112Y-67501448D01*
X138784424Y-67234976D01*
X138517952Y-67016288D01*
X138213936Y-66853788D01*
X137884060Y-66753721D01*
X137704133Y-66736000D01*
X142457867Y-66736000D01*
X142277940Y-66753721D01*
X142277940Y-66753721D01*
G37*
X142277940Y-66753721D02*
X141948064Y-66853788D01*
X141644048Y-67016288D01*
X141377576Y-67234976D01*
X141158888Y-67501448D01*
X140996388Y-67805464D01*
X140896321Y-68135340D01*
X140862533Y-68478400D01*
X140896321Y-68821460D01*
X140996388Y-69151336D01*
X141158888Y-69455352D01*
X141377576Y-69721824D01*
X141409959Y-69748400D01*
X141377576Y-69774976D01*
X141351000Y-69807359D01*
X141324424Y-69774976D01*
X141057952Y-69556288D01*
X140753936Y-69393788D01*
X140424060Y-69293721D01*
X140166968Y-69268400D01*
X139995032Y-69268400D01*
X139737940Y-69293721D01*
X139408064Y-69393788D01*
X139104048Y-69556288D01*
X138837576Y-69774976D01*
X138811000Y-69807359D01*
X138784424Y-69774976D01*
X138752041Y-69748400D01*
X138784424Y-69721824D01*
X139003112Y-69455352D01*
X139165612Y-69151336D01*
X139265679Y-68821460D01*
X139299467Y-68478400D01*
X139265679Y-68135340D01*
X139165612Y-67805464D01*
X139003112Y-67501448D01*
X138784424Y-67234976D01*
X138517952Y-67016288D01*
X138213936Y-66853788D01*
X137884060Y-66753721D01*
X137704133Y-66736000D01*
X142457867Y-66736000D01*
X142277940Y-66753721D01*
G36*
X137197940Y-66753721D02*
G01*
X136868064Y-66853788D01*
X136564048Y-67016288D01*
X136297576Y-67234976D01*
X136078888Y-67501448D01*
X135916388Y-67805464D01*
X135816321Y-68135340D01*
X135782533Y-68478400D01*
X135816321Y-68821460D01*
X135916388Y-69151336D01*
X136078888Y-69455352D01*
X136297576Y-69721824D01*
X136329959Y-69748400D01*
X136297576Y-69774976D01*
X136271000Y-69807359D01*
X136244424Y-69774976D01*
X135977952Y-69556288D01*
X135673936Y-69393788D01*
X135344060Y-69293721D01*
X135086968Y-69268400D01*
X134915032Y-69268400D01*
X134657940Y-69293721D01*
X134328064Y-69393788D01*
X134024048Y-69556288D01*
X133757576Y-69774976D01*
X133731000Y-69807359D01*
X133704424Y-69774976D01*
X133672041Y-69748400D01*
X133704424Y-69721824D01*
X133923112Y-69455352D01*
X134085612Y-69151336D01*
X134185679Y-68821460D01*
X134219467Y-68478400D01*
X134185679Y-68135340D01*
X134085612Y-67805464D01*
X133923112Y-67501448D01*
X133704424Y-67234976D01*
X133437952Y-67016288D01*
X133133936Y-66853788D01*
X132804060Y-66753721D01*
X132624133Y-66736000D01*
X137377867Y-66736000D01*
X137197940Y-66753721D01*
X137197940Y-66753721D01*
G37*
X137197940Y-66753721D02*
X136868064Y-66853788D01*
X136564048Y-67016288D01*
X136297576Y-67234976D01*
X136078888Y-67501448D01*
X135916388Y-67805464D01*
X135816321Y-68135340D01*
X135782533Y-68478400D01*
X135816321Y-68821460D01*
X135916388Y-69151336D01*
X136078888Y-69455352D01*
X136297576Y-69721824D01*
X136329959Y-69748400D01*
X136297576Y-69774976D01*
X136271000Y-69807359D01*
X136244424Y-69774976D01*
X135977952Y-69556288D01*
X135673936Y-69393788D01*
X135344060Y-69293721D01*
X135086968Y-69268400D01*
X134915032Y-69268400D01*
X134657940Y-69293721D01*
X134328064Y-69393788D01*
X134024048Y-69556288D01*
X133757576Y-69774976D01*
X133731000Y-69807359D01*
X133704424Y-69774976D01*
X133672041Y-69748400D01*
X133704424Y-69721824D01*
X133923112Y-69455352D01*
X134085612Y-69151336D01*
X134185679Y-68821460D01*
X134219467Y-68478400D01*
X134185679Y-68135340D01*
X134085612Y-67805464D01*
X133923112Y-67501448D01*
X133704424Y-67234976D01*
X133437952Y-67016288D01*
X133133936Y-66853788D01*
X132804060Y-66753721D01*
X132624133Y-66736000D01*
X137377867Y-66736000D01*
X137197940Y-66753721D01*
G36*
X106717940Y-66753721D02*
G01*
X106388064Y-66853788D01*
X106084048Y-67016288D01*
X105817576Y-67234976D01*
X105598888Y-67501448D01*
X105436388Y-67805464D01*
X105336321Y-68135340D01*
X105302533Y-68478400D01*
X105336321Y-68821460D01*
X105436388Y-69151336D01*
X105598888Y-69455352D01*
X105817576Y-69721824D01*
X105849959Y-69748400D01*
X105817576Y-69774976D01*
X105791000Y-69807359D01*
X105764424Y-69774976D01*
X105497952Y-69556288D01*
X105193936Y-69393788D01*
X104864060Y-69293721D01*
X104606968Y-69268400D01*
X104435032Y-69268400D01*
X104177940Y-69293721D01*
X103848064Y-69393788D01*
X103544048Y-69556288D01*
X103277576Y-69774976D01*
X103251000Y-69807359D01*
X103224424Y-69774976D01*
X103192041Y-69748400D01*
X103224424Y-69721824D01*
X103443112Y-69455352D01*
X103605612Y-69151336D01*
X103705679Y-68821460D01*
X103739467Y-68478400D01*
X103705679Y-68135340D01*
X103605612Y-67805464D01*
X103443112Y-67501448D01*
X103224424Y-67234976D01*
X102957952Y-67016288D01*
X102653936Y-66853788D01*
X102324060Y-66753721D01*
X102144133Y-66736000D01*
X106897867Y-66736000D01*
X106717940Y-66753721D01*
X106717940Y-66753721D01*
G37*
X106717940Y-66753721D02*
X106388064Y-66853788D01*
X106084048Y-67016288D01*
X105817576Y-67234976D01*
X105598888Y-67501448D01*
X105436388Y-67805464D01*
X105336321Y-68135340D01*
X105302533Y-68478400D01*
X105336321Y-68821460D01*
X105436388Y-69151336D01*
X105598888Y-69455352D01*
X105817576Y-69721824D01*
X105849959Y-69748400D01*
X105817576Y-69774976D01*
X105791000Y-69807359D01*
X105764424Y-69774976D01*
X105497952Y-69556288D01*
X105193936Y-69393788D01*
X104864060Y-69293721D01*
X104606968Y-69268400D01*
X104435032Y-69268400D01*
X104177940Y-69293721D01*
X103848064Y-69393788D01*
X103544048Y-69556288D01*
X103277576Y-69774976D01*
X103251000Y-69807359D01*
X103224424Y-69774976D01*
X103192041Y-69748400D01*
X103224424Y-69721824D01*
X103443112Y-69455352D01*
X103605612Y-69151336D01*
X103705679Y-68821460D01*
X103739467Y-68478400D01*
X103705679Y-68135340D01*
X103605612Y-67805464D01*
X103443112Y-67501448D01*
X103224424Y-67234976D01*
X102957952Y-67016288D01*
X102653936Y-66853788D01*
X102324060Y-66753721D01*
X102144133Y-66736000D01*
X106897867Y-66736000D01*
X106717940Y-66753721D01*
G36*
X116877940Y-66753721D02*
G01*
X116548064Y-66853788D01*
X116244048Y-67016288D01*
X115977576Y-67234976D01*
X115758888Y-67501448D01*
X115596388Y-67805464D01*
X115496321Y-68135340D01*
X115462533Y-68478400D01*
X115496321Y-68821460D01*
X115596388Y-69151336D01*
X115758888Y-69455352D01*
X115977576Y-69721824D01*
X116009959Y-69748400D01*
X115977576Y-69774976D01*
X115951000Y-69807359D01*
X115924424Y-69774976D01*
X115657952Y-69556288D01*
X115353936Y-69393788D01*
X115024060Y-69293721D01*
X114766968Y-69268400D01*
X114595032Y-69268400D01*
X114337940Y-69293721D01*
X114008064Y-69393788D01*
X113704048Y-69556288D01*
X113437576Y-69774976D01*
X113411000Y-69807359D01*
X113384424Y-69774976D01*
X113352041Y-69748400D01*
X113384424Y-69721824D01*
X113603112Y-69455352D01*
X113765612Y-69151336D01*
X113865679Y-68821460D01*
X113899467Y-68478400D01*
X113865679Y-68135340D01*
X113765612Y-67805464D01*
X113603112Y-67501448D01*
X113384424Y-67234976D01*
X113117952Y-67016288D01*
X112813936Y-66853788D01*
X112484060Y-66753721D01*
X112304133Y-66736000D01*
X117057867Y-66736000D01*
X116877940Y-66753721D01*
X116877940Y-66753721D01*
G37*
X116877940Y-66753721D02*
X116548064Y-66853788D01*
X116244048Y-67016288D01*
X115977576Y-67234976D01*
X115758888Y-67501448D01*
X115596388Y-67805464D01*
X115496321Y-68135340D01*
X115462533Y-68478400D01*
X115496321Y-68821460D01*
X115596388Y-69151336D01*
X115758888Y-69455352D01*
X115977576Y-69721824D01*
X116009959Y-69748400D01*
X115977576Y-69774976D01*
X115951000Y-69807359D01*
X115924424Y-69774976D01*
X115657952Y-69556288D01*
X115353936Y-69393788D01*
X115024060Y-69293721D01*
X114766968Y-69268400D01*
X114595032Y-69268400D01*
X114337940Y-69293721D01*
X114008064Y-69393788D01*
X113704048Y-69556288D01*
X113437576Y-69774976D01*
X113411000Y-69807359D01*
X113384424Y-69774976D01*
X113352041Y-69748400D01*
X113384424Y-69721824D01*
X113603112Y-69455352D01*
X113765612Y-69151336D01*
X113865679Y-68821460D01*
X113899467Y-68478400D01*
X113865679Y-68135340D01*
X113765612Y-67805464D01*
X113603112Y-67501448D01*
X113384424Y-67234976D01*
X113117952Y-67016288D01*
X112813936Y-66853788D01*
X112484060Y-66753721D01*
X112304133Y-66736000D01*
X117057867Y-66736000D01*
X116877940Y-66753721D01*
G36*
X124497940Y-66753721D02*
G01*
X124168064Y-66853788D01*
X123864048Y-67016288D01*
X123597576Y-67234976D01*
X123378888Y-67501448D01*
X123216388Y-67805464D01*
X123116321Y-68135340D01*
X123082533Y-68478400D01*
X123116321Y-68821460D01*
X123216388Y-69151336D01*
X123378888Y-69455352D01*
X123597576Y-69721824D01*
X123629959Y-69748400D01*
X123597576Y-69774976D01*
X123571000Y-69807359D01*
X123544424Y-69774976D01*
X123277952Y-69556288D01*
X122973936Y-69393788D01*
X122644060Y-69293721D01*
X122386968Y-69268400D01*
X122215032Y-69268400D01*
X121957940Y-69293721D01*
X121628064Y-69393788D01*
X121324048Y-69556288D01*
X121057576Y-69774976D01*
X121031000Y-69807359D01*
X121004424Y-69774976D01*
X120972041Y-69748400D01*
X121004424Y-69721824D01*
X121223112Y-69455352D01*
X121385612Y-69151336D01*
X121485679Y-68821460D01*
X121519467Y-68478400D01*
X121485679Y-68135340D01*
X121385612Y-67805464D01*
X121223112Y-67501448D01*
X121004424Y-67234976D01*
X120737952Y-67016288D01*
X120433936Y-66853788D01*
X120104060Y-66753721D01*
X119924133Y-66736000D01*
X124677867Y-66736000D01*
X124497940Y-66753721D01*
X124497940Y-66753721D01*
G37*
X124497940Y-66753721D02*
X124168064Y-66853788D01*
X123864048Y-67016288D01*
X123597576Y-67234976D01*
X123378888Y-67501448D01*
X123216388Y-67805464D01*
X123116321Y-68135340D01*
X123082533Y-68478400D01*
X123116321Y-68821460D01*
X123216388Y-69151336D01*
X123378888Y-69455352D01*
X123597576Y-69721824D01*
X123629959Y-69748400D01*
X123597576Y-69774976D01*
X123571000Y-69807359D01*
X123544424Y-69774976D01*
X123277952Y-69556288D01*
X122973936Y-69393788D01*
X122644060Y-69293721D01*
X122386968Y-69268400D01*
X122215032Y-69268400D01*
X121957940Y-69293721D01*
X121628064Y-69393788D01*
X121324048Y-69556288D01*
X121057576Y-69774976D01*
X121031000Y-69807359D01*
X121004424Y-69774976D01*
X120972041Y-69748400D01*
X121004424Y-69721824D01*
X121223112Y-69455352D01*
X121385612Y-69151336D01*
X121485679Y-68821460D01*
X121519467Y-68478400D01*
X121485679Y-68135340D01*
X121385612Y-67805464D01*
X121223112Y-67501448D01*
X121004424Y-67234976D01*
X120737952Y-67016288D01*
X120433936Y-66853788D01*
X120104060Y-66753721D01*
X119924133Y-66736000D01*
X124677867Y-66736000D01*
X124497940Y-66753721D01*
M02*
