G04 #@! TF.FileFunction,Legend,Top*
%FSLAX46Y46*%
G04 Gerber Fmt 4.6, Leading zero omitted, Abs format (unit mm)*
G04 Created by KiCad (PCBNEW 4.0.6-e0-6349~53~ubuntu14.04.1) date Thu May  4 17:22:46 2017*
%MOMM*%
%LPD*%
G01*
G04 APERTURE LIST*
%ADD10C,0.100000*%
%ADD11C,0.150000*%
%ADD12C,0.300000*%
%ADD13C,0.120000*%
%ADD14C,0.010000*%
G04 APERTURE END LIST*
D10*
D11*
X97097905Y-111962685D02*
X97745524Y-111962685D01*
X97821714Y-111919828D01*
X97859810Y-111876971D01*
X97897905Y-111791257D01*
X97897905Y-111619828D01*
X97859810Y-111534114D01*
X97821714Y-111491257D01*
X97745524Y-111448400D01*
X97097905Y-111448400D01*
X97897905Y-111019828D02*
X97097905Y-111019828D01*
X97897905Y-110505543D01*
X97097905Y-110505543D01*
X97897905Y-110076971D02*
X97097905Y-110076971D01*
X97097905Y-109776972D02*
X97897905Y-109476972D01*
X97097905Y-109176972D01*
X97478857Y-108876971D02*
X97478857Y-108576971D01*
X97897905Y-108448400D02*
X97897905Y-108876971D01*
X97097905Y-108876971D01*
X97097905Y-108448400D01*
X97897905Y-107548400D02*
X97516952Y-107848400D01*
X97897905Y-108062685D02*
X97097905Y-108062685D01*
X97097905Y-107719828D01*
X97136000Y-107634114D01*
X97174095Y-107591257D01*
X97250286Y-107548400D01*
X97364571Y-107548400D01*
X97440762Y-107591257D01*
X97478857Y-107634114D01*
X97516952Y-107719828D01*
X97516952Y-108062685D01*
X97859810Y-107205542D02*
X97897905Y-107076971D01*
X97897905Y-106862685D01*
X97859810Y-106776971D01*
X97821714Y-106734114D01*
X97745524Y-106691257D01*
X97669333Y-106691257D01*
X97593143Y-106734114D01*
X97555048Y-106776971D01*
X97516952Y-106862685D01*
X97478857Y-107034114D01*
X97440762Y-107119828D01*
X97402667Y-107162685D01*
X97326476Y-107205542D01*
X97250286Y-107205542D01*
X97174095Y-107162685D01*
X97136000Y-107119828D01*
X97097905Y-107034114D01*
X97097905Y-106819828D01*
X97136000Y-106691257D01*
X97897905Y-106305542D02*
X97097905Y-106305542D01*
X97897905Y-105876971D02*
X97097905Y-105876971D01*
X97097905Y-105662686D01*
X97136000Y-105534114D01*
X97212190Y-105448400D01*
X97288381Y-105405543D01*
X97440762Y-105362686D01*
X97555048Y-105362686D01*
X97707429Y-105405543D01*
X97783619Y-105448400D01*
X97859810Y-105534114D01*
X97897905Y-105662686D01*
X97897905Y-105876971D01*
X97669333Y-105019828D02*
X97669333Y-104591257D01*
X97897905Y-105105543D02*
X97097905Y-104805543D01*
X97897905Y-104505543D01*
X97897905Y-104205542D02*
X97097905Y-104205542D01*
X97097905Y-103991257D01*
X97136000Y-103862685D01*
X97212190Y-103776971D01*
X97288381Y-103734114D01*
X97440762Y-103691257D01*
X97555048Y-103691257D01*
X97707429Y-103734114D01*
X97783619Y-103776971D01*
X97859810Y-103862685D01*
X97897905Y-103991257D01*
X97897905Y-104205542D01*
D10*
X150876000Y-73558400D02*
X150876000Y-77368400D01*
X121666000Y-73558400D02*
X150876000Y-73558400D01*
X121666000Y-76733400D02*
X121666000Y-73558400D01*
X121666000Y-86258400D02*
X121666000Y-83083400D01*
X137541000Y-86258400D02*
X121666000Y-86258400D01*
X150876000Y-86258400D02*
X137541000Y-86258400D01*
X150876000Y-83718400D02*
X150876000Y-86258400D01*
X115951000Y-119278400D02*
X115951000Y-112928400D01*
X115951000Y-119278400D02*
X102616000Y-119278400D01*
X102616000Y-101498400D02*
X102616000Y-119278400D01*
X102616000Y-101498400D02*
X115951000Y-101498400D01*
X115951000Y-107213400D02*
X115951000Y-101498400D01*
X114046000Y-115468400D02*
X105791000Y-115468400D01*
X107061000Y-104038400D02*
X107061000Y-109118400D01*
X109601000Y-109118400D02*
X109601000Y-104038400D01*
X112141000Y-109118400D02*
X112141000Y-104038400D01*
X114681000Y-109118400D02*
X114681000Y-104038400D01*
X121666000Y-119278400D02*
X122301000Y-119278400D01*
X121666000Y-112928400D02*
X121666000Y-119278400D01*
X121666000Y-108483400D02*
X121666000Y-101498400D01*
X121666000Y-101498400D02*
X122301000Y-101498400D01*
X129286000Y-100228400D02*
X129286000Y-87528400D01*
X121666000Y-100228400D02*
X129286000Y-100228400D01*
X121666000Y-97053400D02*
X121666000Y-100228400D01*
X121666000Y-87528400D02*
X121666000Y-90703400D01*
X129286000Y-87528400D02*
X121666000Y-87528400D01*
X150876000Y-100228400D02*
X150876000Y-96418400D01*
X130556000Y-100228400D02*
X150876000Y-100228400D01*
X130556000Y-99593400D02*
X130556000Y-100228400D01*
X130556000Y-87528400D02*
X130556000Y-99593400D01*
X150876000Y-87528400D02*
X130556000Y-87528400D01*
X150876000Y-91338400D02*
X150876000Y-87528400D01*
X115951000Y-73558400D02*
X115951000Y-82448400D01*
X115951000Y-73558400D02*
X102616000Y-73558400D01*
X102616000Y-98958400D02*
X102616000Y-73558400D01*
X102616000Y-98958400D02*
X115951000Y-98958400D01*
X115951000Y-91338400D02*
X115951000Y-98958400D01*
X114046000Y-83718400D02*
X114681000Y-83083400D01*
X112141000Y-83718400D02*
X114046000Y-83718400D01*
X105156000Y-83718400D02*
X104521000Y-83083400D01*
X107061000Y-83718400D02*
X105156000Y-83718400D01*
X114046000Y-90068400D02*
X114681000Y-90703400D01*
X112141000Y-90068400D02*
X114046000Y-90068400D01*
X105156000Y-90068400D02*
X104521000Y-90703400D01*
X107061000Y-90068400D02*
X105156000Y-90068400D01*
X105156000Y-97688400D02*
X104521000Y-97053400D01*
X107061000Y-97688400D02*
X105156000Y-97688400D01*
X114046000Y-97688400D02*
X114681000Y-97053400D01*
X112141000Y-97688400D02*
X114046000Y-97688400D01*
X135001000Y-101498400D02*
X122301000Y-101498400D01*
X135001000Y-119278400D02*
X122301000Y-119278400D01*
X135001000Y-118008400D02*
X135001000Y-119278400D01*
X135001000Y-101498400D02*
X135001000Y-118008400D01*
X114046000Y-76098400D02*
X114681000Y-76733400D01*
X111506000Y-76098400D02*
X114046000Y-76098400D01*
X105156000Y-76098400D02*
X104521000Y-76733400D01*
X107696000Y-76098400D02*
X105156000Y-76098400D01*
D11*
X93412905Y-83524115D02*
X93031952Y-83724115D01*
X93412905Y-83866972D02*
X92612905Y-83866972D01*
X92612905Y-83638400D01*
X92651000Y-83581258D01*
X92689095Y-83552686D01*
X92765286Y-83524115D01*
X92879571Y-83524115D01*
X92955762Y-83552686D01*
X92993857Y-83581258D01*
X93031952Y-83638400D01*
X93031952Y-83866972D01*
X93412905Y-83266972D02*
X92612905Y-83266972D01*
X92612905Y-83038400D01*
X92651000Y-82981258D01*
X92689095Y-82952686D01*
X92765286Y-82924115D01*
X92879571Y-82924115D01*
X92955762Y-82952686D01*
X92993857Y-82981258D01*
X93031952Y-83038400D01*
X93031952Y-83266972D01*
X93412905Y-82666972D02*
X92879571Y-82666972D01*
X92612905Y-82666972D02*
X92651000Y-82695543D01*
X92689095Y-82666972D01*
X92651000Y-82638400D01*
X92612905Y-82666972D01*
X92689095Y-82666972D01*
X93412905Y-82381258D02*
X92612905Y-82381258D01*
X92993857Y-82381258D02*
X92993857Y-82038401D01*
X93412905Y-82038401D02*
X92612905Y-82038401D01*
X93412905Y-81495544D02*
X92993857Y-81495544D01*
X92917667Y-81524115D01*
X92879571Y-81581258D01*
X92879571Y-81695544D01*
X92917667Y-81752687D01*
X93374810Y-81495544D02*
X93412905Y-81552687D01*
X93412905Y-81695544D01*
X93374810Y-81752687D01*
X93298619Y-81781258D01*
X93222429Y-81781258D01*
X93146238Y-81752687D01*
X93108143Y-81695544D01*
X93108143Y-81552687D01*
X93070048Y-81495544D01*
X92879571Y-81295544D02*
X92879571Y-81066973D01*
X92612905Y-81209830D02*
X93298619Y-81209830D01*
X93374810Y-81181258D01*
X93412905Y-81124116D01*
X93412905Y-81066973D01*
X93374810Y-80152687D02*
X93412905Y-80209830D01*
X93412905Y-80324116D01*
X93374810Y-80381258D01*
X93336714Y-80409830D01*
X93260524Y-80438401D01*
X93031952Y-80438401D01*
X92955762Y-80409830D01*
X92917667Y-80381258D01*
X92879571Y-80324116D01*
X92879571Y-80209830D01*
X92917667Y-80152687D01*
X93412905Y-79809830D02*
X93374810Y-79866972D01*
X93336714Y-79895544D01*
X93260524Y-79924115D01*
X93031952Y-79924115D01*
X92955762Y-79895544D01*
X92917667Y-79866972D01*
X92879571Y-79809830D01*
X92879571Y-79724115D01*
X92917667Y-79666972D01*
X92955762Y-79638401D01*
X93031952Y-79609830D01*
X93260524Y-79609830D01*
X93336714Y-79638401D01*
X93374810Y-79666972D01*
X93412905Y-79724115D01*
X93412905Y-79809830D01*
X92879571Y-79352687D02*
X93412905Y-79352687D01*
X92955762Y-79352687D02*
X92917667Y-79324115D01*
X92879571Y-79266973D01*
X92879571Y-79181258D01*
X92917667Y-79124115D01*
X92993857Y-79095544D01*
X93412905Y-79095544D01*
X92879571Y-78809830D02*
X93412905Y-78809830D01*
X92955762Y-78809830D02*
X92917667Y-78781258D01*
X92879571Y-78724116D01*
X92879571Y-78638401D01*
X92917667Y-78581258D01*
X92993857Y-78552687D01*
X93412905Y-78552687D01*
X93374810Y-78038401D02*
X93412905Y-78095544D01*
X93412905Y-78209830D01*
X93374810Y-78266973D01*
X93298619Y-78295544D01*
X92993857Y-78295544D01*
X92917667Y-78266973D01*
X92879571Y-78209830D01*
X92879571Y-78095544D01*
X92917667Y-78038401D01*
X92993857Y-78009830D01*
X93070048Y-78009830D01*
X93146238Y-78295544D01*
X93374810Y-77495544D02*
X93412905Y-77552687D01*
X93412905Y-77666973D01*
X93374810Y-77724115D01*
X93336714Y-77752687D01*
X93260524Y-77781258D01*
X93031952Y-77781258D01*
X92955762Y-77752687D01*
X92917667Y-77724115D01*
X92879571Y-77666973D01*
X92879571Y-77552687D01*
X92917667Y-77495544D01*
X92879571Y-77324115D02*
X92879571Y-77095544D01*
X92612905Y-77238401D02*
X93298619Y-77238401D01*
X93374810Y-77209829D01*
X93412905Y-77152687D01*
X93412905Y-77095544D01*
X93412905Y-76809830D02*
X93374810Y-76866972D01*
X93336714Y-76895544D01*
X93260524Y-76924115D01*
X93031952Y-76924115D01*
X92955762Y-76895544D01*
X92917667Y-76866972D01*
X92879571Y-76809830D01*
X92879571Y-76724115D01*
X92917667Y-76666972D01*
X92955762Y-76638401D01*
X93031952Y-76609830D01*
X93260524Y-76609830D01*
X93336714Y-76638401D01*
X93374810Y-76666972D01*
X93412905Y-76724115D01*
X93412905Y-76809830D01*
X93412905Y-76352687D02*
X92879571Y-76352687D01*
X93031952Y-76352687D02*
X92955762Y-76324115D01*
X92917667Y-76295544D01*
X92879571Y-76238401D01*
X92879571Y-76181258D01*
X92612905Y-75609829D02*
X93412905Y-75409829D01*
X92612905Y-75209829D01*
X92689095Y-75038400D02*
X92651000Y-75009829D01*
X92612905Y-74952686D01*
X92612905Y-74809829D01*
X92651000Y-74752686D01*
X92689095Y-74724115D01*
X92765286Y-74695543D01*
X92841476Y-74695543D01*
X92955762Y-74724115D01*
X93412905Y-75066972D01*
X93412905Y-74695543D01*
X93336714Y-74438400D02*
X93374810Y-74409828D01*
X93412905Y-74438400D01*
X93374810Y-74466971D01*
X93336714Y-74438400D01*
X93412905Y-74438400D01*
X92612905Y-74038400D02*
X92612905Y-73981257D01*
X92651000Y-73924114D01*
X92689095Y-73895543D01*
X92765286Y-73866972D01*
X92917667Y-73838400D01*
X93108143Y-73838400D01*
X93260524Y-73866972D01*
X93336714Y-73895543D01*
X93374810Y-73924114D01*
X93412905Y-73981257D01*
X93412905Y-74038400D01*
X93374810Y-74095543D01*
X93336714Y-74124114D01*
X93260524Y-74152686D01*
X93108143Y-74181257D01*
X92917667Y-74181257D01*
X92765286Y-74152686D01*
X92689095Y-74124114D01*
X92651000Y-74095543D01*
X92612905Y-74038400D01*
X94381952Y-80938400D02*
X94343857Y-80966972D01*
X94305762Y-81024115D01*
X94305762Y-81081257D01*
X94343857Y-81138400D01*
X94381952Y-81166972D01*
X94458143Y-81195543D01*
X94534333Y-81195543D01*
X94610524Y-81166972D01*
X94648619Y-81138400D01*
X94686714Y-81081257D01*
X94686714Y-81024115D01*
X94648619Y-80966972D01*
X94610524Y-80938400D01*
X94305762Y-80938400D02*
X94610524Y-80938400D01*
X94648619Y-80909829D01*
X94648619Y-80881257D01*
X94610524Y-80824115D01*
X94534333Y-80795543D01*
X94343857Y-80795543D01*
X94229571Y-80852686D01*
X94153381Y-80938400D01*
X94115286Y-81052686D01*
X94153381Y-81166972D01*
X94229571Y-81252686D01*
X94343857Y-81309829D01*
X94496238Y-81338400D01*
X94648619Y-81309829D01*
X94762905Y-81252686D01*
X94839095Y-81166972D01*
X94877190Y-81052686D01*
X94839095Y-80938400D01*
X94762905Y-80852686D01*
X94229571Y-80624114D02*
X94229571Y-80395543D01*
X94762905Y-80538400D02*
X94077190Y-80538400D01*
X94001000Y-80509828D01*
X93962905Y-80452686D01*
X93962905Y-80395543D01*
X94762905Y-79938400D02*
X94343857Y-79938400D01*
X94267667Y-79966971D01*
X94229571Y-80024114D01*
X94229571Y-80138400D01*
X94267667Y-80195543D01*
X94724810Y-79938400D02*
X94762905Y-79995543D01*
X94762905Y-80138400D01*
X94724810Y-80195543D01*
X94648619Y-80224114D01*
X94572429Y-80224114D01*
X94496238Y-80195543D01*
X94458143Y-80138400D01*
X94458143Y-79995543D01*
X94420048Y-79938400D01*
X94762905Y-79652686D02*
X93962905Y-79652686D01*
X94267667Y-79652686D02*
X94229571Y-79595543D01*
X94229571Y-79481257D01*
X94267667Y-79424114D01*
X94305762Y-79395543D01*
X94381952Y-79366972D01*
X94610524Y-79366972D01*
X94686714Y-79395543D01*
X94724810Y-79424114D01*
X94762905Y-79481257D01*
X94762905Y-79595543D01*
X94724810Y-79652686D01*
X94724810Y-78881257D02*
X94762905Y-78938400D01*
X94762905Y-79052686D01*
X94724810Y-79109829D01*
X94648619Y-79138400D01*
X94343857Y-79138400D01*
X94267667Y-79109829D01*
X94229571Y-79052686D01*
X94229571Y-78938400D01*
X94267667Y-78881257D01*
X94343857Y-78852686D01*
X94420048Y-78852686D01*
X94496238Y-79138400D01*
X94762905Y-78509829D02*
X94724810Y-78566971D01*
X94648619Y-78595543D01*
X93962905Y-78595543D01*
X94229571Y-78366971D02*
X94229571Y-78138400D01*
X93962905Y-78281257D02*
X94648619Y-78281257D01*
X94724810Y-78252685D01*
X94762905Y-78195543D01*
X94762905Y-78138400D01*
X94762905Y-77938400D02*
X94229571Y-77938400D01*
X94381952Y-77938400D02*
X94305762Y-77909828D01*
X94267667Y-77881257D01*
X94229571Y-77824114D01*
X94229571Y-77766971D01*
X94762905Y-77309828D02*
X94343857Y-77309828D01*
X94267667Y-77338399D01*
X94229571Y-77395542D01*
X94229571Y-77509828D01*
X94267667Y-77566971D01*
X94724810Y-77309828D02*
X94762905Y-77366971D01*
X94762905Y-77509828D01*
X94724810Y-77566971D01*
X94648619Y-77595542D01*
X94572429Y-77595542D01*
X94496238Y-77566971D01*
X94458143Y-77509828D01*
X94458143Y-77366971D01*
X94420048Y-77309828D01*
X94229571Y-77024114D02*
X94762905Y-77024114D01*
X94305762Y-77024114D02*
X94267667Y-76995542D01*
X94229571Y-76938400D01*
X94229571Y-76852685D01*
X94267667Y-76795542D01*
X94343857Y-76766971D01*
X94762905Y-76766971D01*
X94762905Y-76481257D02*
X94229571Y-76481257D01*
X94305762Y-76481257D02*
X94267667Y-76452685D01*
X94229571Y-76395543D01*
X94229571Y-76309828D01*
X94267667Y-76252685D01*
X94343857Y-76224114D01*
X94762905Y-76224114D01*
X94343857Y-76224114D02*
X94267667Y-76195543D01*
X94229571Y-76138400D01*
X94229571Y-76052685D01*
X94267667Y-75995543D01*
X94343857Y-75966971D01*
X94762905Y-75966971D01*
D12*
X115129571Y-112781257D02*
X115129571Y-111924114D01*
X116629571Y-112352685D02*
X115129571Y-112352685D01*
X115843857Y-111424114D02*
X115843857Y-110924114D01*
X116629571Y-110709828D02*
X116629571Y-111424114D01*
X115129571Y-111424114D01*
X115129571Y-110709828D01*
X116558143Y-110138400D02*
X116629571Y-109924114D01*
X116629571Y-109566971D01*
X116558143Y-109424114D01*
X116486714Y-109352685D01*
X116343857Y-109281257D01*
X116201000Y-109281257D01*
X116058143Y-109352685D01*
X115986714Y-109424114D01*
X115915286Y-109566971D01*
X115843857Y-109852685D01*
X115772429Y-109995543D01*
X115701000Y-110066971D01*
X115558143Y-110138400D01*
X115415286Y-110138400D01*
X115272429Y-110066971D01*
X115201000Y-109995543D01*
X115129571Y-109852685D01*
X115129571Y-109495543D01*
X115201000Y-109281257D01*
X115129571Y-108852686D02*
X115129571Y-107995543D01*
X116629571Y-108424114D02*
X115129571Y-108424114D01*
X116629571Y-90357686D02*
X115129571Y-90357686D01*
X115129571Y-89786258D01*
X115201000Y-89643400D01*
X115272429Y-89571972D01*
X115415286Y-89500543D01*
X115629571Y-89500543D01*
X115772429Y-89571972D01*
X115843857Y-89643400D01*
X115915286Y-89786258D01*
X115915286Y-90357686D01*
X115129571Y-88571972D02*
X115129571Y-88286258D01*
X115201000Y-88143400D01*
X115343857Y-88000543D01*
X115629571Y-87929115D01*
X116129571Y-87929115D01*
X116415286Y-88000543D01*
X116558143Y-88143400D01*
X116629571Y-88286258D01*
X116629571Y-88571972D01*
X116558143Y-88714829D01*
X116415286Y-88857686D01*
X116129571Y-88929115D01*
X115629571Y-88929115D01*
X115343857Y-88857686D01*
X115201000Y-88714829D01*
X115129571Y-88571972D01*
X115129571Y-87429114D02*
X116629571Y-87071971D01*
X115558143Y-86786257D01*
X116629571Y-86500543D01*
X115129571Y-86143400D01*
X115843857Y-85571971D02*
X115843857Y-85071971D01*
X116629571Y-84857685D02*
X116629571Y-85571971D01*
X115129571Y-85571971D01*
X115129571Y-84857685D01*
X116629571Y-83357685D02*
X115915286Y-83857685D01*
X116629571Y-84214828D02*
X115129571Y-84214828D01*
X115129571Y-83643400D01*
X115201000Y-83500542D01*
X115272429Y-83429114D01*
X115415286Y-83357685D01*
X115629571Y-83357685D01*
X115772429Y-83429114D01*
X115843857Y-83500542D01*
X115915286Y-83643400D01*
X115915286Y-84214828D01*
X120916000Y-81408400D02*
X120844571Y-81551257D01*
X120844571Y-81765543D01*
X120916000Y-81979828D01*
X121058857Y-82122686D01*
X121201714Y-82194114D01*
X121487429Y-82265543D01*
X121701714Y-82265543D01*
X121987429Y-82194114D01*
X122130286Y-82122686D01*
X122273143Y-81979828D01*
X122344571Y-81765543D01*
X122344571Y-81622686D01*
X122273143Y-81408400D01*
X122201714Y-81336971D01*
X121701714Y-81336971D01*
X121701714Y-81622686D01*
X122344571Y-80694114D02*
X120844571Y-80694114D01*
X120844571Y-80122686D01*
X120916000Y-79979828D01*
X120987429Y-79908400D01*
X121130286Y-79836971D01*
X121344571Y-79836971D01*
X121487429Y-79908400D01*
X121558857Y-79979828D01*
X121630286Y-80122686D01*
X121630286Y-80694114D01*
X122344571Y-79194114D02*
X120844571Y-79194114D01*
X120844571Y-78194114D02*
X120844571Y-77908400D01*
X120916000Y-77765542D01*
X121058857Y-77622685D01*
X121344571Y-77551257D01*
X121844571Y-77551257D01*
X122130286Y-77622685D01*
X122273143Y-77765542D01*
X122344571Y-77908400D01*
X122344571Y-78194114D01*
X122273143Y-78336971D01*
X122130286Y-78479828D01*
X121844571Y-78551257D01*
X121344571Y-78551257D01*
X121058857Y-78479828D01*
X120916000Y-78336971D01*
X120844571Y-78194114D01*
D11*
X127247667Y-90430305D02*
X126981000Y-90049352D01*
X126790524Y-90430305D02*
X126790524Y-89630305D01*
X127095286Y-89630305D01*
X127171477Y-89668400D01*
X127209572Y-89706495D01*
X127247667Y-89782686D01*
X127247667Y-89896971D01*
X127209572Y-89973162D01*
X127171477Y-90011257D01*
X127095286Y-90049352D01*
X126790524Y-90049352D01*
X127514334Y-89630305D02*
X128047667Y-90430305D01*
X128047667Y-89630305D02*
X127514334Y-90430305D01*
X126771476Y-92170305D02*
X127228619Y-92170305D01*
X127000048Y-92970305D02*
X127000048Y-92170305D01*
X127419096Y-92170305D02*
X127952429Y-92970305D01*
X127952429Y-92170305D02*
X127419096Y-92970305D01*
X126352429Y-95205543D02*
X126961953Y-95205543D01*
X126657191Y-95510305D02*
X126657191Y-94900781D01*
X127723858Y-94710305D02*
X127342905Y-94710305D01*
X127304810Y-95091257D01*
X127342905Y-95053162D01*
X127419096Y-95015067D01*
X127609572Y-95015067D01*
X127685762Y-95053162D01*
X127723858Y-95091257D01*
X127761953Y-95167448D01*
X127761953Y-95357924D01*
X127723858Y-95434114D01*
X127685762Y-95472210D01*
X127609572Y-95510305D01*
X127419096Y-95510305D01*
X127342905Y-95472210D01*
X127304810Y-95434114D01*
X127990524Y-94710305D02*
X128257191Y-95510305D01*
X128523858Y-94710305D01*
X126771477Y-97288400D02*
X126695286Y-97250305D01*
X126581001Y-97250305D01*
X126466715Y-97288400D01*
X126390524Y-97364590D01*
X126352429Y-97440781D01*
X126314334Y-97593162D01*
X126314334Y-97707448D01*
X126352429Y-97859829D01*
X126390524Y-97936019D01*
X126466715Y-98012210D01*
X126581001Y-98050305D01*
X126657191Y-98050305D01*
X126771477Y-98012210D01*
X126809572Y-97974114D01*
X126809572Y-97707448D01*
X126657191Y-97707448D01*
X127152429Y-98050305D02*
X127152429Y-97250305D01*
X127609572Y-98050305D01*
X127609572Y-97250305D01*
X127990524Y-98050305D02*
X127990524Y-97250305D01*
X128181000Y-97250305D01*
X128295286Y-97288400D01*
X128371477Y-97364590D01*
X128409572Y-97440781D01*
X128447667Y-97593162D01*
X128447667Y-97707448D01*
X128409572Y-97859829D01*
X128371477Y-97936019D01*
X128295286Y-98012210D01*
X128181000Y-98050305D01*
X127990524Y-98050305D01*
X126631953Y-116795543D02*
X127241477Y-116795543D01*
X128041477Y-116338400D02*
X127965286Y-116300305D01*
X127851001Y-116300305D01*
X127736715Y-116338400D01*
X127660524Y-116414590D01*
X127622429Y-116490781D01*
X127584334Y-116643162D01*
X127584334Y-116757448D01*
X127622429Y-116909829D01*
X127660524Y-116986019D01*
X127736715Y-117062210D01*
X127851001Y-117100305D01*
X127927191Y-117100305D01*
X128041477Y-117062210D01*
X128079572Y-117024114D01*
X128079572Y-116757448D01*
X127927191Y-116757448D01*
X128422429Y-117100305D02*
X128422429Y-116300305D01*
X128879572Y-117100305D01*
X128879572Y-116300305D01*
X129260524Y-117100305D02*
X129260524Y-116300305D01*
X129451000Y-116300305D01*
X129565286Y-116338400D01*
X129641477Y-116414590D01*
X129679572Y-116490781D01*
X129717667Y-116643162D01*
X129717667Y-116757448D01*
X129679572Y-116909829D01*
X129641477Y-116986019D01*
X129565286Y-117062210D01*
X129451000Y-117100305D01*
X129260524Y-117100305D01*
X130060524Y-116795543D02*
X130670048Y-116795543D01*
X126631953Y-114255543D02*
X127241477Y-114255543D01*
X127622429Y-114255543D02*
X128231953Y-114255543D01*
X127927191Y-114560305D02*
X127927191Y-113950781D01*
X128993858Y-113760305D02*
X128612905Y-113760305D01*
X128574810Y-114141257D01*
X128612905Y-114103162D01*
X128689096Y-114065067D01*
X128879572Y-114065067D01*
X128955762Y-114103162D01*
X128993858Y-114141257D01*
X129031953Y-114217448D01*
X129031953Y-114407924D01*
X128993858Y-114484114D01*
X128955762Y-114522210D01*
X128879572Y-114560305D01*
X128689096Y-114560305D01*
X128612905Y-114522210D01*
X128574810Y-114484114D01*
X129260524Y-113760305D02*
X129527191Y-114560305D01*
X129793858Y-113760305D01*
X130060524Y-114255543D02*
X130670048Y-114255543D01*
X126951001Y-111908400D02*
X126917667Y-111941733D01*
X126817667Y-111975067D01*
X126751001Y-111975067D01*
X126651001Y-111941733D01*
X126584334Y-111875067D01*
X126551001Y-111808400D01*
X126517667Y-111675067D01*
X126517667Y-111575067D01*
X126551001Y-111441733D01*
X126584334Y-111375067D01*
X126651001Y-111308400D01*
X126751001Y-111275067D01*
X126817667Y-111275067D01*
X126917667Y-111308400D01*
X126951001Y-111341733D01*
X127251001Y-111608400D02*
X127484334Y-111608400D01*
X127584334Y-111975067D02*
X127251001Y-111975067D01*
X127251001Y-111275067D01*
X127584334Y-111275067D01*
X128017667Y-111275067D02*
X128084334Y-111275067D01*
X128151000Y-111308400D01*
X128184334Y-111341733D01*
X128217667Y-111408400D01*
X128251000Y-111541733D01*
X128251000Y-111708400D01*
X128217667Y-111841733D01*
X128184334Y-111908400D01*
X128151000Y-111941733D01*
X128084334Y-111975067D01*
X128017667Y-111975067D01*
X127951000Y-111941733D01*
X127917667Y-111908400D01*
X127884334Y-111841733D01*
X127851000Y-111708400D01*
X127851000Y-111541733D01*
X127884334Y-111408400D01*
X127917667Y-111341733D01*
X127951000Y-111308400D01*
X128017667Y-111275067D01*
X129484334Y-111908400D02*
X129451000Y-111941733D01*
X129351000Y-111975067D01*
X129284334Y-111975067D01*
X129184334Y-111941733D01*
X129117667Y-111875067D01*
X129084334Y-111808400D01*
X129051000Y-111675067D01*
X129051000Y-111575067D01*
X129084334Y-111441733D01*
X129117667Y-111375067D01*
X129184334Y-111308400D01*
X129284334Y-111275067D01*
X129351000Y-111275067D01*
X129451000Y-111308400D01*
X129484334Y-111341733D01*
X129784334Y-111608400D02*
X130017667Y-111608400D01*
X130117667Y-111975067D02*
X129784334Y-111975067D01*
X129784334Y-111275067D01*
X130117667Y-111275067D01*
X130784333Y-111975067D02*
X130384333Y-111975067D01*
X130584333Y-111975067D02*
X130584333Y-111275067D01*
X130517667Y-111375067D01*
X130451000Y-111441733D01*
X130384333Y-111475067D01*
X126346238Y-109175543D02*
X126955762Y-109175543D01*
X127298619Y-109442210D02*
X127412905Y-109480305D01*
X127603381Y-109480305D01*
X127679571Y-109442210D01*
X127717667Y-109404114D01*
X127755762Y-109327924D01*
X127755762Y-109251733D01*
X127717667Y-109175543D01*
X127679571Y-109137448D01*
X127603381Y-109099352D01*
X127451000Y-109061257D01*
X127374809Y-109023162D01*
X127336714Y-108985067D01*
X127298619Y-108908876D01*
X127298619Y-108832686D01*
X127336714Y-108756495D01*
X127374809Y-108718400D01*
X127451000Y-108680305D01*
X127641476Y-108680305D01*
X127755762Y-108718400D01*
X128555762Y-109404114D02*
X128517667Y-109442210D01*
X128403381Y-109480305D01*
X128327191Y-109480305D01*
X128212905Y-109442210D01*
X128136714Y-109366019D01*
X128098619Y-109289829D01*
X128060524Y-109137448D01*
X128060524Y-109023162D01*
X128098619Y-108870781D01*
X128136714Y-108794590D01*
X128212905Y-108718400D01*
X128327191Y-108680305D01*
X128403381Y-108680305D01*
X128517667Y-108718400D01*
X128555762Y-108756495D01*
X129279572Y-109480305D02*
X128898619Y-109480305D01*
X128898619Y-108680305D01*
X129546238Y-109480305D02*
X129546238Y-108680305D01*
X130003381Y-109480305D02*
X129660524Y-109023162D01*
X130003381Y-108680305D02*
X129546238Y-109137448D01*
X130346238Y-109175543D02*
X130955762Y-109175543D01*
X126403381Y-106635543D02*
X127012905Y-106635543D01*
X127393857Y-106940305D02*
X127393857Y-106140305D01*
X127660524Y-106711733D01*
X127927191Y-106140305D01*
X127927191Y-106940305D01*
X128308143Y-106940305D02*
X128308143Y-106140305D01*
X128651000Y-106902210D02*
X128765286Y-106940305D01*
X128955762Y-106940305D01*
X129031952Y-106902210D01*
X129070048Y-106864114D01*
X129108143Y-106787924D01*
X129108143Y-106711733D01*
X129070048Y-106635543D01*
X129031952Y-106597448D01*
X128955762Y-106559352D01*
X128803381Y-106521257D01*
X128727190Y-106483162D01*
X128689095Y-106445067D01*
X128651000Y-106368876D01*
X128651000Y-106292686D01*
X128689095Y-106216495D01*
X128727190Y-106178400D01*
X128803381Y-106140305D01*
X128993857Y-106140305D01*
X129108143Y-106178400D01*
X129603381Y-106140305D02*
X129755762Y-106140305D01*
X129831953Y-106178400D01*
X129908143Y-106254590D01*
X129946238Y-106406971D01*
X129946238Y-106673638D01*
X129908143Y-106826019D01*
X129831953Y-106902210D01*
X129755762Y-106940305D01*
X129603381Y-106940305D01*
X129527191Y-106902210D01*
X129451000Y-106826019D01*
X129412905Y-106673638D01*
X129412905Y-106406971D01*
X129451000Y-106254590D01*
X129527191Y-106178400D01*
X129603381Y-106140305D01*
X130289095Y-106635543D02*
X130898619Y-106635543D01*
X126403381Y-104095543D02*
X127012905Y-104095543D01*
X127393857Y-104400305D02*
X127393857Y-103600305D01*
X127660524Y-104171733D01*
X127927191Y-103600305D01*
X127927191Y-104400305D01*
X128460524Y-103600305D02*
X128612905Y-103600305D01*
X128689096Y-103638400D01*
X128765286Y-103714590D01*
X128803381Y-103866971D01*
X128803381Y-104133638D01*
X128765286Y-104286019D01*
X128689096Y-104362210D01*
X128612905Y-104400305D01*
X128460524Y-104400305D01*
X128384334Y-104362210D01*
X128308143Y-104286019D01*
X128270048Y-104133638D01*
X128270048Y-103866971D01*
X128308143Y-103714590D01*
X128384334Y-103638400D01*
X128460524Y-103600305D01*
X129108143Y-104362210D02*
X129222429Y-104400305D01*
X129412905Y-104400305D01*
X129489095Y-104362210D01*
X129527191Y-104324114D01*
X129565286Y-104247924D01*
X129565286Y-104171733D01*
X129527191Y-104095543D01*
X129489095Y-104057448D01*
X129412905Y-104019352D01*
X129260524Y-103981257D01*
X129184333Y-103943162D01*
X129146238Y-103905067D01*
X129108143Y-103828876D01*
X129108143Y-103752686D01*
X129146238Y-103676495D01*
X129184333Y-103638400D01*
X129260524Y-103600305D01*
X129451000Y-103600305D01*
X129565286Y-103638400D01*
X129908143Y-104400305D02*
X129908143Y-103600305D01*
X130289095Y-104095543D02*
X130898619Y-104095543D01*
X135026477Y-97288400D02*
X134950286Y-97250305D01*
X134836001Y-97250305D01*
X134721715Y-97288400D01*
X134645524Y-97364590D01*
X134607429Y-97440781D01*
X134569334Y-97593162D01*
X134569334Y-97707448D01*
X134607429Y-97859829D01*
X134645524Y-97936019D01*
X134721715Y-98012210D01*
X134836001Y-98050305D01*
X134912191Y-98050305D01*
X135026477Y-98012210D01*
X135064572Y-97974114D01*
X135064572Y-97707448D01*
X134912191Y-97707448D01*
X135407429Y-98050305D02*
X135407429Y-97250305D01*
X135864572Y-98050305D01*
X135864572Y-97250305D01*
X136245524Y-98050305D02*
X136245524Y-97250305D01*
X136436000Y-97250305D01*
X136550286Y-97288400D01*
X136626477Y-97364590D01*
X136664572Y-97440781D01*
X136702667Y-97593162D01*
X136702667Y-97707448D01*
X136664572Y-97859829D01*
X136626477Y-97936019D01*
X136550286Y-98012210D01*
X136436000Y-98050305D01*
X136245524Y-98050305D01*
X134607429Y-95205543D02*
X135216953Y-95205543D01*
X134912191Y-95510305D02*
X134912191Y-94900781D01*
X135978858Y-94710305D02*
X135597905Y-94710305D01*
X135559810Y-95091257D01*
X135597905Y-95053162D01*
X135674096Y-95015067D01*
X135864572Y-95015067D01*
X135940762Y-95053162D01*
X135978858Y-95091257D01*
X136016953Y-95167448D01*
X136016953Y-95357924D01*
X135978858Y-95434114D01*
X135940762Y-95472210D01*
X135864572Y-95510305D01*
X135674096Y-95510305D01*
X135597905Y-95472210D01*
X135559810Y-95434114D01*
X136245524Y-94710305D02*
X136512191Y-95510305D01*
X136778858Y-94710305D01*
X134283619Y-92932210D02*
X134397905Y-92970305D01*
X134588381Y-92970305D01*
X134664571Y-92932210D01*
X134702667Y-92894114D01*
X134740762Y-92817924D01*
X134740762Y-92741733D01*
X134702667Y-92665543D01*
X134664571Y-92627448D01*
X134588381Y-92589352D01*
X134436000Y-92551257D01*
X134359809Y-92513162D01*
X134321714Y-92475067D01*
X134283619Y-92398876D01*
X134283619Y-92322686D01*
X134321714Y-92246495D01*
X134359809Y-92208400D01*
X134436000Y-92170305D01*
X134626476Y-92170305D01*
X134740762Y-92208400D01*
X135083619Y-92970305D02*
X135083619Y-92170305D01*
X135274095Y-92170305D01*
X135388381Y-92208400D01*
X135464572Y-92284590D01*
X135502667Y-92360781D01*
X135540762Y-92513162D01*
X135540762Y-92627448D01*
X135502667Y-92779829D01*
X135464572Y-92856019D01*
X135388381Y-92932210D01*
X135274095Y-92970305D01*
X135083619Y-92970305D01*
X135845524Y-92741733D02*
X136226476Y-92741733D01*
X135769333Y-92970305D02*
X136036000Y-92170305D01*
X136302667Y-92970305D01*
X136531238Y-92246495D02*
X136569333Y-92208400D01*
X136645524Y-92170305D01*
X136836000Y-92170305D01*
X136912190Y-92208400D01*
X136950286Y-92246495D01*
X136988381Y-92322686D01*
X136988381Y-92398876D01*
X136950286Y-92513162D01*
X136493143Y-92970305D01*
X136988381Y-92970305D01*
X134302667Y-90392210D02*
X134416953Y-90430305D01*
X134607429Y-90430305D01*
X134683619Y-90392210D01*
X134721715Y-90354114D01*
X134759810Y-90277924D01*
X134759810Y-90201733D01*
X134721715Y-90125543D01*
X134683619Y-90087448D01*
X134607429Y-90049352D01*
X134455048Y-90011257D01*
X134378857Y-89973162D01*
X134340762Y-89935067D01*
X134302667Y-89858876D01*
X134302667Y-89782686D01*
X134340762Y-89706495D01*
X134378857Y-89668400D01*
X134455048Y-89630305D01*
X134645524Y-89630305D01*
X134759810Y-89668400D01*
X135559810Y-90354114D02*
X135521715Y-90392210D01*
X135407429Y-90430305D01*
X135331239Y-90430305D01*
X135216953Y-90392210D01*
X135140762Y-90316019D01*
X135102667Y-90239829D01*
X135064572Y-90087448D01*
X135064572Y-89973162D01*
X135102667Y-89820781D01*
X135140762Y-89744590D01*
X135216953Y-89668400D01*
X135331239Y-89630305D01*
X135407429Y-89630305D01*
X135521715Y-89668400D01*
X135559810Y-89706495D01*
X136283620Y-90430305D02*
X135902667Y-90430305D01*
X135902667Y-89630305D01*
X136512191Y-89706495D02*
X136550286Y-89668400D01*
X136626477Y-89630305D01*
X136816953Y-89630305D01*
X136893143Y-89668400D01*
X136931239Y-89706495D01*
X136969334Y-89782686D01*
X136969334Y-89858876D01*
X136931239Y-89973162D01*
X136474096Y-90430305D01*
X136969334Y-90430305D01*
D12*
X120844571Y-96271257D02*
X122058857Y-96271257D01*
X122201714Y-96199829D01*
X122273143Y-96128400D01*
X122344571Y-95985543D01*
X122344571Y-95699829D01*
X122273143Y-95556971D01*
X122201714Y-95485543D01*
X122058857Y-95414114D01*
X120844571Y-95414114D01*
X121916000Y-94771257D02*
X121916000Y-94056971D01*
X122344571Y-94914114D02*
X120844571Y-94414114D01*
X122344571Y-93914114D01*
X122344571Y-92556971D02*
X121630286Y-93056971D01*
X122344571Y-93414114D02*
X120844571Y-93414114D01*
X120844571Y-92842686D01*
X120916000Y-92699828D01*
X120987429Y-92628400D01*
X121130286Y-92556971D01*
X121344571Y-92556971D01*
X121487429Y-92628400D01*
X121558857Y-92699828D01*
X121630286Y-92842686D01*
X121630286Y-93414114D01*
X120844571Y-92128400D02*
X120844571Y-91271257D01*
X122344571Y-91699828D02*
X120844571Y-91699828D01*
D11*
X140138143Y-95897447D02*
X140138143Y-95287923D01*
X139681000Y-94487923D02*
X139642905Y-94564114D01*
X139642905Y-94678399D01*
X139681000Y-94792685D01*
X139757190Y-94868876D01*
X139833381Y-94906971D01*
X139985762Y-94945066D01*
X140100048Y-94945066D01*
X140252429Y-94906971D01*
X140328619Y-94868876D01*
X140404810Y-94792685D01*
X140442905Y-94678399D01*
X140442905Y-94602209D01*
X140404810Y-94487923D01*
X140366714Y-94449828D01*
X140100048Y-94449828D01*
X140100048Y-94602209D01*
X140442905Y-94106971D02*
X139642905Y-94106971D01*
X140442905Y-93649828D01*
X139642905Y-93649828D01*
X140442905Y-93268876D02*
X139642905Y-93268876D01*
X139642905Y-93078400D01*
X139681000Y-92964114D01*
X139757190Y-92887923D01*
X139833381Y-92849828D01*
X139985762Y-92811733D01*
X140100048Y-92811733D01*
X140252429Y-92849828D01*
X140328619Y-92887923D01*
X140404810Y-92964114D01*
X140442905Y-93078400D01*
X140442905Y-93268876D01*
X140138143Y-92468876D02*
X140138143Y-91859352D01*
X142678143Y-95897447D02*
X142678143Y-95287923D01*
X142678143Y-94906971D02*
X142678143Y-94297447D01*
X142982905Y-94602209D02*
X142373381Y-94602209D01*
X142182905Y-93535542D02*
X142182905Y-93916495D01*
X142563857Y-93954590D01*
X142525762Y-93916495D01*
X142487667Y-93840304D01*
X142487667Y-93649828D01*
X142525762Y-93573638D01*
X142563857Y-93535542D01*
X142640048Y-93497447D01*
X142830524Y-93497447D01*
X142906714Y-93535542D01*
X142944810Y-93573638D01*
X142982905Y-93649828D01*
X142982905Y-93840304D01*
X142944810Y-93916495D01*
X142906714Y-93954590D01*
X142182905Y-93268876D02*
X142982905Y-93002209D01*
X142182905Y-92735542D01*
X142678143Y-92468876D02*
X142678143Y-91859352D01*
X145218143Y-95802209D02*
X145218143Y-95192685D01*
X145484810Y-94849828D02*
X145522905Y-94735542D01*
X145522905Y-94545066D01*
X145484810Y-94468876D01*
X145446714Y-94430780D01*
X145370524Y-94392685D01*
X145294333Y-94392685D01*
X145218143Y-94430780D01*
X145180048Y-94468876D01*
X145141952Y-94545066D01*
X145103857Y-94697447D01*
X145065762Y-94773638D01*
X145027667Y-94811733D01*
X144951476Y-94849828D01*
X144875286Y-94849828D01*
X144799095Y-94811733D01*
X144761000Y-94773638D01*
X144722905Y-94697447D01*
X144722905Y-94506971D01*
X144761000Y-94392685D01*
X145522905Y-94049828D02*
X144722905Y-94049828D01*
X144722905Y-93859352D01*
X144761000Y-93745066D01*
X144837190Y-93668875D01*
X144913381Y-93630780D01*
X145065762Y-93592685D01*
X145180048Y-93592685D01*
X145332429Y-93630780D01*
X145408619Y-93668875D01*
X145484810Y-93745066D01*
X145522905Y-93859352D01*
X145522905Y-94049828D01*
X145294333Y-93287923D02*
X145294333Y-92906971D01*
X145522905Y-93364114D02*
X144722905Y-93097447D01*
X145522905Y-92830780D01*
X145218143Y-92564114D02*
X145218143Y-91954590D01*
X147758143Y-95783162D02*
X147758143Y-95173638D01*
X148024810Y-94830781D02*
X148062905Y-94716495D01*
X148062905Y-94526019D01*
X148024810Y-94449829D01*
X147986714Y-94411733D01*
X147910524Y-94373638D01*
X147834333Y-94373638D01*
X147758143Y-94411733D01*
X147720048Y-94449829D01*
X147681952Y-94526019D01*
X147643857Y-94678400D01*
X147605762Y-94754591D01*
X147567667Y-94792686D01*
X147491476Y-94830781D01*
X147415286Y-94830781D01*
X147339095Y-94792686D01*
X147301000Y-94754591D01*
X147262905Y-94678400D01*
X147262905Y-94487924D01*
X147301000Y-94373638D01*
X147986714Y-93573638D02*
X148024810Y-93611733D01*
X148062905Y-93726019D01*
X148062905Y-93802209D01*
X148024810Y-93916495D01*
X147948619Y-93992686D01*
X147872429Y-94030781D01*
X147720048Y-94068876D01*
X147605762Y-94068876D01*
X147453381Y-94030781D01*
X147377190Y-93992686D01*
X147301000Y-93916495D01*
X147262905Y-93802209D01*
X147262905Y-93726019D01*
X147301000Y-93611733D01*
X147339095Y-93573638D01*
X148062905Y-92849828D02*
X148062905Y-93230781D01*
X147262905Y-93230781D01*
X147758143Y-92583162D02*
X147758143Y-91973638D01*
X147339095Y-81787924D02*
X147301000Y-81749829D01*
X147262905Y-81673638D01*
X147262905Y-81483162D01*
X147301000Y-81406972D01*
X147339095Y-81368876D01*
X147415286Y-81330781D01*
X147491476Y-81330781D01*
X147605762Y-81368876D01*
X148062905Y-81826019D01*
X148062905Y-81330781D01*
X147262905Y-80645067D02*
X147262905Y-80797448D01*
X147301000Y-80873638D01*
X147339095Y-80911733D01*
X147453381Y-80987924D01*
X147605762Y-81026019D01*
X147910524Y-81026019D01*
X147986714Y-80987924D01*
X148024810Y-80949829D01*
X148062905Y-80873638D01*
X148062905Y-80721257D01*
X148024810Y-80645067D01*
X147986714Y-80606971D01*
X147910524Y-80568876D01*
X147720048Y-80568876D01*
X147643857Y-80606971D01*
X147605762Y-80645067D01*
X147567667Y-80721257D01*
X147567667Y-80873638D01*
X147605762Y-80949829D01*
X147643857Y-80987924D01*
X147720048Y-81026019D01*
X144799095Y-81787924D02*
X144761000Y-81749829D01*
X144722905Y-81673638D01*
X144722905Y-81483162D01*
X144761000Y-81406972D01*
X144799095Y-81368876D01*
X144875286Y-81330781D01*
X144951476Y-81330781D01*
X145065762Y-81368876D01*
X145522905Y-81826019D01*
X145522905Y-81330781D01*
X144722905Y-80606971D02*
X144722905Y-80987924D01*
X145103857Y-81026019D01*
X145065762Y-80987924D01*
X145027667Y-80911733D01*
X145027667Y-80721257D01*
X145065762Y-80645067D01*
X145103857Y-80606971D01*
X145180048Y-80568876D01*
X145370524Y-80568876D01*
X145446714Y-80606971D01*
X145484810Y-80645067D01*
X145522905Y-80721257D01*
X145522905Y-80911733D01*
X145484810Y-80987924D01*
X145446714Y-81026019D01*
X142259095Y-81787924D02*
X142221000Y-81749829D01*
X142182905Y-81673638D01*
X142182905Y-81483162D01*
X142221000Y-81406972D01*
X142259095Y-81368876D01*
X142335286Y-81330781D01*
X142411476Y-81330781D01*
X142525762Y-81368876D01*
X142982905Y-81826019D01*
X142982905Y-81330781D01*
X142449571Y-80645067D02*
X142982905Y-80645067D01*
X142144810Y-80835543D02*
X142716238Y-81026019D01*
X142716238Y-80530781D01*
X139719095Y-81787924D02*
X139681000Y-81749829D01*
X139642905Y-81673638D01*
X139642905Y-81483162D01*
X139681000Y-81406972D01*
X139719095Y-81368876D01*
X139795286Y-81330781D01*
X139871476Y-81330781D01*
X139985762Y-81368876D01*
X140442905Y-81826019D01*
X140442905Y-81330781D01*
X139642905Y-81064114D02*
X139642905Y-80568876D01*
X139947667Y-80835543D01*
X139947667Y-80721257D01*
X139985762Y-80645067D01*
X140023857Y-80606971D01*
X140100048Y-80568876D01*
X140290524Y-80568876D01*
X140366714Y-80606971D01*
X140404810Y-80645067D01*
X140442905Y-80721257D01*
X140442905Y-80949829D01*
X140404810Y-81026019D01*
X140366714Y-81064114D01*
X132099095Y-81787924D02*
X132061000Y-81749829D01*
X132022905Y-81673638D01*
X132022905Y-81483162D01*
X132061000Y-81406972D01*
X132099095Y-81368876D01*
X132175286Y-81330781D01*
X132251476Y-81330781D01*
X132365762Y-81368876D01*
X132822905Y-81826019D01*
X132822905Y-81330781D01*
X132099095Y-81026019D02*
X132061000Y-80987924D01*
X132022905Y-80911733D01*
X132022905Y-80721257D01*
X132061000Y-80645067D01*
X132099095Y-80606971D01*
X132175286Y-80568876D01*
X132251476Y-80568876D01*
X132365762Y-80606971D01*
X132822905Y-81064114D01*
X132822905Y-80568876D01*
X129559095Y-81787924D02*
X129521000Y-81749829D01*
X129482905Y-81673638D01*
X129482905Y-81483162D01*
X129521000Y-81406972D01*
X129559095Y-81368876D01*
X129635286Y-81330781D01*
X129711476Y-81330781D01*
X129825762Y-81368876D01*
X130282905Y-81826019D01*
X130282905Y-81330781D01*
X130282905Y-80568876D02*
X130282905Y-81026019D01*
X130282905Y-80797448D02*
X129482905Y-80797448D01*
X129597190Y-80873638D01*
X129673381Y-80949829D01*
X129711476Y-81026019D01*
X127019095Y-81787924D02*
X126981000Y-81749829D01*
X126942905Y-81673638D01*
X126942905Y-81483162D01*
X126981000Y-81406972D01*
X127019095Y-81368876D01*
X127095286Y-81330781D01*
X127171476Y-81330781D01*
X127285762Y-81368876D01*
X127742905Y-81826019D01*
X127742905Y-81330781D01*
X126942905Y-80835543D02*
X126942905Y-80759352D01*
X126981000Y-80683162D01*
X127019095Y-80645067D01*
X127095286Y-80606971D01*
X127247667Y-80568876D01*
X127438143Y-80568876D01*
X127590524Y-80606971D01*
X127666714Y-80645067D01*
X127704810Y-80683162D01*
X127742905Y-80759352D01*
X127742905Y-80835543D01*
X127704810Y-80911733D01*
X127666714Y-80949829D01*
X127590524Y-80987924D01*
X127438143Y-81026019D01*
X127247667Y-81026019D01*
X127095286Y-80987924D01*
X127019095Y-80949829D01*
X126981000Y-80911733D01*
X126942905Y-80835543D01*
X125202905Y-81330781D02*
X125202905Y-81787924D01*
X125202905Y-81559353D02*
X124402905Y-81559353D01*
X124517190Y-81635543D01*
X124593381Y-81711734D01*
X124631476Y-81787924D01*
X125202905Y-80949829D02*
X125202905Y-80797448D01*
X125164810Y-80721257D01*
X125126714Y-80683162D01*
X125012429Y-80606971D01*
X124860048Y-80568876D01*
X124555286Y-80568876D01*
X124479095Y-80606971D01*
X124441000Y-80645067D01*
X124402905Y-80721257D01*
X124402905Y-80873638D01*
X124441000Y-80949829D01*
X124479095Y-80987924D01*
X124555286Y-81026019D01*
X124745762Y-81026019D01*
X124821952Y-80987924D01*
X124860048Y-80949829D01*
X124898143Y-80873638D01*
X124898143Y-80721257D01*
X124860048Y-80645067D01*
X124821952Y-80606971D01*
X124745762Y-80568876D01*
X148062905Y-74980781D02*
X148062905Y-75437924D01*
X148062905Y-75209353D02*
X147262905Y-75209353D01*
X147377190Y-75285543D01*
X147453381Y-75361734D01*
X147491476Y-75437924D01*
X147605762Y-74523638D02*
X147567667Y-74599829D01*
X147529571Y-74637924D01*
X147453381Y-74676019D01*
X147415286Y-74676019D01*
X147339095Y-74637924D01*
X147301000Y-74599829D01*
X147262905Y-74523638D01*
X147262905Y-74371257D01*
X147301000Y-74295067D01*
X147339095Y-74256971D01*
X147415286Y-74218876D01*
X147453381Y-74218876D01*
X147529571Y-74256971D01*
X147567667Y-74295067D01*
X147605762Y-74371257D01*
X147605762Y-74523638D01*
X147643857Y-74599829D01*
X147681952Y-74637924D01*
X147758143Y-74676019D01*
X147910524Y-74676019D01*
X147986714Y-74637924D01*
X148024810Y-74599829D01*
X148062905Y-74523638D01*
X148062905Y-74371257D01*
X148024810Y-74295067D01*
X147986714Y-74256971D01*
X147910524Y-74218876D01*
X147758143Y-74218876D01*
X147681952Y-74256971D01*
X147643857Y-74295067D01*
X147605762Y-74371257D01*
X145522905Y-74980781D02*
X145522905Y-75437924D01*
X145522905Y-75209353D02*
X144722905Y-75209353D01*
X144837190Y-75285543D01*
X144913381Y-75361734D01*
X144951476Y-75437924D01*
X144722905Y-74714114D02*
X144722905Y-74180781D01*
X145522905Y-74523638D01*
X142982905Y-74980781D02*
X142982905Y-75437924D01*
X142982905Y-75209353D02*
X142182905Y-75209353D01*
X142297190Y-75285543D01*
X142373381Y-75361734D01*
X142411476Y-75437924D01*
X142182905Y-74295067D02*
X142182905Y-74447448D01*
X142221000Y-74523638D01*
X142259095Y-74561733D01*
X142373381Y-74637924D01*
X142525762Y-74676019D01*
X142830524Y-74676019D01*
X142906714Y-74637924D01*
X142944810Y-74599829D01*
X142982905Y-74523638D01*
X142982905Y-74371257D01*
X142944810Y-74295067D01*
X142906714Y-74256971D01*
X142830524Y-74218876D01*
X142640048Y-74218876D01*
X142563857Y-74256971D01*
X142525762Y-74295067D01*
X142487667Y-74371257D01*
X142487667Y-74523638D01*
X142525762Y-74599829D01*
X142563857Y-74637924D01*
X142640048Y-74676019D01*
X140442905Y-74980781D02*
X140442905Y-75437924D01*
X140442905Y-75209353D02*
X139642905Y-75209353D01*
X139757190Y-75285543D01*
X139833381Y-75361734D01*
X139871476Y-75437924D01*
X139642905Y-74714114D02*
X139642905Y-74218876D01*
X139947667Y-74485543D01*
X139947667Y-74371257D01*
X139985762Y-74295067D01*
X140023857Y-74256971D01*
X140100048Y-74218876D01*
X140290524Y-74218876D01*
X140366714Y-74256971D01*
X140404810Y-74295067D01*
X140442905Y-74371257D01*
X140442905Y-74599829D01*
X140404810Y-74676019D01*
X140366714Y-74714114D01*
X132822905Y-74980781D02*
X132822905Y-75437924D01*
X132822905Y-75209353D02*
X132022905Y-75209353D01*
X132137190Y-75285543D01*
X132213381Y-75361734D01*
X132251476Y-75437924D01*
X132099095Y-74676019D02*
X132061000Y-74637924D01*
X132022905Y-74561733D01*
X132022905Y-74371257D01*
X132061000Y-74295067D01*
X132099095Y-74256971D01*
X132175286Y-74218876D01*
X132251476Y-74218876D01*
X132365762Y-74256971D01*
X132822905Y-74714114D01*
X132822905Y-74218876D01*
X129482905Y-75247448D02*
X129482905Y-75171257D01*
X129521000Y-75095067D01*
X129559095Y-75056972D01*
X129635286Y-75018876D01*
X129787667Y-74980781D01*
X129978143Y-74980781D01*
X130130524Y-75018876D01*
X130206714Y-75056972D01*
X130244810Y-75095067D01*
X130282905Y-75171257D01*
X130282905Y-75247448D01*
X130244810Y-75323638D01*
X130206714Y-75361734D01*
X130130524Y-75399829D01*
X129978143Y-75437924D01*
X129787667Y-75437924D01*
X129635286Y-75399829D01*
X129559095Y-75361734D01*
X129521000Y-75323638D01*
X129482905Y-75247448D01*
X129482905Y-74295067D02*
X129482905Y-74447448D01*
X129521000Y-74523638D01*
X129559095Y-74561733D01*
X129673381Y-74637924D01*
X129825762Y-74676019D01*
X130130524Y-74676019D01*
X130206714Y-74637924D01*
X130244810Y-74599829D01*
X130282905Y-74523638D01*
X130282905Y-74371257D01*
X130244810Y-74295067D01*
X130206714Y-74256971D01*
X130130524Y-74218876D01*
X129940048Y-74218876D01*
X129863857Y-74256971D01*
X129825762Y-74295067D01*
X129787667Y-74371257D01*
X129787667Y-74523638D01*
X129825762Y-74599829D01*
X129863857Y-74637924D01*
X129940048Y-74676019D01*
X126942905Y-75247448D02*
X126942905Y-75171257D01*
X126981000Y-75095067D01*
X127019095Y-75056972D01*
X127095286Y-75018876D01*
X127247667Y-74980781D01*
X127438143Y-74980781D01*
X127590524Y-75018876D01*
X127666714Y-75056972D01*
X127704810Y-75095067D01*
X127742905Y-75171257D01*
X127742905Y-75247448D01*
X127704810Y-75323638D01*
X127666714Y-75361734D01*
X127590524Y-75399829D01*
X127438143Y-75437924D01*
X127247667Y-75437924D01*
X127095286Y-75399829D01*
X127019095Y-75361734D01*
X126981000Y-75323638D01*
X126942905Y-75247448D01*
X126942905Y-74256971D02*
X126942905Y-74637924D01*
X127323857Y-74676019D01*
X127285762Y-74637924D01*
X127247667Y-74561733D01*
X127247667Y-74371257D01*
X127285762Y-74295067D01*
X127323857Y-74256971D01*
X127400048Y-74218876D01*
X127590524Y-74218876D01*
X127666714Y-74256971D01*
X127704810Y-74295067D01*
X127742905Y-74371257D01*
X127742905Y-74561733D01*
X127704810Y-74637924D01*
X127666714Y-74676019D01*
X124402905Y-75247448D02*
X124402905Y-75171257D01*
X124441000Y-75095067D01*
X124479095Y-75056972D01*
X124555286Y-75018876D01*
X124707667Y-74980781D01*
X124898143Y-74980781D01*
X125050524Y-75018876D01*
X125126714Y-75056972D01*
X125164810Y-75095067D01*
X125202905Y-75171257D01*
X125202905Y-75247448D01*
X125164810Y-75323638D01*
X125126714Y-75361734D01*
X125050524Y-75399829D01*
X124898143Y-75437924D01*
X124707667Y-75437924D01*
X124555286Y-75399829D01*
X124479095Y-75361734D01*
X124441000Y-75323638D01*
X124402905Y-75247448D01*
X124669571Y-74295067D02*
X125202905Y-74295067D01*
X124364810Y-74485543D02*
X124936238Y-74676019D01*
X124936238Y-74180781D01*
D12*
X108458143Y-96938400D02*
X108315286Y-96866971D01*
X108101000Y-96866971D01*
X107886715Y-96938400D01*
X107743857Y-97081257D01*
X107672429Y-97224114D01*
X107601000Y-97509829D01*
X107601000Y-97724114D01*
X107672429Y-98009829D01*
X107743857Y-98152686D01*
X107886715Y-98295543D01*
X108101000Y-98366971D01*
X108243857Y-98366971D01*
X108458143Y-98295543D01*
X108529572Y-98224114D01*
X108529572Y-97724114D01*
X108243857Y-97724114D01*
X109172429Y-98366971D02*
X109172429Y-96866971D01*
X110029572Y-98366971D01*
X110029572Y-96866971D01*
X110743858Y-98366971D02*
X110743858Y-96866971D01*
X111101001Y-96866971D01*
X111315286Y-96938400D01*
X111458144Y-97081257D01*
X111529572Y-97224114D01*
X111601001Y-97509829D01*
X111601001Y-97724114D01*
X111529572Y-98009829D01*
X111458144Y-98152686D01*
X111315286Y-98295543D01*
X111101001Y-98366971D01*
X110743858Y-98366971D01*
X107386715Y-89246971D02*
X108315286Y-89246971D01*
X107815286Y-89818400D01*
X108029572Y-89818400D01*
X108172429Y-89889829D01*
X108243858Y-89961257D01*
X108315286Y-90104114D01*
X108315286Y-90461257D01*
X108243858Y-90604114D01*
X108172429Y-90675543D01*
X108029572Y-90746971D01*
X107601000Y-90746971D01*
X107458143Y-90675543D01*
X107386715Y-90604114D01*
X108958143Y-90604114D02*
X109029571Y-90675543D01*
X108958143Y-90746971D01*
X108886714Y-90675543D01*
X108958143Y-90604114D01*
X108958143Y-90746971D01*
X109529572Y-89246971D02*
X110458143Y-89246971D01*
X109958143Y-89818400D01*
X110172429Y-89818400D01*
X110315286Y-89889829D01*
X110386715Y-89961257D01*
X110458143Y-90104114D01*
X110458143Y-90461257D01*
X110386715Y-90604114D01*
X110315286Y-90675543D01*
X110172429Y-90746971D01*
X109743857Y-90746971D01*
X109601000Y-90675543D01*
X109529572Y-90604114D01*
X110886714Y-89246971D02*
X111386714Y-90746971D01*
X111886714Y-89246971D01*
X108458143Y-82968400D02*
X108315286Y-82896971D01*
X108101000Y-82896971D01*
X107886715Y-82968400D01*
X107743857Y-83111257D01*
X107672429Y-83254114D01*
X107601000Y-83539829D01*
X107601000Y-83754114D01*
X107672429Y-84039829D01*
X107743857Y-84182686D01*
X107886715Y-84325543D01*
X108101000Y-84396971D01*
X108243857Y-84396971D01*
X108458143Y-84325543D01*
X108529572Y-84254114D01*
X108529572Y-83754114D01*
X108243857Y-83754114D01*
X109172429Y-84396971D02*
X109172429Y-82896971D01*
X110029572Y-84396971D01*
X110029572Y-82896971D01*
X110743858Y-84396971D02*
X110743858Y-82896971D01*
X111101001Y-82896971D01*
X111315286Y-82968400D01*
X111458144Y-83111257D01*
X111529572Y-83254114D01*
X111601001Y-83539829D01*
X111601001Y-83754114D01*
X111529572Y-84039829D01*
X111458144Y-84182686D01*
X111315286Y-84325543D01*
X111101001Y-84396971D01*
X110743858Y-84396971D01*
X109315287Y-75276971D02*
X108601001Y-75276971D01*
X108529572Y-75991257D01*
X108601001Y-75919829D01*
X108743858Y-75848400D01*
X109101001Y-75848400D01*
X109243858Y-75919829D01*
X109315287Y-75991257D01*
X109386715Y-76134114D01*
X109386715Y-76491257D01*
X109315287Y-76634114D01*
X109243858Y-76705543D01*
X109101001Y-76776971D01*
X108743858Y-76776971D01*
X108601001Y-76705543D01*
X108529572Y-76634114D01*
X109815286Y-75276971D02*
X110315286Y-76776971D01*
X110815286Y-75276971D01*
X122273143Y-111924114D02*
X122344571Y-111709828D01*
X122344571Y-111352685D01*
X122273143Y-111209828D01*
X122201714Y-111138399D01*
X122058857Y-111066971D01*
X121916000Y-111066971D01*
X121773143Y-111138399D01*
X121701714Y-111209828D01*
X121630286Y-111352685D01*
X121558857Y-111638399D01*
X121487429Y-111781257D01*
X121416000Y-111852685D01*
X121273143Y-111924114D01*
X121130286Y-111924114D01*
X120987429Y-111852685D01*
X120916000Y-111781257D01*
X120844571Y-111638399D01*
X120844571Y-111281257D01*
X120916000Y-111066971D01*
X122344571Y-110424114D02*
X120844571Y-110424114D01*
X120844571Y-109852686D01*
X120916000Y-109709828D01*
X120987429Y-109638400D01*
X121130286Y-109566971D01*
X121344571Y-109566971D01*
X121487429Y-109638400D01*
X121558857Y-109709828D01*
X121630286Y-109852686D01*
X121630286Y-110424114D01*
X122344571Y-108924114D02*
X120844571Y-108924114D01*
X151554571Y-95342685D02*
X150054571Y-95342685D01*
X150197429Y-94699828D02*
X150126000Y-94628399D01*
X150054571Y-94485542D01*
X150054571Y-94128399D01*
X150126000Y-93985542D01*
X150197429Y-93914113D01*
X150340286Y-93842685D01*
X150483143Y-93842685D01*
X150697429Y-93914113D01*
X151554571Y-94771256D01*
X151554571Y-93842685D01*
X151411714Y-92342685D02*
X151483143Y-92414114D01*
X151554571Y-92628400D01*
X151554571Y-92771257D01*
X151483143Y-92985542D01*
X151340286Y-93128400D01*
X151197429Y-93199828D01*
X150911714Y-93271257D01*
X150697429Y-93271257D01*
X150411714Y-93199828D01*
X150268857Y-93128400D01*
X150126000Y-92985542D01*
X150054571Y-92771257D01*
X150054571Y-92628400D01*
X150126000Y-92414114D01*
X150197429Y-92342685D01*
X150126000Y-82043400D02*
X150054571Y-82186257D01*
X150054571Y-82400543D01*
X150126000Y-82614828D01*
X150268857Y-82757686D01*
X150411714Y-82829114D01*
X150697429Y-82900543D01*
X150911714Y-82900543D01*
X151197429Y-82829114D01*
X151340286Y-82757686D01*
X151483143Y-82614828D01*
X151554571Y-82400543D01*
X151554571Y-82257686D01*
X151483143Y-82043400D01*
X151411714Y-81971971D01*
X150911714Y-81971971D01*
X150911714Y-82257686D01*
X151554571Y-81329114D02*
X150054571Y-81329114D01*
X150054571Y-80757686D01*
X150126000Y-80614828D01*
X150197429Y-80543400D01*
X150340286Y-80471971D01*
X150554571Y-80471971D01*
X150697429Y-80543400D01*
X150768857Y-80614828D01*
X150840286Y-80757686D01*
X150840286Y-81329114D01*
X151554571Y-79829114D02*
X150054571Y-79829114D01*
X150054571Y-78829114D02*
X150054571Y-78543400D01*
X150126000Y-78400542D01*
X150268857Y-78257685D01*
X150554571Y-78186257D01*
X151054571Y-78186257D01*
X151340286Y-78257685D01*
X151483143Y-78400542D01*
X151554571Y-78543400D01*
X151554571Y-78829114D01*
X151483143Y-78971971D01*
X151340286Y-79114828D01*
X151054571Y-79186257D01*
X150554571Y-79186257D01*
X150268857Y-79114828D01*
X150126000Y-78971971D01*
X150054571Y-78829114D01*
D11*
X114681000Y-79908400D02*
X114681000Y-82448400D01*
X114681000Y-82448400D02*
X104521000Y-82448400D01*
X104521000Y-82448400D02*
X104521000Y-79908400D01*
X104521000Y-79908400D02*
X114681000Y-79908400D01*
D13*
X123451000Y-105308400D02*
X123451000Y-118128400D01*
X123451000Y-118128400D02*
X126231000Y-118128400D01*
X126231000Y-118128400D02*
X126231000Y-105308400D01*
X126231000Y-105308400D02*
X123451000Y-105308400D01*
X123451000Y-104038400D02*
X123451000Y-102648400D01*
X123451000Y-102648400D02*
X124841000Y-102648400D01*
X131071000Y-105308400D02*
X131071000Y-118128400D01*
X131071000Y-118128400D02*
X133851000Y-118128400D01*
X133851000Y-118128400D02*
X133851000Y-105308400D01*
X133851000Y-105308400D02*
X131071000Y-105308400D01*
X131071000Y-104038400D02*
X131071000Y-102648400D01*
X131071000Y-102648400D02*
X132461000Y-102648400D01*
D11*
X114681000Y-77368400D02*
X114681000Y-79908400D01*
X114681000Y-79908400D02*
X104521000Y-79908400D01*
X104521000Y-79908400D02*
X104521000Y-77368400D01*
X104521000Y-77368400D02*
X114681000Y-77368400D01*
X114681000Y-91338400D02*
X114681000Y-93878400D01*
X114681000Y-93878400D02*
X104521000Y-93878400D01*
X104521000Y-93878400D02*
X104521000Y-91338400D01*
X104521000Y-91338400D02*
X114681000Y-91338400D01*
X114681000Y-93878400D02*
X114681000Y-96418400D01*
X114681000Y-96418400D02*
X104521000Y-96418400D01*
X104521000Y-96418400D02*
X104521000Y-93878400D01*
X104521000Y-93878400D02*
X114681000Y-93878400D01*
X123571000Y-88798400D02*
X126111000Y-88798400D01*
X126111000Y-88798400D02*
X126111000Y-98958400D01*
X126111000Y-98958400D02*
X123571000Y-98958400D01*
X123571000Y-98958400D02*
X123571000Y-88798400D01*
X133731000Y-76098400D02*
X133731000Y-78638400D01*
X133731000Y-78638400D02*
X123571000Y-78638400D01*
X123571000Y-78638400D02*
X123571000Y-76098400D01*
X123571000Y-76098400D02*
X133731000Y-76098400D01*
X133731000Y-82448400D02*
X133731000Y-84988400D01*
X133731000Y-84988400D02*
X123571000Y-84988400D01*
X123571000Y-84988400D02*
X123571000Y-82448400D01*
X123571000Y-82448400D02*
X133731000Y-82448400D01*
X148971000Y-76098400D02*
X148971000Y-78638400D01*
X148971000Y-78638400D02*
X138811000Y-78638400D01*
X138811000Y-78638400D02*
X138811000Y-76098400D01*
X138811000Y-76098400D02*
X148971000Y-76098400D01*
X148971000Y-82448400D02*
X148971000Y-84988400D01*
X148971000Y-84988400D02*
X138811000Y-84988400D01*
X138811000Y-84988400D02*
X138811000Y-82448400D01*
X138811000Y-82448400D02*
X148971000Y-82448400D01*
X131191000Y-88798400D02*
X133731000Y-88798400D01*
X133731000Y-88798400D02*
X133731000Y-98958400D01*
X133731000Y-98958400D02*
X131191000Y-98958400D01*
X131191000Y-98958400D02*
X131191000Y-88798400D01*
X148971000Y-96418400D02*
X148971000Y-98958400D01*
X148971000Y-98958400D02*
X138811000Y-98958400D01*
X138811000Y-98958400D02*
X138811000Y-96418400D01*
X138811000Y-96418400D02*
X148971000Y-96418400D01*
X148971000Y-88798400D02*
X148971000Y-91338400D01*
X148971000Y-91338400D02*
X138811000Y-91338400D01*
X138811000Y-91338400D02*
X138811000Y-88798400D01*
X138811000Y-88798400D02*
X148971000Y-88798400D01*
D14*
G36*
X151231645Y-86781966D02*
X151231956Y-86706607D01*
X151232800Y-86650555D01*
X151234438Y-86610762D01*
X151237138Y-86584183D01*
X151241162Y-86567770D01*
X151246776Y-86558476D01*
X151254244Y-86553255D01*
X151260175Y-86550621D01*
X151280608Y-86544924D01*
X151322063Y-86535613D01*
X151380551Y-86523503D01*
X151452082Y-86509410D01*
X151532666Y-86494147D01*
X151573982Y-86486537D01*
X151656769Y-86471137D01*
X151731735Y-86456637D01*
X151795068Y-86443817D01*
X151842956Y-86433462D01*
X151871587Y-86426353D01*
X151877541Y-86424232D01*
X151887010Y-86410302D01*
X151903841Y-86377306D01*
X151926087Y-86329811D01*
X151951796Y-86272382D01*
X151979021Y-86209586D01*
X152005813Y-86145989D01*
X152030222Y-86086156D01*
X152050299Y-86034655D01*
X152064096Y-85996050D01*
X152069663Y-85974908D01*
X152069694Y-85974065D01*
X152062754Y-85960085D01*
X152043297Y-85928241D01*
X152013280Y-85881545D01*
X151974659Y-85823004D01*
X151929393Y-85755629D01*
X151891894Y-85700580D01*
X151842906Y-85628538D01*
X151799089Y-85563071D01*
X151762398Y-85507183D01*
X151734787Y-85463881D01*
X151718213Y-85436170D01*
X151714200Y-85427394D01*
X151722956Y-85413796D01*
X151747200Y-85385824D01*
X151783889Y-85346479D01*
X151829982Y-85298763D01*
X151882439Y-85245677D01*
X151938219Y-85190223D01*
X151994280Y-85135401D01*
X152047583Y-85084214D01*
X152095085Y-85039661D01*
X152133746Y-85004745D01*
X152160526Y-84982468D01*
X152171858Y-84975700D01*
X152187985Y-84981526D01*
X152219928Y-84999373D01*
X152268543Y-85029799D01*
X152334685Y-85073362D01*
X152419210Y-85130619D01*
X152522974Y-85202126D01*
X152573734Y-85237404D01*
X152622351Y-85270145D01*
X152664643Y-85296568D01*
X152695585Y-85313659D01*
X152709125Y-85318600D01*
X152725290Y-85313797D01*
X152760162Y-85300663D01*
X152809203Y-85281114D01*
X152867877Y-85257064D01*
X152931649Y-85230428D01*
X152995981Y-85203121D01*
X153056338Y-85177059D01*
X153108184Y-85154155D01*
X153146982Y-85136324D01*
X153168196Y-85125483D01*
X153170487Y-85123847D01*
X153174589Y-85110010D01*
X153182540Y-85074738D01*
X153193611Y-85021580D01*
X153207074Y-84954086D01*
X153222202Y-84875803D01*
X153232195Y-84822894D01*
X153248066Y-84738881D01*
X153262730Y-84662697D01*
X153275447Y-84598066D01*
X153285478Y-84548715D01*
X153292084Y-84518370D01*
X153294102Y-84510821D01*
X153300295Y-84505243D01*
X153315865Y-84500921D01*
X153343498Y-84497710D01*
X153385879Y-84495467D01*
X153445695Y-84494047D01*
X153525632Y-84493306D01*
X153624295Y-84493101D01*
X153723636Y-84493219D01*
X153800513Y-84493705D01*
X153857858Y-84494757D01*
X153898607Y-84496573D01*
X153925695Y-84499349D01*
X153942055Y-84503285D01*
X153950622Y-84508576D01*
X153954302Y-84515325D01*
X153959413Y-84537337D01*
X153967457Y-84577300D01*
X153977034Y-84628142D01*
X153981321Y-84651850D01*
X154003681Y-84775599D01*
X154022531Y-84876327D01*
X154038335Y-84956102D01*
X154051557Y-85016991D01*
X154062661Y-85061061D01*
X154072110Y-85090380D01*
X154080369Y-85107015D01*
X154084416Y-85111391D01*
X154101233Y-85120101D01*
X154136782Y-85136038D01*
X154186589Y-85157378D01*
X154246178Y-85182302D01*
X154311074Y-85208989D01*
X154376802Y-85235618D01*
X154438887Y-85260366D01*
X154492853Y-85281415D01*
X154534224Y-85296942D01*
X154558527Y-85305126D01*
X154562526Y-85305936D01*
X154575384Y-85299024D01*
X154606038Y-85279662D01*
X154651412Y-85249880D01*
X154708432Y-85211710D01*
X154774026Y-85167181D01*
X154812520Y-85140800D01*
X154882370Y-85093455D01*
X154946297Y-85051412D01*
X155001018Y-85016728D01*
X155043248Y-84991458D01*
X155069704Y-84977660D01*
X155076169Y-84975700D01*
X155091936Y-84984534D01*
X155122928Y-85009630D01*
X155166828Y-85048885D01*
X155221319Y-85100190D01*
X155284083Y-85161443D01*
X155319408Y-85196714D01*
X155387797Y-85265710D01*
X155440081Y-85319185D01*
X155478192Y-85359500D01*
X155504064Y-85389016D01*
X155519629Y-85410095D01*
X155526821Y-85425097D01*
X155527572Y-85436384D01*
X155523817Y-85446316D01*
X155523792Y-85446362D01*
X155512148Y-85465207D01*
X155488462Y-85501332D01*
X155455149Y-85551136D01*
X155414622Y-85611014D01*
X155369298Y-85677362D01*
X155357583Y-85694417D01*
X155312504Y-85760707D01*
X155272798Y-85820502D01*
X155240603Y-85870463D01*
X155218060Y-85907254D01*
X155207307Y-85927535D01*
X155206700Y-85929858D01*
X155212249Y-85947399D01*
X155227191Y-85981695D01*
X155248967Y-86027090D01*
X155265109Y-86058971D01*
X155289833Y-86109936D01*
X155306544Y-86150761D01*
X155313470Y-86176788D01*
X155312392Y-86183188D01*
X155298253Y-86190673D01*
X155263593Y-86206501D01*
X155211395Y-86229385D01*
X155144639Y-86258037D01*
X155066309Y-86291171D01*
X154979387Y-86327499D01*
X154946007Y-86341342D01*
X154847870Y-86381983D01*
X154749258Y-86422865D01*
X154654881Y-86462034D01*
X154569449Y-86497534D01*
X154497672Y-86527408D01*
X154444257Y-86549702D01*
X154440713Y-86551185D01*
X154382660Y-86574954D01*
X154332240Y-86594599D01*
X154294498Y-86608226D01*
X154274478Y-86613937D01*
X154273553Y-86614000D01*
X154258435Y-86604294D01*
X154234030Y-86578616D01*
X154205138Y-86542128D01*
X154199699Y-86534625D01*
X154108135Y-86423837D01*
X154008688Y-86337036D01*
X153900707Y-86273862D01*
X153783542Y-86233954D01*
X153656541Y-86216950D01*
X153625550Y-86216240D01*
X153498535Y-86226822D01*
X153381836Y-86259992D01*
X153273388Y-86316574D01*
X153171131Y-86397390D01*
X153170453Y-86398023D01*
X153086505Y-86492975D01*
X153023843Y-86598858D01*
X152982597Y-86712549D01*
X152962895Y-86830925D01*
X152964866Y-86950864D01*
X152988638Y-87069243D01*
X153034340Y-87182940D01*
X153102101Y-87288831D01*
X153132260Y-87324820D01*
X153227468Y-87413204D01*
X153333542Y-87478645D01*
X153450071Y-87520961D01*
X153576645Y-87539969D01*
X153617869Y-87541100D01*
X153744752Y-87532045D01*
X153858511Y-87503941D01*
X153961790Y-87455383D01*
X154057228Y-87384962D01*
X154147470Y-87291274D01*
X154190913Y-87236012D01*
X154222539Y-87195971D01*
X154250426Y-87165346D01*
X154270061Y-87148923D01*
X154274490Y-87147400D01*
X154290088Y-87152108D01*
X154326288Y-87165483D01*
X154380256Y-87186401D01*
X154449155Y-87213741D01*
X154530151Y-87246379D01*
X154620408Y-87283193D01*
X154695563Y-87314146D01*
X154795483Y-87355442D01*
X154892158Y-87395343D01*
X154981996Y-87432371D01*
X155061405Y-87465048D01*
X155126794Y-87491894D01*
X155174569Y-87511432D01*
X155194000Y-87519319D01*
X155252664Y-87543340D01*
X155290105Y-87562429D01*
X155308385Y-87581803D01*
X155309565Y-87606679D01*
X155295706Y-87642273D01*
X155268871Y-87693804D01*
X155265473Y-87700186D01*
X155240337Y-87749027D01*
X155220567Y-87790468D01*
X155208809Y-87818797D01*
X155206700Y-87827124D01*
X155213590Y-87841927D01*
X155232912Y-87874444D01*
X155262641Y-87921501D01*
X155300752Y-87979928D01*
X155345219Y-88046551D01*
X155371800Y-88085755D01*
X155418808Y-88155082D01*
X155460608Y-88217443D01*
X155495190Y-88269781D01*
X155520542Y-88309035D01*
X155534655Y-88332148D01*
X155536900Y-88336917D01*
X155528312Y-88348046D01*
X155504178Y-88374549D01*
X155466940Y-88413868D01*
X155419041Y-88463446D01*
X155362923Y-88520725D01*
X155318299Y-88565803D01*
X155256672Y-88626918D01*
X155199955Y-88681504D01*
X155150866Y-88727078D01*
X155112120Y-88761160D01*
X155086434Y-88781268D01*
X155077619Y-88785701D01*
X155061174Y-88778730D01*
X155027231Y-88759196D01*
X154979057Y-88729160D01*
X154919919Y-88690686D01*
X154853084Y-88645838D01*
X154816794Y-88620973D01*
X154747671Y-88573722D01*
X154685019Y-88531732D01*
X154632007Y-88497059D01*
X154591804Y-88471759D01*
X154567579Y-88457888D01*
X154562326Y-88455873D01*
X154544281Y-88460409D01*
X154507444Y-88473129D01*
X154456364Y-88492196D01*
X154395590Y-88515771D01*
X154329668Y-88542017D01*
X154263147Y-88569095D01*
X154200575Y-88595168D01*
X154146500Y-88618398D01*
X154105470Y-88636947D01*
X154082033Y-88648976D01*
X154078891Y-88651243D01*
X154071928Y-88667949D01*
X154061538Y-88705907D01*
X154048580Y-88761332D01*
X154033916Y-88830439D01*
X154018405Y-88909445D01*
X154010518Y-88951937D01*
X153995082Y-89034470D01*
X153980363Y-89109008D01*
X153967170Y-89171773D01*
X153956312Y-89218988D01*
X153948598Y-89246875D01*
X153946146Y-89252425D01*
X153929562Y-89257953D01*
X153892184Y-89262420D01*
X153838192Y-89265837D01*
X153771765Y-89268215D01*
X153697085Y-89269564D01*
X153618331Y-89269895D01*
X153539682Y-89269218D01*
X153465319Y-89267544D01*
X153399422Y-89264882D01*
X153346170Y-89261244D01*
X153309744Y-89256640D01*
X153294323Y-89251080D01*
X153294184Y-89250794D01*
X153290033Y-89233772D01*
X153282021Y-89195490D01*
X153270884Y-89139665D01*
X153257357Y-89070020D01*
X153242176Y-88990273D01*
X153232458Y-88938479D01*
X153216498Y-88854907D01*
X153201429Y-88779670D01*
X153188033Y-88716374D01*
X153177087Y-88668626D01*
X153169372Y-88640032D01*
X153166550Y-88633501D01*
X153149903Y-88623890D01*
X153114441Y-88606976D01*
X153064818Y-88584708D01*
X153005688Y-88559038D01*
X152941704Y-88531916D01*
X152877521Y-88505293D01*
X152817791Y-88481119D01*
X152767168Y-88461346D01*
X152730306Y-88447925D01*
X152711858Y-88442805D01*
X152711631Y-88442800D01*
X152695140Y-88449746D01*
X152661089Y-88469223D01*
X152612722Y-88499194D01*
X152553283Y-88537619D01*
X152486018Y-88582459D01*
X152446224Y-88609556D01*
X152375831Y-88657446D01*
X152311393Y-88700528D01*
X152256186Y-88736671D01*
X152213487Y-88763746D01*
X152186571Y-88779624D01*
X152179689Y-88782810D01*
X152166868Y-88780022D01*
X152144905Y-88765823D01*
X152112154Y-88738771D01*
X152066969Y-88697423D01*
X152007706Y-88640337D01*
X151935214Y-88568566D01*
X151874098Y-88506907D01*
X151819463Y-88450600D01*
X151773763Y-88402273D01*
X151739453Y-88364553D01*
X151718987Y-88340068D01*
X151714200Y-88332016D01*
X151721150Y-88317523D01*
X151740668Y-88285301D01*
X151770754Y-88238428D01*
X151809410Y-88179984D01*
X151854636Y-88113045D01*
X151887479Y-88065180D01*
X151936287Y-87994001D01*
X151980212Y-87929045D01*
X152017182Y-87873449D01*
X152045124Y-87830353D01*
X152061965Y-87802895D01*
X152065985Y-87794891D01*
X152063004Y-87777622D01*
X152051822Y-87741682D01*
X152034276Y-87691737D01*
X152012202Y-87632450D01*
X151987434Y-87568484D01*
X151961808Y-87504502D01*
X151937162Y-87445168D01*
X151915329Y-87395146D01*
X151898147Y-87359100D01*
X151887667Y-87341907D01*
X151871535Y-87335493D01*
X151833980Y-87325429D01*
X151778590Y-87312523D01*
X151708948Y-87297583D01*
X151628640Y-87281414D01*
X151564044Y-87269057D01*
X151478363Y-87252825D01*
X151400858Y-87237766D01*
X151335063Y-87224596D01*
X151284515Y-87214034D01*
X151252751Y-87206797D01*
X151243369Y-87203976D01*
X151239977Y-87189589D01*
X151237010Y-87152911D01*
X151234582Y-87097048D01*
X151232806Y-87025106D01*
X151231794Y-86940192D01*
X151231600Y-86879679D01*
X151231645Y-86781966D01*
X151231645Y-86781966D01*
G37*
X151231645Y-86781966D02*
X151231956Y-86706607D01*
X151232800Y-86650555D01*
X151234438Y-86610762D01*
X151237138Y-86584183D01*
X151241162Y-86567770D01*
X151246776Y-86558476D01*
X151254244Y-86553255D01*
X151260175Y-86550621D01*
X151280608Y-86544924D01*
X151322063Y-86535613D01*
X151380551Y-86523503D01*
X151452082Y-86509410D01*
X151532666Y-86494147D01*
X151573982Y-86486537D01*
X151656769Y-86471137D01*
X151731735Y-86456637D01*
X151795068Y-86443817D01*
X151842956Y-86433462D01*
X151871587Y-86426353D01*
X151877541Y-86424232D01*
X151887010Y-86410302D01*
X151903841Y-86377306D01*
X151926087Y-86329811D01*
X151951796Y-86272382D01*
X151979021Y-86209586D01*
X152005813Y-86145989D01*
X152030222Y-86086156D01*
X152050299Y-86034655D01*
X152064096Y-85996050D01*
X152069663Y-85974908D01*
X152069694Y-85974065D01*
X152062754Y-85960085D01*
X152043297Y-85928241D01*
X152013280Y-85881545D01*
X151974659Y-85823004D01*
X151929393Y-85755629D01*
X151891894Y-85700580D01*
X151842906Y-85628538D01*
X151799089Y-85563071D01*
X151762398Y-85507183D01*
X151734787Y-85463881D01*
X151718213Y-85436170D01*
X151714200Y-85427394D01*
X151722956Y-85413796D01*
X151747200Y-85385824D01*
X151783889Y-85346479D01*
X151829982Y-85298763D01*
X151882439Y-85245677D01*
X151938219Y-85190223D01*
X151994280Y-85135401D01*
X152047583Y-85084214D01*
X152095085Y-85039661D01*
X152133746Y-85004745D01*
X152160526Y-84982468D01*
X152171858Y-84975700D01*
X152187985Y-84981526D01*
X152219928Y-84999373D01*
X152268543Y-85029799D01*
X152334685Y-85073362D01*
X152419210Y-85130619D01*
X152522974Y-85202126D01*
X152573734Y-85237404D01*
X152622351Y-85270145D01*
X152664643Y-85296568D01*
X152695585Y-85313659D01*
X152709125Y-85318600D01*
X152725290Y-85313797D01*
X152760162Y-85300663D01*
X152809203Y-85281114D01*
X152867877Y-85257064D01*
X152931649Y-85230428D01*
X152995981Y-85203121D01*
X153056338Y-85177059D01*
X153108184Y-85154155D01*
X153146982Y-85136324D01*
X153168196Y-85125483D01*
X153170487Y-85123847D01*
X153174589Y-85110010D01*
X153182540Y-85074738D01*
X153193611Y-85021580D01*
X153207074Y-84954086D01*
X153222202Y-84875803D01*
X153232195Y-84822894D01*
X153248066Y-84738881D01*
X153262730Y-84662697D01*
X153275447Y-84598066D01*
X153285478Y-84548715D01*
X153292084Y-84518370D01*
X153294102Y-84510821D01*
X153300295Y-84505243D01*
X153315865Y-84500921D01*
X153343498Y-84497710D01*
X153385879Y-84495467D01*
X153445695Y-84494047D01*
X153525632Y-84493306D01*
X153624295Y-84493101D01*
X153723636Y-84493219D01*
X153800513Y-84493705D01*
X153857858Y-84494757D01*
X153898607Y-84496573D01*
X153925695Y-84499349D01*
X153942055Y-84503285D01*
X153950622Y-84508576D01*
X153954302Y-84515325D01*
X153959413Y-84537337D01*
X153967457Y-84577300D01*
X153977034Y-84628142D01*
X153981321Y-84651850D01*
X154003681Y-84775599D01*
X154022531Y-84876327D01*
X154038335Y-84956102D01*
X154051557Y-85016991D01*
X154062661Y-85061061D01*
X154072110Y-85090380D01*
X154080369Y-85107015D01*
X154084416Y-85111391D01*
X154101233Y-85120101D01*
X154136782Y-85136038D01*
X154186589Y-85157378D01*
X154246178Y-85182302D01*
X154311074Y-85208989D01*
X154376802Y-85235618D01*
X154438887Y-85260366D01*
X154492853Y-85281415D01*
X154534224Y-85296942D01*
X154558527Y-85305126D01*
X154562526Y-85305936D01*
X154575384Y-85299024D01*
X154606038Y-85279662D01*
X154651412Y-85249880D01*
X154708432Y-85211710D01*
X154774026Y-85167181D01*
X154812520Y-85140800D01*
X154882370Y-85093455D01*
X154946297Y-85051412D01*
X155001018Y-85016728D01*
X155043248Y-84991458D01*
X155069704Y-84977660D01*
X155076169Y-84975700D01*
X155091936Y-84984534D01*
X155122928Y-85009630D01*
X155166828Y-85048885D01*
X155221319Y-85100190D01*
X155284083Y-85161443D01*
X155319408Y-85196714D01*
X155387797Y-85265710D01*
X155440081Y-85319185D01*
X155478192Y-85359500D01*
X155504064Y-85389016D01*
X155519629Y-85410095D01*
X155526821Y-85425097D01*
X155527572Y-85436384D01*
X155523817Y-85446316D01*
X155523792Y-85446362D01*
X155512148Y-85465207D01*
X155488462Y-85501332D01*
X155455149Y-85551136D01*
X155414622Y-85611014D01*
X155369298Y-85677362D01*
X155357583Y-85694417D01*
X155312504Y-85760707D01*
X155272798Y-85820502D01*
X155240603Y-85870463D01*
X155218060Y-85907254D01*
X155207307Y-85927535D01*
X155206700Y-85929858D01*
X155212249Y-85947399D01*
X155227191Y-85981695D01*
X155248967Y-86027090D01*
X155265109Y-86058971D01*
X155289833Y-86109936D01*
X155306544Y-86150761D01*
X155313470Y-86176788D01*
X155312392Y-86183188D01*
X155298253Y-86190673D01*
X155263593Y-86206501D01*
X155211395Y-86229385D01*
X155144639Y-86258037D01*
X155066309Y-86291171D01*
X154979387Y-86327499D01*
X154946007Y-86341342D01*
X154847870Y-86381983D01*
X154749258Y-86422865D01*
X154654881Y-86462034D01*
X154569449Y-86497534D01*
X154497672Y-86527408D01*
X154444257Y-86549702D01*
X154440713Y-86551185D01*
X154382660Y-86574954D01*
X154332240Y-86594599D01*
X154294498Y-86608226D01*
X154274478Y-86613937D01*
X154273553Y-86614000D01*
X154258435Y-86604294D01*
X154234030Y-86578616D01*
X154205138Y-86542128D01*
X154199699Y-86534625D01*
X154108135Y-86423837D01*
X154008688Y-86337036D01*
X153900707Y-86273862D01*
X153783542Y-86233954D01*
X153656541Y-86216950D01*
X153625550Y-86216240D01*
X153498535Y-86226822D01*
X153381836Y-86259992D01*
X153273388Y-86316574D01*
X153171131Y-86397390D01*
X153170453Y-86398023D01*
X153086505Y-86492975D01*
X153023843Y-86598858D01*
X152982597Y-86712549D01*
X152962895Y-86830925D01*
X152964866Y-86950864D01*
X152988638Y-87069243D01*
X153034340Y-87182940D01*
X153102101Y-87288831D01*
X153132260Y-87324820D01*
X153227468Y-87413204D01*
X153333542Y-87478645D01*
X153450071Y-87520961D01*
X153576645Y-87539969D01*
X153617869Y-87541100D01*
X153744752Y-87532045D01*
X153858511Y-87503941D01*
X153961790Y-87455383D01*
X154057228Y-87384962D01*
X154147470Y-87291274D01*
X154190913Y-87236012D01*
X154222539Y-87195971D01*
X154250426Y-87165346D01*
X154270061Y-87148923D01*
X154274490Y-87147400D01*
X154290088Y-87152108D01*
X154326288Y-87165483D01*
X154380256Y-87186401D01*
X154449155Y-87213741D01*
X154530151Y-87246379D01*
X154620408Y-87283193D01*
X154695563Y-87314146D01*
X154795483Y-87355442D01*
X154892158Y-87395343D01*
X154981996Y-87432371D01*
X155061405Y-87465048D01*
X155126794Y-87491894D01*
X155174569Y-87511432D01*
X155194000Y-87519319D01*
X155252664Y-87543340D01*
X155290105Y-87562429D01*
X155308385Y-87581803D01*
X155309565Y-87606679D01*
X155295706Y-87642273D01*
X155268871Y-87693804D01*
X155265473Y-87700186D01*
X155240337Y-87749027D01*
X155220567Y-87790468D01*
X155208809Y-87818797D01*
X155206700Y-87827124D01*
X155213590Y-87841927D01*
X155232912Y-87874444D01*
X155262641Y-87921501D01*
X155300752Y-87979928D01*
X155345219Y-88046551D01*
X155371800Y-88085755D01*
X155418808Y-88155082D01*
X155460608Y-88217443D01*
X155495190Y-88269781D01*
X155520542Y-88309035D01*
X155534655Y-88332148D01*
X155536900Y-88336917D01*
X155528312Y-88348046D01*
X155504178Y-88374549D01*
X155466940Y-88413868D01*
X155419041Y-88463446D01*
X155362923Y-88520725D01*
X155318299Y-88565803D01*
X155256672Y-88626918D01*
X155199955Y-88681504D01*
X155150866Y-88727078D01*
X155112120Y-88761160D01*
X155086434Y-88781268D01*
X155077619Y-88785701D01*
X155061174Y-88778730D01*
X155027231Y-88759196D01*
X154979057Y-88729160D01*
X154919919Y-88690686D01*
X154853084Y-88645838D01*
X154816794Y-88620973D01*
X154747671Y-88573722D01*
X154685019Y-88531732D01*
X154632007Y-88497059D01*
X154591804Y-88471759D01*
X154567579Y-88457888D01*
X154562326Y-88455873D01*
X154544281Y-88460409D01*
X154507444Y-88473129D01*
X154456364Y-88492196D01*
X154395590Y-88515771D01*
X154329668Y-88542017D01*
X154263147Y-88569095D01*
X154200575Y-88595168D01*
X154146500Y-88618398D01*
X154105470Y-88636947D01*
X154082033Y-88648976D01*
X154078891Y-88651243D01*
X154071928Y-88667949D01*
X154061538Y-88705907D01*
X154048580Y-88761332D01*
X154033916Y-88830439D01*
X154018405Y-88909445D01*
X154010518Y-88951937D01*
X153995082Y-89034470D01*
X153980363Y-89109008D01*
X153967170Y-89171773D01*
X153956312Y-89218988D01*
X153948598Y-89246875D01*
X153946146Y-89252425D01*
X153929562Y-89257953D01*
X153892184Y-89262420D01*
X153838192Y-89265837D01*
X153771765Y-89268215D01*
X153697085Y-89269564D01*
X153618331Y-89269895D01*
X153539682Y-89269218D01*
X153465319Y-89267544D01*
X153399422Y-89264882D01*
X153346170Y-89261244D01*
X153309744Y-89256640D01*
X153294323Y-89251080D01*
X153294184Y-89250794D01*
X153290033Y-89233772D01*
X153282021Y-89195490D01*
X153270884Y-89139665D01*
X153257357Y-89070020D01*
X153242176Y-88990273D01*
X153232458Y-88938479D01*
X153216498Y-88854907D01*
X153201429Y-88779670D01*
X153188033Y-88716374D01*
X153177087Y-88668626D01*
X153169372Y-88640032D01*
X153166550Y-88633501D01*
X153149903Y-88623890D01*
X153114441Y-88606976D01*
X153064818Y-88584708D01*
X153005688Y-88559038D01*
X152941704Y-88531916D01*
X152877521Y-88505293D01*
X152817791Y-88481119D01*
X152767168Y-88461346D01*
X152730306Y-88447925D01*
X152711858Y-88442805D01*
X152711631Y-88442800D01*
X152695140Y-88449746D01*
X152661089Y-88469223D01*
X152612722Y-88499194D01*
X152553283Y-88537619D01*
X152486018Y-88582459D01*
X152446224Y-88609556D01*
X152375831Y-88657446D01*
X152311393Y-88700528D01*
X152256186Y-88736671D01*
X152213487Y-88763746D01*
X152186571Y-88779624D01*
X152179689Y-88782810D01*
X152166868Y-88780022D01*
X152144905Y-88765823D01*
X152112154Y-88738771D01*
X152066969Y-88697423D01*
X152007706Y-88640337D01*
X151935214Y-88568566D01*
X151874098Y-88506907D01*
X151819463Y-88450600D01*
X151773763Y-88402273D01*
X151739453Y-88364553D01*
X151718987Y-88340068D01*
X151714200Y-88332016D01*
X151721150Y-88317523D01*
X151740668Y-88285301D01*
X151770754Y-88238428D01*
X151809410Y-88179984D01*
X151854636Y-88113045D01*
X151887479Y-88065180D01*
X151936287Y-87994001D01*
X151980212Y-87929045D01*
X152017182Y-87873449D01*
X152045124Y-87830353D01*
X152061965Y-87802895D01*
X152065985Y-87794891D01*
X152063004Y-87777622D01*
X152051822Y-87741682D01*
X152034276Y-87691737D01*
X152012202Y-87632450D01*
X151987434Y-87568484D01*
X151961808Y-87504502D01*
X151937162Y-87445168D01*
X151915329Y-87395146D01*
X151898147Y-87359100D01*
X151887667Y-87341907D01*
X151871535Y-87335493D01*
X151833980Y-87325429D01*
X151778590Y-87312523D01*
X151708948Y-87297583D01*
X151628640Y-87281414D01*
X151564044Y-87269057D01*
X151478363Y-87252825D01*
X151400858Y-87237766D01*
X151335063Y-87224596D01*
X151284515Y-87214034D01*
X151252751Y-87206797D01*
X151243369Y-87203976D01*
X151239977Y-87189589D01*
X151237010Y-87152911D01*
X151234582Y-87097048D01*
X151232806Y-87025106D01*
X151231794Y-86940192D01*
X151231600Y-86879679D01*
X151231645Y-86781966D01*
G36*
X96685552Y-93454746D02*
X96699294Y-93452942D01*
X96740939Y-93440434D01*
X96821926Y-93406555D01*
X96928455Y-93357280D01*
X96992610Y-93325942D01*
X97248572Y-93198577D01*
X97284419Y-92917973D01*
X97320967Y-92700909D01*
X97370102Y-92535019D01*
X97435054Y-92412448D01*
X97519057Y-92325344D01*
X97532233Y-92315734D01*
X97607690Y-92259554D01*
X97651020Y-92210151D01*
X97671172Y-92148077D01*
X97677090Y-92053886D01*
X97677484Y-91999983D01*
X97681113Y-91871906D01*
X97689907Y-91742779D01*
X97696944Y-91678748D01*
X97713831Y-91591614D01*
X97738408Y-91550119D01*
X97775694Y-91540106D01*
X97836275Y-91519210D01*
X97901691Y-91468545D01*
X97905181Y-91464856D01*
X97989055Y-91405097D01*
X98072961Y-91393852D01*
X98214908Y-91411893D01*
X98318467Y-91449861D01*
X98374661Y-91504070D01*
X98380324Y-91520016D01*
X98425295Y-91722491D01*
X98467819Y-91929914D01*
X98505859Y-92130787D01*
X98537380Y-92313609D01*
X98560345Y-92466883D01*
X98572720Y-92579108D01*
X98574300Y-92615673D01*
X98556726Y-92775647D01*
X98514535Y-92878064D01*
X98470913Y-92960173D01*
X98457828Y-93008199D01*
X98474263Y-93016120D01*
X98519205Y-92977917D01*
X98529458Y-92966572D01*
X98586213Y-92894422D01*
X98624967Y-92821314D01*
X98646287Y-92737464D01*
X98650741Y-92633086D01*
X98638897Y-92498397D01*
X98611322Y-92323611D01*
X98577250Y-92142883D01*
X98543883Y-91973811D01*
X98513516Y-91822016D01*
X98488403Y-91698614D01*
X98470802Y-91614718D01*
X98464023Y-91584930D01*
X98456630Y-91544273D01*
X98475453Y-91551730D01*
X98498740Y-91573297D01*
X98536419Y-91631832D01*
X98570103Y-91720301D01*
X98578471Y-91752591D01*
X98624027Y-91896296D01*
X98696230Y-92060368D01*
X98782744Y-92219870D01*
X98871239Y-92349868D01*
X98877989Y-92358190D01*
X99019082Y-92486661D01*
X99184888Y-92563830D01*
X99343509Y-92585989D01*
X99425967Y-92581672D01*
X99552029Y-92569837D01*
X99706248Y-92552153D01*
X99873173Y-92530291D01*
X99919934Y-92523670D01*
X100244065Y-92486206D01*
X100523839Y-92475385D01*
X100769002Y-92492449D01*
X100989294Y-92538639D01*
X101194461Y-92615197D01*
X101370001Y-92708537D01*
X101555700Y-92845354D01*
X101741837Y-93027886D01*
X101917836Y-93243105D01*
X102073123Y-93477983D01*
X102197122Y-93719494D01*
X102204419Y-93736459D01*
X102253789Y-93855226D01*
X102277223Y-93922543D01*
X102273013Y-93941595D01*
X102239450Y-93915567D01*
X102174826Y-93847642D01*
X102155867Y-93826952D01*
X102052732Y-93721776D01*
X101950681Y-93637619D01*
X101841100Y-93571793D01*
X101715374Y-93521612D01*
X101684184Y-93513897D01*
X101684184Y-93267082D01*
X101674131Y-93225547D01*
X101631801Y-93139327D01*
X101628630Y-93133403D01*
X101568078Y-93050772D01*
X101473756Y-92971955D01*
X101337384Y-92891185D01*
X101159235Y-92806462D01*
X101048486Y-92761034D01*
X100952340Y-92732632D01*
X100848580Y-92716896D01*
X100714986Y-92709461D01*
X100657961Y-92708031D01*
X100525623Y-92707263D01*
X100411009Y-92710199D01*
X100330580Y-92716247D01*
X100306843Y-92720696D01*
X100253524Y-92744457D01*
X100256912Y-92764172D01*
X100317734Y-92780026D01*
X100436721Y-92792199D01*
X100614603Y-92800875D01*
X100628824Y-92801342D01*
X100795780Y-92808063D01*
X100918136Y-92817467D01*
X101011057Y-92832048D01*
X101089707Y-92854299D01*
X101169252Y-92886712D01*
X101181250Y-92892170D01*
X101296020Y-92957500D01*
X101418954Y-93046779D01*
X101503908Y-93122051D01*
X101600751Y-93215487D01*
X101660284Y-93263779D01*
X101684184Y-93267082D01*
X101684184Y-93513897D01*
X101564891Y-93484387D01*
X101381035Y-93457432D01*
X101155193Y-93438060D01*
X100878752Y-93423583D01*
X100860412Y-93422813D01*
X100572947Y-93407793D01*
X100336442Y-93387366D01*
X100142169Y-93359126D01*
X99981400Y-93320671D01*
X99845405Y-93269597D01*
X99725457Y-93203499D01*
X99612825Y-93119972D01*
X99545240Y-93060595D01*
X99474198Y-93001812D01*
X99420615Y-92969818D01*
X99399173Y-92969610D01*
X99408979Y-93005990D01*
X99458173Y-93064761D01*
X99535674Y-93136311D01*
X99630397Y-93211025D01*
X99731260Y-93279292D01*
X99802859Y-93319764D01*
X100003060Y-93396163D01*
X100254662Y-93448213D01*
X100558972Y-93476129D01*
X100776073Y-93481417D01*
X101091484Y-93489803D01*
X101355993Y-93514100D01*
X101576738Y-93555970D01*
X101760858Y-93617073D01*
X101915490Y-93699070D01*
X102007860Y-93767965D01*
X102074844Y-93832400D01*
X102147504Y-93913938D01*
X102213866Y-93997525D01*
X102261958Y-94068107D01*
X102279824Y-94109903D01*
X102255911Y-94109512D01*
X102194266Y-94086570D01*
X102135382Y-94059249D01*
X101961901Y-93997196D01*
X101745390Y-93957387D01*
X101498320Y-93939898D01*
X101233162Y-93944804D01*
X100962387Y-93972182D01*
X100698465Y-94022108D01*
X100592545Y-94049852D01*
X100327512Y-94141792D01*
X100091390Y-94255580D01*
X99889587Y-94386664D01*
X99727511Y-94530492D01*
X99610569Y-94682510D01*
X99544170Y-94838167D01*
X99530647Y-94943844D01*
X99530647Y-95041654D01*
X99433530Y-94959764D01*
X99346181Y-94894701D01*
X99251679Y-94845426D01*
X99135519Y-94806662D01*
X98983198Y-94773133D01*
X98864045Y-94752631D01*
X98773921Y-94736828D01*
X98773921Y-94166603D01*
X98996160Y-94136549D01*
X99234172Y-94048944D01*
X99487882Y-93903790D01*
X99568000Y-93848337D01*
X99644252Y-93790007D01*
X99695775Y-93743858D01*
X99709941Y-93723979D01*
X99682324Y-93714280D01*
X99608482Y-93707305D01*
X99501933Y-93704081D01*
X99448471Y-93704112D01*
X99303407Y-93702115D01*
X99199198Y-93690968D01*
X99117262Y-93667792D01*
X99067471Y-93645081D01*
X98951918Y-93556551D01*
X98868515Y-93434898D01*
X98826866Y-93297799D01*
X98827514Y-93203293D01*
X98834001Y-93127615D01*
X98821043Y-93099852D01*
X98806794Y-93101027D01*
X98774098Y-93140251D01*
X98760089Y-93218315D01*
X98764559Y-93317359D01*
X98787300Y-93419523D01*
X98811173Y-93477956D01*
X98891878Y-93599216D01*
X98997290Y-93685282D01*
X99137817Y-93741931D01*
X99323867Y-93774940D01*
X99351353Y-93777741D01*
X99545588Y-93796224D01*
X99396177Y-93888222D01*
X99169542Y-94007358D01*
X98957852Y-94074727D01*
X98768647Y-94093535D01*
X98621324Y-94080974D01*
X98494046Y-94039861D01*
X98476473Y-94028884D01*
X98476473Y-93183636D01*
X98532047Y-93160083D01*
X98589953Y-93104830D01*
X98628697Y-93040989D01*
X98634177Y-93014074D01*
X98627862Y-92985634D01*
X98601067Y-92997061D01*
X98565015Y-93029015D01*
X98499648Y-93075298D01*
X98442160Y-93093989D01*
X98407709Y-93084686D01*
X98399861Y-93046097D01*
X98408087Y-92989400D01*
X98414046Y-92911591D01*
X98393590Y-92886327D01*
X98347626Y-92914541D01*
X98341330Y-92920671D01*
X98309655Y-92988199D01*
X98321281Y-93065729D01*
X98366835Y-93135021D01*
X98436944Y-93177841D01*
X98476473Y-93183636D01*
X98476473Y-94028884D01*
X98369962Y-93962346D01*
X98238235Y-93846428D01*
X98155801Y-93775583D01*
X98107334Y-93750695D01*
X98095582Y-93766754D01*
X98123292Y-93818755D01*
X98193214Y-93901690D01*
X98202564Y-93911420D01*
X98377050Y-94054042D01*
X98567526Y-94139102D01*
X98773921Y-94166603D01*
X98773921Y-94736828D01*
X98677860Y-94719982D01*
X98538143Y-94688068D01*
X98431798Y-94652736D01*
X98345728Y-94609830D01*
X98284896Y-94568919D01*
X98219010Y-94531028D01*
X98176749Y-94524869D01*
X98168802Y-94546686D01*
X98205857Y-94592724D01*
X98209058Y-94595572D01*
X98334169Y-94677486D01*
X98507384Y-94744017D01*
X98733263Y-94796787D01*
X98813471Y-94810413D01*
X98959876Y-94837485D01*
X99098593Y-94870084D01*
X99209805Y-94903230D01*
X99255329Y-94921427D01*
X99337811Y-94975145D01*
X99420261Y-95050925D01*
X99488079Y-95132592D01*
X99526666Y-95203974D01*
X99530647Y-95226422D01*
X99504355Y-95242879D01*
X99431762Y-95240384D01*
X99322296Y-95221579D01*
X99185385Y-95189107D01*
X99030455Y-95145610D01*
X98866933Y-95093729D01*
X98704247Y-95036108D01*
X98551823Y-94975387D01*
X98422129Y-94915742D01*
X98193745Y-94787954D01*
X97979409Y-94643452D01*
X97788528Y-94490161D01*
X97630510Y-94336006D01*
X97514764Y-94188911D01*
X97474104Y-94117214D01*
X97445904Y-94047832D01*
X97449284Y-93999381D01*
X97486785Y-93940556D01*
X97488659Y-93938042D01*
X97547653Y-93878817D01*
X97637712Y-93809453D01*
X97716351Y-93758877D01*
X97817330Y-93692440D01*
X97902498Y-93623001D01*
X97963097Y-93559612D01*
X97990369Y-93511323D01*
X97978432Y-93487995D01*
X97939381Y-93501037D01*
X97881829Y-93546832D01*
X97863482Y-93565420D01*
X97782008Y-93636539D01*
X97682445Y-93703144D01*
X97657673Y-93716613D01*
X97557761Y-93782292D01*
X97463636Y-93866823D01*
X97444668Y-93888300D01*
X97355027Y-93997051D01*
X97244547Y-93938166D01*
X97244547Y-93631871D01*
X97340942Y-93625269D01*
X97450408Y-93608045D01*
X97557091Y-93584075D01*
X97645137Y-93557235D01*
X97698693Y-93531399D01*
X97707712Y-93518655D01*
X97682463Y-93496236D01*
X97617948Y-93462012D01*
X97565877Y-93439101D01*
X97516038Y-93414246D01*
X97516038Y-93239512D01*
X97575385Y-93231808D01*
X97576400Y-93231425D01*
X97606195Y-93205602D01*
X97613364Y-93149734D01*
X97607061Y-93086261D01*
X97579997Y-92867631D01*
X97566505Y-92705867D01*
X97566529Y-92599643D01*
X97580017Y-92547635D01*
X97584570Y-92543467D01*
X97606422Y-92552386D01*
X97616922Y-92615581D01*
X97618177Y-92667896D01*
X97627675Y-92774607D01*
X97651807Y-92847698D01*
X97684027Y-92881261D01*
X97717790Y-92869391D01*
X97746551Y-92806183D01*
X97750950Y-92787695D01*
X97771664Y-92690577D01*
X97818094Y-92757812D01*
X97861016Y-92807501D01*
X97890763Y-92825048D01*
X97910541Y-92821877D01*
X97913157Y-92802922D01*
X97896358Y-92754020D01*
X97868845Y-92687212D01*
X97833324Y-92526414D01*
X97836461Y-92437034D01*
X97842881Y-92321917D01*
X97835782Y-92223921D01*
X97817258Y-92157822D01*
X97793987Y-92137753D01*
X97773896Y-92163271D01*
X97767588Y-92210022D01*
X97742328Y-92281094D01*
X97666516Y-92344757D01*
X97566574Y-92437694D01*
X97509057Y-92567871D01*
X97493545Y-92737232D01*
X97519618Y-92947721D01*
X97527906Y-92986619D01*
X97545694Y-93096550D01*
X97536845Y-93157533D01*
X97499607Y-93174957D01*
X97468765Y-93168695D01*
X97414904Y-93167739D01*
X97395352Y-93181544D01*
X97404505Y-93208452D01*
X97451906Y-93229751D01*
X97516038Y-93239512D01*
X97516038Y-93414246D01*
X97465878Y-93389229D01*
X97377858Y-93330960D01*
X97350690Y-93307337D01*
X97277226Y-93233873D01*
X97171290Y-93299004D01*
X97074694Y-93355411D01*
X96965626Y-93415053D01*
X96938353Y-93429251D01*
X96863992Y-93471404D01*
X96818277Y-93505075D01*
X96811353Y-93515487D01*
X96838304Y-93541382D01*
X96908337Y-93570243D01*
X97005216Y-93597708D01*
X97112710Y-93619418D01*
X97214586Y-93631009D01*
X97244547Y-93631871D01*
X97244547Y-93938166D01*
X97176055Y-93901660D01*
X97081677Y-93844766D01*
X96975698Y-93770701D01*
X96869578Y-93688861D01*
X96774776Y-93608643D01*
X96702750Y-93539444D01*
X96664960Y-93490659D01*
X96661941Y-93480069D01*
X96685552Y-93454746D01*
X96685552Y-93454746D01*
G37*
X96685552Y-93454746D02*
X96699294Y-93452942D01*
X96740939Y-93440434D01*
X96821926Y-93406555D01*
X96928455Y-93357280D01*
X96992610Y-93325942D01*
X97248572Y-93198577D01*
X97284419Y-92917973D01*
X97320967Y-92700909D01*
X97370102Y-92535019D01*
X97435054Y-92412448D01*
X97519057Y-92325344D01*
X97532233Y-92315734D01*
X97607690Y-92259554D01*
X97651020Y-92210151D01*
X97671172Y-92148077D01*
X97677090Y-92053886D01*
X97677484Y-91999983D01*
X97681113Y-91871906D01*
X97689907Y-91742779D01*
X97696944Y-91678748D01*
X97713831Y-91591614D01*
X97738408Y-91550119D01*
X97775694Y-91540106D01*
X97836275Y-91519210D01*
X97901691Y-91468545D01*
X97905181Y-91464856D01*
X97989055Y-91405097D01*
X98072961Y-91393852D01*
X98214908Y-91411893D01*
X98318467Y-91449861D01*
X98374661Y-91504070D01*
X98380324Y-91520016D01*
X98425295Y-91722491D01*
X98467819Y-91929914D01*
X98505859Y-92130787D01*
X98537380Y-92313609D01*
X98560345Y-92466883D01*
X98572720Y-92579108D01*
X98574300Y-92615673D01*
X98556726Y-92775647D01*
X98514535Y-92878064D01*
X98470913Y-92960173D01*
X98457828Y-93008199D01*
X98474263Y-93016120D01*
X98519205Y-92977917D01*
X98529458Y-92966572D01*
X98586213Y-92894422D01*
X98624967Y-92821314D01*
X98646287Y-92737464D01*
X98650741Y-92633086D01*
X98638897Y-92498397D01*
X98611322Y-92323611D01*
X98577250Y-92142883D01*
X98543883Y-91973811D01*
X98513516Y-91822016D01*
X98488403Y-91698614D01*
X98470802Y-91614718D01*
X98464023Y-91584930D01*
X98456630Y-91544273D01*
X98475453Y-91551730D01*
X98498740Y-91573297D01*
X98536419Y-91631832D01*
X98570103Y-91720301D01*
X98578471Y-91752591D01*
X98624027Y-91896296D01*
X98696230Y-92060368D01*
X98782744Y-92219870D01*
X98871239Y-92349868D01*
X98877989Y-92358190D01*
X99019082Y-92486661D01*
X99184888Y-92563830D01*
X99343509Y-92585989D01*
X99425967Y-92581672D01*
X99552029Y-92569837D01*
X99706248Y-92552153D01*
X99873173Y-92530291D01*
X99919934Y-92523670D01*
X100244065Y-92486206D01*
X100523839Y-92475385D01*
X100769002Y-92492449D01*
X100989294Y-92538639D01*
X101194461Y-92615197D01*
X101370001Y-92708537D01*
X101555700Y-92845354D01*
X101741837Y-93027886D01*
X101917836Y-93243105D01*
X102073123Y-93477983D01*
X102197122Y-93719494D01*
X102204419Y-93736459D01*
X102253789Y-93855226D01*
X102277223Y-93922543D01*
X102273013Y-93941595D01*
X102239450Y-93915567D01*
X102174826Y-93847642D01*
X102155867Y-93826952D01*
X102052732Y-93721776D01*
X101950681Y-93637619D01*
X101841100Y-93571793D01*
X101715374Y-93521612D01*
X101684184Y-93513897D01*
X101684184Y-93267082D01*
X101674131Y-93225547D01*
X101631801Y-93139327D01*
X101628630Y-93133403D01*
X101568078Y-93050772D01*
X101473756Y-92971955D01*
X101337384Y-92891185D01*
X101159235Y-92806462D01*
X101048486Y-92761034D01*
X100952340Y-92732632D01*
X100848580Y-92716896D01*
X100714986Y-92709461D01*
X100657961Y-92708031D01*
X100525623Y-92707263D01*
X100411009Y-92710199D01*
X100330580Y-92716247D01*
X100306843Y-92720696D01*
X100253524Y-92744457D01*
X100256912Y-92764172D01*
X100317734Y-92780026D01*
X100436721Y-92792199D01*
X100614603Y-92800875D01*
X100628824Y-92801342D01*
X100795780Y-92808063D01*
X100918136Y-92817467D01*
X101011057Y-92832048D01*
X101089707Y-92854299D01*
X101169252Y-92886712D01*
X101181250Y-92892170D01*
X101296020Y-92957500D01*
X101418954Y-93046779D01*
X101503908Y-93122051D01*
X101600751Y-93215487D01*
X101660284Y-93263779D01*
X101684184Y-93267082D01*
X101684184Y-93513897D01*
X101564891Y-93484387D01*
X101381035Y-93457432D01*
X101155193Y-93438060D01*
X100878752Y-93423583D01*
X100860412Y-93422813D01*
X100572947Y-93407793D01*
X100336442Y-93387366D01*
X100142169Y-93359126D01*
X99981400Y-93320671D01*
X99845405Y-93269597D01*
X99725457Y-93203499D01*
X99612825Y-93119972D01*
X99545240Y-93060595D01*
X99474198Y-93001812D01*
X99420615Y-92969818D01*
X99399173Y-92969610D01*
X99408979Y-93005990D01*
X99458173Y-93064761D01*
X99535674Y-93136311D01*
X99630397Y-93211025D01*
X99731260Y-93279292D01*
X99802859Y-93319764D01*
X100003060Y-93396163D01*
X100254662Y-93448213D01*
X100558972Y-93476129D01*
X100776073Y-93481417D01*
X101091484Y-93489803D01*
X101355993Y-93514100D01*
X101576738Y-93555970D01*
X101760858Y-93617073D01*
X101915490Y-93699070D01*
X102007860Y-93767965D01*
X102074844Y-93832400D01*
X102147504Y-93913938D01*
X102213866Y-93997525D01*
X102261958Y-94068107D01*
X102279824Y-94109903D01*
X102255911Y-94109512D01*
X102194266Y-94086570D01*
X102135382Y-94059249D01*
X101961901Y-93997196D01*
X101745390Y-93957387D01*
X101498320Y-93939898D01*
X101233162Y-93944804D01*
X100962387Y-93972182D01*
X100698465Y-94022108D01*
X100592545Y-94049852D01*
X100327512Y-94141792D01*
X100091390Y-94255580D01*
X99889587Y-94386664D01*
X99727511Y-94530492D01*
X99610569Y-94682510D01*
X99544170Y-94838167D01*
X99530647Y-94943844D01*
X99530647Y-95041654D01*
X99433530Y-94959764D01*
X99346181Y-94894701D01*
X99251679Y-94845426D01*
X99135519Y-94806662D01*
X98983198Y-94773133D01*
X98864045Y-94752631D01*
X98773921Y-94736828D01*
X98773921Y-94166603D01*
X98996160Y-94136549D01*
X99234172Y-94048944D01*
X99487882Y-93903790D01*
X99568000Y-93848337D01*
X99644252Y-93790007D01*
X99695775Y-93743858D01*
X99709941Y-93723979D01*
X99682324Y-93714280D01*
X99608482Y-93707305D01*
X99501933Y-93704081D01*
X99448471Y-93704112D01*
X99303407Y-93702115D01*
X99199198Y-93690968D01*
X99117262Y-93667792D01*
X99067471Y-93645081D01*
X98951918Y-93556551D01*
X98868515Y-93434898D01*
X98826866Y-93297799D01*
X98827514Y-93203293D01*
X98834001Y-93127615D01*
X98821043Y-93099852D01*
X98806794Y-93101027D01*
X98774098Y-93140251D01*
X98760089Y-93218315D01*
X98764559Y-93317359D01*
X98787300Y-93419523D01*
X98811173Y-93477956D01*
X98891878Y-93599216D01*
X98997290Y-93685282D01*
X99137817Y-93741931D01*
X99323867Y-93774940D01*
X99351353Y-93777741D01*
X99545588Y-93796224D01*
X99396177Y-93888222D01*
X99169542Y-94007358D01*
X98957852Y-94074727D01*
X98768647Y-94093535D01*
X98621324Y-94080974D01*
X98494046Y-94039861D01*
X98476473Y-94028884D01*
X98476473Y-93183636D01*
X98532047Y-93160083D01*
X98589953Y-93104830D01*
X98628697Y-93040989D01*
X98634177Y-93014074D01*
X98627862Y-92985634D01*
X98601067Y-92997061D01*
X98565015Y-93029015D01*
X98499648Y-93075298D01*
X98442160Y-93093989D01*
X98407709Y-93084686D01*
X98399861Y-93046097D01*
X98408087Y-92989400D01*
X98414046Y-92911591D01*
X98393590Y-92886327D01*
X98347626Y-92914541D01*
X98341330Y-92920671D01*
X98309655Y-92988199D01*
X98321281Y-93065729D01*
X98366835Y-93135021D01*
X98436944Y-93177841D01*
X98476473Y-93183636D01*
X98476473Y-94028884D01*
X98369962Y-93962346D01*
X98238235Y-93846428D01*
X98155801Y-93775583D01*
X98107334Y-93750695D01*
X98095582Y-93766754D01*
X98123292Y-93818755D01*
X98193214Y-93901690D01*
X98202564Y-93911420D01*
X98377050Y-94054042D01*
X98567526Y-94139102D01*
X98773921Y-94166603D01*
X98773921Y-94736828D01*
X98677860Y-94719982D01*
X98538143Y-94688068D01*
X98431798Y-94652736D01*
X98345728Y-94609830D01*
X98284896Y-94568919D01*
X98219010Y-94531028D01*
X98176749Y-94524869D01*
X98168802Y-94546686D01*
X98205857Y-94592724D01*
X98209058Y-94595572D01*
X98334169Y-94677486D01*
X98507384Y-94744017D01*
X98733263Y-94796787D01*
X98813471Y-94810413D01*
X98959876Y-94837485D01*
X99098593Y-94870084D01*
X99209805Y-94903230D01*
X99255329Y-94921427D01*
X99337811Y-94975145D01*
X99420261Y-95050925D01*
X99488079Y-95132592D01*
X99526666Y-95203974D01*
X99530647Y-95226422D01*
X99504355Y-95242879D01*
X99431762Y-95240384D01*
X99322296Y-95221579D01*
X99185385Y-95189107D01*
X99030455Y-95145610D01*
X98866933Y-95093729D01*
X98704247Y-95036108D01*
X98551823Y-94975387D01*
X98422129Y-94915742D01*
X98193745Y-94787954D01*
X97979409Y-94643452D01*
X97788528Y-94490161D01*
X97630510Y-94336006D01*
X97514764Y-94188911D01*
X97474104Y-94117214D01*
X97445904Y-94047832D01*
X97449284Y-93999381D01*
X97486785Y-93940556D01*
X97488659Y-93938042D01*
X97547653Y-93878817D01*
X97637712Y-93809453D01*
X97716351Y-93758877D01*
X97817330Y-93692440D01*
X97902498Y-93623001D01*
X97963097Y-93559612D01*
X97990369Y-93511323D01*
X97978432Y-93487995D01*
X97939381Y-93501037D01*
X97881829Y-93546832D01*
X97863482Y-93565420D01*
X97782008Y-93636539D01*
X97682445Y-93703144D01*
X97657673Y-93716613D01*
X97557761Y-93782292D01*
X97463636Y-93866823D01*
X97444668Y-93888300D01*
X97355027Y-93997051D01*
X97244547Y-93938166D01*
X97244547Y-93631871D01*
X97340942Y-93625269D01*
X97450408Y-93608045D01*
X97557091Y-93584075D01*
X97645137Y-93557235D01*
X97698693Y-93531399D01*
X97707712Y-93518655D01*
X97682463Y-93496236D01*
X97617948Y-93462012D01*
X97565877Y-93439101D01*
X97516038Y-93414246D01*
X97516038Y-93239512D01*
X97575385Y-93231808D01*
X97576400Y-93231425D01*
X97606195Y-93205602D01*
X97613364Y-93149734D01*
X97607061Y-93086261D01*
X97579997Y-92867631D01*
X97566505Y-92705867D01*
X97566529Y-92599643D01*
X97580017Y-92547635D01*
X97584570Y-92543467D01*
X97606422Y-92552386D01*
X97616922Y-92615581D01*
X97618177Y-92667896D01*
X97627675Y-92774607D01*
X97651807Y-92847698D01*
X97684027Y-92881261D01*
X97717790Y-92869391D01*
X97746551Y-92806183D01*
X97750950Y-92787695D01*
X97771664Y-92690577D01*
X97818094Y-92757812D01*
X97861016Y-92807501D01*
X97890763Y-92825048D01*
X97910541Y-92821877D01*
X97913157Y-92802922D01*
X97896358Y-92754020D01*
X97868845Y-92687212D01*
X97833324Y-92526414D01*
X97836461Y-92437034D01*
X97842881Y-92321917D01*
X97835782Y-92223921D01*
X97817258Y-92157822D01*
X97793987Y-92137753D01*
X97773896Y-92163271D01*
X97767588Y-92210022D01*
X97742328Y-92281094D01*
X97666516Y-92344757D01*
X97566574Y-92437694D01*
X97509057Y-92567871D01*
X97493545Y-92737232D01*
X97519618Y-92947721D01*
X97527906Y-92986619D01*
X97545694Y-93096550D01*
X97536845Y-93157533D01*
X97499607Y-93174957D01*
X97468765Y-93168695D01*
X97414904Y-93167739D01*
X97395352Y-93181544D01*
X97404505Y-93208452D01*
X97451906Y-93229751D01*
X97516038Y-93239512D01*
X97516038Y-93414246D01*
X97465878Y-93389229D01*
X97377858Y-93330960D01*
X97350690Y-93307337D01*
X97277226Y-93233873D01*
X97171290Y-93299004D01*
X97074694Y-93355411D01*
X96965626Y-93415053D01*
X96938353Y-93429251D01*
X96863992Y-93471404D01*
X96818277Y-93505075D01*
X96811353Y-93515487D01*
X96838304Y-93541382D01*
X96908337Y-93570243D01*
X97005216Y-93597708D01*
X97112710Y-93619418D01*
X97214586Y-93631009D01*
X97244547Y-93631871D01*
X97244547Y-93938166D01*
X97176055Y-93901660D01*
X97081677Y-93844766D01*
X96975698Y-93770701D01*
X96869578Y-93688861D01*
X96774776Y-93608643D01*
X96702750Y-93539444D01*
X96664960Y-93490659D01*
X96661941Y-93480069D01*
X96685552Y-93454746D01*
G36*
X97716315Y-91304804D02*
X97749495Y-91273364D01*
X97818921Y-91275666D01*
X97879647Y-91290000D01*
X97930350Y-91309698D01*
X97936420Y-91337700D01*
X97896739Y-91385771D01*
X97867967Y-91413106D01*
X97789882Y-91470686D01*
X97737798Y-91474519D01*
X97711447Y-91424546D01*
X97707824Y-91375753D01*
X97716315Y-91304804D01*
X97716315Y-91304804D01*
G37*
X97716315Y-91304804D02*
X97749495Y-91273364D01*
X97818921Y-91275666D01*
X97879647Y-91290000D01*
X97930350Y-91309698D01*
X97936420Y-91337700D01*
X97896739Y-91385771D01*
X97867967Y-91413106D01*
X97789882Y-91470686D01*
X97737798Y-91474519D01*
X97711447Y-91424546D01*
X97707824Y-91375753D01*
X97716315Y-91304804D01*
G36*
X99844942Y-116505233D02*
X99867101Y-116473752D01*
X99884040Y-116436930D01*
X99896455Y-116385834D01*
X99905046Y-116311535D01*
X99910510Y-116205100D01*
X99913547Y-116057600D01*
X99914855Y-115860102D01*
X99915133Y-115607766D01*
X99915133Y-114799533D01*
X101676200Y-114799533D01*
X101675170Y-115586933D01*
X101673118Y-115873721D01*
X101667885Y-116106546D01*
X101659631Y-116281837D01*
X101648515Y-116396017D01*
X101637093Y-116442067D01*
X101610236Y-116487380D01*
X101579691Y-116522688D01*
X101537251Y-116549238D01*
X101474712Y-116568277D01*
X101383867Y-116581053D01*
X101256511Y-116588813D01*
X101084438Y-116592803D01*
X100859443Y-116594271D01*
X100737388Y-116594377D01*
X100737388Y-116181685D01*
X100909648Y-116172625D01*
X101072892Y-116124920D01*
X101211556Y-116039377D01*
X101309627Y-115917662D01*
X101346568Y-115807927D01*
X101367422Y-115666664D01*
X101370967Y-115520312D01*
X101355983Y-115395315D01*
X101336342Y-115339174D01*
X101277245Y-115287051D01*
X101222507Y-115273667D01*
X101175059Y-115278085D01*
X101157866Y-115303222D01*
X101165501Y-115366903D01*
X101177540Y-115421416D01*
X101195813Y-115608721D01*
X101161401Y-115768168D01*
X101080286Y-115886317D01*
X101016004Y-115934645D01*
X100939610Y-115959464D01*
X100826573Y-115967670D01*
X100790006Y-115967933D01*
X100671287Y-115964360D01*
X100596215Y-115948163D01*
X100540850Y-115911131D01*
X100501461Y-115868952D01*
X100457149Y-115810654D01*
X100433017Y-115751600D01*
X100424650Y-115670676D01*
X100427631Y-115546763D01*
X100428852Y-115521818D01*
X100434090Y-115394454D01*
X100431340Y-115320324D01*
X100416954Y-115285069D01*
X100387285Y-115274330D01*
X100365830Y-115273667D01*
X100301942Y-115303773D01*
X100257368Y-115384132D01*
X100233046Y-115499801D01*
X100229916Y-115635840D01*
X100248916Y-115777308D01*
X100290985Y-115909262D01*
X100322138Y-115968912D01*
X100428069Y-116080636D01*
X100571673Y-116151291D01*
X100737388Y-116181685D01*
X100737388Y-116594377D01*
X100634336Y-116594467D01*
X99774750Y-116594467D01*
X99844942Y-116505233D01*
X99844942Y-116505233D01*
G37*
X99844942Y-116505233D02*
X99867101Y-116473752D01*
X99884040Y-116436930D01*
X99896455Y-116385834D01*
X99905046Y-116311535D01*
X99910510Y-116205100D01*
X99913547Y-116057600D01*
X99914855Y-115860102D01*
X99915133Y-115607766D01*
X99915133Y-114799533D01*
X101676200Y-114799533D01*
X101675170Y-115586933D01*
X101673118Y-115873721D01*
X101667885Y-116106546D01*
X101659631Y-116281837D01*
X101648515Y-116396017D01*
X101637093Y-116442067D01*
X101610236Y-116487380D01*
X101579691Y-116522688D01*
X101537251Y-116549238D01*
X101474712Y-116568277D01*
X101383867Y-116581053D01*
X101256511Y-116588813D01*
X101084438Y-116592803D01*
X100859443Y-116594271D01*
X100737388Y-116594377D01*
X100737388Y-116181685D01*
X100909648Y-116172625D01*
X101072892Y-116124920D01*
X101211556Y-116039377D01*
X101309627Y-115917662D01*
X101346568Y-115807927D01*
X101367422Y-115666664D01*
X101370967Y-115520312D01*
X101355983Y-115395315D01*
X101336342Y-115339174D01*
X101277245Y-115287051D01*
X101222507Y-115273667D01*
X101175059Y-115278085D01*
X101157866Y-115303222D01*
X101165501Y-115366903D01*
X101177540Y-115421416D01*
X101195813Y-115608721D01*
X101161401Y-115768168D01*
X101080286Y-115886317D01*
X101016004Y-115934645D01*
X100939610Y-115959464D01*
X100826573Y-115967670D01*
X100790006Y-115967933D01*
X100671287Y-115964360D01*
X100596215Y-115948163D01*
X100540850Y-115911131D01*
X100501461Y-115868952D01*
X100457149Y-115810654D01*
X100433017Y-115751600D01*
X100424650Y-115670676D01*
X100427631Y-115546763D01*
X100428852Y-115521818D01*
X100434090Y-115394454D01*
X100431340Y-115320324D01*
X100416954Y-115285069D01*
X100387285Y-115274330D01*
X100365830Y-115273667D01*
X100301942Y-115303773D01*
X100257368Y-115384132D01*
X100233046Y-115499801D01*
X100229916Y-115635840D01*
X100248916Y-115777308D01*
X100290985Y-115909262D01*
X100322138Y-115968912D01*
X100428069Y-116080636D01*
X100571673Y-116151291D01*
X100737388Y-116181685D01*
X100737388Y-116594377D01*
X100634336Y-116594467D01*
X99774750Y-116594467D01*
X99844942Y-116505233D01*
G36*
X101676200Y-112767533D02*
X101676200Y-114427000D01*
X101371400Y-114427000D01*
X101371400Y-113751305D01*
X101371400Y-113546467D01*
X100215434Y-113546467D01*
X100226150Y-113639600D01*
X100236866Y-113732734D01*
X100804133Y-113742019D01*
X101371400Y-113751305D01*
X101371400Y-114427000D01*
X99915133Y-114427000D01*
X99915133Y-112767533D01*
X101676200Y-112767533D01*
X101676200Y-112767533D01*
G37*
X101676200Y-112767533D02*
X101676200Y-114427000D01*
X101371400Y-114427000D01*
X101371400Y-113751305D01*
X101371400Y-113546467D01*
X100215434Y-113546467D01*
X100226150Y-113639600D01*
X100236866Y-113732734D01*
X100804133Y-113742019D01*
X101371400Y-113751305D01*
X101371400Y-114427000D01*
X99915133Y-114427000D01*
X99915133Y-112767533D01*
X101676200Y-112767533D01*
G36*
X98305900Y-107728098D02*
X98327135Y-107547120D01*
X98358529Y-107399106D01*
X98399180Y-107298509D01*
X98416499Y-107276087D01*
X98459461Y-107270988D01*
X98548069Y-107280265D01*
X98662779Y-107299905D01*
X98784048Y-107325897D01*
X98892331Y-107354228D01*
X98968084Y-107380888D01*
X98989041Y-107393620D01*
X98989183Y-107432332D01*
X98972347Y-107514882D01*
X98952237Y-107588740D01*
X98900202Y-107861790D01*
X98906226Y-108124132D01*
X98968208Y-108366534D01*
X99084050Y-108579762D01*
X99209121Y-108718699D01*
X99383996Y-108846917D01*
X99577815Y-108928378D01*
X99805994Y-108968293D01*
X99965933Y-108974467D01*
X100258777Y-108949290D01*
X100506556Y-108873659D01*
X100709564Y-108747427D01*
X100868092Y-108570446D01*
X100914711Y-108493582D01*
X100967145Y-108385474D01*
X100999197Y-108281261D01*
X101016937Y-108155152D01*
X101024691Y-108026200D01*
X101023672Y-107810474D01*
X101003124Y-107624417D01*
X100988958Y-107560533D01*
X100963981Y-107462757D01*
X100950101Y-107398178D01*
X100949286Y-107382733D01*
X100983938Y-107376873D01*
X101069111Y-107361258D01*
X101188795Y-107338838D01*
X101235840Y-107329937D01*
X101364835Y-107307539D01*
X101466168Y-107293837D01*
X101523331Y-107290916D01*
X101529804Y-107292782D01*
X101558114Y-107351593D01*
X101586500Y-107462268D01*
X101612948Y-107608969D01*
X101635445Y-107775859D01*
X101651976Y-107947099D01*
X101660527Y-108106853D01*
X101659085Y-108239283D01*
X101655367Y-108280200D01*
X101584390Y-108633620D01*
X101466320Y-108939014D01*
X101301573Y-109195863D01*
X101090567Y-109403648D01*
X100833720Y-109561849D01*
X100540482Y-109667619D01*
X100358114Y-109699704D01*
X100136194Y-109715814D01*
X99900966Y-109715949D01*
X99678672Y-109700106D01*
X99495557Y-109668285D01*
X99493207Y-109667677D01*
X99181837Y-109553653D01*
X98909500Y-109386309D01*
X98680854Y-109170395D01*
X98500561Y-108910663D01*
X98373280Y-108611863D01*
X98340592Y-108492516D01*
X98312170Y-108324247D01*
X98297516Y-108131117D01*
X98295726Y-107927582D01*
X98305900Y-107728098D01*
X98305900Y-107728098D01*
G37*
X98305900Y-107728098D02*
X98327135Y-107547120D01*
X98358529Y-107399106D01*
X98399180Y-107298509D01*
X98416499Y-107276087D01*
X98459461Y-107270988D01*
X98548069Y-107280265D01*
X98662779Y-107299905D01*
X98784048Y-107325897D01*
X98892331Y-107354228D01*
X98968084Y-107380888D01*
X98989041Y-107393620D01*
X98989183Y-107432332D01*
X98972347Y-107514882D01*
X98952237Y-107588740D01*
X98900202Y-107861790D01*
X98906226Y-108124132D01*
X98968208Y-108366534D01*
X99084050Y-108579762D01*
X99209121Y-108718699D01*
X99383996Y-108846917D01*
X99577815Y-108928378D01*
X99805994Y-108968293D01*
X99965933Y-108974467D01*
X100258777Y-108949290D01*
X100506556Y-108873659D01*
X100709564Y-108747427D01*
X100868092Y-108570446D01*
X100914711Y-108493582D01*
X100967145Y-108385474D01*
X100999197Y-108281261D01*
X101016937Y-108155152D01*
X101024691Y-108026200D01*
X101023672Y-107810474D01*
X101003124Y-107624417D01*
X100988958Y-107560533D01*
X100963981Y-107462757D01*
X100950101Y-107398178D01*
X100949286Y-107382733D01*
X100983938Y-107376873D01*
X101069111Y-107361258D01*
X101188795Y-107338838D01*
X101235840Y-107329937D01*
X101364835Y-107307539D01*
X101466168Y-107293837D01*
X101523331Y-107290916D01*
X101529804Y-107292782D01*
X101558114Y-107351593D01*
X101586500Y-107462268D01*
X101612948Y-107608969D01*
X101635445Y-107775859D01*
X101651976Y-107947099D01*
X101660527Y-108106853D01*
X101659085Y-108239283D01*
X101655367Y-108280200D01*
X101584390Y-108633620D01*
X101466320Y-108939014D01*
X101301573Y-109195863D01*
X101090567Y-109403648D01*
X100833720Y-109561849D01*
X100540482Y-109667619D01*
X100358114Y-109699704D01*
X100136194Y-109715814D01*
X99900966Y-109715949D01*
X99678672Y-109700106D01*
X99495557Y-109668285D01*
X99493207Y-109667677D01*
X99181837Y-109553653D01*
X98909500Y-109386309D01*
X98680854Y-109170395D01*
X98500561Y-108910663D01*
X98373280Y-108611863D01*
X98340592Y-108492516D01*
X98312170Y-108324247D01*
X98297516Y-108131117D01*
X98295726Y-107927582D01*
X98305900Y-107728098D01*
G36*
X98296569Y-105231197D02*
X98311061Y-105037457D01*
X98335453Y-104865066D01*
X98368582Y-104728603D01*
X98409289Y-104642650D01*
X98416499Y-104634487D01*
X98459461Y-104629388D01*
X98548069Y-104638665D01*
X98662779Y-104658305D01*
X98784048Y-104684297D01*
X98892331Y-104712628D01*
X98968084Y-104739288D01*
X98989041Y-104752020D01*
X98989183Y-104790732D01*
X98972347Y-104873282D01*
X98952237Y-104947140D01*
X98900524Y-105220029D01*
X98907009Y-105483272D01*
X98969567Y-105727251D01*
X99086075Y-105942351D01*
X99200828Y-106072685D01*
X99364049Y-106196914D01*
X99548579Y-106278537D01*
X99768417Y-106322178D01*
X99988650Y-106332867D01*
X100273931Y-106308289D01*
X100514119Y-106233920D01*
X100711057Y-106108808D01*
X100866582Y-105932001D01*
X100913428Y-105854339D01*
X100966403Y-105745547D01*
X100998770Y-105641681D01*
X101016669Y-105516812D01*
X101024691Y-105384600D01*
X101023672Y-105168874D01*
X101003124Y-104982817D01*
X100988958Y-104918933D01*
X100963180Y-104821083D01*
X100947282Y-104756485D01*
X100944561Y-104741087D01*
X100977031Y-104735630D01*
X101060694Y-104721104D01*
X101180038Y-104700207D01*
X101233613Y-104690789D01*
X101364149Y-104669498D01*
X101466676Y-104655939D01*
X101525032Y-104652122D01*
X101532303Y-104653681D01*
X101547149Y-104691203D01*
X101571479Y-104773935D01*
X101590874Y-104847912D01*
X101634083Y-105089223D01*
X101654912Y-105361862D01*
X101651663Y-105632658D01*
X101638307Y-105774067D01*
X101585075Y-106009795D01*
X101492606Y-106252150D01*
X101373417Y-106471005D01*
X101314388Y-106553807D01*
X101184742Y-106684458D01*
X101010266Y-106812743D01*
X100812856Y-106924638D01*
X100614403Y-107006117D01*
X100602444Y-107009886D01*
X100425047Y-107048236D01*
X100206069Y-107071285D01*
X99970015Y-107078570D01*
X99741392Y-107069632D01*
X99544705Y-107044009D01*
X99487343Y-107030855D01*
X99190255Y-106918444D01*
X98923414Y-106751473D01*
X98694351Y-106537944D01*
X98510593Y-106285858D01*
X98379670Y-106003214D01*
X98324101Y-105794698D01*
X98301928Y-105624398D01*
X98293138Y-105431704D01*
X98296569Y-105231197D01*
X98296569Y-105231197D01*
G37*
X98296569Y-105231197D02*
X98311061Y-105037457D01*
X98335453Y-104865066D01*
X98368582Y-104728603D01*
X98409289Y-104642650D01*
X98416499Y-104634487D01*
X98459461Y-104629388D01*
X98548069Y-104638665D01*
X98662779Y-104658305D01*
X98784048Y-104684297D01*
X98892331Y-104712628D01*
X98968084Y-104739288D01*
X98989041Y-104752020D01*
X98989183Y-104790732D01*
X98972347Y-104873282D01*
X98952237Y-104947140D01*
X98900524Y-105220029D01*
X98907009Y-105483272D01*
X98969567Y-105727251D01*
X99086075Y-105942351D01*
X99200828Y-106072685D01*
X99364049Y-106196914D01*
X99548579Y-106278537D01*
X99768417Y-106322178D01*
X99988650Y-106332867D01*
X100273931Y-106308289D01*
X100514119Y-106233920D01*
X100711057Y-106108808D01*
X100866582Y-105932001D01*
X100913428Y-105854339D01*
X100966403Y-105745547D01*
X100998770Y-105641681D01*
X101016669Y-105516812D01*
X101024691Y-105384600D01*
X101023672Y-105168874D01*
X101003124Y-104982817D01*
X100988958Y-104918933D01*
X100963180Y-104821083D01*
X100947282Y-104756485D01*
X100944561Y-104741087D01*
X100977031Y-104735630D01*
X101060694Y-104721104D01*
X101180038Y-104700207D01*
X101233613Y-104690789D01*
X101364149Y-104669498D01*
X101466676Y-104655939D01*
X101525032Y-104652122D01*
X101532303Y-104653681D01*
X101547149Y-104691203D01*
X101571479Y-104773935D01*
X101590874Y-104847912D01*
X101634083Y-105089223D01*
X101654912Y-105361862D01*
X101651663Y-105632658D01*
X101638307Y-105774067D01*
X101585075Y-106009795D01*
X101492606Y-106252150D01*
X101373417Y-106471005D01*
X101314388Y-106553807D01*
X101184742Y-106684458D01*
X101010266Y-106812743D01*
X100812856Y-106924638D01*
X100614403Y-107006117D01*
X100602444Y-107009886D01*
X100425047Y-107048236D01*
X100206069Y-107071285D01*
X99970015Y-107078570D01*
X99741392Y-107069632D01*
X99544705Y-107044009D01*
X99487343Y-107030855D01*
X99190255Y-106918444D01*
X98923414Y-106751473D01*
X98694351Y-106537944D01*
X98510593Y-106285858D01*
X98379670Y-106003214D01*
X98324101Y-105794698D01*
X98301928Y-105624398D01*
X98293138Y-105431704D01*
X98296569Y-105231197D01*
G36*
X98931472Y-110125934D02*
X98940703Y-110744000D01*
X98949933Y-111362067D01*
X99610333Y-111381453D01*
X99610333Y-110193667D01*
X100218334Y-110193667D01*
X100236866Y-111362067D01*
X100617867Y-111371643D01*
X100998867Y-111381219D01*
X100998867Y-110058200D01*
X101608467Y-110058200D01*
X101608467Y-112090200D01*
X98323400Y-112090200D01*
X98323400Y-110125934D01*
X98931472Y-110125934D01*
X98931472Y-110125934D01*
G37*
X98931472Y-110125934D02*
X98940703Y-110744000D01*
X98949933Y-111362067D01*
X99610333Y-111381453D01*
X99610333Y-110193667D01*
X100218334Y-110193667D01*
X100236866Y-111362067D01*
X100617867Y-111371643D01*
X100998867Y-111381219D01*
X100998867Y-110058200D01*
X101608467Y-110058200D01*
X101608467Y-112090200D01*
X98323400Y-112090200D01*
X98323400Y-110125934D01*
X98931472Y-110125934D01*
G36*
X101608467Y-103454200D02*
X101608467Y-104165400D01*
X98323400Y-104165400D01*
X98323400Y-103454200D01*
X101608467Y-103454200D01*
X101608467Y-103454200D01*
G37*
X101608467Y-103454200D02*
X101608467Y-104165400D01*
X98323400Y-104165400D01*
X98323400Y-103454200D01*
X101608467Y-103454200D01*
G36*
X97688551Y-116552377D02*
X97688869Y-116552134D01*
X97727877Y-116514063D01*
X97758158Y-116460787D01*
X97780757Y-116384109D01*
X97796718Y-116275833D01*
X97807086Y-116127765D01*
X97812906Y-115931708D01*
X97815221Y-115679467D01*
X97815400Y-115559329D01*
X97815400Y-114799533D01*
X99542600Y-114799533D01*
X99542600Y-115607766D01*
X99542312Y-115863294D01*
X99540985Y-116060020D01*
X99537918Y-116206876D01*
X99532414Y-116312792D01*
X99523774Y-116386700D01*
X99511299Y-116437531D01*
X99494292Y-116474215D01*
X99472408Y-116505233D01*
X99402217Y-116594467D01*
X99305533Y-116594467D01*
X99305533Y-116086467D01*
X99305533Y-115375267D01*
X99220867Y-115375267D01*
X99177801Y-115378432D01*
X99152558Y-115397440D01*
X99140380Y-115446558D01*
X99136511Y-115540053D01*
X99136200Y-115629267D01*
X99136200Y-115883267D01*
X98831400Y-115883267D01*
X98831400Y-115409134D01*
X98628200Y-115409134D01*
X98628200Y-115883267D01*
X98360234Y-115883267D01*
X98350284Y-115637733D01*
X98343867Y-115511148D01*
X98333705Y-115437788D01*
X98314216Y-115403170D01*
X98279819Y-115392810D01*
X98255666Y-115392200D01*
X98217568Y-115394433D01*
X98192656Y-115409270D01*
X98177614Y-115448919D01*
X98169124Y-115525587D01*
X98163871Y-115651482D01*
X98161348Y-115739333D01*
X98151697Y-116086467D01*
X99305533Y-116086467D01*
X99305533Y-116594467D01*
X98517669Y-116594467D01*
X98244903Y-116593920D01*
X98033755Y-116592071D01*
X97878120Y-116588608D01*
X97771889Y-116583219D01*
X97708955Y-116575592D01*
X97683211Y-116565415D01*
X97688551Y-116552377D01*
X97688551Y-116552377D01*
G37*
X97688551Y-116552377D02*
X97688869Y-116552134D01*
X97727877Y-116514063D01*
X97758158Y-116460787D01*
X97780757Y-116384109D01*
X97796718Y-116275833D01*
X97807086Y-116127765D01*
X97812906Y-115931708D01*
X97815221Y-115679467D01*
X97815400Y-115559329D01*
X97815400Y-114799533D01*
X99542600Y-114799533D01*
X99542600Y-115607766D01*
X99542312Y-115863294D01*
X99540985Y-116060020D01*
X99537918Y-116206876D01*
X99532414Y-116312792D01*
X99523774Y-116386700D01*
X99511299Y-116437531D01*
X99494292Y-116474215D01*
X99472408Y-116505233D01*
X99402217Y-116594467D01*
X99305533Y-116594467D01*
X99305533Y-116086467D01*
X99305533Y-115375267D01*
X99220867Y-115375267D01*
X99177801Y-115378432D01*
X99152558Y-115397440D01*
X99140380Y-115446558D01*
X99136511Y-115540053D01*
X99136200Y-115629267D01*
X99136200Y-115883267D01*
X98831400Y-115883267D01*
X98831400Y-115409134D01*
X98628200Y-115409134D01*
X98628200Y-115883267D01*
X98360234Y-115883267D01*
X98350284Y-115637733D01*
X98343867Y-115511148D01*
X98333705Y-115437788D01*
X98314216Y-115403170D01*
X98279819Y-115392810D01*
X98255666Y-115392200D01*
X98217568Y-115394433D01*
X98192656Y-115409270D01*
X98177614Y-115448919D01*
X98169124Y-115525587D01*
X98163871Y-115651482D01*
X98161348Y-115739333D01*
X98151697Y-116086467D01*
X99305533Y-116086467D01*
X99305533Y-116594467D01*
X98517669Y-116594467D01*
X98244903Y-116593920D01*
X98033755Y-116592071D01*
X97878120Y-116588608D01*
X97771889Y-116583219D01*
X97708955Y-116575592D01*
X97683211Y-116565415D01*
X97688551Y-116552377D01*
G36*
X99542600Y-112767533D02*
X99542600Y-114427000D01*
X98722421Y-114427000D01*
X98722421Y-114088281D01*
X98927383Y-114063637D01*
X99093382Y-113992367D01*
X99213842Y-113878660D01*
X99280717Y-113732734D01*
X99297096Y-113618693D01*
X99300577Y-113480866D01*
X99291697Y-113350036D01*
X99272505Y-113260805D01*
X99223788Y-113197121D01*
X99155635Y-113170793D01*
X99095919Y-113191637D01*
X99092231Y-113232308D01*
X99103320Y-113314755D01*
X99112764Y-113360317D01*
X99129798Y-113544504D01*
X99092104Y-113694262D01*
X99003533Y-113804268D01*
X98867935Y-113869200D01*
X98733075Y-113885133D01*
X98561922Y-113862522D01*
X98440257Y-113795082D01*
X98388406Y-113727639D01*
X98361195Y-113635544D01*
X98348485Y-113506353D01*
X98351246Y-113369336D01*
X98370448Y-113253766D01*
X98372487Y-113247063D01*
X98379097Y-113192686D01*
X98339179Y-113174835D01*
X98311375Y-113173934D01*
X98238728Y-113204810D01*
X98187470Y-113290085D01*
X98161483Y-113418725D01*
X98164649Y-113579698D01*
X98165626Y-113588264D01*
X98214237Y-113788759D01*
X98306809Y-113937756D01*
X98443899Y-114035753D01*
X98626062Y-114083250D01*
X98722421Y-114088281D01*
X98722421Y-114427000D01*
X97815400Y-114427000D01*
X97815400Y-112767533D01*
X99542600Y-112767533D01*
X99542600Y-112767533D01*
G37*
X99542600Y-112767533D02*
X99542600Y-114427000D01*
X98722421Y-114427000D01*
X98722421Y-114088281D01*
X98927383Y-114063637D01*
X99093382Y-113992367D01*
X99213842Y-113878660D01*
X99280717Y-113732734D01*
X99297096Y-113618693D01*
X99300577Y-113480866D01*
X99291697Y-113350036D01*
X99272505Y-113260805D01*
X99223788Y-113197121D01*
X99155635Y-113170793D01*
X99095919Y-113191637D01*
X99092231Y-113232308D01*
X99103320Y-113314755D01*
X99112764Y-113360317D01*
X99129798Y-113544504D01*
X99092104Y-113694262D01*
X99003533Y-113804268D01*
X98867935Y-113869200D01*
X98733075Y-113885133D01*
X98561922Y-113862522D01*
X98440257Y-113795082D01*
X98388406Y-113727639D01*
X98361195Y-113635544D01*
X98348485Y-113506353D01*
X98351246Y-113369336D01*
X98370448Y-113253766D01*
X98372487Y-113247063D01*
X98379097Y-113192686D01*
X98339179Y-113174835D01*
X98311375Y-113173934D01*
X98238728Y-113204810D01*
X98187470Y-113290085D01*
X98161483Y-113418725D01*
X98164649Y-113579698D01*
X98165626Y-113588264D01*
X98214237Y-113788759D01*
X98306809Y-113937756D01*
X98443899Y-114035753D01*
X98626062Y-114083250D01*
X98722421Y-114088281D01*
X98722421Y-114427000D01*
X97815400Y-114427000D01*
X97815400Y-112767533D01*
X99542600Y-112767533D01*
G36*
X97659472Y-115994039D02*
X97674865Y-116004139D01*
X97677259Y-116038489D01*
X97668989Y-116074626D01*
X97656798Y-116058950D01*
X97652761Y-116006021D01*
X97659472Y-115994039D01*
X97659472Y-115994039D01*
G37*
X97659472Y-115994039D02*
X97674865Y-116004139D01*
X97677259Y-116038489D01*
X97668989Y-116074626D01*
X97656798Y-116058950D01*
X97652761Y-116006021D01*
X97659472Y-115994039D01*
G36*
X97290929Y-112852943D02*
X97351438Y-112836521D01*
X97392067Y-112835267D01*
X97470866Y-112837402D01*
X97510728Y-112842649D01*
X97511865Y-112843733D01*
X97515497Y-112891304D01*
X97521578Y-112997703D01*
X97529710Y-113154085D01*
X97539491Y-113351605D01*
X97550523Y-113581419D01*
X97562405Y-113834680D01*
X97574737Y-114102545D01*
X97587121Y-114376168D01*
X97599155Y-114646704D01*
X97610440Y-114905308D01*
X97620577Y-115143135D01*
X97629165Y-115351340D01*
X97635804Y-115521078D01*
X97640095Y-115643503D01*
X97641638Y-115709772D01*
X97641614Y-115713933D01*
X97637158Y-115720669D01*
X97625508Y-115665848D01*
X97607476Y-115555168D01*
X97583878Y-115394332D01*
X97555527Y-115189039D01*
X97523237Y-114944989D01*
X97487821Y-114667884D01*
X97457880Y-114427000D01*
X97419919Y-114116945D01*
X97384585Y-113826401D01*
X97352733Y-113562533D01*
X97325218Y-113332506D01*
X97302892Y-113143489D01*
X97286610Y-113002645D01*
X97277226Y-112917143D01*
X97275227Y-112894533D01*
X97290929Y-112852943D01*
X97290929Y-112852943D01*
G37*
X97290929Y-112852943D02*
X97351438Y-112836521D01*
X97392067Y-112835267D01*
X97470866Y-112837402D01*
X97510728Y-112842649D01*
X97511865Y-112843733D01*
X97515497Y-112891304D01*
X97521578Y-112997703D01*
X97529710Y-113154085D01*
X97539491Y-113351605D01*
X97550523Y-113581419D01*
X97562405Y-113834680D01*
X97574737Y-114102545D01*
X97587121Y-114376168D01*
X97599155Y-114646704D01*
X97610440Y-114905308D01*
X97620577Y-115143135D01*
X97629165Y-115351340D01*
X97635804Y-115521078D01*
X97640095Y-115643503D01*
X97641638Y-115709772D01*
X97641614Y-115713933D01*
X97637158Y-115720669D01*
X97625508Y-115665848D01*
X97607476Y-115555168D01*
X97583878Y-115394332D01*
X97555527Y-115189039D01*
X97523237Y-114944989D01*
X97487821Y-114667884D01*
X97457880Y-114427000D01*
X97419919Y-114116945D01*
X97384585Y-113826401D01*
X97352733Y-113562533D01*
X97325218Y-113332506D01*
X97302892Y-113143489D01*
X97286610Y-113002645D01*
X97277226Y-112917143D01*
X97275227Y-112894533D01*
X97290929Y-112852943D01*
G36*
X97591739Y-116095639D02*
X97607132Y-116105739D01*
X97609526Y-116140089D01*
X97601255Y-116176226D01*
X97589065Y-116160550D01*
X97585028Y-116107621D01*
X97591739Y-116095639D01*
X97591739Y-116095639D01*
G37*
X97591739Y-116095639D02*
X97607132Y-116105739D01*
X97609526Y-116140089D01*
X97601255Y-116176226D01*
X97589065Y-116160550D01*
X97585028Y-116107621D01*
X97591739Y-116095639D01*
G36*
X96998531Y-113419319D02*
X97071793Y-113411210D01*
X97087266Y-113411000D01*
X97173025Y-113422203D01*
X97205770Y-113452736D01*
X97205800Y-113453908D01*
X97210701Y-113496175D01*
X97224655Y-113597679D01*
X97246535Y-113750693D01*
X97275214Y-113947493D01*
X97309567Y-114180350D01*
X97348468Y-114441538D01*
X97390789Y-114723330D01*
X97392067Y-114731800D01*
X97445355Y-115086846D01*
X97488601Y-115379189D01*
X97522347Y-115613027D01*
X97547134Y-115792557D01*
X97563504Y-115921979D01*
X97571999Y-116005489D01*
X97573160Y-116047285D01*
X97567528Y-116051567D01*
X97560272Y-116035667D01*
X97549735Y-115995009D01*
X97526451Y-115897521D01*
X97492410Y-115751944D01*
X97449601Y-115567019D01*
X97400012Y-115351488D01*
X97345632Y-115114092D01*
X97288449Y-114863573D01*
X97230453Y-114608673D01*
X97173632Y-114358132D01*
X97119975Y-114120692D01*
X97071471Y-113905094D01*
X97030108Y-113720081D01*
X96997875Y-113574393D01*
X96976760Y-113476772D01*
X96968754Y-113435960D01*
X96968733Y-113435554D01*
X96998531Y-113419319D01*
X96998531Y-113419319D01*
G37*
X96998531Y-113419319D02*
X97071793Y-113411210D01*
X97087266Y-113411000D01*
X97173025Y-113422203D01*
X97205770Y-113452736D01*
X97205800Y-113453908D01*
X97210701Y-113496175D01*
X97224655Y-113597679D01*
X97246535Y-113750693D01*
X97275214Y-113947493D01*
X97309567Y-114180350D01*
X97348468Y-114441538D01*
X97390789Y-114723330D01*
X97392067Y-114731800D01*
X97445355Y-115086846D01*
X97488601Y-115379189D01*
X97522347Y-115613027D01*
X97547134Y-115792557D01*
X97563504Y-115921979D01*
X97571999Y-116005489D01*
X97573160Y-116047285D01*
X97567528Y-116051567D01*
X97560272Y-116035667D01*
X97549735Y-115995009D01*
X97526451Y-115897521D01*
X97492410Y-115751944D01*
X97449601Y-115567019D01*
X97400012Y-115351488D01*
X97345632Y-115114092D01*
X97288449Y-114863573D01*
X97230453Y-114608673D01*
X97173632Y-114358132D01*
X97119975Y-114120692D01*
X97071471Y-113905094D01*
X97030108Y-113720081D01*
X96997875Y-113574393D01*
X96976760Y-113476772D01*
X96968754Y-113435960D01*
X96968733Y-113435554D01*
X96998531Y-113419319D01*
G36*
X97521889Y-116233222D02*
X97542022Y-116237871D01*
X97544467Y-116255800D01*
X97532075Y-116283676D01*
X97521889Y-116278378D01*
X97517836Y-116238186D01*
X97521889Y-116233222D01*
X97521889Y-116233222D01*
G37*
X97521889Y-116233222D02*
X97542022Y-116237871D01*
X97544467Y-116255800D01*
X97532075Y-116283676D01*
X97521889Y-116278378D01*
X97517836Y-116238186D01*
X97521889Y-116233222D01*
G36*
X96875748Y-114026678D02*
X96952516Y-114024380D01*
X96993260Y-114033838D01*
X97005390Y-114070047D01*
X97030574Y-114162601D01*
X97066492Y-114301881D01*
X97110823Y-114478270D01*
X97161247Y-114682146D01*
X97215443Y-114903891D01*
X97271090Y-115133885D01*
X97325869Y-115362509D01*
X97377459Y-115580144D01*
X97423538Y-115777171D01*
X97461787Y-115943970D01*
X97489885Y-116070922D01*
X97505511Y-116148408D01*
X97507927Y-116167269D01*
X97496984Y-116145507D01*
X97467109Y-116066552D01*
X97420782Y-115937471D01*
X97360485Y-115765330D01*
X97288698Y-115557195D01*
X97207902Y-115320133D01*
X97140753Y-115121267D01*
X96776251Y-114037533D01*
X96875748Y-114026678D01*
X96875748Y-114026678D01*
G37*
X96875748Y-114026678D02*
X96952516Y-114024380D01*
X96993260Y-114033838D01*
X97005390Y-114070047D01*
X97030574Y-114162601D01*
X97066492Y-114301881D01*
X97110823Y-114478270D01*
X97161247Y-114682146D01*
X97215443Y-114903891D01*
X97271090Y-115133885D01*
X97325869Y-115362509D01*
X97377459Y-115580144D01*
X97423538Y-115777171D01*
X97461787Y-115943970D01*
X97489885Y-116070922D01*
X97505511Y-116148408D01*
X97507927Y-116167269D01*
X97496984Y-116145507D01*
X97467109Y-116066552D01*
X97420782Y-115937471D01*
X97360485Y-115765330D01*
X97288698Y-115557195D01*
X97207902Y-115320133D01*
X97140753Y-115121267D01*
X96776251Y-114037533D01*
X96875748Y-114026678D01*
G36*
X97454155Y-116334822D02*
X97474289Y-116339471D01*
X97476733Y-116357400D01*
X97464342Y-116385276D01*
X97454155Y-116379978D01*
X97450102Y-116339786D01*
X97454155Y-116334822D01*
X97454155Y-116334822D01*
G37*
X97454155Y-116334822D02*
X97474289Y-116339471D01*
X97476733Y-116357400D01*
X97464342Y-116385276D01*
X97454155Y-116379978D01*
X97450102Y-116339786D01*
X97454155Y-116334822D01*
G36*
X96691117Y-114603562D02*
X96755376Y-114601343D01*
X96767799Y-114602394D01*
X96878637Y-114613267D01*
X97158963Y-115426067D01*
X97254023Y-115702832D01*
X97327721Y-115920300D01*
X97381429Y-116082981D01*
X97416518Y-116195383D01*
X97434358Y-116262015D01*
X97436320Y-116287384D01*
X97423775Y-116276001D01*
X97411243Y-116255800D01*
X97389814Y-116211824D01*
X97345111Y-116114887D01*
X97281203Y-115973998D01*
X97202160Y-115798164D01*
X97112052Y-115596393D01*
X97036378Y-115426067D01*
X96941242Y-115211867D01*
X96854784Y-115017983D01*
X96780898Y-114853085D01*
X96723476Y-114725839D01*
X96686412Y-114644916D01*
X96674020Y-114619328D01*
X96691117Y-114603562D01*
X96691117Y-114603562D01*
G37*
X96691117Y-114603562D02*
X96755376Y-114601343D01*
X96767799Y-114602394D01*
X96878637Y-114613267D01*
X97158963Y-115426067D01*
X97254023Y-115702832D01*
X97327721Y-115920300D01*
X97381429Y-116082981D01*
X97416518Y-116195383D01*
X97434358Y-116262015D01*
X97436320Y-116287384D01*
X97423775Y-116276001D01*
X97411243Y-116255800D01*
X97389814Y-116211824D01*
X97345111Y-116114887D01*
X97281203Y-115973998D01*
X97202160Y-115798164D01*
X97112052Y-115596393D01*
X97036378Y-115426067D01*
X96941242Y-115211867D01*
X96854784Y-115017983D01*
X96780898Y-114853085D01*
X96723476Y-114725839D01*
X96686412Y-114644916D01*
X96674020Y-114619328D01*
X96691117Y-114603562D01*
M02*
