M48
; DRILL file {KiCad (5.1.4)-1} date 29/10/2019 7:11:43 p. m.
; FORMAT={-:-/ absolute / inch / decimal}
; #@! TF.CreationDate,2019-10-29T19:11:43-05:00
; #@! TF.GenerationSoftware,Kicad,Pcbnew,(5.1.4)-1
; #@! TF.FileFunction,Plated,1,2,PTH
FMAT,2
INCH
T1C0.0157
T2C0.0276
T3C0.0394
T4C0.0433
T5C0.1083
%
G90
G05
T1
X3.865Y-2.871
X3.865Y-2.921
X4.44Y-3.646
X4.54Y-3.296
X4.69Y-3.296
X4.965Y-3.296
X5.14Y-3.296
X5.365Y-3.296
X5.365Y-3.296
T2
X4.315Y-3.396
X4.315Y-3.496
X4.315Y-3.596
X4.315Y-3.696
X4.315Y-3.796
X4.515Y-3.396
X4.515Y-3.496
X4.515Y-3.596
X4.515Y-3.696
X4.515Y-3.796
X5.215Y-3.396
X5.215Y-3.496
X5.215Y-3.596
X5.215Y-3.696
X5.215Y-3.796
X5.415Y-3.396
X5.415Y-3.496
X5.415Y-3.596
X5.415Y-3.696
X5.415Y-3.796
X4.615Y-3.396
X4.615Y-3.496
X4.615Y-3.596
X4.615Y-3.696
X4.615Y-3.796
X4.815Y-3.396
X4.815Y-3.496
X4.815Y-3.596
X4.815Y-3.696
X4.815Y-3.796
X4.915Y-3.396
X4.915Y-3.496
X4.915Y-3.596
X4.915Y-3.696
X4.915Y-3.796
X5.115Y-3.396
X5.115Y-3.496
X5.115Y-3.596
X5.115Y-3.696
X5.115Y-3.796
T3
X4.215Y-4.296
X4.215Y-4.396
X4.215Y-4.496
X5.415Y-4.296
X5.415Y-4.396
X5.415Y-4.496
X4.415Y-4.296
X4.415Y-4.396
X4.415Y-4.496
X5.015Y-4.296
X5.015Y-4.396
X5.015Y-4.496
X5.215Y-4.296
X5.215Y-4.396
X5.215Y-4.496
X5.615Y-4.296
X5.615Y-4.396
X5.615Y-4.496
X4.815Y-4.296
X4.815Y-4.396
X4.815Y-4.496
X3.915Y-2.696
X3.915Y-2.796
X4.015Y-2.696
X4.015Y-2.796
X4.115Y-2.696
X4.115Y-2.796
X4.215Y-2.696
X4.215Y-2.796
X4.315Y-2.696
X4.315Y-2.796
X4.415Y-2.696
X4.415Y-2.796
X4.515Y-2.696
X4.515Y-2.796
X4.615Y-2.696
X4.615Y-2.796
X4.715Y-2.696
X4.715Y-2.796
X4.815Y-2.696
X4.815Y-2.796
X4.915Y-2.696
X4.915Y-2.796
X5.015Y-2.696
X5.015Y-2.796
X5.115Y-2.696
X5.115Y-2.796
X5.215Y-2.696
X5.215Y-2.796
X5.315Y-2.696
X5.315Y-2.796
X5.415Y-2.696
X5.415Y-2.796
X5.515Y-2.696
X5.515Y-2.796
X5.615Y-2.696
X5.615Y-2.796
X5.715Y-2.696
X5.715Y-2.796
X5.815Y-2.696
X5.815Y-2.796
X4.615Y-4.296
X4.615Y-4.396
X4.615Y-4.496
T4
X5.815Y-3.2401
X5.815Y-3.496
X5.9922Y-3.2401
X5.9922Y-3.496
X5.815Y-3.696
X5.815Y-3.9519
X5.9922Y-3.696
X5.9922Y-3.9519
T5
X3.7228Y-4.646
X6.0063Y-2.7475
X3.7228Y-2.7475
X6.015Y-4.646
T0
M30
